<svg width="1319" height="1573" xmlns="http://www.w3.org/2000/svg" xmlns:xlink="http://www.w3.org/1999/xlink" overflow="hidden"><defs><clipPath id="clip0"><rect x="701" y="267" width="1319" height="1573"/></clipPath><clipPath id="clip1"><rect x="851" y="462" width="1025" height="1066"/></clipPath><clipPath id="clip2"><rect x="851" y="462" width="1025" height="1066"/></clipPath></defs><g clip-path="url(#clip0)" transform="translate(-701 -267)"><path d="M2010.84 267.999 714.001 267.999 714.001 467.273 714.001 754.656C739.795 1197.02 983.978 1596.06 1362.85 1815 1741.97 1596.64 1986.09 1197.43 2011 755.077L2011 267.999 2010.84 267.999Z" fill="#A70111" fill-rule="evenodd"/><path d="M2011 639.432 1978.87 601.443 1979.06 601.302 1978.73 601.255 1978.59 601.068 1978.41 601.209 1879.61 588.999 1861.25 687.898 1860.83 688.203 1947.02 807.257 1931.35 891.696 1831.76 879.416 1754.59 772.806 1754.78 772.666 1754.45 772.642 1754.31 772.431 1754.13 772.595 1655.33 760.385 1636.97 859.284 1636.55 859.589 1710.78 962.098 1696.29 1082.11 1597.19 1071.57 1560.35 1017.76 1537.52 977.8 1537.73 977.682 1537.41 977.612 1537.29 977.401 1537.08 977.518 1440.16 954.598 1411.34 1050.92 1411.16 1051.04 1463.53 1142.76 1362.8 1256.78 1261.43 1142.76 1310.32 1057.69 1314.05 1051.18 1313.61 1050.92 1284.8 954.598 1187.88 977.518 1187.67 977.401 1187.55 977.612 1187.23 977.682 1187.44 977.8 1164.62 1017.76 1127.77 1071.57 1028.67 1082.11 1014.2 962.098 1088.4 859.589 1087.99 859.284 1069.65 760.385 970.828 772.595 970.643 772.431 970.504 772.642 970.179 772.666 970.365 772.806 893.193 879.416 793.606 891.696 777.959 807.257 864.124 688.203 863.707 687.898 845.37 588.999 746.548 601.209 746.363 601.068 746.223 601.255 745.899 601.302 746.084 601.443 714.001 641.096 714.001 754.526C739.795 1196.94 983.978 1596.03 1362.85 1815 1741.97 1596.61 1986.09 1197.35 2011 754.948L2011 639.432Z" fill="#1F3B7B" fill-rule="evenodd"/><path d="M2008.34 280.499 711.501 280.499 711.501 479.773 711.501 767.156C737.295 1209.52 981.478 1608.56 1360.35 1827.5 1739.47 1609.14 1983.59 1209.93 2008.5 767.577L2008.5 280.499 2008.34 280.499Z" stroke="#FFFFFF" stroke-width="20.625" stroke-miterlimit="8" fill="none" fill-rule="evenodd"/><path d="M1.90267-0.0722651-0.0913719 5.69787C-0.0913719 5.69787 13.6556 12.2571 29.757 21.866 45.8484 31.4633 64.3244 44.2752 73.2719 55.7919 88.8826 75.8813 99.2327 103.107 107.348 127.365 113.16 144.746 116.046 162.162 120.514 180.627 122.678 189.541 127.658 206.616 127.658 206.616L132.668 204.59C132.668 204.59 127.658 187.421 125.604 178.931 121.206 160.785 118.31 143.132 112.278 125.092 104.102 100.634 93.6115 72.7372 77.1894 51.5999 67.1499 38.6817 48.4733 26.0344 32.1617 16.2961 15.8498 6.56942 1.90267-0.0722651 1.90267-0.0722651ZM141.185 150.045C125.394 214.341 128.38 334.971 129.402 410.207 113.821 344.521 86.3174 295.487 59.3049 250.892L54.9764 254.508C85.7863 305.367 117.659 359.63 130.794 439.375L135.994 438.174C135.043 432.38 133.349 427.599 132.197 422.053L134.762 422.03C133.91 347.936 130.374 216.613 146.294 151.788ZM140.463 402.694C134.552 456.626 123.68 534.511 145.664 629.765 144.832 628.741 143.268 627.74 142.587 626.727 127.298 603.917 107.268 553.847 77.6202 523.76L74.1538 528.471C102.479 557.215 122.218 606.426 138.419 630.59 140.584 633.804 144.381 636.572 147.427 639.586 147.547 640.057 147.537 640.469 147.657 640.94L148.479 640.646C157.637 649.372 168.668 657.462 179.69 663.715 194.93 672.346 208.105 677.928 208.105 677.928L209.909 672.064C209.909 672.064 196.944 666.576 181.984 658.098 171.283 652.033 160.763 644.238 152.216 636.254 127.818 538.468 139.601 459.311 145.724 403.47Z" fill="#FFFFFF" fill-rule="evenodd" transform="matrix(-1 1.22465e-16 1.22465e-16 1 1470 412)"/><path d="M0.512922-0.0723135-0.0919413 1.66C-0.0919413 1.66 13.7912 8.25891 30.0735 17.9096 46.3461 27.5605 65.0077 40.3221 74.394 52.3413 90.384 72.8095 100.849 100.313 109.036 124.646 114.964 142.286 117.868 159.773 122.344 178.144 124.481 186.911 129.513 204.032 129.513 204.032L131.025 203.408C131.025 203.408 125.984 186.274 123.877 177.637 119.43 159.36 116.527 141.791 110.528 123.962 102.331 99.5585 91.8156 71.8788 75.5737 51.0924 65.8649 38.6609 47.1424 25.9463 30.7996 16.2484 14.4568 6.56216 0.512922-0.0603585 0.512922-0.0603585ZM141.843 150.334C126.972 237.533 129.855 321.869 131.912 420.486L133.505 420.439C131.448 321.798 128.565 237.627 143.395 150.7ZM58.384 251.39 57.0631 252.428C90.1219 309.013 121.598 366.411 132.345 436.158L133.918 435.816C123.1 365.621 91.4528 308.011 58.384 251.39ZM142.801 402.304C130.944 481.171 129.311 561.241 149.636 633.557 146.521 630.27 142.337 627.831 139.655 624.048 131.196 612.135 124.854 600.292 118.957 588.402 109.661 569.655 99.4882 550.424 77.4893 526.055L76.3805 527.41C98.2582 551.637 108.3 570.609 117.575 589.322 123.494 601.247 129.876 613.195 138.415 625.226 141.611 629.739 146.49 632.72 150.302 636.55 150.735 638.023 150.846 639.591 151.29 641.063L152.802 640.439C152.62 639.814 152.58 639.155 152.389 638.53 166.503 651.928 183.502 662.993 208.333 673.928L208.908 672.172C183.129 660.825 165.818 649.56 151.723 635.537 130.752 562.997 132.406 482.232 144.384 402.622Z" fill="#FFFFFF" fill-rule="evenodd" transform="matrix(-1 1.22465e-16 1.22465e-16 1 1470 414)"/><path d="M7.10035-0.0685576C6.58833 25.1965-8.48166 30.0656 6.61819 43.0224 21.0356 30.4075 6.82917 24.5483 7.10035-0.0685576Z" fill="#FFFFFF" fill-rule="evenodd" transform="matrix(0.867556 -0.497339 -0.497339 -0.867556 1485.79 714.662)"/><path d="M3.72977-0.0688491C3.45858 13.3594-4.5431 15.9532 3.47898 22.8384 11.1396 16.13 3.5892 13.0174 3.72977-0.0688491Z" fill="#FFFFFF" fill-rule="evenodd" transform="matrix(0.867556 -0.497339 -0.497339 -0.867556 1482.04 700.466)"/><path d="M50.2955 67.6417C61.5502 74.5858 77.955 63.4448 82.7642 91.4572 80.2038 89.158 76.6197 85.6916 74.6119 85.5504 64.9637 83.0981 61.1487 72.2989 50.2955 67.6417ZM45.4363 55.9702C57.0724 61.9712 73.8588 49.2618 78.6578 77.2742 76.0977 74.975 72.3128 71.9214 70.2946 71.8978 60.566 70.0117 56.5402 59.731 45.4363 55.9702ZM39.9044 44.5932C51.8617 49.6979 68.0258 35.692 73.9894 63.3978 71.349 61.2518 67.4534 58.4579 65.4456 58.5638 55.6366 57.3259 51.2088 47.4936 39.9044 44.5932ZM34.1313 35.2676C46.5205 38.6275 61.4497 22.5701 68.7287 49.8394 65.9877 47.8588 62.012 45.4068 60.0139 45.6775 50.1549 45.2417 45.647 36.5407 34.1313 35.2676ZM28.1476 28.4059C40.848 29.1017 53.8898 10.0969 62.7748 36.7058 59.9134 34.9609 55.8576 32.7799 53.8697 33.2044 44.0207 33.523 39.6633 27.2387 28.1476 28.4059ZM28.0672 28.1113C39.3722 21.285 44.4725-0.96185 56.018 24.1971 53.0061 22.8647 48.7493 21.2733 46.8218 21.9808 37.0731 23.6901 37.555 20.3538 28.0672 28.1113ZM30.6977 27.0736C25.9788 15.6851 34.2117-4.53444 47.9563 12.8673 44.8136 12.0656 41.0792 12.1951 39.3117 13.3151 38.1071 14.0815 31.5309 14.2702 30.6977 27.0736ZM26.5414 31.9193C24.6538 23.136 17.9975-11.9028 38.1974 4.02507 35.0049 4.4968 31.5309 6.34757 30.4569 8.34012 23.9509 17.0408 26.9733 18.2081 26.5414 31.9193ZM22.4251 39.4178C21.5416 24.5154 2.26502 1.90299 26.5715 1.33702 24.192 3.87191 22.9873 7.99821 23.3185 10.3327 23.4091 21.9099 20.0956 26.1187 22.4251 39.4178ZM16.9834 50.1344C14.9956 35.3737-5.3752 21.8157 15.7887 7.71493 14.7144 11.2875 14.0619 16.3334 14.865 18.5027 17.3449 29.703 13.6805 37.1186 16.9834 50.1344ZM12.5059 61.6407C9.49374 47.128-10.5757 37.8377 7.12422 18.2314 6.80328 21.9922 6.76322 27.0972 7.89748 29.0428 12.1441 39.4881 8.29903 48.9905 12.5059 61.6407Z" fill="#FFFFFF" fill-rule="evenodd" transform="matrix(-0.98664 -0.162917 -0.162917 0.98664 1476.82 645.997)"/><path d="M58.0733 64.1459C63.8663 68.2247 72.902 62.5659 75.4521 77.4564 74.0969 76.2302 72.1894 74.3908 71.1151 74.3085 65.9947 73.0115 63.7157 66.9991 58.0733 64.1459ZM53.2139 51.4837C59.1877 55.1739 67.9221 48.9019 71.095 63.6269 69.6893 62.4833 67.7114 60.7504 66.6373 60.7387 61.4666 59.7366 58.977 53.9594 53.2139 51.4837ZM47.8026 39.4108C53.9971 42.6062 62.3203 35.6148 66.1853 50.1044 64.7296 49.055 62.6716 47.4517 61.597 47.5106 56.3868 46.8504 53.7162 41.4154 47.8026 39.4108ZM42.1604 28.647C48.6358 30.9461 55.9548 22.8464 60.6737 36.9824 59.1576 36.0512 56.999 34.6246 55.9449 34.7778 50.704 34.5418 48.2243 29.8028 42.1604 28.647ZM35.6746 19.1918C42.361 20.3591 48.9371 10.5384 54.4389 24.2849 52.8725 23.4716 50.7944 22.599 49.7604 22.8939 44.5397 23.401 41.8191 19.2863 35.6746 19.1918ZM34.5001 13.58C41.2367 12.9671 42.2707-0.17825 49.1376 12.6838 47.5013 12.1064 43.4651 11.7289 42.4714 12.1887 37.3712 13.592 40.5037 12.0711 34.5001 13.58ZM17.5425 21.3022C17.7634 13.3679 7.9246 6.12878 19.7212-0.0726421 18.9984 1.74341 18.4362 4.0067 18.7073 5.22119 19.2495 11.352 16.9203 14.1223 17.5425 21.3022ZM11.0873 31.8896C10.625 23.9667 0.474948 17.9893 10.6454 8.59307 10.324 10.5737 10.3342 13.0733 10.8459 14.1813 12.6129 19.9699 9.85201 24.8156 11.0873 31.8896ZM6.38829 42.2287C4.79203 34.5184-5.18736 31.1232 3.27612 19.6516 3.27612 21.6561 3.20596 24.5563 3.8083 25.5937 6.06735 31.1466 4.15959 35.5086 6.38829 42.2287Z" fill="#FFFFFF" fill-rule="evenodd" transform="matrix(-0.98664 -0.162917 -0.162917 0.98664 1473.53 652.766)"/><path d="M125.851 71.4906C123.06 86.0625 105.742 92.6648 116.464 118.319 117.297 114.664 118.352 109.347 119.867 107.803 126.243 98.9604 121.835 84.2231 125.851 71.4906ZM119.466 56.2938C117.548 71.0545 101.635 78.4818 112.368 104.136 113.191 100.482 113.864 94.999 115.31 93.3719 121.313 84.1762 116.213 69.3216 119.466 56.2938ZM112.308 41.6867C111.223 56.5652 95.8726 65.1361 107.669 90.1419 108.342 86.44 108.774 80.8868 110.149 79.1656 115.691 69.5923 109.808 54.9498 112.308 41.6867ZM103.101 26.8198C103.543 41.7453 89.387 52.2615 102.358 76.4425 102.85 72.7048 102.991 67.0694 104.256 65.2303 109.225 55.2208 101.967 40.3307 103.101 26.8198ZM90.9631 12.6838C93.6939 27.2676 81.9674 40.083 96.3241 63.1555 96.6055 59.3824 96.4749 53.712 97.6395 51.7903 102.027 41.4153 91.9269 26.2185 90.9631 12.6838ZM68.3537-0.0726421C76.8973 10.9745 72.8011 29.5195 89.4372 50.3871 89.3163 46.6027 88.614 41.0025 89.5676 38.9158 92.8604 27.9987 74.9196 11.104 68.3537-0.0726421ZM39.1276 6.21163C51.7778 7.76775 62.1289 20.9839 81.174 38.7626 80.5921 35.0368 78.4032 29.154 78.7749 26.8315 79.1262 15.2656 50.3621 9.40642 39.1276 6.21163ZM22.9537 20.5242C35.5537 18.4135 47.8222 20.0644 70.8133 29.4133 69.217 26.136 63.484 22.3986 63.0725 20.088 44.8404 7.47309 34.5197 20.406 22.9537 20.5242ZM13.7571 35.7563C25.7748 30.8872 35.5634 36.6052 57.9021 26.4899 54.9907 24.8862 49.0771 25.0277 47.4508 23.6247 38.7061 18.2839 25.0919 33.0682 13.7571 35.7563ZM6.13675 50.7293C17.743 44.6454 28.7263 53.3231 46.1354 33.3512 42.9127 33.5633 38.1138 35.2612 36.2463 34.3653 26.6583 31.6769 17.2208 46.8973 6.13675 50.7293ZM-0.0878243 66.3856C11.0666 59.2179 24.2388 68.5432 37.0895 44.2918 34.0174 45.4002 29.5398 47.8761 27.5617 47.4044 17.7129 46.8973 10.7051 61.5051-0.0878243 66.3856Z" fill="#FFFFFF" fill-rule="evenodd" transform="matrix(-0.98664 -0.162917 -0.162917 0.98664 1512.22 624.135)"/><path d="M111.956 70.9835C110.108 78.6235 100.942 81.7004 106.645 95.3411 107.086 93.3958 107.639 90.5663 108.452 89.741 111.835 85.0487 109.496 77.5978 111.956 70.9835ZM106.364 56.3291C104.888 64.075 95.8821 67.7768 102.147 81.0639 102.508 79.1066 102.95 76.2534 103.723 75.3809 106.906 70.5001 104.235 63.1082 106.364 56.3291ZM99.9379 41.887C98.9141 49.7268 90.1693 54.1951 97.0669 67.0457 97.3278 65.0651 97.6291 62.1886 98.3621 61.2688 101.304 56.1757 98.2113 48.8073 99.9379 41.887ZM92.1776 27.1853C91.9765 35.1197 83.6536 41.0734 91.2836 53.3344 91.4344 51.3305 91.565 48.4301 92.2375 47.4633 94.878 42.1461 91.1836 34.3063 92.1776 27.1853ZM82.6197 13.4149C83.3927 21.3022 76.4754 28.4465 84.7884 40.083 84.8182 38.0787 84.5471 34.8723 85.1093 33.8106 87.1875 28.1638 82.5092 20.6301 82.6197 13.4149ZM67.5199 0.729046C69.7787 8.20359 67.5199 17.1759 76.9571 27.5509 76.7864 25.5583 76.0234 22.3277 76.4451 21.1844 77.8005 15.2423 68.7847 7.77941 67.5199 0.729046ZM47.5004-0.0726421C53.414 3.7593 55.7631 8.56914 66.6362 16.7864 66.1644 14.8531 63.012 11.953 63.2127 10.7268 63.3934 4.57266 52.44 4.21907 47.5004-0.0726421ZM28.2441 4.4195C35.001 3.28756 40.9544 7.44917 53.5143 9.97238 52.2795 8.56914 48.8056 6.1527 48.2637 5.07969 43.4444 3.55888 34.3184 5.44524 28.2441 4.4195ZM15.6745 17.9656C22.2506 16.1149 27.3705 16.7395 38.8964 12.7191 37.1894 12.6368 34.2681 13.0846 33.3443 12.448 28.4951 10.1258 21.7886 17.2582 15.6745 17.9656ZM7.26104 31.6536C13.6463 29.0717 20.4635 34.9779 28.2543 22.8464 26.5776 23.2592 23.9673 24.6268 22.9532 24.2613 17.7626 23.3773 13.2851 30.227 7.26104 31.6536ZM-0.088073 47.687C5.83546 43.879 14.2186 48.9605 19.9112 35.3201 18.3249 36.0979 16.086 37.3126 15.0418 37.0647 9.80098 36.7936 5.64463 45.0935-0.088073 47.687Z" fill="#FFFFFF" fill-rule="evenodd" transform="matrix(-0.98664 -0.162917 -0.162917 0.98664 1499.79 636.041)"/><path d="M1237.04 805.787C1255.35 794.413 1268.55 806.868 1268.01 786.004 1249.72 777.828 1254.73 794.482 1237.04 805.787Z" fill="#FFFFFF" fill-rule="evenodd"/><path d="M1247.16 798.576C1256.89 792.53 1263.9 799.139 1263.62 788.054 1253.89 783.712 1256.56 792.562 1247.16 798.576Z" fill="#FFFFFF" fill-rule="evenodd"/><path d="M1304.56 839.865C1313.23 849.849 1332.21 844.108 1328.45 872.28 1326.69 869.322 1324.3 864.944 1322.43 864.211 1313.95 858.993 1313.53 847.547 1304.56 839.865ZM1303.4 827.275C1312.72 836.473 1332.53 829.349 1328.76 857.518 1327 854.56 1324.3 850.516 1322.38 849.892 1313.66 845.19 1312.88 834.177 1303.4 827.275ZM1301.52 814.766C1311.41 823.205 1331.01 814.657 1328.44 842.88 1326.56 840.045 1323.68 836.216 1321.73 835.719 1312.73 831.612 1311.44 820.906 1301.52 814.766ZM1298.79 804.143C1309.61 811.045 1328.65 800.171 1327.46 828.37 1325.44 825.662 1322.37 822.136 1320.39 821.799 1311.11 818.442 1309.4 808.793 1298.79 804.143ZM1295.12 795.809C1307.04 800.261 1325.15 786.011 1325.7 814.059 1323.49 811.54 1320.27 808.249 1318.24 808.061 1308.75 805.427 1306.46 798.13 1295.12 795.809ZM1295.13 795.504C1307.96 792.36 1319.46 772.647 1322.98 800.104 1320.5 797.934 1316.91 795.146 1314.86 795.246 1305.05 793.97 1306.5 790.929 1295.13 795.504ZM1297.95 795.298C1296.85 783.021 1310.73 766.177 1318.66 786.886 1315.9 785.183 1312.3 784.193 1310.28 784.735 1308.9 785.107 1302.57 783.326 1297.95 795.298ZM1292.54 798.684C1293.36 789.737 1297.46 754.307 1311.99 775.535 1308.8 775.033 1304.93 775.764 1303.31 777.345 1294.51 783.71 1297.04 785.725 1292.54 798.684ZM1286.38 804.613C1289.98 790.125 1278.32 762.793 1301.69 769.502 1298.66 771.212 1296.28 774.791 1295.9 777.118 1292.54 788.195 1288.12 791.225 1286.38 804.613ZM1277.99 813.219C1280.49 798.537 1265.09 779.521 1289.5 772.374 1287.41 775.463 1285.28 780.085 1285.4 782.395 1284.42 793.825 1278.72 799.81 1277.99 813.219ZM1270.28 822.866C1271.73 808.115 1255.35 793.262 1278.09 779.827 1276.66 783.321 1275.1 788.182 1275.6 790.377 1276.54 801.614 1270.04 809.537 1270.28 822.866Z" fill="#FFFFFF" fill-rule="evenodd"/><path d="M1312.96 846.263C1317.27 851.884 1327.58 849.177 1325.58 864.151 1324.65 862.576 1323.38 860.252 1322.37 859.853 1317.87 857.088 1317.49 850.669 1312.96 846.263ZM1312.1 832.728C1316.7 838.031 1326.9 834.65 1325.54 849.651 1324.54 848.14 1323.17 845.897 1322.15 845.565 1317.51 843.066 1316.86 836.81 1312.1 832.728ZM1310.53 819.59C1315.49 824.488 1325.52 820.297 1324.89 835.28 1323.81 833.844 1322.33 831.7 1321.28 831.436 1316.51 829.252 1315.58 823.267 1310.53 819.59ZM1308.36 807.634C1313.85 811.759 1323.25 806.211 1323.54 821.111 1322.37 819.77 1320.74 817.765 1319.68 817.597 1314.75 815.808 1313.8 810.545 1308.36 807.634ZM1304.99 796.674C1311.02 799.782 1320.23 792.37 1321.38 807.132 1320.12 805.888 1318.4 804.436 1317.33 804.409 1312.19 803.336 1310.82 798.597 1304.99 796.674ZM1305.54 790.968C1312.15 792.392 1317.06 780.153 1319.78 794.478 1318.39 793.439 1314.65 791.875 1313.56 792.017 1308.28 791.835 1311.72 791.318 1305.54 790.968ZM1287.05 793.281C1289.63 785.773 1282.4 775.93 1295.5 773.529 1294.27 775.046 1293.06 777.039 1292.96 778.279 1291.65 784.292 1288.6 786.242 1287.05 793.281ZM1277.73 801.461C1279.65 793.761 1271.75 785.028 1284.26 779.093 1283.36 780.888 1282.62 783.276 1282.78 784.487 1282.74 790.539 1278.66 794.341 1277.73 801.461ZM1270.16 809.928C1270.94 802.093 1262.43 795.875 1273.92 787.45 1273.33 789.363 1272.4 792.111 1272.66 793.28 1273.16 799.255 1270.04 802.849 1270.16 809.928Z" fill="#FFFFFF" fill-rule="evenodd"/><path d="M1352.94 829.692C1345.93 842.768 1327.43 843.904 1330.02 871.589 1331.9 868.349 1334.49 863.588 1336.4 862.566 1345.12 856.028 1345.31 840.647 1352.94 829.692ZM1351.38 813.282C1345.15 826.799 1327.74 829.142 1330.34 856.83 1332.21 853.587 1334.49 848.555 1336.35 847.433 1344.83 840.446 1344.39 824.747 1351.38 813.282ZM1348.9 797.205C1343.43 811.083 1326.22 814.685 1330.02 842.071 1331.77 838.738 1333.84 833.567 1335.67 832.334 1343.81 824.849 1342.56 809.119 1348.9 797.205ZM1344.55 780.269C1340.52 794.646 1323.87 800.462 1329.04 827.411 1330.63 823.991 1332.44 818.654 1334.2 817.275 1341.92 809.203 1339.44 792.826 1344.55 780.269ZM1337.18 763.156C1335.44 777.89 1320.42 786.625 1327.24 812.929 1328.64 809.412 1330.2 803.96 1331.89 802.474 1339.17 793.879 1334.06 776.362 1337.18 763.156ZM1319.4 744.237C1324.26 757.329 1314.82 773.808 1324.48 798.688 1325.49 795.04 1326.49 789.485 1328.02 787.778 1334.42 778.339 1322.34 756.863 1319.4 744.237ZM1289.63 741.518C1301.25 746.776 1307.18 762.478 1320.06 785.128 1320.61 781.398 1320.28 775.13 1321.33 773.024 1325.11 762.09 1299.41 747.918 1289.63 741.518ZM1269.93 750.355C1282.58 752.099 1293.8 757.334 1312.96 773.114 1312.41 769.51 1308.05 764.233 1308.35 761.905 1294.71 744.426 1281 753.692 1269.93 750.355ZM1256.61 762.151C1269.53 761.088 1277.17 769.465 1301.51 766.473 1299.21 764.074 1293.52 762.445 1292.39 760.621 1285.63 752.915 1268.23 762.966 1256.61 762.151ZM1244.87 774.17C1257.76 771.825 1265.66 783.383 1288.23 769.513 1285.09 768.754 1280 768.943 1278.49 767.531 1270.14 762.105 1256.59 773.819 1244.87 774.17ZM1234.26 787.257C1247.04 783.743 1256.83 796.572 1276.33 777.257 1273.07 777.399 1268.06 778.427 1266.31 777.387 1257.06 773.965 1246.01 785.818 1234.26 787.257Z" fill="#FFFFFF" fill-rule="evenodd"/><path d="M1345.69 841.576C1341.64 848.317 1331.98 848.52 1333.35 863.24 1334.35 861.515 1335.73 858.98 1336.75 858.434 1341.38 854.965 1341.37 847.155 1345.69 841.576ZM1344.72 825.92C1341 832.873 1331.3 833.721 1333.32 848.271 1334.25 846.511 1335.52 843.92 1336.52 843.317 1341.01 839.608 1340.67 831.756 1344.72 825.92ZM1342.89 810.219C1339.58 817.396 1329.9 819.053 1332.65 833.376 1333.49 831.564 1334.64 828.908 1335.61 828.249 1339.94 824.265 1339.18 816.309 1342.89 810.219ZM1339.87 793.872C1337.31 801.385 1327.59 804.586 1331.22 818.564 1331.96 816.696 1332.95 813.967 1333.88 813.245 1337.99 808.957 1336.8 800.372 1339.87 793.872ZM1334.86 777.878C1333.24 785.636 1324.51 790.393 1328.97 803.979 1329.6 802.074 1330.3 798.933 1331.15 798.088 1334.82 793.317 1332.6 784.731 1334.86 777.878ZM1324.23 761.265C1324.15 769.074 1319.32 776.964 1325.23 789.681 1325.67 787.728 1325.9 784.417 1326.64 783.452 1329.71 778.184 1323.33 768.372 1324.23 761.265ZM1305.36 754.53C1309.86 759.951 1310.67 765.242 1318.59 776.329 1318.72 774.342 1316.58 770.634 1317.13 769.524 1319.14 763.704 1308.79 760.099 1305.36 754.53ZM1285.64 753.074C1292.42 754.009 1296.87 759.757 1308.1 765.911 1307.34 764.203 1304.75 760.861 1304.55 759.675 1300.4 756.786 1291.13 755.864 1285.64 753.074ZM1269.6 762.254C1276.43 762.449 1281.13 764.572 1293.33 764.173 1291.73 763.585 1288.8 763.141 1288.11 762.258 1284.18 758.595 1275.65 763.403 1269.6 762.254ZM1257.49 772.81C1264.35 772.25 1269.1 779.921 1280.15 770.665 1278.43 770.559 1275.53 771.086 1274.67 770.434 1269.98 768.043 1263.66 773.245 1257.49 772.81ZM1245.69 785.922C1252.48 784.054 1258.97 791.404 1268.47 780.083 1266.72 780.352 1264.22 780.844 1263.3 780.296 1258.38 778.474 1251.94 785.156 1245.69 785.922Z" fill="#FFFFFF" fill-rule="evenodd"/><path d="M1241.62 562.747C1259.93 551.373 1273.14 563.829 1272.6 542.965 1254.3 534.788 1259.32 551.442 1241.62 562.747Z" fill="#FFFFFF" fill-rule="evenodd"/><path d="M1251.74 555.536C1261.47 549.489 1268.49 556.099 1268.2 545.014 1258.48 540.672 1261.14 549.522 1251.74 555.536Z" fill="#FFFFFF" fill-rule="evenodd"/><path d="M1309.15 596.815C1317.82 606.8 1336.8 601.059 1333.04 629.231 1331.28 626.272 1328.89 621.895 1327.02 621.161 1318.54 615.943 1318.12 604.497 1309.15 596.815ZM1307.99 584.226C1317.31 593.424 1337.12 586.3 1333.35 614.468 1331.59 611.51 1328.89 607.467 1326.97 606.842 1318.25 602.141 1317.47 591.127 1307.99 584.226ZM1306.11 571.717C1316 580.155 1335.6 571.608 1333.03 599.831 1331.15 596.996 1328.27 593.167 1326.32 592.669 1317.33 588.562 1316.03 577.857 1306.11 571.717ZM1303.38 561.094C1314.2 567.996 1333.24 557.122 1332.05 585.321 1330.03 582.613 1326.97 579.087 1324.98 578.75 1315.7 575.393 1313.99 565.744 1303.38 561.094ZM1299.71 552.76C1311.63 557.212 1329.74 542.962 1330.29 571.01 1328.08 568.49 1324.86 565.199 1322.83 565.011 1313.34 562.378 1311.05 555.08 1299.71 552.76ZM1299.72 552.454C1312.55 549.31 1324.05 529.597 1327.57 557.055 1325.09 554.885 1321.5 552.096 1319.45 552.196 1309.64 550.921 1311.09 547.88 1299.72 552.454ZM1302.54 552.248C1301.44 539.971 1315.33 523.127 1323.25 543.836 1320.49 542.134 1316.89 541.144 1314.87 541.686 1313.49 542.058 1307.16 540.276 1302.54 552.248ZM1297.13 555.634C1297.95 546.688 1302.05 511.258 1316.58 532.486 1313.39 531.984 1309.52 532.714 1307.9 534.296 1299.1 540.66 1301.63 542.676 1297.13 555.634ZM1290.97 561.564C1294.57 547.076 1282.91 519.743 1306.28 526.453 1303.25 528.162 1300.87 531.742 1300.49 534.069 1297.13 545.146 1292.71 548.175 1290.97 561.564ZM1282.58 570.17C1285.08 555.488 1269.68 536.471 1294.09 529.324 1292 532.414 1289.87 537.036 1289.99 539.345 1289.01 550.776 1283.31 556.761 1282.58 570.17ZM1274.87 579.817C1276.32 565.066 1259.94 550.213 1282.68 536.778 1281.25 540.272 1279.69 545.133 1280.19 547.328 1281.13 558.565 1274.63 566.488 1274.87 579.817Z" fill="#FFFFFF" fill-rule="evenodd"/><path d="M1317.55 603.213C1321.86 608.834 1332.17 606.128 1330.17 621.101 1329.24 619.527 1327.97 617.202 1326.97 616.803 1322.46 614.038 1322.08 607.62 1317.55 603.213ZM1316.69 589.678C1321.29 594.982 1331.5 591.601 1330.13 606.602 1329.13 605.091 1327.76 602.847 1326.74 602.515 1322.1 600.017 1321.45 593.76 1316.69 589.678ZM1315.12 576.541C1320.08 581.438 1330.11 577.247 1329.48 592.23 1328.4 590.795 1326.92 588.65 1325.87 588.386 1321.1 586.202 1320.17 580.218 1315.12 576.541ZM1312.95 564.584C1318.44 568.71 1327.84 563.162 1328.13 578.062 1326.96 576.721 1325.33 574.715 1324.28 574.547 1319.34 572.759 1318.39 567.496 1312.95 564.584ZM1309.58 553.625C1315.61 556.733 1324.82 549.321 1325.97 564.083 1324.72 562.839 1322.99 561.386 1321.92 561.36 1316.78 560.286 1315.41 555.548 1309.58 553.625ZM1310.13 547.918C1316.74 549.342 1321.65 537.104 1324.37 551.429 1322.98 550.389 1319.24 548.825 1318.15 548.968 1312.87 548.786 1316.31 548.268 1310.13 547.918ZM1291.64 550.232C1294.22 542.724 1286.99 532.88 1300.09 530.479 1298.86 531.997 1297.65 533.99 1297.55 535.229 1296.24 541.243 1293.19 543.193 1291.64 550.232ZM1282.32 558.411C1284.24 550.711 1276.34 541.979 1288.85 536.043 1287.95 537.838 1287.21 540.227 1287.37 541.437 1287.33 547.49 1283.25 551.291 1282.32 558.411ZM1274.75 566.879C1275.53 559.043 1267.02 552.826 1278.52 544.401 1277.92 546.314 1276.99 549.061 1277.25 550.231 1277.75 556.205 1274.63 559.8 1274.75 566.879Z" fill="#FFFFFF" fill-rule="evenodd"/><path d="M1357.53 586.642C1350.52 599.718 1332.02 600.855 1334.61 628.54 1336.49 625.3 1339.08 620.539 1340.99 619.517 1349.71 612.979 1349.9 597.598 1357.53 586.642ZM1355.97 570.233C1349.74 583.75 1332.33 586.093 1334.93 613.781 1336.8 610.538 1339.08 605.505 1340.94 604.384 1349.42 597.397 1348.98 581.697 1355.97 570.233ZM1353.49 554.155C1348.02 568.033 1330.81 571.636 1334.61 599.022 1336.36 595.689 1338.43 590.517 1340.26 589.285 1348.4 581.8 1347.15 566.069 1353.49 554.155ZM1349.14 537.219C1345.11 551.597 1328.46 557.413 1333.63 584.362 1335.22 580.941 1337.03 575.604 1338.79 574.226 1346.52 566.154 1344.03 549.777 1349.14 537.219ZM1341.77 520.106C1340.03 534.841 1325.01 543.576 1331.83 569.88 1333.23 566.362 1334.8 560.911 1336.48 559.424 1343.76 550.83 1338.65 533.313 1341.77 520.106ZM1323.99 501.187C1328.85 514.28 1319.41 530.759 1329.07 555.638 1330.08 551.99 1331.08 546.436 1332.62 544.728 1339.01 535.29 1326.93 513.813 1323.99 501.187ZM1294.22 498.469C1305.84 503.727 1311.77 519.429 1324.65 542.079 1325.2 538.349 1324.87 532.081 1325.92 529.975 1329.7 519.04 1304 504.869 1294.22 498.469ZM1274.52 507.306C1287.17 509.049 1298.39 514.284 1317.55 530.065 1317 526.46 1312.65 521.183 1312.94 518.855 1299.3 501.377 1285.59 510.643 1274.52 507.306ZM1261.2 519.102C1274.12 518.039 1281.76 526.416 1306.1 523.424 1303.8 521.025 1298.11 519.396 1296.98 517.572 1290.22 509.866 1272.82 519.917 1261.2 519.102ZM1249.46 531.121C1262.35 528.775 1270.25 540.334 1292.82 526.463 1289.68 525.705 1284.59 525.894 1283.08 524.482 1274.73 519.056 1261.18 530.769 1249.46 531.121ZM1238.85 544.208C1251.63 540.693 1261.42 553.523 1280.92 534.208 1277.66 534.35 1272.65 535.377 1270.9 534.337 1261.65 530.916 1250.6 542.769 1238.85 544.208Z" fill="#FFFFFF" fill-rule="evenodd"/><path d="M1350.28 598.526C1346.23 605.267 1336.57 605.47 1337.94 620.191 1338.94 618.466 1340.32 615.93 1341.34 615.385 1345.97 611.915 1345.96 604.106 1350.28 598.526ZM1349.31 582.871C1345.59 589.824 1335.89 590.671 1337.91 605.222 1338.84 603.462 1340.11 600.87 1341.11 600.268 1345.6 596.558 1345.26 588.706 1349.31 582.871ZM1347.48 567.17C1344.17 574.347 1334.49 576.004 1337.24 590.327 1338.08 588.514 1339.23 585.858 1340.2 585.199 1344.53 581.215 1343.77 573.26 1347.48 567.17ZM1344.46 550.822C1341.9 558.336 1332.18 561.536 1335.81 575.515 1336.55 573.647 1337.54 570.917 1338.47 570.195 1342.58 565.908 1341.39 557.323 1344.46 550.822ZM1339.45 534.828C1337.83 542.587 1329.1 547.343 1333.56 560.929 1334.19 559.025 1334.89 555.884 1335.74 555.038 1339.41 550.268 1337.19 541.682 1339.45 534.828ZM1328.82 518.216C1328.74 526.024 1323.91 533.914 1329.82 546.632 1330.26 544.679 1330.49 541.368 1331.24 540.402 1334.3 535.135 1327.92 525.323 1328.82 518.216ZM1309.95 511.48C1314.45 516.901 1315.26 522.193 1323.18 533.279 1323.31 531.293 1321.17 527.585 1321.72 526.474 1323.73 520.654 1313.38 517.049 1309.95 511.48ZM1290.23 510.024C1297.02 510.959 1301.46 516.707 1312.69 522.861 1311.93 521.154 1309.34 517.811 1309.14 516.625 1304.99 513.737 1295.72 512.815 1290.23 510.024ZM1274.19 519.205C1281.02 519.4 1285.72 521.523 1297.92 521.123 1296.32 520.536 1293.39 520.092 1292.7 519.209 1288.77 515.546 1280.24 520.353 1274.19 519.205ZM1262.08 529.761C1268.94 529.201 1273.69 536.871 1284.74 527.616 1283.02 527.51 1280.12 528.036 1279.26 527.385 1274.57 524.993 1268.25 530.196 1262.08 529.761ZM1250.28 542.873C1257.07 541.005 1263.56 548.355 1273.06 537.033 1271.31 537.303 1268.81 537.794 1267.89 537.246 1262.97 535.425 1256.53 542.107 1250.28 542.873Z" fill="#FFFFFF" fill-rule="evenodd"/><path d="M1368.68 504.082C1369.59 491.567 1369.78 485.45 1368.69 471.982 1361.9 466.006 1356.52 463.701 1352.01 463.701 1327.82 490.688 1338.4 503.777 1336.47 525.706 1342.42 511.402 1339.79 495.136 1356.71 482.455 1363.68 517.939 1358.96 522.797 1359.65 528.907 1364.68 522.252 1367.41 511.193 1368.68 504.082Z" fill="#FFFFFF" fill-rule="evenodd"/><path d="M1354.95 481.938C1354.42 476.669 1353.16 470.579 1350.13 462.49" fill="#FFFFFF" fill-rule="evenodd"/><path d="M1352.52 472.146C1351.07 467.295 1353.15 466.538 1350.38 467.127 1339.74 478.936 1337.06 496.719 1338.12 510.979L1338.33 511.424C1343.09 483.598 1348.22 488.322 1353.7 478.839Z" fill="#FFFFFF" fill-rule="evenodd"/><path d="M1353.38 469.911C1348.55 474.923 1344.35 479.978 1342.47 485.191" fill="#FFFFFF" fill-rule="evenodd"/><path d="M1355.08 467.06C1360.31 468.568 1362.68 470.479 1365.19 472.374 1365.95 499.127 1367.05 505.901 1361.61 518.909L1361.68 519.509C1364.11 495.228 1358.35 478.712 1355.08 467.06Z" fill="#FFFFFF" fill-rule="evenodd"/><path d="M1391.89 547.887C1399.78 539.594 1403.47 535.313 1410.6 524.546 1409.62 514.121 1407.43 507.628 1404.46 503.591 1372.82 501.574 1372.15 520.563 1358.1 534.791 1370.35 529.713 1378.1 515.521 1396.62 521.442 1380.52 553.489 1374.59 552.802 1371.48 557.863 1378.66 557.524 1386.91 551.926 1391.89 547.887Z" fill="#FFFFFF" fill-rule="evenodd"/><path d="M1396.76 520.672C1399.48 516.363 1402.2 510.805 1404.92 502.214" fill="#FFFFFF" fill-rule="evenodd"/><path d="M1400.01 510.98C1401.88 506.159 1403.69 507.463 1401.53 505.419 1387.65 504.485 1375.52 515.02 1367.9 526.341L1367.78 526.853C1387.13 510.869 1387.75 518.899 1396.88 516.908Z" fill="#FFFFFF" fill-rule="evenodd"/><path d="M1402.41 510.468C1396.31 509.789 1390.6 509.707 1386.33 511.819" fill="#FFFFFF" fill-rule="evenodd"/><path d="M1404.87 508.828C1407.43 514.602 1407.87 518.12 1408.42 521.738 1393.32 541.88 1390.1 547.793 1378.94 552.384L1378.64 552.891C1394.39 537.398 1400.23 520.23 1404.87 508.828Z" fill="#FFFFFF" fill-rule="evenodd"/><path d="M36.1737 29.5681C31.1219 18.0814 28.4285 12.586 21.1719 1.18882 12.3745-0.917795 6.53981-0.439351 2.55238 1.67105-6.20841 36.8349 9.26311 43.4582 17.8157 63.7421 16.3873 48.3161 6.45024 35.1712 15.479 16.0492 38.2307 44.1551 36.3339 50.6544 39.7999 55.7343 41.1342 47.4993 38.3795 36.4455 36.1737 29.5681Z" fill="#FFFFFF" fill-rule="evenodd" transform="matrix(-0.998891 0.0470841 0.0470841 0.998891 1374.81 621.002)"/><path d="M13.3066 14.7741C10.3718 10.3667 6.41024 5.57177-0.0462761-0.162786" fill="#FFFFFF" fill-rule="evenodd" transform="matrix(-0.998891 0.0470841 0.0470841 0.998891 1372.85 622.72)"/><path d="M5.41178 4.01046C1.86646 0.397924 3.34429-1.23928 1.17779 0.572964-2.70614 15.9864 3.23806 32.9606 10.8425 45.0696L11.2368 45.3645C2.42923 18.544 9.17554 20.3195 9.58754 9.37368Z" fill="#FFFFFF" fill-rule="evenodd" transform="matrix(-0.998891 0.0470841 0.0470841 0.998891 1372.87 626.652)"/><path d="M2.67632-0.165706C0.749131 6.52408-0.599852 12.9563 0.178637 18.4415" fill="#FFFFFF" fill-rule="evenodd" transform="matrix(-0.998891 0.0470841 0.0470841 0.998891 1369.8 628.279)"/><path d="M-0.0507542 0.464441C5.27371-0.646191 8.26845-0.0676823 11.3669 0.436434 24.5506 23.7273 28.6905 29.2011 29.9629 43.2443L30.3129 43.7382C21.1013 21.1414 8.28761 9.23543-0.0507542 0.464441Z" fill="#FFFFFF" fill-rule="evenodd" transform="matrix(-0.998891 0.0470841 0.0470841 0.998891 1367.71 623.68)"/><path d="M42.4159 25.2163C36.4922 15.4205 33.3339 10.7337 24.8246 1.01433 14.5088-0.782457 7.66737-0.374435 2.99145 1.42534-7.28111 31.4137 10.8604 37.0619 20.8891 54.3603 19.2145 41.205 7.56205 29.9946 18.1494 13.6872 44.8276 37.6565 42.6038 43.1991 46.6679 47.5311 48.2322 40.5084 45.0024 31.0813 42.4159 25.2163Z" fill="#FFFFFF" fill-rule="evenodd" transform="matrix(-0.648684 0.761058 0.761058 0.648684 1310.75 631.025)"/><path d="M15.6009 12.6001C12.1597 8.84126 7.51472 4.75203-0.0560125-0.13858" fill="#FFFFFF" fill-rule="evenodd" transform="matrix(-0.648684 0.761058 0.761058 0.648684 1308.95 631.745)"/><path d="M6.34439 3.42017C2.18715 0.339355 3.92006-1.05688 1.37962 0.48888-3.17497 13.6337 3.79549 28.1092 12.7121 38.4359L13.1748 38.6877C2.84676 15.8146 10.7578 17.3287 11.2406 7.994Z" fill="#FFFFFF" fill-rule="evenodd" transform="matrix(-0.648684 0.761058 0.761058 0.648684 1311.36 635.784)"/><path d="M3.13659-0.141066C0.876705 5.56403-0.705157 11.0494 0.207725 15.7273" fill="#FFFFFF" fill-rule="evenodd" transform="matrix(-0.648684 0.761058 0.761058 0.648684 1309.76 638.341)"/><path d="M-0.0609725 0.39658C6.18243-0.550584 9.69404-0.0572229 13.3273 0.372446 28.7863 20.2355 33.6408 24.9034 35.1327 36.8799L35.5432 37.3009C24.7417 18.0299 9.7165 7.87661-0.0609725 0.39658Z" fill="#FFFFFF" fill-rule="evenodd" transform="matrix(-0.648684 0.761058 0.761058 0.648684 1306.99 638.066)"/><path d="M1369.59 738.526C1370.5 726.01 1370.69 719.893 1369.6 706.425 1362.81 700.449 1357.43 698.144 1352.92 698.145 1328.73 725.131 1339.31 738.22 1337.39 760.149 1343.34 745.846 1340.7 729.58 1357.62 716.899 1364.59 752.382 1359.87 757.24 1360.56 763.351 1365.59 756.695 1368.33 745.636 1369.59 738.526Z" fill="#FFFFFF" fill-rule="evenodd"/><path d="M1355.86 716.381C1355.33 711.113 1354.07 705.022 1351.05 696.934" fill="#FFFFFF" fill-rule="evenodd"/><path d="M1353.43 706.589C1351.99 701.738 1354.06 700.982 1351.3 701.571 1340.66 713.38 1337.97 731.163 1339.03 745.423L1339.24 745.868C1344 718.042 1349.13 722.766 1354.61 713.283Z" fill="#FFFFFF" fill-rule="evenodd"/><path d="M1354.29 704.354C1349.46 709.367 1345.26 714.421 1343.39 719.634" fill="#FFFFFF" fill-rule="evenodd"/><path d="M1355.99 701.503C1361.22 703.011 1363.59 704.923 1366.1 706.817 1366.86 733.57 1367.96 740.344 1362.52 753.352L1362.6 753.953C1365.02 729.671 1359.26 713.155 1355.99 701.503Z" fill="#FFFFFF" fill-rule="evenodd"/><path d="M1392.8 782.326C1400.69 774.033 1404.38 769.753 1411.51 758.985 1410.53 748.56 1408.34 742.067 1405.37 738.03 1373.74 736.014 1373.06 755.002 1359.01 769.231 1371.26 764.152 1379.01 749.96 1397.53 755.881 1381.43 787.928 1375.5 787.241 1372.39 792.302 1379.57 791.963 1387.82 786.366 1392.8 782.326Z" fill="#FFFFFF" fill-rule="evenodd"/><path d="M1397.67 755.111C1400.39 750.802 1403.11 745.244 1405.83 736.653" fill="#FFFFFF" fill-rule="evenodd"/><path d="M1400.92 745.419C1402.79 740.598 1404.6 741.902 1402.44 739.858 1388.56 738.924 1376.43 749.459 1368.81 760.78L1368.69 761.292C1388.04 745.308 1388.66 753.338 1397.79 751.347Z" fill="#FFFFFF" fill-rule="evenodd"/><path d="M1403.32 744.907C1397.22 744.228 1391.51 744.146 1387.24 746.258" fill="#FFFFFF" fill-rule="evenodd"/><path d="M1405.78 743.267C1408.34 749.041 1408.78 752.559 1409.33 756.177 1394.23 776.32 1391.01 782.232 1379.85 786.823L1379.55 787.33C1395.3 771.837 1401.14 754.669 1405.78 743.267Z" fill="#FFFFFF" fill-rule="evenodd"/><path d="M36.1737 29.5751C31.1219 18.0884 28.4285 12.593 21.1717 1.19582 12.3745-0.910794 6.53981-0.43235 2.55238 1.67805-6.20841 36.8419 9.26286 43.4652 17.8154 63.7491 16.3873 48.3231 6.45024 35.1782 15.479 16.0562 38.2307 44.1621 36.3339 50.6614 39.7999 55.7413 41.1342 47.5063 38.3795 36.4525 36.1737 29.5751Z" fill="#FFFFFF" fill-rule="evenodd" transform="matrix(-0.998891 0.0470841 0.0470841 0.998891 1373.51 871.944)"/><path d="M13.3064 14.7811C10.3718 10.3737 6.41024 5.57877-0.0462761-0.155784" fill="#FFFFFF" fill-rule="evenodd" transform="matrix(-0.998891 0.0470841 0.0470841 0.998891 1371.55 873.662)"/><path d="M5.41178 4.01717C1.86646 0.404926 3.34429-1.23228 1.17779 0.579965-2.70614 15.9934 3.23806 32.9676 10.8422 45.0766L11.2368 45.3715C2.42898 18.551 9.17554 20.3265 9.58754 9.38068Z" fill="#FFFFFF" fill-rule="evenodd" transform="matrix(-0.998891 0.0470841 0.0470841 0.998891 1371.58 877.594)"/><path d="M2.67632-0.158704C0.749131 6.53108-0.599852 12.9633 0.178637 18.4485" fill="#FFFFFF" fill-rule="evenodd" transform="matrix(-0.998891 0.0470841 0.0470841 0.998891 1368.51 879.22)"/><path d="M-0.0507542 0.471442C5.27371-0.639189 8.26845-0.0606807 11.3669 0.443436 24.5506 23.7343 28.6905 29.2081 29.9629 43.2513L30.3129 43.7452C21.1013 21.1484 8.28761 9.24243-0.0507542 0.471442Z" fill="#FFFFFF" fill-rule="evenodd" transform="matrix(-0.998891 0.0470841 0.0470841 0.998891 1366.41 874.622)"/><path d="M42.4156 25.2222C36.4922 15.4265 33.3336 10.7397 24.8246 1.0203 14.5088-0.776486 7.66737-0.368464 2.99145 1.43131-7.28111 31.4195 10.8604 37.0678 20.8891 54.3662 19.2142 41.211 7.56205 30.0006 18.1494 13.6931 44.8276 37.6624 42.6035 43.2051 46.6676 47.5371 48.2322 40.5144 45.0024 31.0873 42.4156 25.2222Z" fill="#FFFFFF" fill-rule="evenodd" transform="matrix(-0.648684 0.761058 0.761058 0.648684 1309.45 881.967)"/><path d="M15.6009 12.6061C12.1597 8.84723 7.51443 4.758-0.0560125-0.132609" fill="#FFFFFF" fill-rule="evenodd" transform="matrix(-0.648684 0.761058 0.761058 0.648684 1307.65 882.687)"/><path d="M6.34439 3.42614C2.18715 0.345326 3.92006-1.05091 1.37933 0.494851-3.17497 13.6396 3.79549 28.1152 12.7121 38.4419L13.1748 38.6937C2.84676 15.8206 10.7578 17.3347 11.2406 7.99997Z" fill="#FFFFFF" fill-rule="evenodd" transform="matrix(-0.648684 0.761058 0.761058 0.648684 1310.06 886.726)"/><path d="M3.13659-0.135095C0.876705 5.57-0.705157 11.0554 0.207725 15.7332" fill="#FFFFFF" fill-rule="evenodd" transform="matrix(-0.648684 0.761058 0.761058 0.648684 1308.46 889.283)"/><path d="M-0.0609725 0.402302C6.18243-0.544613 9.69404-0.0512518 13.3273 0.378418 28.7863 20.2415 33.6408 24.9094 35.1327 36.8859L35.5432 37.3068C24.7417 18.0359 9.7165 7.88258-0.0609725 0.402302Z" fill="#FFFFFF" fill-rule="evenodd" transform="matrix(-0.648684 0.761058 0.761058 0.648684 1305.7 889.008)"/><path d="M1341.1 1010C1342 997.489 1342.19 991.372 1341.11 977.904 1334.32 971.928 1328.93 969.623 1324.42 969.624 1300.24 996.61 1310.81 1009.7 1308.89 1031.63 1314.84 1017.32 1312.2 1001.06 1329.13 988.378 1336.09 1023.86 1331.38 1028.72 1332.07 1034.83 1337.1 1028.17 1339.83 1017.12 1341.1 1010Z" fill="#FFFFFF" fill-rule="evenodd"/><path d="M1327.37 987.86C1326.83 982.591 1325.57 976.501 1322.55 968.413" fill="#FFFFFF" fill-rule="evenodd"/><path d="M1324.93 978.068C1323.49 973.217 1325.56 972.461 1322.8 973.05 1312.16 984.858 1309.48 1002.64 1310.54 1016.9L1310.75 1017.35C1315.5 989.52 1320.64 994.244 1326.12 984.761Z" fill="#FFFFFF" fill-rule="evenodd"/><path d="M1325.8 975.833C1320.97 980.845 1316.77 985.9 1314.89 991.113" fill="#FFFFFF" fill-rule="evenodd"/><path d="M1327.5 972.982C1332.72 974.49 1335.1 976.402 1337.6 978.296 1338.36 1005.05 1339.46 1011.82 1334.02 1024.83L1334.1 1025.43C1336.52 1001.15 1330.76 984.634 1327.5 972.982Z" fill="#FFFFFF" fill-rule="evenodd"/><path d="M1364.3 1053.8C1372.19 1045.51 1375.88 1041.23 1383.01 1030.46 1382.03 1020.03 1379.84 1013.54 1376.87 1009.5 1345.24 1007.49 1344.56 1026.48 1330.51 1040.7 1342.76 1035.63 1350.51 1021.43 1369.03 1027.35 1352.93 1059.4 1347 1058.71 1343.89 1063.78 1351.07 1063.44 1359.32 1057.84 1364.3 1053.8Z" fill="#FFFFFF" fill-rule="evenodd"/><path d="M1369.17 1026.58C1371.89 1022.27 1374.61 1016.72 1377.33 1008.13" fill="#FFFFFF" fill-rule="evenodd"/><path d="M1372.42 1016.89C1374.3 1012.07 1376.1 1013.38 1373.94 1011.33 1360.06 1010.4 1347.93 1020.93 1340.31 1032.25L1340.19 1032.77C1359.54 1016.78 1360.16 1024.81 1369.29 1022.82Z" fill="#FFFFFF" fill-rule="evenodd"/><path d="M1374.82 1016.38C1368.72 1015.7 1363.01 1015.62 1358.74 1017.73" fill="#FFFFFF" fill-rule="evenodd"/><path d="M1377.28 1014.74C1379.84 1020.51 1380.29 1024.03 1380.83 1027.65 1365.73 1047.79 1362.51 1053.7 1351.35 1058.3L1351.05 1058.8C1366.8 1043.31 1372.64 1026.14 1377.28 1014.74Z" fill="#FFFFFF" fill-rule="evenodd"/><path d="M7.09961-0.060389C6.58759 25.2047-8.48216 30.0737 6.61769 43.0305 21.0348 30.4156 6.82842 24.5564 7.09961-0.060389Z" fill="#FFFFFF" fill-rule="evenodd" transform="matrix(0.920071 -0.391752 -0.391752 -0.920071 1458.38 1004.44)"/><path d="M3.72927-0.0606806C3.45808 13.3675-4.54385 15.961 3.47823 22.8462 11.1388 16.1381 3.58845 13.0256 3.72927-0.0606806Z" fill="#FFFFFF" fill-rule="evenodd" transform="matrix(0.920071 -0.391752 -0.391752 -0.920071 1456.26 989.869)"/><path d="M50.2948 67.6496C61.5494 74.5937 77.9541 63.4527 82.7631 91.465 80.203 89.1659 76.6189 85.6998 74.6111 85.5583 64.9629 83.106 61.1476 72.3068 50.2948 67.6496ZM45.4354 55.9781C57.0714 61.9791 73.858 49.2697 78.657 77.2821 76.0966 74.9829 72.312 71.9293 70.2938 71.9057 60.5652 70.0196 56.5392 59.7389 45.4354 55.9781ZM39.9037 44.601C51.8607 49.7058 68.0248 35.6999 73.9884 63.4057 71.3479 61.2597 67.4526 58.4657 65.4448 58.5719 55.6356 57.3338 51.2081 47.5015 39.9037 44.601ZM34.1307 35.2754C46.5199 38.6353 61.4489 22.578 68.7276 49.8473 65.9867 47.8667 62.011 45.4147 60.0131 45.6854 50.1542 45.2496 45.6463 36.5486 34.1307 35.2754ZM28.1467 28.4138C40.8474 29.1096 53.8891 10.1048 62.774 36.7137 59.9126 34.9688 55.8566 32.7878 53.8687 33.2123 44.02 33.5309 39.6624 27.2466 28.1467 28.4138ZM28.0666 28.1192C39.3713 21.2929 44.4715-0.954265 56.0173 24.205 53.0054 22.8726 48.7485 21.2812 46.8209 21.9887 37.0722 23.6979 37.5541 20.3616 28.0666 28.1192ZM30.6969 27.0815C25.9782 15.693 34.2108-4.52656 47.9554 12.8751 44.8129 12.0735 41.0782 12.203 39.3111 13.323 38.1064 14.0893 31.5303 14.2781 30.6969 27.0815ZM26.5408 31.9272C24.6532 23.1439 17.9967-11.8949 38.1967 4.03295 35.0042 4.50468 31.5303 6.35545 30.456 8.348 23.9503 17.0487 26.9724 18.2159 26.5408 31.9272ZM22.4245 39.4257C21.5408 24.5232 2.26427 1.91086 26.5709 1.3449 24.1914 3.87978 22.9867 8.00608 23.3179 10.3405 23.4082 21.9178 20.095 26.1266 22.4245 39.4257ZM16.9826 50.1422C14.9948 35.3816-5.37567 21.8235 15.7879 7.72281 14.7139 11.2954 14.0613 16.3412 14.8641 18.5106 17.3441 29.7109 13.6796 37.1265 16.9826 50.1422ZM12.5051 61.6489C9.49295 47.1359-10.5764 37.8456 7.1237 18.2393 6.8025 22 6.76245 27.1051 7.8967 29.0507 12.1436 39.496 8.29825 48.9986 12.5051 61.6489Z" fill="#FFFFFF" fill-rule="evenodd" transform="matrix(-0.960601 -0.277931 -0.277931 0.960601 1457.42 934.121)"/><path d="M58.0723 64.1538C63.8652 68.2328 72.9011 62.5741 75.451 77.4642 74.0958 76.2381 72.1883 74.399 71.114 74.3164 65.9939 73.0193 63.7149 67.007 58.0723 64.1538ZM53.2131 51.4916C59.1867 55.1818 67.9213 48.9097 71.0939 63.6351 69.6882 62.4912 67.7106 60.7583 66.6363 60.7466 61.4656 59.7445 58.9759 53.9673 53.2131 51.4916ZM47.8016 39.4187C53.9963 42.6141 62.3192 35.6227 66.1845 50.1123 64.7288 49.0629 62.6707 47.4595 61.5962 47.5185 56.3857 46.8583 53.7152 41.4232 47.8016 39.4187ZM42.1595 28.6548C48.6351 30.954 55.9541 22.8543 60.6727 36.9903 59.1568 36.0591 56.9983 34.6325 55.9439 34.7857 50.7031 34.5497 48.2236 29.8107 42.1595 28.6548ZM35.674 19.1997C42.3603 20.3669 48.9361 10.5462 54.4379 24.2928 52.8718 23.4795 50.7936 22.6069 49.7594 22.9018 44.539 23.4089 41.8182 19.2942 35.674 19.1997ZM34.4992 13.5879C41.2357 12.9749 42.2697-0.170374 49.1369 12.6917 47.5006 12.1143 43.4644 11.7368 42.4705 12.1966 37.3702 13.5998 40.5028 12.079 34.4992 13.5879ZM17.5417 21.3101C17.7626 13.3758 7.92381 6.13666 19.7206-0.0647653 18.9978 1.75129 18.4356 4.01457 18.7068 5.22907 19.2486 11.3599 16.9194 14.1302 17.5417 21.3101ZM11.0865 31.8975C10.6245 23.9745 0.474449 17.9972 10.6446 8.60095 10.3232 10.5815 10.3334 13.0811 10.8454 14.1891 12.6123 19.9778 9.85146 24.8235 11.0865 31.8975ZM6.38776 42.2366C4.79151 34.5263-5.18808 31.1311 3.27536 19.6595 3.27536 21.664 3.2052 24.5641 3.80753 25.6015 6.06657 31.1544 4.15908 35.5165 6.38776 42.2366Z" fill="#FFFFFF" fill-rule="evenodd" transform="matrix(-0.960601 -0.277931 -0.277931 0.960601 1453.36 940.485)"/><path d="M125.85 71.4983C123.06 86.0702 105.741 92.6724 116.463 118.327 117.297 114.672 118.351 109.355 119.867 107.81 126.242 98.9681 121.835 84.2311 125.85 71.4983ZM119.465 56.3016C117.548 71.0625 101.635 78.4895 112.367 104.144 113.19 100.489 113.863 95.0066 115.309 93.3799 121.312 84.1838 116.212 69.3293 119.465 56.3016ZM112.307 41.6944C111.222 56.5729 95.8719 65.1438 107.668 90.1495 108.341 86.4477 108.773 80.8948 110.148 79.1736 115.69 69.6 109.807 54.9578 112.307 41.6944ZM103.101 26.8276C103.542 41.7531 89.3861 52.2695 102.357 76.4502 102.85 72.7128 102.99 67.0774 104.255 65.238 109.225 55.2286 101.966 40.3384 103.101 26.8276ZM90.9622 12.6916C93.6932 27.2754 81.9665 40.0908 96.3234 63.1632 96.6048 59.3905 96.4742 53.7197 97.6388 51.7981 102.026 41.4231 91.9262 26.2264 90.9622 12.6916ZM68.3528-0.0644734C76.8966 10.9824 72.8005 29.5273 89.4363 50.3948 89.3157 46.6107 88.6131 41.0106 89.5669 38.9238 92.8597 28.0065 74.9187 11.1119 68.3528-0.0644734ZM39.127 6.21949C51.7772 7.7756 62.1282 20.9918 81.1734 38.7704 80.5912 35.0449 78.4023 29.1618 78.774 26.8393 79.1256 15.2735 50.3613 9.41457 39.127 6.21949ZM22.9529 20.532C35.5529 18.4213 47.8214 20.0722 70.8126 29.4211 69.2164 26.1441 63.4834 22.4064 63.0719 20.0958 44.8396 7.48095 34.5189 20.4138 22.9529 20.532ZM13.7563 35.764C25.7743 30.895 35.5628 36.613 57.9012 26.4977 54.9901 24.894 49.0763 25.0355 47.4502 23.6325 38.7053 18.2918 25.0913 33.076 13.7563 35.764ZM6.13624 50.737C17.7422 44.6535 28.7257 53.3308 46.1348 33.3593 42.9122 33.5711 38.1132 35.269 36.2457 34.3731 26.6575 31.6847 17.2202 46.9054 6.13624 50.737ZM-0.0883217 66.3933C11.0661 59.2256 24.238 68.5509 37.0889 44.2996 34.0168 45.4079 29.5393 47.8839 27.5611 47.4121 17.7121 46.9054 10.7046 61.5128-0.0883217 66.3933Z" fill="#FFFFFF" fill-rule="evenodd" transform="matrix(-0.960601 -0.277931 -0.277931 0.960601 1494.93 916.823)"/><path d="M111.955 70.9914C110.108 78.6314 100.942 81.7083 106.644 95.349 107.086 93.4037 107.638 90.5742 108.451 89.7488 111.835 85.0566 109.496 77.6056 111.955 70.9914ZM106.363 56.337C104.887 64.0828 95.8813 67.7847 102.146 81.0718 102.508 79.1145 102.95 76.2613 103.723 75.389 106.905 70.508 104.235 63.116 106.363 56.337ZM99.9374 41.8949C98.9134 49.7347 90.1688 54.2029 97.0664 67.0536 97.3273 65.073 97.6286 62.1965 98.3613 61.2769 101.303 56.1835 98.2106 48.8152 99.9374 41.8949ZM92.1768 27.1932C91.976 35.1275 83.6531 41.0816 91.2831 53.3423 91.4339 51.3384 91.5645 48.438 92.237 47.4714 94.8775 42.154 91.1829 34.3142 92.1768 27.1932ZM82.6192 13.4227C83.3922 21.3101 76.4747 28.4547 84.7876 40.0908 84.8177 38.0866 84.5466 34.8801 85.1088 33.8188 87.187 28.1717 82.5084 20.6382 82.6192 13.4227ZM67.5194 0.736923C69.7779 8.21176 67.5194 17.1838 76.9564 27.5588 76.7857 25.5662 76.0229 22.3355 76.4443 21.1922 77.8 15.2502 68.784 7.78758 67.5194 0.736923ZM47.4999-0.0647652C53.4135 3.76718 55.7626 8.57731 66.6357 16.7943 66.1639 14.861 63.0115 11.9611 63.212 10.735 63.3929 4.58053 52.4395 4.22695 47.4999-0.0647652ZM28.2436 4.42737C35.0003 3.29544 40.9539 7.45704 53.5135 9.98026 52.2788 8.57731 48.8051 6.16057 48.263 5.08757 43.4439 3.56675 34.3176 5.45311 28.2436 4.42737ZM15.674 17.9735C22.2499 16.1227 27.37 16.7473 38.8959 12.7269 37.1889 12.6447 34.2676 13.0925 33.3438 12.4562 28.4946 10.1337 21.7879 17.2661 15.674 17.9735ZM7.26055 31.6614C13.6456 29.0796 20.4628 34.9858 28.2538 22.8545 26.5771 23.267 23.9665 24.6347 22.9525 24.2692 17.7619 23.3852 13.2843 30.2348 7.26055 31.6614ZM-0.0885706 47.6952C5.83496 43.8872 14.2181 48.9683 19.9107 35.328 18.3242 36.1057 16.0855 37.3205 15.0413 37.0725 9.80048 36.8018 5.64388 45.1014-0.0885706 47.6952Z" fill="#FFFFFF" fill-rule="evenodd" transform="matrix(-0.960601 -0.277931 -0.277931 0.960601 1481.22 927.108)"/><path d="M8.32586-0.0644374C7.72547 21.482-9.94558 25.6443 7.76047 36.6838 24.6663 25.926 8.00787 20.929 8.32586-0.0644374Z" fill="#FFFFFF" fill-rule="evenodd" transform="matrix(-0.122107 -0.992517 -0.992517 0.122107 1505.49 419.005)"/><path d="M4.38447-0.0644373C4.0551 11.3875-5.32764 13.5993 4.07844 19.4608 13.0609 13.75 4.20826 11.0857 4.38447-0.0644373Z" fill="#FFFFFF" fill-rule="evenodd" transform="matrix(-0.122107 -0.992517 -0.992517 0.122107 1492.88 416.472)"/><path d="M1376.9 448.103C1375.08 462.683 1390.21 473.02 1371.74 495.285 1372.03 491.591 1372.61 486.259 1371.58 484.436 1367.96 474.557 1376.87 461.214 1376.9 448.103ZM1389.24 434.47C1385.87 448.943 1398.6 460.315 1380.14 482.571 1380.43 478.891 1381.44 473.465 1380.5 471.576 1377.38 461.429 1387.78 447.681 1389.24 434.47ZM1403.25 421.782C1398.07 435.869 1408.46 448.857 1389.08 470.193 1389.54 466.492 1390.84 461.043 1390.03 459.067 1387.55 448.638 1400.08 434.897 1403.25 421.782ZM1416.86 411.891C1410.77 425.653 1420.08 439.348 1398.79 458.359 1399.65 454.696 1401.45 449.295 1400.87 447.206 1399.59 436.353 1412.83 424.843 1416.86 411.891ZM1432.94 402.589C1425.14 415.503 1432.52 431.368 1409.47 447.535 1410.77 443.961 1413.15 438.623 1412.87 436.42 1413.04 425.279 1427.25 415.008 1432.94 402.589ZM1447.71 395.895C1439.17 408.322 1444.88 423.541 1421.03 438.006 1422.55 434.507 1425.47 429.654 1425.34 427.414 1426.29 416.207 1441.29 407.983 1447.71 395.895ZM1462.69 390.511C1453.48 402.403 1458.6 419.201 1433.5 429.925 1435.45 426.631 1438.84 421.902 1439.02 419.625 1441.48 408.46 1455.59 402.222 1462.69 390.511ZM1477.71 386.295C1467.92 397.663 1471.93 414.392 1446.41 423.187 1448.57 420.029 1452.28 415.811 1452.61 413.523 1455.77 402.465 1470.02 397.614 1477.71 386.295ZM1492.69 383.106C1482.41 393.943 1485.71 412.667 1459.78 417.787 1462.27 414.917 1465.98 410.887 1466.44 408.608 1470.25 397.704 1484.49 394.017 1492.69 383.106Z" fill="#FFFFFF" fill-rule="evenodd"/><path d="M1376.33 462.043C1375.82 469.778 1383.96 474.778 1374.14 486.607 1374.3 484.646 1374.6 481.815 1374.06 480.848 1372.12 475.587 1376.72 468.929 1376.33 462.043ZM1387.26 448.475C1385.9 456.204 1393.25 462.55 1382.95 473.895 1383.19 471.928 1383.64 469.101 1383.14 468.093 1381.48 462.703 1386.88 455.477 1387.26 448.475ZM1399.49 435.894C1397.22 443.502 1403.2 450.867 1392.32 461.566 1392.68 459.602 1393.62 456.539 1393.25 455.454 1392.22 449.806 1398.26 442.907 1399.49 435.894ZM1411.97 425.471C1409.22 432.965 1414.65 440.582 1402.87 449.985 1403.44 448.057 1404.69 444.935 1404.46 443.794 1404.15 437.933 1410.29 432.441 1411.97 425.471ZM1426.49 415.772C1422.79 422.881 1427.14 431.82 1414.47 439.512 1415.26 437.648 1416.51 434.994 1416.34 433.826 1416.44 427.902 1423.9 422.528 1426.49 415.772ZM1440.47 408.362C1436.33 415.229 1439.76 423.936 1426.71 430.649 1427.64 428.835 1429.56 426.111 1429.57 424.907 1430.48 418.948 1437.45 414.964 1440.47 408.362ZM1455.91 401.914C1451.02 408.237 1453.5 418.397 1439.93 423.072 1441.07 421.393 1442.79 419.026 1442.88 417.816 1444.2 411.885 1452.14 408.139 1455.91 401.914ZM1470.37 397.32C1465.17 403.356 1467.01 413.378 1453.3 417.062 1454.55 415.455 1456.82 413.028 1457.07 411.812 1459.09 406.019 1466.28 403.334 1470.37 397.32ZM1484.86 393.737C1479.39 399.495 1480.7 409.485 1466.93 412.205 1468.25 410.683 1470.64 408.555 1470.95 407.36 1473.27 401.661 1480.49 399.535 1484.86 393.737Z" fill="#FFFFFF" fill-rule="evenodd"/><path d="M1414.21 483.207C1400.88 487.245 1388.19 472.874 1374.89 498.705 1378.12 497.05 1382.74 494.522 1384.78 494.83 1395.08 494.595 1401.98 485.15 1414.21 483.207ZM1422.13 474.447C1408.66 476.825 1396.58 460.159 1383.28 486 1386.52 484.35 1391.19 482.259 1393.19 482.684 1403.42 483.043 1409.98 474.855 1422.13 474.447ZM1430.26 466.945C1416.88 467.28 1406.59 448.497 1392.14 473.714 1395.42 472.241 1400.11 470.46 1402.07 471.033 1412.16 472.104 1418.4 465.498 1430.26 466.945ZM1440.55 459.456C1427.32 458.709 1418.56 438.539 1401.66 462.125 1405.04 461.058 1409.75 459.795 1411.6 460.617 1421.35 462.986 1428.96 457.032 1440.55 459.456ZM1449.69 454.174C1436.98 451.289 1431.44 430.135 1412.12 451.536 1415.54 450.942 1420.15 450.263 1421.84 451.376 1431 455.262 1438.79 449.861 1449.69 454.174ZM1461.06 449.02C1448.68 445.148 1444.07 422.093 1423.54 442.12 1426.95 441.79 1431.75 441.826 1433.33 443.092 1442.1 447.748 1450.57 443.846 1461.06 449.02ZM1472.78 444.839C1460.77 440.056 1458.36 417.363 1435.7 434.239 1439.05 434.462 1443.58 434.958 1444.94 436.489 1452.79 442.598 1462.72 438.881 1472.78 444.839ZM1484.76 441.547C1473.14 435.927 1471.98 412.394 1448.45 427.588 1451.75 428.076 1456.28 429.197 1457.52 430.84 1464.88 437.603 1475.14 434.879 1484.76 441.547ZM1496.92 439.029C1485.71 432.666 1486.32 410.448 1461.53 422.307 1464.67 423.289 1469.25 424.547 1470.39 426.292 1477.24 433.621 1487.74 431.729 1496.92 439.029Z" fill="#FFFFFF" fill-rule="evenodd"/><path d="M1403.11 484.036C1396.1 486.654 1388.92 479.215 1381.84 492.938 1383.56 492.069 1386.01 490.723 1387.09 490.884 1392.57 490.76 1396.63 485.518 1403.11 484.036ZM1411.19 473.995C1404.06 475.735 1398.04 467.242 1390.36 480.644 1392.1 479.856 1394.6 478.637 1395.67 478.869 1401.1 479.06 1404.7 474.654 1411.19 473.995ZM1419.91 464.905C1412.75 465.639 1407.77 455.84 1399.37 468.799 1401.14 468.123 1403.48 467.448 1404.5 467.818 1409.78 468.71 1413.51 464.649 1419.91 464.905ZM1430.3 456.222C1423.19 456.397 1418.78 446.035 1409.16 458.047 1410.97 457.593 1413.19 457.194 1414.14 457.711 1419.17 459.367 1424.01 455.457 1430.3 456.222ZM1440.23 449.614C1433.32 448.639 1430.67 437.8 1419.77 448.442 1421.57 448.274 1424.2 447.928 1425.09 448.522 1429.96 450.585 1434.24 447.811 1440.23 449.614ZM1451.85 443.463C1445.1 441.929 1442.96 430.157 1431.45 439.99 1433.26 439.958 1435.47 440.245 1436.26 440.997 1440.68 443.865 1446.06 441.166 1451.85 443.463ZM1462.78 438.87C1456.41 436.318 1456 425.018 1443.5 433.094 1445.25 433.358 1447.79 433.642 1448.52 434.456 1452.69 437.707 1457.44 435.703 1462.78 438.87ZM1475.18 434.894C1469.01 431.904 1469.17 420.158 1456.3 427.337 1458.01 427.739 1460.07 428.361 1460.67 429.292 1464.32 433.192 1470.07 431.349 1475.18 434.894ZM1487.77 431.765C1481.82 428.382 1482.54 416.389 1469.36 422.687 1471.03 423.215 1473.09 424.132 1473.64 425.114 1477.03 429.275 1482.89 427.888 1487.77 431.765Z" fill="#FFFFFF" fill-rule="evenodd"/><g clip-path="url(#clip1)"><g clip-path="url(#clip2)"><path d="M460.82 1006.29C460.82 1032.43 481.183 1053.62 506.304 1053.62 531.424 1053.62 551.788 1032.43 551.788 1006.29 551.789 999.87 550.535 993.517 548.102 987.618 571.833 996.179 597.742 983.1 605.97 958.406 607.63 953.422 608.478 948.181 608.478 942.905 608.474 916.769 588.109 895.586 562.992 895.59 559.775 895.59 556.567 895.945 553.423 896.65 564.352 880.997 574.872 865.041 584.975 848.797 611.62 873.011 640.796 894.027 671.956 911.448 696.494 922.88 725.302 911.42 736.3 885.85 737.578 882.875 738.581 879.78 739.289 876.606 759.743 806.793 826.375 763.274 895.578 774.526 843.107 730.396 766.206 738.962 723.816 793.658 713.127 807.448 705.32 823.411 700.894 840.524 692.987 853.122 676.779 856.668 664.691 848.443 663.454 847.599 662.286 846.65 661.201 845.601L631.812 789.925C660.402 744.926 685.852 697.848 707.964 649.055 726.03 662.732 745.536 674.218 766.102 683.295 787.938 689.439 810.437 675.978 816.356 653.227 817.047 650.57 817.49 647.851 817.678 645.106 848.786 584.35 909.891 546.794 975.96 547.82 906.289 510.63 820.813 539.34 785.046 611.947 783.679 614.721 782.397 617.541 781.201 620.399 776.222 631.952 763.199 637.119 752.115 631.942 750.981 631.414 749.892 630.784 748.86 630.064L729.117 600.637C747.021 546.739 761.161 491.564 771.423 435.549 789.64 446.862 809.112 455.822 829.411 462.23 851.747 465.958 872.771 450.117 876.369 426.847 876.789 424.143 876.956 421.401 876.87 418.664 894.503 355.146 949.195 310.491 1012.61 307.84 943.507 281.053 866.592 317.708 840.813 389.711 839.83 392.456 838.931 395.233 838.117 398.037 834.332 410.069 821.903 416.637 810.357 412.705 809.166 412.301 808.012 411.789 806.904 411.18L771.423 384.931C772.796 346.058 772.796 307.148 771.423 268.279 788.021 267.508 804.473 264.7 820.442 259.911 836.269 252.947 843.69 233.941 837.017 217.462 836.244 215.552 835.297 213.722 834.187 212.002 821.294 163.75 839.221 112.265 878.825 83.8042 829.735 85.7732 791.435 128.822 793.282 179.956 793.718 192.061 796.431 203.958 801.263 214.973 801.382 222.14 795.901 228.056 789.021 228.187 788.318 228.2 787.613 228.152 786.917 228.041L762.962 228.661C760.298 157.625 747.294 87.4299 724.398 20.4763 720.906 12.5631 711.916 9.10179 704.316 12.7452 700.734 14.4625 697.934 17.5665 696.513 21.3976 787.09 318.61 714.084 643.769 506.304 868.559 298.531 643.765 225.53 318.606 316.113 21.3976 313.108 13.2645 304.346 9.20199 296.541 12.3238 292.846 13.8015 289.857 16.7279 288.21 20.4763 265.313 87.4299 252.309 157.625 249.645 228.661L225.69 228.041C218.887 229.111 212.534 224.229 211.502 217.143 211.396 216.424 211.351 215.698 211.363 214.973 231.779 168.448 212.105 113.458 167.423 92.1507 156.839 87.1039 145.41 84.268 133.782 83.8042 173.393 112.259 191.328 163.746 178.439 212.002 168.867 226.849 172.668 246.977 186.929 256.959 188.579 258.116 190.333 259.105 192.165 259.911 208.134 264.7 224.587 267.508 241.184 268.279 239.811 307.148 239.811 346.058 241.184 384.931L205.703 411.18C194.961 417.088 181.647 412.803 175.965 401.608 175.384 400.462 174.897 399.269 174.509 398.037 153.147 324.484 78.6041 282.843 8.01277 305.031 5.31396 305.879 2.6417 306.815 9.66879e-06 307.84 63.4195 310.483 118.121 355.138 135.756 418.664 135.018 442.216 152.75 461.95 175.362 462.739 177.983 462.831 180.607 462.66 183.196 462.23 203.495 455.822 222.968 446.862 241.184 435.549 251.446 491.564 265.584 546.739 283.49 600.637L263.747 630.064C253.659 637.113 239.99 634.304 233.213 623.791 232.519 622.716 231.916 621.58 231.406 620.399 200.117 545.585 116.552 511.301 44.7571 543.823 42.0138 545.066 39.309 546.399 36.6467 547.82 102.723 546.786 163.838 584.345 194.948 645.106 196.565 668.613 216.169 686.322 238.734 684.66 241.361 684.466 243.963 684.009 246.505 683.295 267.072 674.218 286.578 662.732 304.643 649.055 326.755 697.848 352.205 744.926 380.795 789.925L351.406 845.601C340.827 855.835 324.279 855.19 314.445 844.162 313.437 843.032 312.524 841.815 311.713 840.524 294.159 772.655 227.131 732.428 161.999 750.674 145.576 755.276 130.259 763.398 117.029 774.526 186.233 763.274 252.864 806.793 273.318 876.606 279.412 903.893 305.583 920.887 331.774 914.564 334.829 913.827 337.808 912.783 340.669 911.448 371.822 894.027 400.993 873.011 427.633 848.797 437.735 865.041 448.255 880.997 459.184 896.65 434.629 891.147 410.437 907.4 405.148 932.949 404.471 936.221 404.129 939.558 404.129 942.905 404.125 969.041 424.483 990.232 449.602 990.236 454.68 990.236 459.725 989.352 464.524 987.618 462.085 993.517 460.823 999.868 460.82 1006.29Z" stroke="#FFFFFF" stroke-width="5.6409" stroke-linecap="round" stroke-linejoin="round" stroke-miterlimit="3" fill="none" fill-rule="evenodd" transform="matrix(1 0 0 1.01175 856.693 456.293)"/></g></g></g></svg>