<svg width="1274" height="1561" xmlns="http://www.w3.org/2000/svg" xmlns:xlink="http://www.w3.org/1999/xlink" overflow="hidden"><defs><clipPath id="clip0"><rect x="731" y="281" width="1274" height="1561"/></clipPath></defs><g clip-path="url(#clip0)" transform="translate(-731 -281)"><path d="M732 1627 2005 1627 2005 1643.81C2005 1692.23 1965.62 1731.49 1917.07 1731.49L1621.5 1732.18C1491.7 1732.18 1384.51 1780.08 1368.51 1842 1352.5 1780.08 1245.31 1732.48 1115.53 1732.18L1115.5 1732.18 819.932 1731.49C771.378 1731.49 732 1692.23 732 1643.81Z" fill-rule="evenodd"/><path d="M731.459 281.938 2004.46 281.938 2004.46 1625.94 731.459 1625.94Z" fill="#FFFFFF" fill-rule="evenodd"/><path d="M1279.25 371.938C1277.24 387.62 1278.35 395.058 1284.87 407.601L1275.52 413.538 1284.87 427.419C1273.69 425.139 1265.72 416.76 1254.98 417.51L1251.24 415.517C1254.61 425.467 1265.42 432.674 1277.39 437.328 1271.94 441.054 1267.78 437.055 1256.85 435.335 1256.63 446.581 1256.11 448.793 1262.44 453.174 1256.48 456.982 1261.94 455.111 1254.98 453.174L1253.11 453.174 1253.11 461.09 1266.18 459.111 1262.44 469.019 1288.6 451.181 1283 463.069 1288.6 469.019C1287.89 455.617 1291.96 460.871 1294.21 449.202L1299.81 451.181C1295.08 454.388 1299.22 456.08 1299.81 457.118 1294.11 463.533 1293.42 456.026 1288.6 465.048L1296.08 463.069C1292.12 470.48 1291.16 462.373 1292.34 472.964 1287.21 469.047 1290.33 474.888 1286.74 469.019 1276.87 471.094 1287.23 474.397 1277.39 472.964 1276.03 479.597 1277.55 477.946 1273.65 486.844L1279.25 484.866 1277.39 492.782 1271.78 486.844C1266.35 491.854 1268.57 491.185 1266.18 496.753L1303.55 516.571C1289.12 509.842 1279.32 502.568 1258.72 502.69L1266.18 508.641 1258.72 508.641 1275.52 514.578 1262.44 512.599C1261.82 513.923 1261.2 515.247 1260.57 516.571 1271.78 528.868 1289.24 542.271 1309.14 548.263 1296.35 551.62 1276.37 537.617 1260.57 534.396L1258.72 538.354 1263.49 540.333 1264.31 540.333C1264.23 540.428 1264.18 540.51 1264.11 540.606L1301.68 556.192 1264.31 544.305 1284.87 554.214 1268.05 550.241 1292.34 564.122 1262.44 558.172 1269.91 564.122 1258.72 560.15C1265.21 568.926 1281.21 570.387 1290.47 575.996L1268.05 570.059 1311.03 591.843 1284.87 581.934C1289.66 586.315 1297.02 591.706 1304.67 595.814L1305.42 595.814C1305.34 595.91 1305.24 595.991 1305.14 596.074 1310.34 598.83 1315.66 600.946 1320.36 601.751L1320.36 599.786 1312.9 595.814 1320.36 593.835C1319.04 599.854 1324.66 603.457 1331.56 609.695L1312.9 603.744 1324.09 611.66C1309.13 606.992 1314.88 603.621 1305.42 599.786 1306.04 602.42 1306.66 605.068 1307.27 607.702 1297.46 605.382 1300.95 609.886 1297.94 611.66 1310.39 620.531 1323.26 619.099 1337.17 631.477L1316.62 623.548C1307.86 631.655 1327.29 633.47 1337.17 633.457L1333.43 637.428C1334.25 641.605 1334.32 638.643 1329.7 641.386 1332.49 638.084 1330.14 639.258 1325.96 639.408L1329.7 633.457C1313.61 637.469 1301.99 636.377 1288.6 637.428 1292.93 640.417 1296.3 642.219 1299.08 643.366L1299.81 643.366C1299.77 643.447 1299.72 643.529 1299.7 643.611 1302.84 644.839 1305.24 645.208 1307.49 645.536 1307.42 645.467 1307.34 645.413 1307.27 645.358L1308 645.604C1311.12 646.054 1314.06 646.559 1318.49 649.302 1319.82 641.264 1319.72 648.907 1320.36 641.386 1331.2 645.467 1324.57 648.593 1340.91 655.267 1334.21 659.539 1331.2 653.998 1327.83 657.232 1324.15 652.374 1326.77 656.454 1325.96 651.295 1317.32 650.79 1318.28 649.302 1308 645.604L1307.49 645.536 1318.49 655.267 1303.55 649.302C1312.09 658.706 1322.89 659.621 1337.17 661.204L1324.09 661.204 1344.65 669.12 1333.43 675.071C1340.87 674.511 1335.14 675.89 1340.91 673.092 1372.55 679.07 1366.72 603.539 1355.86 570.059 1364.76 577.007 1367.62 620.449 1367.07 641.386L1372.68 645.358C1380.12 634.562 1397.49 618.375 1413.77 611.66L1413.77 609.695C1407.8 605.887 1413.27 607.743 1406.3 609.695L1408.17 601.751 1402.56 605.723 1410.02 599.786 1410.02 597.793C1404.06 593.999 1409.53 595.855 1402.56 597.793 1408.33 590.641 1404.76 593.999 1411.9 595.814L1423.12 575.996 1408.17 587.898 1428.71 550.241 1423.12 546.297C1424.74 555.442 1419.25 562.375 1413.77 566.101 1414.39 563.467 1415.02 560.819 1415.64 558.172L1404.43 566.101 1417.51 548.263 1410.02 554.214C1412.54 545.001 1417.06 542.435 1419.36 530.424L1415.64 536.389 1413.77 536.389C1417.27 524.883 1420.8 525.552 1417.51 514.578L1417.51 502.69 1411.9 508.641 1419.36 486.844 1417.51 486.844C1416.89 490.147 1416.26 493.451 1415.64 496.753L1411.9 498.732C1422.68 455.166 1423.78 420.267 1428.71 371.938L1419.36 371.938 1411.9 427.419C1411.28 421.468 1410.65 415.517 1410.02 409.567 1403.21 421.113 1401.79 434.598 1402.56 455.139 1401.32 443.251 1400.07 431.363 1398.83 419.476L1396.96 419.476 1396.96 445.244C1396.33 437.983 1395.71 430.708 1395.09 423.447L1393.21 423.447C1392.59 427.419 1391.96 431.377 1391.34 435.335L1389.48 435.335C1388.87 430.053 1388.24 424.771 1387.61 419.476 1383.9 426.327 1385.1 427.583 1385.74 437.328 1380.1 435.458 1384.32 434.871 1380.14 439.293L1380.14 411.56 1372.68 437.328C1373.84 443.81 1373.92 443.77 1370.81 449.202 1370.19 438.501 1371.12 431.582 1363.32 425.426L1376.4 403.63C1369.63 405.541 1372.59 403.507 1368.94 407.601 1360.68 403.998 1361.24 396.014 1361.45 389.749L1359.58 387.784C1358.97 391.086 1358.36 394.39 1357.73 397.692 1354.75 393.789 1355.19 394.976 1353.99 387.784L1352.12 387.784C1351.49 391.086 1350.87 394.39 1350.25 397.692L1348.39 387.784C1347.76 391.742 1347.13 395.7 1346.52 399.658L1342.78 401.651C1343.19 385.463 1342.51 384.003 1339.05 371.938 1329.36 377.752 1334.32 395.495 1335.3 407.601L1325.96 371.938C1312.47 373.235 1317.96 373.03 1303.55 371.938L1305.42 379.868 1299.81 373.903C1298.75 378.557 1299.72 376.633 1301.68 381.847L1299.81 385.805 1294.21 381.847C1291.22 381.669 1293.8 381.259 1288.6 385.805L1288.6 371.938 1279.25 371.938ZM1299.7 643.611C1299.49 643.543 1299.29 643.461 1299.08 643.366L1292.34 643.366 1297.94 647.324 1299.7 643.611ZM1305.14 596.074C1304.99 595.991 1304.83 595.896 1304.67 595.814L1294.21 595.814C1299.89 599.554 1300.31 600.701 1305.14 596.074ZM1294.21 595.814C1291.26 590.751 1291.74 595.214 1294.21 589.877L1264.31 583.927C1271.11 590.491 1282.5 594.777 1294.21 595.814ZM1284.87 581.934 1284.87 579.968 1273.65 577.989 1284.87 581.934ZM1268.05 550.241 1268.05 548.263 1258.72 546.297C1262.4 549.45 1261.27 548.972 1268.05 550.241ZM1264.11 540.606C1263.9 540.51 1263.7 540.428 1263.49 540.333L1260.59 540.333 1258.72 544.305C1264.16 541.807 1261.09 544.263 1264.11 540.606ZM1275.52 413.538C1274.21 406.387 1274.77 407.56 1271.78 403.63 1272.41 406.932 1273.02 410.236 1273.65 413.538L1275.52 413.538ZM1413.77 371.938 1413.77 379.868 1417.51 371.938 1413.77 371.938ZM1410.02 381.833 1410.02 391.742 1411.9 391.742C1412.52 389.763 1413.14 387.784 1413.77 385.805L1410.02 381.833ZM1303.55 383.812 1305.42 391.742 1303.55 391.742 1303.55 383.812ZM1254.98 387.784 1258.72 391.742C1256.1 387.975 1258.55 390.54 1254.98 387.784ZM1299.81 387.784 1301.68 387.784C1302.3 391.742 1302.93 395.7 1303.55 399.658L1301.68 399.658C1301.05 395.7 1300.43 391.742 1299.81 387.784ZM1320.36 387.784 1322.22 389.749 1320.36 397.692 1318.49 397.692C1319.11 394.39 1319.74 391.086 1320.36 387.784ZM1324.09 387.784C1325.8 391.305 1325.92 388.275 1324.09 391.742L1324.09 387.784ZM1430.58 387.784 1430.58 399.658 1432.45 399.658C1433.07 395.7 1433.7 391.742 1434.32 387.784L1430.58 387.784ZM1572.57 387.784 1572.57 403.63 1576.3 403.63 1572.57 387.784ZM1585.63 387.784C1585.58 402.47 1544.58 441.19 1531.45 451.181L1548.28 427.419 1548.28 419.489 1544.54 419.489 1520.26 461.09 1516.52 463.083C1520.94 454.32 1522.05 449.734 1523.98 441.272 1518.82 441.04 1521.32 438.816 1518.39 445.244L1516.52 445.244C1517.13 442.61 1517.77 439.962 1518.39 437.328L1527.72 437.328 1523.98 447.237 1540.8 419.476C1534.04 423.57 1532.16 429.07 1527.72 435.335 1526.55 434.816 1526.09 433.37 1525.85 435.335 1522.92 429.971 1520.52 432.524 1525.85 427.419 1520.75 414.48 1515.45 429.439 1509.05 437.328L1509.05 435.335 1503.44 439.293C1499.62 439.593 1503.11 439.621 1499.7 435.335 1497.91 450.567 1491.93 475.325 1473.54 480.908 1478.16 483.842 1476.75 482.436 1481.02 482.886L1477.28 496.753 1473.54 490.816 1441.79 574.031C1446.94 578.235 1442.16 575.219 1449.26 576.01 1429.31 592.416 1404.13 636.719 1402.56 665.162 1396.28 657.423 1392.01 661.709 1400.69 647.337L1396.96 643.366C1392.44 653.793 1387.4 660.494 1372.68 667.155L1376.42 661.204 1382 657.232 1378.27 657.232C1377.66 658.556 1377.02 659.88 1376.4 661.204 1373.51 662.541 1371.06 663.838 1368.96 665.067 1368.95 665.108 1368.94 665.135 1368.94 665.162L1362.6 669.188C1354.49 675.044 1352.8 678.388 1339.05 677.064 1343.54 684.488 1342.21 683.738 1348.39 684.98 1347.26 688.801 1349.8 687.655 1344.65 688.938 1350.78 695.325 1353.7 692.555 1361.45 690.917L1353.99 696.868C1349 699.57 1352.85 697.1 1353.99 702.818 1344.96 702.641 1349.52 701.822 1346.52 710.734 1343.43 713.723 1344.94 710.625 1344.65 706.763 1331.46 718.814 1329.7 729.829 1316.62 734.51 1316 736.489 1315.38 738.482 1314.77 740.461L1325.96 736.489C1321.18 743.627 1320.91 743.463 1314.77 744.419L1311.03 754.328 1315.25 755.829C1315.74 755.16 1316.2 754.437 1316.68 753.632 1316.43 752.827 1315.98 753.713 1318.49 750.356 1317.83 751.625 1317.24 752.69 1316.68 753.632 1316.8 754 1316.87 754.71 1316.62 756.307L1315.25 755.829C1313.28 758.49 1310.93 760.32 1305.42 764.223L1305.42 766.215 1318.49 760.265C1320.43 765.479 1316.95 764.469 1322.23 764.223 1315.25 773.067 1317.91 777.216 1305.42 778.103L1307.27 782.061C1303.52 775.783 1305.83 780.929 1307.27 772.153 1296.83 777.857 1299.9 773.053 1290.47 774.132 1293.7 767.867 1289.6 771.798 1296.08 770.174 1292.49 759.091 1292.69 767.703 1286.74 758.286L1284.87 764.223C1286.25 772.972 1283.29 765.069 1281.12 772.153L1269.91 770.174 1279.25 754.328 1258.72 768.195 1264.31 762.244 1264.31 760.265C1253 765.71 1244.55 764.878 1232.01 765.874L1232.01 769.71 1228.36 764.96C1228.73 766.215 1229.2 767.744 1230.06 769.532 1212.03 764.455 1180.11 778.622 1166.52 794.195 1167.21 787.111 1168.31 792.448 1166.54 786.47L1109.21 798.003 1112.3 803.012 1103.01 803.421C1103.45 799.163 1104.09 800.869 1103.03 795.696 1096.46 812.279 1079.98 812.32 1070.17 810.519 1072.27 814.818 1072.83 811.42 1072.01 815.063L1068.6 819.595 1069.84 820.045C1063.83 824.44 1053.6 826.133 1060.82 834.103 1064.91 830.104 1062.91 831.838 1065.77 835.946 1064.5 835.714 1065.32 836.492 1065.46 837.761 1060.79 840.613 1057.04 841.173 1053.35 846.782L1073.51 836.888 1066.7 838.211 1068.26 829.135 1073.53 829.176 1073.21 830.978C1068.71 832.329 1070.51 830.445 1069.8 835.509 1075.41 835.591 1078.47 835.591 1084.68 833.326 1084.05 834.376 1083.42 835.414 1082.8 836.478L1052.72 850.427 1052.09 854.043 1057.05 855.886 1074.73 845.077C1066.29 855.518 1035.21 886.349 1026.02 882.992L1024.77 890.253 1031.89 887.1 1025.98 898.442 1027.22 898.893C1033.01 895.003 1036.57 898.442 1040.55 890.322 1037.76 885.722 1042.61 882.719 1045.54 876.728L1046.78 877.191 1042.1 888.984C1048.56 884.616 1048.34 881.641 1054.2 887.687 1056.98 875.677 1077.68 856.459 1088.35 850.14L1070.02 872.319 1071.25 872.783 1080.26 866.464C1080.08 867.706 1078.51 872.933 1080.86 870.559 1083.4 863.325 1088.12 855.982 1093.8 849.089 1093.24 849.226 1092.84 848.898 1092.69 847.888L1100.45 841.105C1100.17 841.501 1099.75 842.142 1099.26 842.866 1108.49 833.025 1118.97 824.672 1126.49 819.895 1115.44 833.967 1101.87 842.456 1092.95 861.523 1102.63 855.422 1110.21 847.506 1118.1 839.891 1118 839.877 1117.91 839.849 1117.8 839.836L1122.75 833.967 1123.98 834.418C1121.97 836.219 1120.04 838.034 1118.1 839.891 1120.85 840.354 1121.26 840.613 1124.91 836.696L1123.99 834.418C1128.19 830.664 1132.64 827.102 1137.65 824.044 1133.04 831.633 1134.6 833.161 1132.96 835.823 1126.72 835.291 1122.94 843.835 1116.21 848.926L1118.07 853.484C1126.38 848.83 1134.79 843.698 1140.1 832.684L1141.33 833.148 1131.08 846.728 1144.74 836.355C1142.72 842.361 1142.51 842.033 1144.09 847.697 1145.62 839.194 1150.27 829.749 1148.77 835.905L1153.41 831.865 1148.43 845.458 1152.77 843.207 1170.5 809.222 1171.73 809.672 1167.38 819.649 1174.82 814.681C1170.87 819.718 1169.75 818.844 1168.92 826.023L1166.15 819.199C1165.22 822.065 1164.26 824.931 1163.34 827.811L1167.36 827.388 1152.12 854.549 1153.37 855.026 1156.16 854.126 1180.07 814.722 1181.33 815.187 1160.47 859.599C1165.86 857.183 1168.46 850.754 1173.21 846.947L1166.97 860.09 1169.77 859.203 1179.4 841.528 1172.87 856.487 1174.11 856.951 1174.72 853.32 1201.79 803.476 1180.32 851.505C1184.65 853.785 1180.56 851.41 1181.85 857.893L1182.48 854.248 1208.62 802.139C1197.5 834.24 1189.64 846.646 1184.3 866.545L1186.78 867.46 1212.93 807.625 1214.17 808.076 1207.28 840.313 1209.76 833.503C1209.76 836.069 1209.76 838.662 1209.75 841.228L1215.99 820.345 1206.91 865.29 1217.85 824.904 1209.98 870.299 1211.24 870.777C1214.04 851.846 1218.13 817.821 1225.93 808.58L1215.24 878.065 1232.01 794.7 1232.01 795.069C1232.17 795.314 1232.32 795.56 1232.47 795.792L1222.69 865.372 1223.95 865.836 1232.01 813.248 1232.01 821.356C1230.99 831.647 1229.95 841.938 1228.93 852.228L1232.01 831.442 1232.01 832.261 1234.77 825.86C1234.7 826.787 1234.64 827.716 1234.57 828.644L1232.01 835.618 1232.01 843.862C1232.19 843.111 1232.37 842.319 1232.56 841.487 1232.89 842.033 1233.19 842.552 1233.48 843.043 1233.15 847.438 1232.81 851.846 1232.48 856.241L1232.01 855.49 1232.01 862.492C1231.91 863.925 1231.8 865.359 1231.69 866.791L1232.01 866.914 1232.01 871.214 1232.56 871.214C1233.19 867.255 1233.8 863.284 1234.43 859.326L1233.68 858.125C1234.02 853.88 1234.36 849.635 1234.72 845.39 1238.06 852.433 1236.63 856.978 1235.39 867.201 1235.4 864.949 1235.41 862.697 1235.41 860.445L1234.16 867.706 1235.29 868.129C1234.92 871.227 1234.6 874.803 1234.43 879.144 1235.05 876.495 1235.67 873.861 1236.3 871.214L1238.16 879.144 1240.03 879.144C1240.64 873.193 1241.28 867.241 1241.9 861.305 1241.28 863.952 1240.64 866.587 1240.03 869.235 1239.4 862.628 1238.79 856.023 1238.16 849.417 1238.5 849.881 1238.8 850.277 1239.07 850.645 1238.98 852.406 1238.91 854.167 1238.81 855.914L1240.07 856.391C1240.06 854.931 1240.03 853.47 1240.01 852.01 1241.26 854.003 1241.34 855.422 1241.9 861.305 1245.34 854.262 1246.95 850.727 1248.3 847.779 1248.97 851.273 1249.61 854.767 1250.28 858.247 1250.25 852.406 1250.27 849.772 1248.9 846.482 1249.46 845.254 1250.05 843.985 1250.69 842.62 1251.07 847.384 1251.45 852.147 1251.82 856.896L1252.6 857.183C1252.75 862.233 1252.96 866.641 1253.11 869.235L1256.85 849.417C1257.46 853.375 1258.09 857.347 1258.72 861.305 1262.33 852.924 1261.95 844.053 1262.74 836.042L1266.35 838.566 1267 837.379C1263.03 834.13 1266.21 833.639 1262.81 835.263 1263.03 833.284 1263.32 831.36 1263.78 829.518 1264.05 829.654 1263.63 829.613 1264.91 826.965 1265.01 828.93 1265.11 830.91 1265.21 832.875 1267.13 836.26 1265.95 833.421 1267.03 837.324L1274.1 824.454 1268.26 816.852C1268.82 814.504 1269.36 812.156 1269.91 809.795 1275.89 812.184 1279.47 813.576 1283 811.788L1283 821.683 1286.74 823.662 1286.74 813.753 1320.36 823.662 1316.62 811.788C1304.17 816.81 1300.83 806.301 1292.34 811.788L1290.47 805.824 1286.74 805.824 1299.81 801.879 1299.81 799.886C1289.88 800.801 1291.45 798.221 1288.6 801.879 1286.99 799.286 1288.78 791.452 1288.6 778.09 1300.52 781.379 1307.25 784.6 1312.39 787.999L1314.75 787.999 1313.61 788.817C1321.57 794.345 1326.19 800.364 1342.78 807.816 1337.39 817.479 1333.54 810.996 1322.22 807.816L1320.36 809.795C1324.62 821.137 1321.77 828.699 1337.17 833.571 1333.21 828.398 1332.12 829.518 1329.7 821.683 1338.17 824.809 1338.67 824.618 1346.52 821.683L1355.86 833.571 1355.86 835.55 1342.78 827.634C1339.75 832.902 1342.22 830.391 1337.17 833.571L1342.78 841.487C1335.94 847.411 1326.55 848.161 1312.88 847.438 1319.08 851 1322.66 850.55 1329.7 849.417L1318.49 863.297 1314.75 863.297 1322.22 865.276 1309.14 869.235 1309.14 871.214C1312.02 874.434 1310.15 871.964 1307.27 875.185L1312.88 875.185C1304.65 887.592 1303.92 895.248 1297.94 896.968 1305.03 901.035 1302.3 898.278 1311.03 894.989 1308.9 897.555 1307.25 899.343 1305.76 900.599L1295.21 897.35C1296.13 898.211 1297.28 899.234 1298.84 900.203 1297.5 900.94 1296.16 901.854 1294.84 902.96 1294.62 902.946 1294.43 902.933 1294.21 902.919 1294.28 903.069 1294.33 903.192 1294.39 903.328 1292 905.389 1289.65 908.01 1287.37 911.04 1287.37 911.04 1287.36 911.04 1287.36 911.04 1287.15 910.971 1286.95 910.903 1286.74 910.849 1286.84 911.054 1286.96 911.244 1287.06 911.449 1281.65 918.751 1276.74 928.36 1273 938.364 1272.29 938.31 1271.3 938.35 1269.91 938.582 1270.43 939.729 1271.02 940.943 1271.63 942.199 1271.08 943.769 1270.58 945.339 1270.1 946.922L1268.05 942.554C1268.55 944.656 1269.04 946.772 1269.53 948.873 1269.16 950.211 1268.8 951.535 1268.48 952.846 1267.74 950.989 1267.48 950.935 1264.31 948.491 1263 952.695 1266.62 952.34 1262.44 952.45L1260.57 958.4 1267.63 956.531C1267.59 956.653 1267.58 956.789 1267.55 956.927 1265.73 958.741 1264.12 960.311 1262.69 961.798L1266.84 960.693C1266.55 962.426 1266.32 964.119 1266.14 965.757L1264.85 965.962C1263.69 962.877 1265.24 964.569 1262.44 962.058 1262.52 961.976 1262.61 961.894 1262.69 961.798L1262.28 961.908 1261.84 961.512C1261.71 961.717 1261.56 961.921 1261.42 962.126L1260.59 962.358C1260.68 962.549 1260.76 962.754 1260.86 962.959L1233.94 1002.57 1232.01 1003.67 1232.01 1005.39 1226.49 1013.5 1231.35 1015.72 1224.83 1022.85C1222.91 1018.73 1224.29 1019.78 1220.79 1015.94 1224.77 1035.5 1212.89 1047.54 1204.85 1053.07 1208.63 1055.37 1207.25 1051.93 1208.58 1055.8 1208.55 1057.97 1208.52 1060.14 1208.49 1062.31L1209.64 1061.81C1207.62 1070.1 1201.1 1079.05 1210.51 1080.91 1211.36 1074.37 1210.83 1077.37 1215.06 1078.96 1214.02 1079.67 1215.02 1079.75 1215.78 1080.79 1213.91 1086.72 1211.5 1089.96 1211.8 1097.66L1221.15 1074.17 1216.93 1080.31 1213.27 1071.05 1217.09 1067.26 1217.82 1069.1C1215.28 1073.59 1215.59 1070.59 1217.75 1075.64 1221.84 1071.63 1224.04 1069.4 1227.33 1062.87 1227.44 1064.26 1227.54 1065.64 1227.65 1067.04L1213.25 1101.34 1214.71 1105.04 1219.27 1103.09 1226.35 1080.58C1225.74 1096.03 1219.51 1146.15 1211.1 1149.83L1214.02 1157.22 1217.52 1149.23C1218.08 1154.04 1218.65 1158.84 1219.21 1163.65L1220.34 1163.16C1222.49 1155.47 1226.87 1155.93 1225.46 1145.79 1221.03 1143.73 1222.95 1137.52 1221.91 1130.04L1223.06 1129.55 1225.89 1143.47C1228.23 1134.89 1226.51 1132.39 1233.93 1133.52 1233.49 1132.23 1233.15 1130.73 1232.89 1129.07 1233.54 1128.97 1234.16 1129.05 1236.3 1128.79 1234.5 1121.4 1233.65 1112.48 1233.34 1102.65 1234.51 1092.77 1236.48 1083.04 1238.4 1076.64 1238.49 1077.48 1238.58 1078.32 1238.66 1079.15 1238.2 1088.87 1237.73 1098.6 1237.27 1108.3L1238.42 1107.81C1239.18 1104.92 1239.93 1102.01 1240.7 1099.1L1241.9 1110.95 1241.9 1096.44C1242.58 1098.38 1243.81 1102.12 1244.19 1098.84 1242.21 1090.54 1241.76 1080.54 1242.24 1070.28 1242.43 1069.95 1242.57 1069.43 1242.68 1068.79L1244.81 1083.45 1244.77 1083.46C1244.98 1086.26 1245.2 1089.03 1245.41 1091.83L1246.38 1094.3C1246.65 1096.1 1246.89 1097.92 1247.17 1099.72L1244.92 1100.69 1247.34 1100.9C1248.01 1105.57 1248.7 1110.25 1249.37 1114.92 1249.15 1110.29 1248.94 1105.67 1248.72 1101.04 1248.83 1101.05 1248.94 1101.07 1249.05 1101.07L1248.67 1100.11 1248.49 1096.25 1250.28 1094.04C1249.58 1090.03 1248.87 1086.01 1248.18 1081.99L1247.82 1082.14C1247.76 1080.68 1247.69 1079.23 1247.62 1077.77 1247.77 1079.16 1247.96 1080.55 1248.18 1081.99 1248.55 1080.77 1248.89 1079.54 1249.22 1078.32 1250.69 1081.47 1251.04 1084.51 1251.24 1091.13L1251.24 1069.46C1251.43 1068.53 1251.59 1067.6 1251.75 1066.67 1252.22 1069.55 1252.67 1072.42 1253.11 1075.29 1255.74 1068.01 1255.59 1058.66 1254.39 1048.81 1254.58 1047.33 1254.77 1045.86 1254.98 1044.4 1254.88 1044.45 1254.8 1044.52 1254.7 1044.59 1254.83 1042.45 1254.95 1040.29 1255.07 1038.15 1255.22 1038.95 1255.37 1039.75 1255.52 1040.54 1255.33 1041.82 1255.14 1043.1 1254.98 1044.4 1255.41 1044.09 1255.77 1043.83 1256.08 1043.57L1262.44 1077.28 1264.31 1077.28C1268.03 1069.21 1267.78 1058.03 1266.18 1049.53L1273.65 1069.35C1278.62 1056.06 1275.94 1038.93 1272.09 1023.01 1272.18 1022.63 1272.27 1022.25 1272.35 1021.87 1274.06 1028.69 1273.73 1028.55 1277.87 1032.44 1274.5 1023.76 1272.87 1011.96 1275.03 1018.55 1275.3 1016.97 1275.58 1015.38 1275.85 1013.8 1276.41 1015.22 1277.02 1016.58 1277.69 1017.91L1279.81 1027.3 1281.2 1023.61C1281.77 1024.36 1282.36 1025.07 1283 1025.76L1283 1011.89 1284.87 1011.89C1285.08 1012.5 1285.28 1013.12 1285.49 1013.72 1286.09 1020.06 1286.67 1026.4 1287.27 1032.73L1288.41 1032.24C1288.93 1031.3 1289.45 1030.34 1289.96 1029.4 1289.88 1028.31 1289.81 1027.2 1289.75 1026.11L1292.34 1033.67 1296.08 1035.66 1297.94 1029.73C1297.36 1030.18 1296.84 1030.26 1296.39 1030.05 1296.99 1028.31 1297.29 1026.45 1297.47 1024.53L1299.81 1025.76 1297.7 1020.46C1297.8 1017.61 1297.81 1014.7 1298.26 1011.89L1298.69 1011.89C1299.44 1016.88 1300.17 1021.87 1300.91 1026.86L1302.45 1024.04C1301.79 1017.44 1301.12 1010.88 1300.45 1004.3 1300.53 1004.34 1300.6 1004.4 1300.68 1004.44L1303.27 1019.35 1304.42 1018.88 1302.95 1015.16C1302.6 1011.81 1302.25 1008.45 1301.9 1005.08L1303.55 1005.95C1302.88 1003.69 1302.11 1001.42 1301.29 999.196 1300.98 996.275 1300.68 993.354 1300.38 990.433 1301.47 992.017 1302.56 993.572 1303.63 995.046L1306.04 1009.5C1310.37 1008.38 1306.17 1009.23 1310.51 1014.09L1309.05 1010.39C1308.46 1005.87 1307.87 1001.35 1307.27 996.848L1307.27 996.042 1312.3 1002.25C1313.55 1008.16 1314.97 1013.9 1316.84 1020.01L1319.11 1019.03C1318.49 1015.48 1317.89 1011.93 1317.27 1008.39 1317.48 1008.65 1317.69 1008.93 1317.91 1009.19 1317.65 1008.71 1317.4 1008.23 1317.16 1007.74 1316.42 1003.51 1315.67 999.264 1314.93 995.019 1316.02 996.084 1317.21 997.08 1318.49 998.008L1318.49 1001.98 1320.36 1001.98C1319.37 998.076 1317.59 994.023 1315.41 990.133 1318.56 990.283 1317.81 990.106 1320.19 991.197L1324.65 999.346 1321.69 991.839C1321.88 991.921 1322 991.989 1322.22 992.071 1321.1 989.846 1320.58 988.604 1320.09 987.785L1317.36 980.879 1318.78 986.38C1318.02 985.861 1316.86 985.301 1314.75 984.155L1314.75 988.987C1314.97 989.369 1315.19 989.75 1315.4 990.133 1315.2 990.119 1314.99 990.106 1314.75 990.092L1314.75 988.987C1314.36 988.318 1313.96 987.649 1313.54 986.994 1313.36 985.943 1313.18 984.892 1312.99 983.855 1315.56 976.552 1313.39 973.332 1311.03 964.337L1318.49 978.204C1318.71 978.313 1318.93 978.436 1319.15 978.559 1319.31 979.01 1319.48 979.446 1319.64 979.896 1319.55 979.487 1319.45 979.064 1319.37 978.655L1322.22 980.183C1322.47 974.901 1320.98 970.247 1318.32 966.098L1315.61 956.448C1315.64 956.448 1315.66 956.435 1315.67 956.421L1332.53 1002.44 1319.16 958.468 1321.01 963.15 1322.22 968.295 1323.26 968.841 1337.4 1004.68 1338.53 1004.19C1334.59 994.76 1328.88 981.767 1324.26 969.374L1325.96 970.275 1322.17 963.559C1318.59 953.282 1316.09 943.919 1316.42 938.037L1323.31 954.715 1322.22 954.428 1323.46 955.097 1345.26 1007.77 1326.54 956.721 1329.7 958.4 1329.7 957.623 1343.98 991.034 1345.13 990.542 1330.17 954.442 1331.56 956.408 1332.24 954.974 1333.65 957.964 1333.43 958.4 1333.85 958.4 1341.56 974.764 1334.7 958.4 1337.59 958.4 1350.79 984.892 1350.79 1597.82C1372.4 1601.05 1365.8 1596.07 1392.93 1597.82L1392.93 1051.95C1393.53 1043.44 1393.44 1033.69 1392.93 1023.37L1392.93 908.856 1395.09 908.856C1394.46 907.546 1393.83 906.208 1393.21 904.898 1393.11 905.103 1393.03 905.321 1392.93 905.526L1392.93 886.541C1394.54 883.866 1396.06 880.876 1398.83 879.144L1395.09 885.094C1403.64 881.245 1406.91 874.748 1408.17 863.297L1417.51 867.255 1419.36 863.297C1415.17 854.917 1414.31 852.188 1404.43 849.417L1404.43 847.438 1421.23 833.571 1423.12 833.571C1423.23 844.217 1430.56 843.125 1428.71 851.396L1430.58 855.367 1438.05 847.438 1432.45 865.276 1434.31 865.276 1438.05 860.172 1438.05 859.326C1438.12 859.517 1438.17 859.735 1438.23 859.926L1447.39 847.438 1434.31 883.102 1436.18 883.102 1445.52 871.214C1444.9 874.517 1444.28 877.819 1443.65 881.122L1445.52 881.122C1446.15 878.474 1446.77 875.84 1447.39 873.193L1451.14 871.214 1441.79 898.947C1451.66 888.206 1456.29 879.061 1461.05 870.736 1460.86 870.886 1460.68 871.036 1460.48 871.214L1462.34 863.297 1465.61 863.297C1465.76 863.066 1465.93 862.847 1466.08 862.615L1466.08 861.305 1467.62 860.472C1470.96 856.009 1475.09 851.724 1481.02 847.438 1477.62 854.589 1473.79 857.101 1467.62 860.472 1467.09 861.182 1466.57 861.892 1466.08 862.615L1466.08 863.297 1469.82 865.276 1488.49 849.417 1492.23 843.48 1488.49 843.48C1487.86 842.156 1487.25 840.832 1486.63 839.508L1486.63 845.458C1479.51 847.656 1475.97 846.223 1467.95 849.417 1469.23 843.303 1471.24 846.523 1466.08 843.48L1473.54 837.542 1473.54 843.48C1476.52 834.949 1474.53 834.718 1469.82 829.599L1469.82 827.634 1482.89 835.55C1480.98 826.91 1483.97 831.96 1477.28 823.662L1482.89 821.683 1481.02 817.725C1487.74 823.512 1488.8 822.898 1490.36 829.599L1492.23 819.704 1494.09 831.578 1495.96 831.578C1496.59 820.359 1497.2 809.14 1497.83 797.908 1498.46 809.14 1499.08 820.359 1499.7 831.578L1503.43 835.55 1503.43 787.999C1504.68 804.513 1505.92 821.028 1507.18 837.542 1513.17 831.783 1511.79 832.438 1509.05 823.662L1510.92 817.725C1512.16 825.641 1513.4 833.571 1514.65 841.487L1518.39 843.48 1518.39 827.634C1519.63 834.226 1520.87 840.846 1522.11 847.438L1522.11 825.641C1527.23 838.075 1524.84 846.332 1535.2 853.389L1535.2 839.508 1533.32 845.458 1533.32 839.508 1535.2 839.508 1535.2 827.634 1540.8 855.367 1544.54 857.347C1545.16 852.734 1545.8 848.093 1546.41 843.48L1546.41 857.347C1547.04 855.367 1547.64 853.389 1548.27 851.396L1550.14 851.396C1549.53 855.367 1548.9 859.326 1548.27 863.297L1550.14 863.297C1552.64 846.046 1546.58 829.776 1544.54 811.788L1555.74 857.347C1558.34 857.797 1556.19 857.729 1557.61 855.367L1561.35 871.214 1565.09 871.214 1555.74 811.788 1570.7 871.214 1570.7 877.164 1538.95 863.297C1533.88 860.336 1538.71 862.711 1533.32 865.276 1533.2 859.094 1534.74 862.247 1529.59 857.347L1531.45 863.297 1520.26 855.367 1512.78 865.276C1506.87 861.346 1506.4 859.913 1495.96 859.326 1496.33 860.527 1496.55 861.619 1496.63 862.642L1497.83 863.297C1497.2 864.608 1496.59 865.945 1495.96 867.255 1495.9 867.296 1495.86 867.337 1495.82 867.364 1494.01 871.186 1489.38 873.861 1482.89 877.164L1495.82 867.364C1496.48 865.972 1496.76 864.43 1496.63 862.642L1494.09 861.305C1488.5 867.296 1486.76 870.667 1477.28 873.193L1490.36 861.305 1490.36 859.326C1464.34 870.367 1464.16 894.389 1453 920.758L1456.74 924.702 1468.79 896.818 1469.82 893.01C1469.99 893.106 1470.16 893.188 1470.31 893.269L1477.28 877.164 1477.28 889.052C1471.09 887.715 1474.84 886.704 1471.67 893.01L1475.41 891.031C1479.51 892.3 1477.98 892.86 1481.02 885.094L1482.89 885.094 1473.54 914.793 1484.76 894.989 1484.76 891.031 1486.62 891.031 1473.54 924.702 1473.54 932.645 1475.41 932.645 1492.23 887.059 1494.09 887.059 1482.89 938.582 1484.76 938.582 1494.09 900.94C1492.85 915.462 1491.6 929.998 1490.36 944.519L1492.23 944.519 1499.7 916.786 1501.57 916.786 1497.83 944.519 1499.7 944.519C1501.75 931.963 1508.39 916.636 1501.57 912.828 1504.83 903.547 1501.69 910.753 1509.05 906.877L1501.57 954.428 1503.43 954.428 1512.78 916.786 1512.78 912.828C1514.5 919.488 1512.83 928.005 1511.19 937.026L1514.65 942.554C1514.02 937.927 1513.4 933.301 1512.78 928.674L1516.52 934.611C1517.13 928.018 1517.77 921.399 1518.39 914.793L1522.11 912.828C1520.87 929.998 1519.63 947.167 1518.39 964.337L1518.39 968.295 1520.26 968.295C1520.87 958.386 1521.5 948.491 1522.11 938.582L1523.98 948.491C1528.61 938.296 1525.69 935.361 1523.98 924.702L1527.72 930.653 1527.72 914.793C1537.25 924.361 1525.16 953.705 1523.98 974.246 1531.67 961.867 1530.25 955.725 1531.45 938.582L1533.32 938.582C1533.95 955.097 1534.58 971.598 1535.2 988.113L1538.95 958.4C1539.56 964.337 1540.17 970.288 1540.8 976.225 1542.04 965.661 1543.3 955.084 1544.54 944.519L1542.67 950.47C1539.66 943.004 1540.77 937.422 1535.2 932.645 1535.82 935.28 1536.45 937.927 1537.08 940.562L1533.32 932.645C1537.39 926.94 1533.92 929.643 1538.95 928.674 1541.55 924.92 1539.08 927.473 1542.67 924.702L1538.95 930.653 1540.8 932.645C1546.4 926.913 1548.21 927.555 1550.14 918.765L1552.01 918.765C1553.27 925.685 1552.69 934.474 1551.53 944.451 1551.7 945.134 1551.85 945.816 1552.01 946.512 1555.98 941.858 1552.96 946.744 1553.88 940.562 1556.71 943.81 1557.65 950.839 1557.73 959.151 1558.32 948.327 1558.9 937.518 1559.48 926.695 1558.86 930.653 1558.25 934.625 1557.62 938.582L1555.75 938.582 1555.75 920.758 1561.35 918.765C1560.73 921.413 1560.1 924.047 1559.48 926.695 1569.74 924.579 1567.22 926.285 1574.42 926.695L1570.7 934.611 1565.09 926.695C1563.83 951.781 1562.6 976.894 1561.35 1001.98L1563.23 1001.98C1565.82 983.295 1565.8 967.258 1565.1 946.512 1565.72 949.815 1566.33 953.104 1566.96 956.408L1566.96 936.603C1578.42 940.084 1575.13 940.575 1583.76 934.611L1581.91 938.582C1583.95 946.867 1575.91 938.487 1578.17 954.428L1576.3 954.428 1574.42 946.512 1570.7 944.519C1571.31 964.993 1571.94 985.465 1572.57 1005.94L1574.42 1005.94C1575.05 997.353 1575.67 988.768 1576.3 980.183 1580.94 986.776 1585.35 1010.67 1585.63 1013.88 1587.5 1000 1589.39 986.12 1591.26 972.254L1591.26 968.295 1593.11 968.295 1593.11 1017.83C1593.73 1013.21 1594.36 1008.59 1594.98 1003.97 1595.6 1006.61 1596.23 1009.25 1596.85 1011.89 1597.48 1007.26 1598.1 1002.64 1598.72 998.008 1599.34 1006.61 1599.97 1015.18 1600.59 1023.76 1601.21 1012.54 1601.84 1001.32 1602.45 990.092 1603.69 1006.59 1604.95 1023.12 1606.19 1039.62 1607.43 1025.1 1608.69 1010.56 1609.93 996.042 1610.56 1006.61 1611.17 1017.17 1611.79 1027.73L1613.66 1021.8 1615.53 1021.8 1615.53 1057.46C1616.16 1044.25 1616.78 1031.04 1617.4 1017.83L1619.28 1017.83C1619.9 1032.36 1620.51 1046.9 1621.14 1061.43 1621.75 1052.85 1622.38 1044.25 1623.01 1035.66 1623.62 1044.9 1624.25 1054.16 1624.88 1063.4 1625.49 1052.83 1626.12 1042.27 1626.75 1031.71 1631.9 1027.5 1627.12 1030.52 1634.22 1029.73 1635.04 1024.58 1632.43 1028.64 1636.09 1023.76 1633.3 1020.54 1631.13 1019.6 1628.62 1015.85 1628.33 1011.79 1628.31 1015.51 1632.35 1011.89 1623.68 1009.2 1619.65 981.589 1602.45 988.113 1602.25 980.675 1602.04 983.145 1600.59 974.246L1609.93 970.275C1609.3 973.578 1608.69 976.88 1608.06 980.183 1614.15 981.794 1609.77 981.466 1617.4 976.225 1616.78 978.873 1616.16 981.507 1615.53 984.155L1624.88 982.162 1624.88 984.155 1617.4 988.113 1656.63 1003.97 1641.68 992.071 1637.94 992.071C1643.42 988.782 1649.22 994.146 1660.37 998.008 1665.38 1006.27 1679.87 1042.65 1673.44 1053.49L1677.19 1057.46 1677.19 1025.76 1682.38 1040.47C1681.9 1034.24 1681.41 1028.02 1680.92 1021.8L1684.66 1031.71 1688.38 1033.67C1686.39 1009.84 1675.26 1008.69 1669.71 992.071 1675.63 996.602 1677.41 994.569 1681.75 994.937L1680.92 994.064C1681.56 994.473 1682.09 994.773 1682.51 995.019 1684.44 995.306 1686.85 996.084 1690.25 998.008L1671.57 974.246 1684.66 986.134C1683.56 980.743 1679.91 976.907 1675.32 970.275L1690.25 984.155C1682.58 963.778 1633.08 921.959 1619.28 916.786L1615.53 910.849 1623.01 910.849C1613.03 902.141 1612.7 881.122 1613.66 861.305L1619.28 859.326 1615.53 879.144C1622.9 873.875 1619.99 877.629 1621.14 869.235 1627.84 873.07 1625.21 873.411 1628.61 881.122L1634.2 883.102C1636.41 877.697 1635.55 881.45 1639.81 877.164L1632.35 869.235 1641.68 875.185C1642.49 868.265 1641.9 873.575 1636.07 865.276 1642.9 864.635 1650.82 869.821 1665.97 873.193 1661.91 862.738 1652.9 857.387 1647.29 857.347 1647.54 852.31 1647.09 855.04 1649.16 849.417L1596.85 817.725 1593.11 817.725 1593.11 815.732 1658.5 839.508 1658.5 837.542C1634.26 828.617 1613.94 812.334 1585.63 807.816L1585.63 805.824C1604.72 808.813 1616.91 817.93 1636.07 815.732L1636.07 813.753 1621.14 811.788 1621.14 809.795 1643.54 813.753C1633.67 804.363 1607.34 799.15 1591.26 797.908 1597.11 795.055 1599.53 797.198 1602.45 793.95L1608.06 793.95 1608.06 791.97C1597.47 793.526 1588.25 795.273 1581.91 787.999L1600.59 789.977C1591.24 779.714 1582.59 789.854 1572.57 778.09L1589.37 782.061C1578.77 769.423 1562.4 753.782 1550.14 748.377L1548.27 744.419C1569.13 757.235 1589.22 771.962 1593.11 780.083L1598.72 780.083C1600.32 775.851 1572.72 746.971 1555.74 740.447L1553.88 736.489 1630.48 780.083 1574.42 742.426 1570.7 736.489 1634.2 774.132 1636.07 774.132 1636.07 770.174 1589.37 744.419 1585.63 738.482 1656.63 780.083 1658.5 780.083 1658.5 778.09 1638.5 762.667 1637.74 762.244 1634.2 762.244 1634.2 760.265 1637.74 762.244 1637.94 762.244 1638.5 762.667 1665.97 778.09C1652.45 760.005 1618.03 739.137 1596.85 730.538L1593.11 724.601 1649.16 756.307 1645.41 750.356 1673.44 766.215 1671.57 762.244 1677.18 764.223 1667.84 758.286 1665.97 754.328 1679.05 760.265C1675.25 753.359 1675.1 749.387 1664.1 750.356L1664.1 744.419 1707.07 770.174C1702.33 762.613 1692.55 754.191 1681.48 747.64 1677.11 745.716 1672.75 743.532 1668.58 741.17 1660.34 737.8 1652.17 735.902 1645.41 736.489 1651.79 729.092 1648.19 735.37 1645.41 724.601 1651.16 730.156 1659.46 736.053 1668.58 741.17 1672.92 742.958 1677.29 745.17 1681.48 747.64 1688.36 750.67 1695.24 753.045 1701.46 754.328L1701.46 752.335C1687.52 747.981 1651.03 731.139 1654.76 720.63 1658.45 727.645 1659.8 728.109 1669.7 734.51L1671.57 734.51 1660.37 720.63C1656.29 715.143 1647.17 718.132 1641.68 714.692 1641.89 722.595 1641.68 717.04 1643.54 724.601 1640.03 721.844 1640.48 722.732 1637.94 718.664 1636.3 716.057 1636.37 718.405 1637.94 712.714 1562.41 709.793 1514.77 717.586 1456.74 740.447 1456.11 737.145 1455.48 733.841 1454.87 730.538 1451.26 736.871 1453.03 731.07 1454.87 738.482 1451.32 735.698 1453.74 738.318 1451.14 734.51L1445.52 732.517C1450.45 730.511 1447.03 733.514 1449.26 728.573L1453 730.538C1449.72 725.843 1451.14 727.14 1445.52 724.601L1453 724.601 1438.05 710.734 1438.05 708.755 1479.17 722.609 1479.17 720.63 1439.92 704.784 1439.92 702.818 1466.08 708.755C1458.27 700.43 1435.76 696.035 1434.31 692.909 1430.76 690.125 1433.18 692.746 1430.58 688.938L1462.34 696.868 1462.34 694.889 1438.05 688.938 1438.05 686.959 1495.96 694.889 1495.96 692.909 1428.71 683 1482.89 684.98 1428.71 679.029 1497.83 681.008 1497.83 679.029 1415.64 675.071 1512.78 671.113 1441.79 669.12C1453.53 659.798 1487.88 662.474 1507.18 663.183L1507.18 661.204 1460.48 661.204 1503.43 655.267 1456.74 657.232 1479.17 653.274 1471.67 651.295 1479.17 649.302 1445.52 651.295 1445.52 649.302 1512.78 625.541 1512.78 621.569C1491.63 624.422 1476.81 633.034 1441.79 641.386L1501.57 615.632 1505.31 615.632C1499.49 612.015 1500.34 618.771 1499.7 611.66L1445.52 631.477 1503.43 603.744 1507.18 603.744 1507.18 601.765 1490.36 607.702 1510.92 597.793 1512.78 593.849 1497.83 599.786C1503.21 593.63 1510.37 591.419 1514.65 583.94L1464.21 603.744 1464.21 601.765 1510.92 576.01 1512.78 572.038 1512.78 570.059 1481.02 585.919 1482.89 579.968 1473.54 581.947 1479.17 587.898C1471.92 587.284 1472.37 589.235 1466.08 593.849L1473.54 583.94 1462.34 587.898 1462.34 585.919 1501.57 568.08 1505.31 562.144 1490.36 566.101 1495.97 560.15C1489.47 560.806 1500.29 556.288 1509.05 556.192 1504.14 552.33 1504.37 552.74 1497.83 554.214L1512.78 536.389 1495.97 548.263 1495.97 546.297C1508.52 541.166 1516.49 529.851 1523.98 518.55L1520.26 514.578C1512.93 523.381 1503.3 526.848 1501.57 536.389 1498.42 538.135 1497.5 535.392 1488.5 540.333 1493.26 533.59 1498.29 527.845 1503.43 522.508L1505.31 524.487C1510.4 520.024 1510.31 519.328 1510.85 515.083 1508.37 517.485 1505.9 519.942 1503.44 522.481L1503.44 520.542 1510.92 514.578C1510.89 514.756 1510.87 514.919 1510.85 515.083 1521.05 505.175 1531.41 495.852 1540.8 482.886 1519.15 491.348 1506.09 509.529 1488.5 522.508 1495.82 512.435 1507.67 498.814 1520.5 487.513L1518.39 488.837 1527.72 478.928C1528.67 479.406 1528.82 480.116 1528.48 480.908 1537.17 474.178 1545.99 468.979 1553.88 467.04 1557.03 464.134 1551.41 465.116 1550.14 465.061L1559.48 453.174 1559.48 451.181 1531.45 472.977C1541.4 458.565 1567.44 432.442 1580.04 431.363 1576.31 421.004 1579.09 422.096 1585.63 413.538L1572.57 417.51 1572.57 415.517C1579.42 412.665 1584.06 406.168 1587.5 411.573 1596.78 407.697 1594.75 401.418 1600.59 393.721L1600.59 391.755 1587.5 397.692 1593.11 387.784 1585.63 387.784ZM1528.48 480.908C1525.79 482.982 1523.12 485.193 1520.5 487.513 1523.36 485.725 1527.59 482.969 1528.48 480.908ZM1510.92 597.793 1507.18 601.751 1512.78 603.744C1511.74 597.575 1514.88 602.447 1510.92 597.793ZM1462.34 696.868 1482.89 702.805 1482.89 700.825 1462.34 696.868ZM1453 724.601 1458.61 728.573 1460.48 728.573 1460.48 724.601 1453 724.601ZM1460.48 728.573C1464.12 732.613 1461.13 730.716 1467.95 732.517L1467.95 730.538 1460.48 728.573ZM1636.07 815.732 1643.54 817.725 1643.54 815.732 1636.07 815.732ZM1639.81 877.164C1642.84 882.433 1640.37 879.935 1645.41 883.102 1646.23 888.247 1643.64 884.18 1647.29 889.052L1647.29 883.102 1649.16 881.122 1639.81 877.164ZM1682.51 995.019C1682.24 994.992 1681.99 994.964 1681.75 994.937L1686.51 1000C1683.88 995.401 1685.41 996.711 1682.51 995.019ZM1682.38 1040.47C1682.51 1042.17 1682.65 1043.87 1682.79 1045.57L1682.79 1041.62C1682.65 1041.23 1682.51 1040.85 1682.38 1040.47ZM1557.73 959.151C1557.16 969.824 1556.58 980.483 1556.01 991.157 1556.62 981.671 1557.82 969.428 1557.73 959.151ZM1556.01 991.157C1555.9 992.89 1555.82 994.527 1555.75 996.042 1555.85 994.419 1555.93 992.781 1556.01 991.157ZM1551.53 944.451C1551.07 942.5 1550.6 940.534 1550.14 938.582 1550.34 942.636 1550.55 946.69 1550.75 950.757 1551.03 948.6 1551.29 946.499 1551.53 944.451ZM1550.75 950.757C1548.95 964.583 1546.55 980.238 1546.41 996.042 1549.77 989.464 1549.36 985.67 1548.28 978.204L1552.01 988.113 1553.88 988.113C1554.51 976.225 1555.14 964.324 1555.75 952.45L1552.01 950.47 1552.01 976.225C1551.59 967.736 1551.18 959.246 1550.75 950.757ZM1468.79 896.818 1462.34 920.758C1468.97 914.411 1473.5 910.289 1475.41 894.989 1470.54 894.28 1474.66 895.576 1470.32 893.269L1468.79 896.818ZM1492.23 843.48 1495.96 843.48C1496.59 841.487 1497.2 839.522 1497.83 837.542L1490.36 835.55 1492.23 843.48ZM1466.08 863.297 1465.61 863.297C1463.97 865.713 1462.5 868.184 1461.05 870.736 1464.82 867.624 1463.69 869.712 1466.08 863.297ZM1438.23 859.926C1438.17 860.008 1438.12 860.09 1438.05 860.172L1438.05 865.276 1439.92 865.276C1439.36 863.502 1438.8 861.714 1438.23 859.926ZM1324.65 999.346 1329.43 1008.09 1330.58 1007.62 1322.88 991.47C1323.46 994.091 1324.05 996.725 1324.65 999.346ZM1317.91 1009.19C1318.1 1009.55 1318.3 1009.92 1318.49 1010.29L1318.49 1009.91C1318.3 1009.66 1318.1 1009.43 1317.91 1009.19ZM1318.49 1010.29 1318.49 1013.88 1320.36 1013.88 1318.49 1010.29ZM1303.55 1005.95 1305.42 1013.88 1306.26 1014.32C1305.89 1016.45 1305.53 1018.58 1305.14 1020.71L1308.87 1023.44C1308.77 1022.04 1308.67 1020.64 1308.57 1019.23L1306.71 1014.55 1309.14 1015.85 1303.55 1005.95ZM1303.27 1019.35C1303.01 1020.91 1302.73 1022.47 1302.45 1024.04 1306.67 1026.81 1302.66 1024.91 1306.6 1024.42L1303.27 1019.35ZM1299.81 1025.76 1299.81 1031.71 1301.68 1031.71 1299.81 1025.76ZM1313.61 788.817C1313.21 788.545 1312.8 788.272 1312.39 787.999L1311.03 787.999 1309.14 791.97 1313.61 788.817ZM1309.14 791.97 1305.42 791.97C1308.75 793.772 1305.89 793.908 1309.14 791.97ZM1172.87 856.487 1169.77 859.203C1171.99 864.13 1169.48 859.954 1173.15 862.397 1173.06 860.431 1172.97 858.452 1172.87 856.487ZM1092.95 861.523 1089.25 860.144 1085.5 866.491 1084.57 871.937 1088.6 871.487 1092.95 861.523ZM1099.26 842.866C1097.37 844.885 1095.55 846.96 1093.8 849.089 1095.23 848.693 1097.67 845.227 1099.26 842.866ZM1362.6 669.188C1364.36 667.933 1366.41 666.555 1368.96 665.067 1369.97 659.867 1374.07 661.491 1368.94 659.211L1357.73 667.141 1357.73 669.12 1359.58 671.113 1362.6 669.188ZM1382 657.232 1387.61 655.267 1383.87 651.295C1383.26 653.274 1382.63 655.253 1382 657.232ZM1600.59 387.784 1604.32 391.742 1608.06 387.784 1600.59 387.784ZM1232.01 388.548 1232.01 392.001C1232.19 392.574 1232.38 393.148 1232.56 393.721 1233.82 388.248 1235.44 390.35 1232.01 388.548ZM1327.83 391.742C1328.46 394.376 1329.07 397.024 1329.7 399.658L1327.83 399.658 1327.83 391.742ZM1294.21 401.651 1296.08 401.651 1292.34 405.622 1294.21 401.651ZM1303.55 401.651 1305.42 401.651C1304.8 403.63 1304.17 405.622 1303.55 407.601L1303.55 401.651ZM1342.78 403.63C1343.39 406.277 1344.02 408.911 1344.65 411.56L1342.78 411.56 1342.78 403.63ZM1382.01 403.63 1385.74 415.517 1389.48 415.517C1387.2 408.598 1387.12 407.424 1382.01 403.63ZM1335.3 409.567 1337.17 409.567C1336.55 411.56 1335.93 413.538 1335.3 415.517L1335.3 409.567ZM1268.05 411.56 1271.78 417.51C1269.36 411.587 1271.86 415.122 1268.05 411.56ZM1430.58 419.476C1429.96 420.8 1429.34 422.137 1428.71 423.447L1430.58 425.426 1432.45 425.426 1430.58 419.476ZM1514.65 419.476 1518.39 423.447C1515.77 419.694 1518.24 422.246 1514.65 419.476ZM1430.58 429.385 1428.71 433.356C1434.28 430.79 1430.97 433.438 1434.32 429.385L1430.58 429.385ZM1024.04 429.698C1022.08 433.916 1023.14 430.449 1022.47 435.062 1023 433.288 1023.51 431.486 1024.04 429.698ZM958.871 430.231C960.086 435.513 961.301 440.808 962.516 446.104L965.833 444.248 958.871 430.231ZM1020.76 435.267C1018.47 435.253 1017.16 437.028 1017.58 442.268 1024.56 444.152 1021.32 443.074 1021.08 449.284 1020.01 447.66 1020.23 449.148 1019.43 450.198 1012.75 446.827 1008.66 442.896 1000.89 442.61L1027.95 458.892 1020.29 451.959 1028.57 447.346 1033.69 453.447 1032.04 454.347C1026.62 450.103 1029.8 450.853 1025.34 453.61 1030.76 460.148 1033.75 463.656 1041.51 469.224L1037.34 469.307 997.572 444.466 994.268 446.295 997.749 453.324 1023.06 466.072C1007.06 463.696 953.779 449.652 947.281 436.686L940.675 440.371 949.984 446.377 935.814 447.578 936.674 449.311C945.22 453.242 946.162 459.793 956.072 458.633 956.755 452.164 963.717 455.63 971.034 454.784L971.908 456.545 958.584 459.479C968.14 463.833 970.133 461.486 971.389 472.5 983.02 467.232 1017.5 477.523 1032.63 485.37L998.254 479.897 999.128 481.658 1012.61 487.582C1011.51 488.25 1006.12 490.134 1010.19 491.158 1018.02 488.987 1028.1 489.233 1038.74 490.898 1038.1 490.366 1037.94 489.67 1038.55 488.769L1051.17 492.932C1050.61 492.891 1049.73 492.863 1048.71 492.809 1065.04 496.494 1081.48 502.69 1092.39 507.999 1071.14 505.188 1051.58 495.539 1028.7 498.732 1042.69 505.584 1055.97 508.71 1069.35 512.449 1069.27 512.313 1069.17 512.19 1069.06 512.053L1078.29 513.637 1079.15 515.356C1086.06 517.54 1093.03 520.147 1100.21 523.777 1090.09 523.832 1090.48 526.739 1086.9 526.739 1081.2 519.151 1071.15 520.815 1060.8 516.653L1059.23 522.016C1070.82 528.323 1082.86 534.396 1096.21 532.731L1097.07 534.478 1076.98 532.266 1098.03 540.674C1091.6 542.585 1091.63 542.121 1088.99 547.963 1096.77 543.718 1108.34 542.38 1102.29 545.014L1109.87 547.512 1094.9 551.375 1100.81 554.773 1143.35 551.211 1144.23 552.971 1132.57 554.991 1143.53 560.069C1135.94 559.086 1135.47 557.148 1129.35 561.27 1130.12 558.595 1130.92 555.92 1131.69 553.244L1122.56 556.097 1126.82 560.424 1091.75 562.075 1092.62 563.836 1096.02 566.429 1148.65 566.156 1149.52 567.93 1096.19 575.273C1103.24 579.777 1110.56 578.221 1118.03 581.019L1102.19 583.107 1105.58 585.701 1128.1 584.336 1110.62 587.366 1111.49 589.113 1114.81 587.27 1178.23 583.244 1121.59 592.443C1124.14 599.048 1121.92 592.661 1118.37 598.721L1121.67 596.878 1185.89 590.177C1151.23 600.072 1134.33 599.759 1114.34 607.661L1116.09 611.182 1186.05 599.035 1186.93 600.796 1156.29 615.632 1163.77 613.707 1158.03 619.14 1179.61 611.578 1137.4 632.883 1178.04 616.942 1136.69 639.981 1137.56 641.741C1154.34 631.587 1183.58 612.275 1198.07 614.731L1136.09 651.514 1223.81 607.088 1152.8 651.159 1153.67 652.92 1214 617.037 1168.63 649.043 1215.73 620.545 1160.54 662.528 1161.4 664.261 1209.19 628.666 1210.06 630.413 1191.16 647.665 1192.03 649.412 1216.68 626.742C1216.04 631.396 1217.01 627.874 1215.1 632.078 1215.2 635.572 1197.19 650.571 1193.94 661.791L1214.49 643.611 1215.36 645.372 1187.58 678.756 1188.44 680.517 1218.76 647.951 1219.62 649.712 1212.47 669.366 1219.09 665.681C1215.22 670.703 1215.92 668.847 1215.09 674.621L1217.52 671.045C1221.67 674.32 1217.3 673.338 1222.56 672.696L1218.47 677.214C1217.85 681.813 1218.8 678.456 1216.96 682.455L1233.42 681.541C1233.42 680.694 1233.42 679.834 1233.42 678.988L1249.37 677.05 1244.4 681.185 1251.24 683 1240.71 684.243 1220.49 701.058C1224.17 705.63 1233.64 697.578 1251.24 692.909L1232.01 710.953 1275.52 696.868 1275.52 698.847 1232.01 715.743C1235.97 715.812 1241.27 714.911 1246.92 713.546 1256.35 709.643 1265.87 706.544 1273.65 704.784 1273.39 705.057 1273.15 705.344 1272.89 705.616 1277.38 704.047 1280.5 702.914 1281.12 702.818L1269.91 708.755 1272.89 705.616C1266.03 707.991 1256.03 711.362 1246.92 713.546 1241.83 715.662 1236.75 718.023 1232.01 720.548 1231.89 727.686 1242.98 722.95 1252.86 717.791 1234.73 728.287 1227.93 736.271 1260.57 720.63L1232.01 741.375 1254.98 730.538 1249.37 736.489C1262.51 732.586 1260.75 723.4 1283 722.609L1277.39 718.664 1290.47 714.692C1286.81 718.719 1289.81 716.863 1283 718.664L1283 722.609 1283 724.492C1283.07 724.492 1283.15 724.492 1283.23 724.492L1290.47 720.63C1285.84 725.311 1287.03 724.424 1283.23 724.492 1283.15 724.533 1283.07 724.56 1283 724.601L1283 724.492C1282.47 724.506 1281.85 724.533 1281.12 724.601L1275.52 730.538 1281.12 728.573 1271.78 736.489 1275.52 730.538C1262.76 734.674 1248.7 749.019 1241.9 762.244L1294.21 726.58 1290.47 732.517C1301.88 729.092 1323.33 716.794 1329.7 716.672 1326.38 706.175 1327.65 711.99 1331.56 704.784 1325.24 699.72 1325.16 702.382 1325.96 698.847L1322.22 694.875 1316.62 700.825 1324.09 704.784 1324.09 706.763 1309.14 696.868 1312.9 696.868 1303.55 690.917 1301.68 686.959 1318.49 696.868C1322.14 692.828 1319.15 694.711 1325.96 692.909 1318.36 686.672 1313.55 681.377 1303.55 683 1309.33 678.674 1311.07 679.848 1318.49 683 1314.04 677.364 1306.74 675.985 1297.94 675.071L1297.94 673.092C1312.04 673.952 1323.25 672.314 1322.22 683L1340.91 683 1340.91 681.008C1327.01 675.672 1322.39 671.372 1305.42 671.113L1311.03 667.141 1290.47 663.183 1299.81 661.204C1284.71 640.131 1270.68 637.605 1256.85 613.653 1250.28 611.564 1256.66 608.125 1260.57 605.723 1255.62 603.252 1247.78 599.376 1240.07 595.855 1243.59 598.558 1241.16 596.032 1243.77 599.786L1240.07 595.855C1240.06 595.855 1240.06 595.841 1240.06 595.841 1237.58 594.709 1235.14 593.644 1232.81 592.647 1232.79 591.965 1232.79 591.297 1232.79 590.614L1236.3 591.843C1234.85 589.918 1233.72 588.444 1232.77 587.297L1232.77 586.683C1232.71 586.806 1232.64 586.956 1232.59 587.093 1232.38 586.861 1232.19 586.629 1232.01 586.437L1232.01 588.553C1231.66 589.495 1231.32 590.573 1231.03 591.87 1217.16 567.48 1175.46 540.661 1150.6 535.993 1156.54 531.789 1153.63 536.825 1156.35 530.561L1091.71 472.568C1091.48 474.943 1091.25 477.29 1091.01 479.665L1081.62 469.238C1085.21 466.727 1084.57 468.678 1087.37 463.806 1068.64 467.941 1052.5 448.97 1044.24 436.372 1043.1 441.845 1046.17 440.098 1042.65 441.722L1035.96 440.972 1036.83 442.732C1031.13 440.358 1024.59 435.308 1020.76 435.267ZM1249.37 736.489 1245.64 736.489 1236.3 744.419 1249.37 736.489ZM1236.3 744.419 1232.56 744.419C1232.38 744.801 1232.19 745.17 1232.01 745.552L1232.01 747.449 1236.3 744.419ZM1240.71 684.243 1244.4 681.185 1243.77 681.008 1234.43 684.98 1240.71 684.243ZM1212.47 669.366 1205.86 673.051 1207.59 676.558 1209.25 675.644 1212.47 669.366ZM1207.59 676.558 1201.86 681.991 1202.49 683.301 1203.25 683.26C1207.81 679.029 1206.19 681.745 1207.59 676.558ZM1192.03 649.412 1175.57 663.074 1176.44 664.821 1192.03 649.412ZM1110.62 587.366 1105.58 585.701C1104.1 591.774 1104.75 585.919 1106.52 591.883L1110.62 587.366ZM1079.15 515.356C1075.86 514.319 1072.61 513.364 1069.35 512.449 1071.7 515.943 1071.89 516.612 1078.37 518.059 1078.63 517.171 1078.91 516.271 1079.16 515.37 1079.16 515.37 1079.15 515.356 1079.15 515.356ZM1028.7 498.732 1026.1 493.478 1017.75 493.655 1012.78 496.412 1017.05 500.766 1028.7 498.732ZM1048.71 492.809C1045.38 492.058 1042.03 491.417 1038.76 490.898 1040.45 492.276 1045.41 492.645 1048.71 492.809ZM1258.72 439.293 1262.44 443.265C1258.89 440.481 1261.31 443.101 1258.72 439.293ZM1385.74 439.293C1390.35 444.206 1390.09 454.607 1389.48 465.048 1388.24 456.463 1386.98 447.878 1385.74 439.293ZM1512.78 439.293 1512.78 443.265 1510.92 443.265C1511.53 441.941 1512.15 440.617 1512.78 439.293ZM1382.01 441.272C1382.64 443.92 1383.26 446.554 1383.87 449.202L1382.01 449.202 1382.01 441.272ZM934.067 444.056 927.46 447.741 932.497 449.393C933.03 447.605 933.548 445.844 934.067 444.056ZM1034.39 446.322 1037.79 448.915 1036.14 449.83 1034.39 446.322ZM1301.68 451.181 1305.42 451.181 1299.81 455.139C1300.43 453.815 1301.05 452.505 1301.68 451.181ZM1544.54 451.181 1548.28 451.181 1535.2 461.09 1535.2 459.111 1544.54 451.181ZM1527.72 453.174 1531.45 453.174 1525.85 459.111C1526.48 457.132 1527.11 455.153 1527.72 453.174ZM1561.35 461.09C1560.73 462.414 1560.1 463.724 1559.48 465.048L1563.23 467.027 1561.35 461.09ZM1529.59 465.048 1531.45 465.048 1527.72 469.019 1529.59 465.048ZM1027.25 465.976 1031.49 470.33 1023.93 467.819 1027.25 465.976ZM1555.75 467.027 1555.75 472.964 1557.61 472.964C1556.99 470.999 1556.38 469.006 1555.75 467.027ZM1087.45 468.214C1087.76 470.275 1088.08 472.336 1088.41 474.397L1090.07 473.482 1087.45 468.214ZM1301.68 469.019 1303.55 469.019 1299.81 472.964 1301.68 469.019ZM1011.48 472.527 1023.24 474.929 1024.1 476.69 1008.18 474.356 1011.48 472.527ZM1548.28 472.964 1540.8 476.935 1540.8 482.873 1552.01 478.928 1553.88 472.964 1548.28 472.964ZM1417.51 476.935 1417.51 482.873 1419.36 482.873 1417.51 476.935ZM1030.8 477.427 1034.2 480.006 1029.15 478.342 1030.8 477.427ZM1432.45 484.866 1432.45 488.837C1435.99 486.053 1433.59 488.674 1436.18 484.866L1432.45 484.866ZM1475.41 484.866 1475.41 490.816 1477.28 490.816C1476.67 488.837 1476.04 486.844 1475.41 484.866ZM1400.69 488.837 1402.56 488.837C1401.93 490.816 1401.32 492.782 1400.69 494.774L1400.69 488.837ZM1000.96 489.588C1001.28 491.648 1001.59 493.696 1001.91 495.757L1004.36 492.167 1000.96 489.588ZM1008.52 492.086C1008.83 494.147 1009.16 496.194 1009.48 498.255L1011.13 497.327 1008.52 492.086ZM1396.96 498.732 1398.83 500.725 1396.96 506.662 1395.09 506.662C1395.71 504.014 1396.33 501.38 1396.96 498.732ZM1340.91 510.62 1353.99 542.326 1353.99 544.305 1352.12 544.305 1340.91 510.62ZM1086.65 513.445 1092.56 516.857 1084.98 514.36 1086.65 513.445ZM1391.34 514.578 1393.21 514.578 1389.48 520.529 1391.34 514.578ZM1406.3 514.578 1400.69 532.417 1406.3 522.508 1408.17 522.508 1402.56 536.389C1407.28 533.085 1407.12 534 1410.02 528.445L1411.9 528.445C1408.76 535.515 1411.47 533.195 1404.43 536.389 1401.6 543.991 1401.1 531.475 1396.96 538.354L1395.09 538.354 1406.3 514.578ZM1400.69 516.571 1396.96 530.424 1393.21 532.417 1400.69 516.571ZM1415.64 518.536 1417.51 520.529 1415.64 528.445 1413.77 528.445C1414.39 525.142 1415.02 521.839 1415.64 518.536ZM1104.39 523.696 1107.78 526.289 1102.74 524.61 1104.39 523.696ZM1495.96 524.487 1497.83 524.487 1492.23 530.424 1495.96 524.487ZM1434.32 526.48 1438.05 530.424C1435.43 526.671 1437.91 529.237 1434.32 526.48ZM1434.32 530.424 1430.58 542.326 1432.45 542.326C1434.28 535.761 1435.73 536.116 1434.32 530.424ZM1430.58 542.326 1426.86 542.326 1426.86 546.297C1430.39 543.513 1427.98 546.133 1430.58 542.326ZM1138.93 538.026 1142.33 540.606 1139.01 542.448C1138.97 540.974 1138.97 539.5 1138.93 538.026ZM1398.83 538.354 1400.69 538.354 1396.96 544.305 1398.83 538.354ZM1410.02 538.354 1411.9 540.333 1404.43 548.263 1410.02 538.354ZM1484.76 542.326 1486.63 542.326 1482.89 546.297C1483.51 544.96 1484.14 543.65 1484.76 542.326ZM1189.96 543.527C1189.41 547.976 1190.61 546.939 1193.4 546.57L1189.96 543.527ZM1365.2 544.305 1367.07 544.305 1363.32 550.241C1363.95 548.263 1364.58 546.284 1365.2 544.305ZM1121.69 554.336 1117.52 554.418 1112.55 557.189 1113.43 558.936 1121.69 554.336ZM1383.87 558.172 1389.48 558.172C1384.18 560.123 1388.58 561.393 1383.87 558.172ZM1398.83 558.172 1404.43 558.172 1400.69 572.038C1401.32 573.376 1401.93 574.673 1402.56 575.996 1397.78 572.161 1399.06 571.875 1393.21 570.059L1400.69 560.15C1398.83 562.157 1399.12 559.755 1398.83 558.172ZM1164.41 559.618 1167.02 564.873 1162.76 560.546 1164.41 559.618ZM1376.4 564.122 1378.27 564.122 1374.55 568.08 1376.4 564.122ZM1361.45 566.088 1365.2 570.059 1361.45 572.038 1361.45 566.088ZM1408.17 566.088C1412.44 571.315 1408.41 568.312 1410.02 575.996L1404.43 577.989 1408.17 566.088ZM1430.58 566.088 1428.71 572.038C1431.35 568.094 1430.17 568.995 1430.58 566.088ZM1106.11 569.732 1101.14 572.503 1102.02 574.25C1107.26 571.356 1104.47 573.171 1106.11 569.732ZM1383.87 570.059 1387.01 573.376C1387.19 573.54 1387.39 573.745 1387.61 574.018L1387.01 573.376C1385.02 571.643 1385.79 576.747 1385.74 577.989 1380.99 578.248 1383.57 577.771 1378.27 579.968L1374.55 574.018 1380.14 577.989 1383.87 570.059ZM1423.12 572.038C1426.43 573.854 1423.59 573.977 1426.86 572.038L1423.12 572.038ZM1460.48 572.038 1462.34 575.996 1458.61 575.996C1459.22 574.673 1459.85 573.376 1460.48 572.038ZM1225.08 574.454C1225.01 574.686 1224.94 574.918 1224.88 575.164 1226.24 575.983 1227.35 576.692 1228.36 577.334L1225.08 574.454ZM1147.19 575.942 1156.39 577.511 1143.87 577.798 1147.19 575.942ZM1486.63 575.996 1482.89 577.989 1492.23 577.989 1492.23 575.996 1486.63 575.996ZM1393.21 577.989C1392.18 584.881 1393.75 580.104 1387.61 583.927 1391.42 578.003 1390.98 584.431 1393.21 577.989ZM1251.24 579.968 1254.98 583.927 1256.85 583.927C1253.47 579.927 1256.89 582.466 1251.24 579.968ZM1374.55 579.968 1376.4 579.968 1372.68 583.927 1374.55 579.968ZM1503.43 583.927C1506.39 586.165 1503.14 585.933 1509.05 585.905L1509.05 583.927 1503.43 583.927ZM1387.61 587.898C1390.49 592.73 1387.42 590.751 1383.87 593.835L1387.61 587.898ZM1374.55 589.877C1375.16 592.512 1375.77 595.159 1376.4 597.793L1372.68 599.786C1373.29 596.483 1373.92 593.18 1374.55 589.877ZM1109.84 590.041 1108.27 595.405 1112.45 595.309 1117.41 592.552 1109.84 590.041ZM1135.77 591.255 1136.64 593.002 1128.29 593.193 1131.58 591.351 1135.77 591.255ZM1415.64 591.843 1415.64 597.793 1417.51 597.793C1416.89 595.828 1416.26 593.835 1415.64 591.843ZM1383.87 595.814 1385.74 595.814C1388.29 601.11 1385.96 597.015 1391.34 595.814L1385.74 605.723 1378.27 611.66 1376.4 609.695 1383.87 595.814ZM1256.85 597.793 1269.91 601.751 1269.91 599.786 1256.85 597.793ZM1269.91 601.751 1288.6 609.695C1285.1 601.628 1290.77 598.598 1273.65 597.793L1284.87 605.723 1269.91 601.751ZM1413.77 597.793C1413.14 599.786 1412.52 601.751 1411.9 603.744 1414.54 599.786 1413.36 600.701 1413.77 597.793ZM1297.94 601.751 1294.21 603.744C1299.41 605.368 1297.4 604.782 1301.68 601.751L1297.94 601.751ZM1382.01 601.751C1381.4 603.73 1380.76 605.723 1380.14 607.702 1382.78 603.758 1381.6 604.672 1382.01 601.751ZM1417.51 601.751 1413.77 607.702C1417.66 604.904 1420.99 606.856 1417.51 601.751ZM1232.89 603.021C1234.01 603.867 1235.14 604.754 1236.3 605.723L1232.89 604.221 1232.89 603.021ZM1447.39 603.744 1449.26 603.744C1448.64 605.723 1448.02 607.716 1447.39 609.695L1447.39 603.744ZM1509.05 603.744 1503.43 609.695 1509.05 609.695 1512.78 607.702 1509.05 603.744ZM1368.94 609.695 1376.4 611.66C1375.36 618.539 1375.72 618.798 1378.27 625.541L1370.81 623.548 1368.94 609.695ZM1469.82 609.695 1473.54 609.695 1462.34 615.632 1469.82 609.695ZM1154.55 612.124 1145.41 614.977 1138.01 621.35 1154.55 612.124ZM1138.01 621.35 1130.62 627.697 1131.49 629.458 1145.49 619.412 1138.01 621.35ZM1232.94 613.544 1254.98 623.548 1232.96 615.222C1232.96 614.663 1232.96 614.103 1232.94 613.544ZM1279.25 613.653 1288.6 617.611 1288.6 615.632 1279.25 613.653ZM1271.78 615.632 1266.18 617.611C1273.45 625.213 1274.18 620.449 1273.65 627.519 1285.42 625.241 1278.1 625.104 1283 619.603L1271.78 615.632ZM1490.36 615.632 1494.1 615.632 1486.63 619.603 1486.63 617.611 1490.36 615.632ZM1296.08 617.611C1300.38 622.838 1301.05 623.684 1309.14 625.541L1309.14 623.548 1296.08 617.611ZM1232.98 618.075 1234.43 619.603 1232.98 619.044 1232.98 618.075ZM1383.87 621.569 1385.74 621.569 1382.01 625.541C1382.64 624.217 1383.26 622.893 1383.87 621.569ZM1299.81 627.519 1307.27 629.512 1307.27 627.519 1299.81 627.519ZM1307.27 629.512 1316.62 633.457 1316.62 631.477 1307.27 629.512ZM1241.9 633.457 1247.5 633.457 1264.31 651.295 1260.59 655.267C1253.45 646.368 1249.97 642.274 1241.9 633.457ZM1382.01 635.45 1380.14 639.393 1385.74 635.45 1382.01 635.45ZM1339.05 637.428 1340.91 639.393 1337.17 643.366C1337.8 641.386 1338.43 639.408 1339.05 637.428ZM1387.61 639.393C1390.94 641.209 1388.09 641.332 1391.34 639.393L1387.61 639.393ZM1380.14 643.366 1376.4 649.302C1380.29 646.505 1383.62 648.47 1380.14 643.366ZM1376.4 649.302 1370.81 647.324C1366.61 652.755 1368.03 649.875 1367.07 655.267L1363.32 659.211 1374.55 653.274C1375.16 651.95 1375.77 650.626 1376.4 649.302ZM1374.55 653.274C1373.92 655.253 1373.29 657.232 1372.68 659.211 1377.7 655.922 1375.46 658.884 1374.55 653.274ZM1488.5 643.366 1479.17 645.358 1497.83 645.358 1488.5 643.366ZM1497.83 645.358 1490.36 647.324 1507.18 649.302 1507.18 647.324 1497.83 645.358ZM1339.05 647.324 1340.91 651.295 1337.17 651.295 1339.05 647.324ZM1387.61 647.324 1385.74 651.295 1391.34 647.324 1387.61 647.324ZM1266.18 651.295 1277.39 659.211C1269.84 657.041 1269.86 657.219 1266.18 651.295ZM1222.23 654.967 1229.01 660.153 1218.99 661.245 1222.23 654.967ZM1340.91 659.211 1346.52 663.183 1344.65 665.162 1340.91 659.211ZM1168.88 662.323 1162.27 666.022 1163.13 667.769 1168.88 662.323ZM1193.16 664.452 1185.06 677.937C1190.49 672.696 1192.22 671.113 1193.16 664.452ZM1233.33 667.141 1238.16 667.141 1233.34 668.015C1233.33 667.728 1233.33 667.428 1233.33 667.141ZM1327.83 669.12 1325.96 673.092 1335.3 669.12 1327.83 669.12ZM1382.01 671.113C1385.32 672.546 1372.28 681.745 1367.07 683L1367.07 681.008 1382.01 671.113ZM1290.47 675.071C1297.69 676.641 1297.94 676.231 1301.68 681.008L1290.47 675.071ZM1365.2 675.071 1370.81 675.071 1361.45 681.008 1365.2 675.071ZM1213.42 675.549C1214.08 677.882 1214.72 680.23 1215.36 682.578L1216.89 682.469C1215.33 675.166 1219.35 679.357 1213.42 675.549ZM1350.25 681.008 1359.58 681.008C1354.1 685.143 1356.32 684.215 1350.25 681.008ZM1325.96 684.98C1328.92 687.218 1325.66 686.986 1331.56 686.959L1331.56 684.98 1325.96 684.98ZM1333.43 684.98 1331.56 688.938 1342.78 688.938 1342.78 686.959 1333.43 684.98ZM1329.7 688.938 1327.83 692.909 1339.05 692.909 1339.05 690.917 1329.7 688.938ZM1339.05 692.909 1337.17 696.868 1340.91 696.868 1339.05 692.909ZM1329.7 696.868C1326.88 702.259 1332.64 700.839 1337.17 702.805L1340.91 698.847 1329.7 696.868ZM1357.73 696.868 1361.45 700.825 1357.73 702.805 1357.73 696.868ZM1488.5 696.868 1495.96 698.847 1495.96 696.868 1488.5 696.868ZM1350.25 704.784 1355.86 704.784 1352.12 710.721 1350.25 704.784ZM1331.56 706.763 1329.7 710.721C1333.07 708.101 1330.78 708.605 1331.56 706.763ZM1348.39 708.755 1350.25 708.755 1348.39 718.664 1346.52 718.664C1347.13 715.361 1347.76 712.058 1348.39 708.755ZM1266.18 710.721C1265.39 711.103 1264.61 711.513 1263.85 711.895 1264.74 711.43 1265.56 710.994 1266.18 710.721ZM1467.95 710.734C1471.71 716.167 1473.9 716.699 1481.02 718.664L1467.95 710.734ZM1340.91 714.692C1344.46 717.463 1342.04 714.856 1344.65 718.664L1340.91 714.692ZM1438.05 716.672 1443.65 720.63 1434.32 724.601 1438.05 716.672ZM1339.05 720.63C1339.53 725.98 1340.16 724.137 1335.3 728.56L1339.05 720.63ZM1667.84 720.63C1680.03 734.838 1685.93 750.288 1718.28 752.335L1718.28 750.67C1717.81 750.383 1717.35 750.111 1716.87 749.824L1692.12 740.447 1692.12 738.482C1701.67 741.608 1709.67 745.524 1716.87 749.824L1718.28 750.356 1718.28 750.67C1737.24 762.298 1750.77 776.52 1772.46 786.019L1764.98 768.181 1770.59 774.132 1772.46 774.132C1768.68 759.541 1769.54 767.117 1772.46 752.335 1761.27 750.328 1750.39 735.22 1731.37 732.517L1736.97 728.573 1722.02 730.538 1727.62 728.573 1727.62 726.58 1710.81 726.58 1720.15 734.51C1702.74 730.415 1694.92 732.19 1680.92 722.609L1680.92 728.573 1673.44 720.63 1667.84 720.63ZM1335.3 728.573 1335.3 732.517 1333.43 732.517 1335.3 728.573ZM1505.31 730.538C1517.25 735.738 1514.41 739.246 1525.85 744.419L1522.11 738.482 1529.59 742.426 1525.85 736.489C1548.94 750.997 1562.25 762.067 1580.04 778.09 1557.46 771.648 1550.39 753.659 1531.45 744.419 1533.62 748.009 1543.25 759.828 1548.28 772.153L1538.95 774.132C1527.78 762.462 1514.55 733.923 1507.18 738.482 1503.21 733.009 1506.05 738.073 1505.31 730.538ZM1525.85 744.419 1525.85 748.377 1531.45 748.377 1525.85 744.419ZM1692.12 730.538 1693.99 730.538 1690.25 734.51 1692.12 730.538ZM1301.68 732.517 1294.21 736.489 1294.21 738.482 1305.42 732.517 1301.68 732.517ZM1283 734.51 1279.25 738.482C1285.96 739.096 1287.56 740.161 1292.34 734.51L1283 734.51ZM1339.05 736.489 1344.65 736.489 1335.3 740.447 1335.3 738.482 1339.05 736.489ZM1727.62 736.489C1734.39 738.7 1733.12 738.045 1736.97 742.426 1731.23 739.751 1732.27 739.314 1725.75 740.447L1727.62 736.489ZM1495.96 738.482C1502.89 742.126 1510.1 746.835 1516.52 756.307L1507.18 748.377C1511.02 757.767 1517.96 763.131 1523.98 764.223L1523.98 772.153 1522.11 772.153 1495.96 738.482ZM1288.6 740.447C1287.97 743.081 1287.36 745.743 1286.74 748.377 1294.24 745.852 1295 745.06 1303.55 746.398 1298.84 741.184 1298.6 740.925 1288.6 740.447ZM1415.64 742.426C1421.19 745.06 1419.84 743.614 1423.12 748.377L1415.64 742.426ZM1432.45 742.426C1434.88 745.443 1433.08 742.495 1432.45 746.398L1436.18 748.377 1426.86 750.356 1424.99 746.398 1432.45 746.398C1430.01 743.395 1431.83 746.343 1432.45 742.426ZM1488.5 742.426 1510.92 768.181C1498.8 762.544 1494.72 753.782 1488.5 742.426ZM1269.91 744.419 1273.65 748.377 1277.39 744.419 1269.91 744.419ZM1471.67 744.419C1478.44 748.336 1480.38 751.871 1482.89 760.265L1486.63 764.223 1479.17 764.223 1471.67 744.419ZM1481.02 744.419 1494.1 760.265C1493.49 762.244 1492.85 764.237 1492.23 766.215L1481.02 744.419ZM1266.18 746.398 1256.85 760.265 1269.91 752.335C1266.21 746.889 1271.73 750.22 1266.18 746.398ZM1277.39 746.398 1275.52 750.356 1279.25 750.356 1277.39 746.398ZM1283 746.398C1285.61 750.165 1283.14 747.599 1286.74 750.356L1283 746.398ZM1294.21 746.398C1292.3 755.897 1294.29 751.776 1301.68 756.307 1307.79 750.274 1306.17 755.87 1305.42 748.377L1309.14 748.377 1294.21 746.398ZM1301.68 756.307C1302.3 757.631 1302.93 758.941 1303.55 760.265L1307.27 756.307 1301.68 756.307ZM1445.52 748.377C1449.71 749.592 1453.04 751.107 1456.74 758.286L1460.48 758.286C1452.7 764.891 1442.69 760.497 1438.05 752.335L1449.26 758.286C1444.3 749.701 1444.94 754.56 1445.52 748.377ZM1273.65 750.356 1264.31 756.307 1264.31 758.286C1264.93 758.955 1265.57 759.61 1266.18 760.265 1271.53 756.088 1272.61 753.713 1273.65 750.356ZM1322.22 750.356 1324.09 750.356 1320.36 754.328 1322.22 750.356ZM1333.43 750.356 1337.17 750.356C1332.17 756.58 1334.14 758.532 1325.96 762.244L1333.43 750.356ZM1464.21 750.356 1469.82 764.223 1466.08 760.265C1465.46 761.589 1464.82 762.899 1464.21 764.223L1464.21 750.356ZM1367.07 752.335 1372.68 752.335C1372.05 759.61 1371.42 766.871 1370.81 774.132 1367.23 782.103 1362.74 777.585 1348.39 786.019L1350.25 776.111C1346.56 780.969 1349.18 776.903 1348.39 782.061 1342.34 778.881 1343.8 778.963 1339.05 778.09L1339.05 772.153C1343.98 774.159 1340.55 771.156 1342.78 776.111L1367.07 752.335ZM1297.94 756.307C1300.56 760.074 1298.09 757.508 1301.68 760.265L1297.94 756.307ZM1542.67 758.286 1568.83 780.083C1557.92 777.722 1550.86 770.815 1542.67 758.286ZM1652.89 758.286 1664.1 764.223 1664.1 762.244 1652.89 758.286ZM1277.39 760.265 1281.12 764.223C1278.51 760.47 1280.98 763.022 1277.39 760.265ZM1389.48 762.244C1393.79 768.154 1392.11 773.08 1385.74 778.09 1386.98 772.808 1388.24 767.526 1389.48 762.244ZM1221.86 762.34 1218.99 762.981C1219.07 763.172 1219.16 763.363 1219.24 763.568 1220.25 763.077 1221.09 762.681 1221.86 762.34ZM1331.56 764.223 1333.43 764.223 1329.7 768.181 1331.56 764.223ZM1454.87 764.223 1454.87 776.111C1451.88 772.194 1452.33 773.422 1451.14 766.215L1454.87 764.223ZM1587.5 764.223 1594.98 770.174 1600.59 774.132 1587.5 764.223ZM1303.55 766.215C1302.93 767.54 1302.3 768.85 1301.68 770.174L1297.94 770.174 1297.94 772.153C1305.54 769.791 1302.11 770.187 1303.55 766.215ZM1312.9 766.215C1312.27 767.54 1311.64 768.85 1311.03 770.174L1316.62 766.215 1312.9 766.215ZM1665.97 766.215 1669.7 770.174C1667.09 766.406 1669.56 768.972 1665.97 766.215ZM1191.14 768.972 1188.11 769.601C1190 772.822 1190.05 771.279 1191.14 768.972ZM1232.56 770.174 1245.64 778.103C1242.7 778.472 1240.7 778.677 1239.17 779.032L1232.55 770.406C1232.55 770.324 1232.55 770.242 1232.56 770.174ZM1320.36 770.174 1327.83 770.174 1314.75 782.061 1320.36 770.174ZM1367.07 770.174 1365.2 776.111C1367.84 772.153 1366.66 773.08 1367.07 770.174ZM1458.61 770.174 1462.34 774.132C1458.79 771.361 1461.2 773.982 1458.61 770.174ZM1359.58 772.153 1361.45 778.09C1362.08 776.111 1362.71 774.132 1363.32 772.153L1359.58 772.153ZM1497.83 772.153 1503.43 774.132 1499.7 778.09 1495.96 776.111C1496.59 774.787 1497.2 773.476 1497.83 772.153ZM1443.65 774.132C1448.37 777.421 1448.22 776.507 1451.14 782.061L1443.65 774.132ZM1546.41 774.132C1553.18 776.043 1550.21 773.995 1553.88 778.09L1546.41 774.132ZM1329.7 776.111 1334.74 782.061 1335.3 782.061C1335.24 782.212 1335.18 782.362 1335.12 782.499L1334.74 782.061 1331.56 782.061 1331.56 787.999C1335.23 784.518 1333.09 787.849 1335.12 782.512L1346.52 795.928C1354.78 798.276 1348.57 799.027 1355.86 793.95 1356.49 795.928 1357.1 797.908 1357.73 799.886L1346.52 805.824 1324.09 787.999 1322.22 784.041C1328.39 785.76 1324.95 782.28 1329.7 776.111ZM1469.82 776.111 1471.67 776.111 1469.82 782.061 1469.82 776.111ZM1475.41 776.111 1477.28 776.111C1476.67 778.09 1476.04 780.083 1475.41 782.061L1475.41 776.111ZM1509.05 776.111 1510.92 778.09C1510.29 780.069 1509.66 782.061 1509.05 784.041L1507.18 784.041C1507.79 781.407 1508.42 778.759 1509.05 776.111ZM1602.45 776.111C1600.03 781.584 1604.43 780.246 1609.92 782.061L1602.45 776.111ZM1240.03 780.083C1243.58 782.853 1241.17 780.233 1243.77 784.041L1240.03 780.083ZM1279.25 780.083 1283 801.879C1276.22 801.674 1275.21 798.016 1275.52 807.816 1271.66 801.415 1277.35 792.284 1279.25 780.083ZM1391.34 780.083 1391.34 791.97 1387.61 791.97 1391.34 780.083ZM1251.24 784.041C1255.15 789.677 1253.94 788.981 1253.17 797.225L1251.24 794.727 1251.24 784.041ZM1262.44 784.041 1262.44 797.908 1266.18 791.97 1262.44 807.816 1262.01 808.731 1253.49 797.635C1259.8 792.912 1260.38 796.365 1262.44 784.041ZM1353.99 784.041 1359.58 784.041 1359.58 786.019 1352.12 791.97C1352.73 789.323 1353.37 786.688 1353.99 784.041ZM1447.39 784.041C1448.02 794.604 1448.64 805.168 1449.26 815.732L1445.52 815.732C1446.15 805.168 1446.77 794.604 1447.39 784.041ZM1510.92 784.041C1512.61 787.562 1512.74 784.546 1510.92 787.999L1510.92 784.041ZM1525.85 784.041C1527.56 787.562 1527.68 784.546 1525.85 787.999L1525.85 784.041ZM1234.05 784.559C1233.99 784.955 1233.94 785.35 1233.89 785.733 1233.86 785.733 1233.84 785.719 1233.82 785.706 1233.9 785.323 1233.97 784.942 1234.05 784.559ZM1283 786.019 1284.87 786.019C1284.24 787.999 1283.62 789.977 1283 791.97L1283 786.019ZM1269.91 787.999C1272.59 794.591 1271.11 800.459 1268.05 805.824L1268.05 809.795 1266.18 809.795 1269.91 787.999ZM1441.79 787.999 1443.65 787.999C1443.03 789.977 1442.42 791.97 1441.79 793.95L1441.79 787.999ZM1512.78 789.977 1518.39 789.977C1517.77 795.928 1517.13 801.866 1516.52 807.816L1512.78 789.977ZM1486.63 791.97 1490.36 795.928 1488.5 801.879C1487.88 798.577 1487.25 795.273 1486.63 791.97ZM1531.45 791.97 1533.32 793.95C1532.71 795.928 1532.08 797.908 1531.45 799.886L1529.59 799.886 1531.45 791.97ZM1232.75 793.758C1232.74 793.867 1232.73 793.977 1232.71 794.073 1232.66 794.031 1232.62 794.004 1232.56 793.95 1232.63 793.881 1232.68 793.827 1232.75 793.758ZM1505.31 793.95C1505.92 796.597 1506.55 799.231 1507.18 801.879L1505.31 801.879 1505.31 793.95ZM1540.8 793.95 1542.67 801.879 1540.8 801.879 1540.8 793.95ZM1256.85 795.928 1256.85 801.879 1258.72 801.879 1256.85 795.928ZM1469.82 797.908C1471.06 804.513 1472.3 811.119 1473.54 817.725L1467.95 819.704C1471.15 812.825 1470.14 810.013 1469.82 797.908ZM1523.98 797.908C1524.61 801.21 1525.23 804.513 1525.85 807.816L1522.11 807.816C1522.74 804.513 1523.37 801.21 1523.98 797.908ZM1105.18 798.412 1108.58 801.634 1108.9 799.805 1105.18 798.412ZM1184.14 798.835 1187.88 800.214 1183.84 800.651 1184.14 798.835ZM1234.06 799.886 1234.16 799.886C1233.76 803.858 1233.35 807.816 1232.96 811.788L1232.56 811.788C1232.44 811.87 1232.32 811.924 1232.21 812.006L1234.06 799.886ZM1417.51 799.886C1422.23 808.294 1417.3 813.425 1428.71 817.725 1422.83 820.441 1419.64 820.209 1415.64 815.732 1416.55 814.272 1417.33 813.194 1417.51 799.886ZM1404.43 801.879C1407.79 804.5 1405.51 803.995 1406.3 805.824 1405.68 804.513 1405.04 803.189 1404.43 801.879ZM1548.28 801.879 1550.14 801.879 1548.28 807.816 1548.28 801.879ZM1559.48 801.879 1561.35 801.879C1558.44 810.286 1558.88 808.225 1552.01 811.788 1555.53 806.67 1556.6 808.471 1559.48 801.879ZM1240.19 802.302C1241.95 805.374 1241.13 803.326 1241.78 805.892L1240.15 806.766C1240.16 805.278 1240.18 803.79 1240.19 802.302ZM1164.95 803.285 1164.31 806.902C1163.58 805.987 1162.89 805.087 1162.16 804.172L1164.95 803.285ZM1537.08 803.858 1538.95 811.788 1537.08 811.788 1537.08 803.858ZM1350.25 805.824 1353.99 805.824 1348.39 809.795C1349 808.485 1349.62 807.147 1350.25 805.824ZM1565.09 805.824 1565.09 819.704 1568.83 813.767 1565.09 825.641C1564.38 816.974 1563.46 820.4 1565.09 805.824ZM1402.56 807.816C1408.32 811.078 1407.02 809.536 1410.02 815.732 1406.23 812.784 1405.18 812.266 1402.56 807.816ZM1486.63 807.816C1487.25 810.451 1487.88 813.098 1488.5 815.732L1486.63 815.732 1486.63 807.816ZM1241.9 809.795 1242.85 811.078C1242.98 812.429 1243.09 814.013 1243.18 815.773L1240.06 813.781C1240.06 813.753 1240.07 813.726 1240.07 813.698L1241.9 809.795ZM1509.05 809.795 1512.78 813.767 1509.05 815.732 1509.05 809.795ZM1540.8 809.795 1542.67 809.795C1542.04 813.098 1541.43 816.401 1540.8 819.704L1538.95 819.704C1539.56 816.401 1540.17 813.098 1540.8 809.795ZM1235.14 810.368C1235.36 810.601 1235.62 810.901 1235.88 811.242 1235.86 811.42 1235.86 811.61 1235.85 811.788L1234.92 811.788C1234.99 811.31 1235.07 810.833 1235.14 810.368ZM1492.23 811.788 1494.1 811.788C1493.49 813.767 1492.85 815.732 1492.23 817.725L1492.23 811.788ZM1251.32 814.163 1252.56 814.627 1253.54 817.479 1251.37 815.432C1251.36 815.009 1251.33 814.586 1251.32 814.163ZM1260.71 814.586 1261.5 814.9 1258.09 821.779C1257.9 821.587 1257.71 821.397 1257.52 821.219L1256.27 816.019 1260.71 814.586ZM1574.42 815.732 1576.3 815.732 1572.57 823.662 1574.42 815.732ZM1189.07 816.128 1183.47 825.641 1184.11 822.01 1189.07 816.128ZM1238.83 816.524C1238.83 816.688 1238.84 816.865 1238.83 817.029L1236.53 823.294C1236.59 822.693 1236.64 822.079 1236.68 821.479L1238.83 816.524ZM1247.24 816.865C1247.77 817.575 1248.3 818.298 1248.83 819.008 1248.85 819.131 1248.85 819.267 1248.86 819.39L1247.19 818.325C1247.21 817.848 1247.22 817.356 1247.24 816.865ZM1645.41 817.725 1652.89 819.704 1652.89 817.725 1645.41 817.725ZM1324.09 819.704C1327.86 823.28 1325.48 819.663 1327.83 825.641L1325.96 825.641C1325.35 823.662 1324.71 821.683 1324.09 819.704ZM1581.91 819.704 1583.76 819.704 1581.91 825.641 1581.91 819.704ZM1142.3 819.977 1139.19 822.679 1139.5 820.864 1142.3 819.977ZM1057.75 821.356C1058.88 825.491 1057.69 822.489 1059.6 825.901 1058.99 824.386 1058.37 822.871 1057.75 821.356ZM1445.52 821.697 1447.39 821.697 1447.39 827.634 1441.79 827.634 1445.52 821.697ZM1460.48 821.697 1462.34 821.697C1459.92 827.607 1462.42 824.072 1458.61 827.634 1459.22 825.641 1459.85 823.676 1460.48 821.697ZM1073.24 823.253 1072.91 825.068 1070.44 824.14 1073.24 823.253ZM1251.7 823.334 1254.78 825.518C1253.13 824.686 1252.53 832.261 1252.42 841.487 1252.18 835.441 1251.95 829.38 1251.7 823.334ZM1464.21 823.662C1469.11 828.016 1465.56 825.901 1467.95 831.578L1464.21 823.662ZM1527.72 823.662 1529.59 831.578 1527.72 831.578 1527.72 823.662ZM1585.63 823.662 1587.5 827.634C1588.01 828.876 1589.36 829.367 1587.5 829.613L1587.5 835.55 1585.63 835.55 1585.63 823.662ZM1249.24 824.044 1250.18 836.069C1249.91 837.215 1249.64 838.362 1249.37 839.508L1247.5 839.508C1247.34 825.846 1248.49 835.236 1249.24 824.044ZM1130.82 825.354 1126.18 829.435 1126.48 827.621 1130.82 825.354ZM1162.09 827.347 1160.22 830.527 1159.3 835.96 1160.52 836.423 1162.09 827.347ZM1256.85 827.634C1257.06 828.098 1257.27 828.453 1257.43 828.712 1257.58 829.149 1257.72 829.572 1257.87 829.995 1257.65 830.254 1257.31 830.691 1256.85 831.578L1256.85 827.634ZM1361.45 827.634 1363.32 829.613 1359.58 833.571 1361.45 827.634ZM1566.96 827.634 1568.83 827.634C1568.2 829.613 1567.57 831.578 1566.96 833.571L1566.96 827.634ZM1574.42 827.634 1576.3 827.634 1574.42 833.571 1574.42 827.634ZM1406.3 829.613 1410.02 829.613 1400.69 837.542 1406.3 829.613ZM1591.26 831.578 1593.11 839.508 1591.26 839.508 1591.26 831.578ZM1428.71 835.55 1430.58 835.55C1429.96 837.529 1429.34 839.508 1428.71 841.487L1428.71 835.55ZM1529.59 835.55 1533.32 849.417C1530.09 845.104 1529.99 844.094 1529.59 835.55ZM1568.83 835.55 1581.91 875.185 1581.91 857.347 1594.98 889.052 1594.98 893.01 1596.85 893.01 1587.5 837.542 1594.98 875.185C1595.6 872.537 1596.23 869.903 1596.85 867.255L1598.72 867.255C1597.41 883.388 1599.15 892.996 1600.59 904.898 1590.4 894.307 1594.34 902.551 1583.76 891.031 1580.23 888.247 1582.64 890.867 1580.04 887.059L1589.37 891.031 1591.26 891.031 1591.26 889.052C1584.34 882.596 1576.98 882.569 1568.83 881.122L1576.3 881.122C1571.24 867.938 1569.1 857.579 1570.7 841.487L1566.96 847.438C1567.57 843.48 1568.2 839.508 1568.83 835.55ZM1353.99 837.542 1359.58 837.542C1355.11 839.849 1357.14 842.443 1353.99 837.542ZM1542.67 837.542 1544.54 837.542C1543.91 839.508 1543.29 841.487 1542.67 843.48L1542.67 837.542ZM1204.81 839.385C1203.87 842.252 1202.94 845.131 1202 848.011 1201.89 851.191 1201.76 854.358 1201.66 857.551L1204.81 839.385ZM1201.66 857.551C1201.55 860.718 1201.44 863.898 1201.33 867.078L1202.57 867.542 1204.15 850.741 1201.66 857.551ZM1441.79 839.508 1449.26 839.508 1449.26 845.458 1441.79 845.458 1441.79 839.508ZM1501.57 839.508C1496.6 844.954 1486.14 854.849 1476.19 864.035 1488.1 855.654 1502.95 848.229 1501.57 839.508ZM1476.19 864.035C1471.43 867.378 1467.13 870.886 1464.53 874.68L1476.19 864.035ZM1464.53 874.68 1453 885.094 1451.14 894.989C1454.35 896.913 1453.93 894.839 1453 904.898L1464.21 875.185C1464.31 875.021 1464.42 874.844 1464.53 874.68ZM1186.23 840.191 1187.46 840.654 1183.73 846.988 1184.36 843.37 1186.23 840.191ZM1080.62 841.473 1075.96 845.527 1076.6 841.896 1080.62 841.473ZM1241.9 841.487C1242.53 844.135 1243.15 846.769 1243.77 849.417L1241.9 849.417 1241.9 841.487ZM1503.43 843.48 1492.23 857.347 1512.78 853.389 1514.65 849.417 1503.43 843.48ZM1086.49 845.581 1083.38 848.298 1083.7 846.482 1086.49 845.581ZM1454.87 847.438C1455.48 848.106 1456.11 848.762 1456.74 849.417L1453 853.389 1454.87 847.438ZM1514.65 847.438 1525.85 857.347 1527.72 853.389 1514.65 847.438ZM1604.32 847.438C1604.93 850.086 1605.58 852.734 1606.19 855.367L1604.32 855.367 1604.32 847.438ZM1162.35 848.693 1161.41 854.139 1162.65 854.603C1163.66 848.871 1163.25 852.092 1162.35 848.693ZM1464.21 849.417 1469.82 851.396 1456.74 859.326 1460.48 859.326C1456.86 862.806 1455.91 862.997 1451.14 869.235L1451.14 859.326 1464.21 849.417ZM1537.08 849.417 1537.08 855.367 1538.95 855.367C1538.32 853.389 1537.69 851.396 1537.08 849.417ZM1580.04 849.417 1581.91 849.417 1580.04 855.367 1580.04 849.417ZM1079.04 850.563 1080.28 851.014 1071.9 861.414 1072.53 857.797 1079.04 850.563ZM1311.03 851.396 1318.49 853.389 1318.49 851.396 1311.03 851.396ZM1596.85 851.396 1596.85 865.276 1594.98 865.276C1595.6 860.65 1596.23 856.023 1596.85 851.396ZM1608.06 851.396 1608.06 875.185 1606.19 875.185C1606.82 867.255 1607.45 859.326 1608.06 851.396ZM1178.46 854.699 1173.79 858.752 1175.64 863.325 1177.51 860.131 1178.46 854.699ZM1424.99 863.297C1424.36 866.587 1423.73 869.89 1423.12 873.193 1427.47 866.464 1426.95 867.569 1424.99 863.297ZM1249.37 865.276 1247.5 869.235 1251.24 871.214C1250.62 869.235 1249.99 867.255 1249.37 865.276ZM1430.58 865.276C1429.96 867.255 1429.34 869.235 1428.71 871.214 1431.35 867.255 1430.17 868.184 1430.58 865.276ZM1522.11 865.276C1523.82 868.798 1523.94 865.782 1522.11 869.235L1522.11 865.276ZM1574.42 865.276 1574.42 871.214 1576.3 871.214 1574.42 865.276ZM1497.83 869.235C1500.71 874.066 1497.65 872.087 1494.1 875.185L1497.83 869.235ZM1028.22 870.272 1037.49 877.615 1038.12 873.971 1028.22 870.272ZM1583.76 871.214C1582.89 879.198 1581.95 877.492 1585.63 883.102L1587.5 883.102 1583.76 871.214ZM1080.54 872.374 1083.94 875.568 1084.26 873.752 1080.54 872.374ZM1251.24 873.193 1251.24 879.144 1253.11 879.144C1252.49 877.164 1251.86 875.172 1251.24 873.193ZM1609.92 873.193C1611.16 885.08 1612.42 896.982 1613.66 908.856 1606.27 900.135 1608.42 887.264 1609.92 873.193ZM1645.41 873.193 1643.54 877.164 1649.16 873.193 1645.41 873.193ZM1424.99 875.185 1421.23 883.102C1425.6 878.557 1424.37 879.266 1424.99 875.185ZM1649.16 875.185C1648.54 876.509 1647.91 877.819 1647.29 879.144L1651.03 881.122C1651.7 875.308 1654.05 878.693 1649.16 875.185ZM1078.69 875.526 1075.89 876.427 1079.3 879.634C1079.08 878.27 1078.89 876.891 1078.69 875.526ZM1441.79 881.122 1441.79 887.059 1443.65 887.059 1441.79 881.122ZM1277.39 885.094 1284.87 887.059 1284.87 885.094 1277.39 885.094ZM1286.74 887.073 1284.87 891.031 1288.6 891.031 1286.74 887.073ZM1430.58 887.073 1430.58 893.01 1432.45 893.01 1430.58 887.073ZM1340.91 891.031C1344.75 892.096 1347.95 892.901 1350.79 893.474L1350.79 898.251 1348.39 896.968 1350.79 900.38 1350.79 914.425 1324.01 906.194C1328.91 904.707 1329.43 907.655 1333.43 898.947L1333.43 906.877 1340.91 908.856 1337.17 898.947 1342.78 900.94 1348.39 894.989 1340.91 893.01 1340.91 891.031ZM1273.65 893.01 1281.12 894.989 1281.12 893.01 1273.65 893.01ZM1023.51 897.515 1022.25 904.775 1025.35 902.073 1023.51 897.515ZM1289.13 899.753 1287.38 902.401 1287.88 902.755C1288.35 901.581 1288.75 900.612 1289.13 899.753ZM1445.52 902.919 1445.52 908.856 1447.39 908.856C1446.77 906.877 1446.15 904.898 1445.52 902.919ZM1514.65 904.898 1516.52 906.877 1512.78 910.849 1514.65 904.898ZM1548.28 904.898C1550.81 907.724 1550.56 908.392 1553.88 910.849L1544.54 918.765 1542.67 922.737C1542.04 920.102 1541.43 917.441 1540.8 914.793L1544.54 910.849 1544.54 906.877 1546.41 906.877 1542.67 916.786C1547.15 912.255 1546.84 913.647 1548.28 904.898ZM1535.2 910.849C1535.49 916.035 1537.23 912.255 1533.32 916.786 1533.95 914.807 1534.58 912.828 1535.2 910.849ZM1557.61 912.828C1563.19 915.394 1559.86 912.732 1563.23 916.786L1557.61 912.828ZM1471.67 914.793 1466.08 926.695 1469.82 930.653C1470.44 925.371 1471.06 920.089 1471.67 914.793ZM1345.35 916.936C1345.67 919.393 1346 921.836 1346.33 924.292 1345.59 923.952 1344.55 923.542 1342.78 922.737L1346.52 925.712C1346.59 926.19 1346.64 926.681 1346.71 927.159L1342.26 922.587 1345.35 916.936ZM1537.08 918.765C1536.23 920.963 1538.66 920.266 1535.2 922.737 1535.82 921.413 1536.45 920.089 1537.08 918.765ZM1323.42 922.041C1326.62 923.679 1324.17 921.945 1327.15 924.756 1329.51 925.412 1340.83 946.608 1348.65 952.272L1335.01 927.868 1336.01 927.432 1336.8 928.278 1350.79 948.3 1350.79 953.787 1350.51 953.637C1350.6 953.746 1350.7 953.855 1350.79 953.964L1350.79 968.732 1340.36 951.508 1350.64 970.875 1350.79 970.807 1350.79 977.754C1350.72 977.631 1350.64 977.508 1350.57 977.386L1350.79 977.945 1350.79 982.08 1325.2 929.929 1326.33 929.438 1328.26 932.782C1328.1 932.727 1327.97 932.687 1327.83 932.645 1328.43 933.355 1328.77 933.792 1329.03 934.161L1339.23 951.999 1340.36 951.508 1331.27 935.73C1331.79 935.921 1332.43 936.153 1333.43 936.603L1333.43 934.611 1329.93 933.383 1323.42 922.041ZM1319.55 922.218 1335.94 955.111 1335.3 954.428C1334.9 955.274 1334.49 956.135 1334.1 956.981 1333.66 955.93 1333.22 954.879 1332.79 953.842 1333.01 953.377 1333.21 952.9 1333.43 952.45L1331.83 951.603 1323.78 932.413C1323.9 932.495 1323.97 932.55 1324.09 932.645L1323.71 932.249 1319.53 922.272C1319.53 922.245 1319.53 922.232 1319.55 922.218ZM1338.83 924.047 1350.79 933.901 1350.79 944.847 1338.52 925.808 1339.05 924.702 1338.26 924.292 1338.83 924.047ZM1318.49 925.808 1330.25 950.771 1328.2 949.679 1325.25 942.554 1325.96 942.554 1324.9 941.694 1318.49 926.244 1318.49 925.808ZM1548.28 926.695 1544.54 932.645 1548.28 934.611 1548.28 926.695ZM1578.17 926.695 1580.04 926.695 1576.3 932.645C1576.92 930.667 1577.55 928.674 1578.17 926.695ZM1270.42 928.005 1268.56 930.789C1271.62 932.277 1270.84 930.857 1270.42 928.005ZM1316.04 928.128 1317.2 928.373 1321.85 939.292 1319.41 937.327 1316.04 928.128ZM1349.84 928.36 1350.1 928.564 1350.79 929.506 1350.79 930.762 1349.84 928.36ZM1510.92 936.603C1510.96 937.013 1511 937.409 1511.04 937.805 1511.1 937.545 1511.12 937.286 1511.18 937.026 1511.08 936.89 1511 936.74 1510.92 936.603ZM1511.04 937.805C1509.81 944.602 1508.67 951.658 1509.05 958.4 1512.52 951.126 1511.9 945.912 1511.04 937.805ZM1321.32 942.554 1323.26 942.554 1329.11 956.258 1326.07 955.452 1321.32 942.554ZM1587.5 942.554C1589.21 946.076 1589.33 943.046 1587.5 946.512L1587.5 942.554ZM1495.96 944.519 1495.96 950.47 1497.83 950.47 1495.96 944.519ZM1531.45 944.519 1531.45 950.47 1533.32 950.47C1532.71 948.491 1532.08 946.499 1531.45 944.519ZM1300.5 944.888C1301.02 947.058 1301.51 949.146 1301.98 951.18L1301.27 950.716C1301.01 948.778 1300.75 946.84 1300.5 944.888ZM1306.78 948.232 1308.76 949.269 1312.16 958.878C1310.88 957.677 1309.48 956.517 1308.05 955.411 1307.63 953.009 1307.21 950.62 1306.78 948.232ZM1339.05 948.491 1342.78 952.45C1340.16 948.683 1342.63 951.248 1339.05 948.491ZM1585.63 948.491C1586.26 951.126 1586.89 953.773 1587.5 956.408L1585.63 956.408 1585.63 948.491ZM1522.11 950.47 1522.11 956.408 1523.98 956.408C1523.37 954.428 1522.74 952.463 1522.11 950.47ZM1505.31 952.45 1505.31 958.4 1507.18 958.4C1506.55 956.421 1505.92 954.428 1505.31 952.45ZM1499.7 954.428 1499.7 960.366 1501.57 960.366 1499.7 954.428ZM1296.78 955.889C1296.9 955.984 1297.02 956.066 1297.13 956.162L1299.12 968.077 1298.11 968.786C1297.91 966.821 1297.72 964.842 1297.51 962.877 1297.65 962.713 1297.79 962.549 1297.94 962.358 1297.75 962.113 1297.57 961.908 1297.39 961.689 1297.18 959.751 1296.98 957.827 1296.78 955.889ZM1302.44 959.778C1302.81 959.984 1303.18 960.188 1303.55 960.379L1304.3 961.58C1304.68 963.341 1305.03 965.061 1305.38 966.726 1304.56 966.876 1303.89 966.958 1303.38 966.999 1303.07 964.597 1302.75 962.181 1302.44 959.778ZM1281.23 960.093 1281.96 961.376 1281.81 961.567 1281.23 960.093ZM1581.91 960.366C1582.93 965.483 1582.68 966.043 1578.17 970.275L1578.17 976.225C1577.55 971.598 1576.92 966.971 1576.3 962.358 1581.14 961.498 1577.32 964.242 1581.91 960.366ZM1236.3 962.358C1235.25 963.655 1233.82 965.17 1232.01 966.685L1232.01 977.672C1233.01 978.313 1234.76 979.214 1238.16 980.183L1238.16 974.246 1240.03 974.246C1239.96 968.909 1240.04 965.47 1236.3 962.358ZM1516.52 970.275C1515.89 973.578 1515.26 976.88 1514.65 980.183L1518.39 980.183C1517.77 976.88 1517.13 973.578 1516.52 970.275ZM1596.85 972.254 1598.72 972.254 1594.98 976.225 1596.85 972.254ZM1634.2 974.246C1635.58 974.942 1636.59 975.598 1637.38 976.225L1637.94 976.225C1637.83 976.294 1637.72 976.362 1637.62 976.416 1640.32 978.723 1640.24 981.057 1643.54 986.134L1628.61 980.183C1630.93 976.717 1631.54 976.894 1634.2 974.246ZM1637.62 976.416C1637.55 976.362 1637.46 976.294 1637.38 976.225L1634.2 976.225C1637.41 977.972 1634.87 978.149 1637.62 976.416ZM1643.54 974.246 1645.41 974.246C1643.62 979.541 1647.36 976.334 1641.68 980.183 1644.81 974.901 1642.65 979.323 1643.54 974.246ZM1304.35 974.492C1305.39 974.997 1306.36 975.529 1307.27 976.252 1307.45 977.18 1307.64 978.122 1307.81 979.01 1306.69 977.631 1305.55 976.362 1304.45 975.202 1304.42 974.956 1304.38 974.724 1304.35 974.492ZM1287.64 976.362C1287.68 976.635 1287.73 976.894 1287.77 977.153 1287.56 976.962 1287.36 976.771 1287.14 976.594L1287.64 976.362ZM1286.89 976.69 1288.34 980.879C1289.65 989.546 1290.96 998.213 1292.27 1006.88L1287.73 995.469C1287.32 989.26 1286.91 983.049 1286.51 976.853L1286.89 976.69ZM1269.53 977.658 1270.46 979.979C1270.29 980.033 1270.59 980.36 1270.36 981.179L1268 980.483C1268.52 979.541 1269.01 978.6 1269.53 977.658ZM1241.9 978.204C1241.28 979.528 1240.64 980.838 1240.03 982.162L1243.77 982.162C1243.15 980.838 1242.53 979.528 1241.9 978.204ZM1304.84 978.259C1306.17 981.999 1307.7 985.342 1309.57 988.345 1310.06 990.993 1310.55 993.558 1311.03 996.057L1305.89 986.243C1305.55 983.581 1305.2 980.92 1304.84 978.259ZM1276.83 978.845C1276.79 978.968 1276.76 979.105 1276.72 979.228 1276.71 979.132 1276.7 979.023 1276.68 978.914L1276.83 978.845ZM1293.28 979.814C1293.7 980.456 1294.11 981.098 1294.54 981.725 1294.59 982.531 1294.66 983.336 1294.71 984.141L1293.24 980.429C1293.25 980.224 1293.28 980.019 1293.28 979.814ZM1232.56 980.183 1232.01 981.343 1232.01 984.155 1234.43 984.155 1232.56 980.183ZM1647.29 980.183C1648.99 983.704 1649.11 980.688 1647.29 984.155L1647.29 980.183ZM1660.37 980.183C1662.08 983.704 1662.2 980.688 1660.37 984.155L1660.37 980.183ZM1282.69 980.647C1282.66 981.384 1282.65 982.026 1282.61 982.626 1282.51 982.394 1282.42 982.149 1282.32 981.917 1282.44 981.494 1282.57 981.071 1282.69 980.647ZM1238.16 982.162 1236.3 988.113C1238.94 984.155 1237.75 985.069 1238.16 982.162ZM1598.72 982.162 1600.59 982.162 1598.72 988.113 1598.72 982.162ZM1665.97 982.162 1673.44 990.092C1669.3 987.28 1668.71 986.216 1665.97 982.162ZM1645.41 986.134C1650.99 988.7 1647.66 986.052 1651.03 990.092L1645.41 986.134ZM1279.25 986.693C1279.45 987.84 1279.64 989 1279.85 990.16 1279.71 990.597 1279.59 991.034 1279.45 991.47 1279.38 991.416 1279.32 991.375 1279.25 991.334L1279.25 986.693ZM1304.43 996.165C1304.87 996.766 1305.31 997.367 1305.74 997.94 1305.88 999.632 1306 1001.31 1306.14 1002.99L1304.68 999.291C1304.6 998.254 1304.52 997.216 1304.43 996.165ZM1628.61 998.008 1626.74 1001.98 1626.74 1003.97 1634.2 1000 1628.61 998.008ZM1555.75 1000 1555.75 1005.95 1557.61 1005.95C1556.99 1003.97 1556.38 1001.98 1555.75 1000ZM1637.94 1001.98C1641.27 1003.78 1638.42 1003.92 1641.68 1001.98L1637.94 1001.98ZM1688.38 1009.91C1689 1012.54 1689.64 1015.19 1690.25 1017.83L1692.12 1017.83 1688.38 1009.91ZM1637.94 1011.89 1636.07 1017.83 1639.81 1019.82C1640.11 1014.71 1640.39 1016.88 1637.94 1011.89ZM1292.34 1013.88 1293.34 1013.88 1295.7 1029.47C1295.07 1028.68 1294.56 1027.23 1294.14 1025.46L1294.91 1025.11C1293.85 1022.44 1293.58 1021.65 1293.36 1021.36 1292.98 1018.9 1292.65 1016.26 1292.34 1013.88ZM1227.21 1015.34 1223.78 1016.82 1227.93 1017.2 1227.21 1015.34ZM1645.41 1017.83C1646.86 1024.55 1652.82 1028.28 1658.5 1035.66 1653.66 1036.51 1657.48 1033.78 1652.89 1037.64L1656.63 1037.64C1657.81 1038.16 1658.27 1039.61 1658.5 1037.64L1662.23 1033.67 1645.41 1017.83ZM1679.05 1017.83 1680.92 1017.83 1677.19 1021.8C1677.8 1020.47 1678.42 1019.15 1679.05 1017.83ZM1651.03 1019.82 1654.76 1023.76C1652.14 1020.01 1654.62 1022.58 1651.03 1019.82ZM1250.5 1020.45C1250.46 1022 1250.39 1023.53 1250.29 1025.05 1250.14 1024.27 1249.99 1023.48 1249.86 1022.71 1250.08 1021.93 1250.28 1021.17 1250.5 1020.45ZM1660.37 1023.76 1664.1 1027.73C1661.48 1023.98 1663.96 1026.53 1660.37 1023.76ZM1647.29 1027.73 1645.41 1031.71 1651.03 1027.73 1647.29 1027.73ZM1660.37 1027.73C1662.99 1031.5 1660.51 1028.95 1664.1 1031.71L1660.37 1027.73ZM1284.87 1029.73 1286.74 1035.66 1286.74 1039.62 1288.6 1039.62 1284.87 1029.73ZM1288.6 1039.62C1289.23 1043.59 1289.84 1047.55 1290.47 1051.52L1294.21 1053.49 1288.6 1039.62ZM1645.41 1033.67C1646.11 1039.87 1646.76 1041.75 1654.76 1045.57L1645.41 1033.67ZM1662.23 1035.66 1660.37 1037.64 1662.23 1043.58 1667.84 1045.57 1669.71 1039.62 1662.23 1035.66ZM1628.61 1037.64 1628.61 1071.34 1632.35 1073.31C1631.1 1061.42 1629.85 1049.53 1628.61 1037.64ZM1611.79 1043.58 1611.79 1049.53 1613.66 1049.53 1611.79 1043.58ZM1213.76 1062.2 1214.5 1064.04 1212.22 1065.04 1213.76 1062.2ZM1268.05 1063.4 1268.05 1069.35 1269.91 1069.35 1268.05 1063.4ZM1241.93 1063.56C1242.09 1064.69 1242.25 1065.83 1242.42 1066.95 1242.35 1068.07 1242.28 1069.19 1242.23 1070.29 1242.13 1070.44 1242.02 1070.55 1241.9 1070.6L1241.9 1063.7C1241.91 1063.66 1241.91 1063.62 1241.93 1063.56ZM1275.52 1069.35 1275.52 1075.29 1279.25 1077.28 1275.52 1069.35ZM1201.59 1071.78C1204.56 1074.64 1202.13 1072.83 1205.31 1074.49L1201.59 1071.78ZM1235.11 1072.46 1234.3 1077.16 1233.57 1075.3 1235.11 1072.46ZM1228.7 1073.09C1228.29 1075.42 1227.89 1077.76 1227.48 1080.09L1226.01 1076.39 1228.7 1073.09ZM1233.49 1081.84C1233.39 1084.31 1233.3 1086.78 1233.2 1089.25 1233.22 1086.83 1233.26 1084.4 1233.3 1081.92L1233.49 1081.84ZM1232.01 1086.53 1232.01 1094.94 1231.46 1093.52C1231.63 1091.19 1231.82 1088.87 1232.01 1086.53ZM1258.72 1101.04 1258.72 1106.98 1260.57 1106.98 1258.72 1101.04ZM1245.23 1104.86C1244.71 1105.8 1244.21 1106.76 1243.69 1107.7L1247.82 1108.07 1245.23 1104.86ZM1215.1 1132.99 1206 1136.9 1216.55 1136.68 1215.1 1132.99ZM1216.93 1164.63 1219.85 1172.01C1220.12 1170.46 1220.38 1168.9 1220.66 1167.33L1216.93 1164.63Z" fill-rule="evenodd"/><path d="M731.459 1589.96 2004.46 1589.96 2004.46 1613.96 731.459 1613.96Z" fill-rule="evenodd"/></g></svg>