<svg width="1285" height="1674" xmlns="http://www.w3.org/2000/svg" xmlns:xlink="http://www.w3.org/1999/xlink" overflow="hidden"><defs><clipPath id="clip0"><rect x="719" y="280" width="1285" height="1674"/></clipPath><clipPath id="clip1"><rect x="1234" y="443" width="265" height="242"/></clipPath><clipPath id="clip2"><rect x="1234" y="443" width="265" height="242"/></clipPath></defs><g clip-path="url(#clip0)" transform="translate(-719 -280)"><path d="M733 282 1997 282 1997 569.629 1997 635.843 1997 954.305 1996.54 954.305 1996.54 1041.15 1997 1041.15 1997 1429.98C1997 1721.05 1405.57 1922.72 1365 1935L1364.98 1934.99 1364.98 1933.59 1359.62 1931.9C1288.04 1908.63 733 1710.55 733 1428.58L733 1039.75 733.279 1039.75 733.279 952.904 733 952.904 733 685.427 733 635.843 733 569.629Z" fill="#0A3B70" fill-rule="evenodd"/><path d="M1365.55 1401.5 1597.62 1637.18 1697.54 1544.91 1851.5 1687.09 1813.34 1717.68C1634.48 1850.26 1391.2 1932.75 1365.55 1940.5L1365.53 1940.49 1365.53 1939.08 1360.11 1937.36C1314.86 1922.67 1078.6 1839 907.773 1708.76L880.5 1686.26 1033.57 1544.91 1133.49 1637.18Z" stroke="#0A3B70" stroke-width="4.58333" stroke-miterlimit="8" fill="#FFFFFF" fill-rule="evenodd"/><path d="M1363.03 1205.57C1399.75 1262.47 1497.32 1304.74 1596.03 1306.5 1660.42 1302.63 1719.56 1290.39 1769.34 1270.63L1770.4 1270.79 1769.92 1270.37 1770.51 1270.16 1769.45 1269.95C1729.47 1234.52 1678.12 1202.99 1618.96 1177.54 1524.18 1145.26 1416.33 1152.64 1363.03 1195.06 1309.73 1152.62 1201.85 1145.24 1107.06 1177.54 1047.89 1202.99 996.539 1234.52 956.568 1269.95L955.507 1270.16 956.091 1270.37 955.613 1270.79 956.674 1270.63C1006.45 1290.39 1065.59 1302.63 1129.98 1306.5 1228.71 1304.75 1326.31 1262.48 1363.03 1205.57Z" stroke="#0A3B70" stroke-width="4.58333" stroke-linecap="round" stroke-linejoin="round" stroke-miterlimit="10" fill="#EEBF12" fill-rule="evenodd"/><path d="M1363.47 1144.67 1362.89 1144.5 1362.89 1144.79C1268.4 1163.74 1219.15 1211.31 1247.4 1256.33 1273.8 1284.06 1313.21 1308.85 1362.89 1328.99L1362.89 1329.5 1363.47 1329.27 1364.06 1329.5 1364.06 1328.99C1413.73 1308.85 1453.14 1284.06 1479.54 1256.33 1507.79 1211.31 1458.54 1163.74 1364.06 1144.79L1364.06 1144.5 1363.47 1144.67Z" stroke="#0A3B70" stroke-width="4.58333" stroke-linecap="round" stroke-linejoin="round" stroke-miterlimit="10" fill="#EEBF12" fill-rule="evenodd"/><path d="M1368.06 978.263 1368.38 978.473 1368.38 978.105C1422.09 951.558 1450.09 884.955 1434.02 821.926 1419.02 783.093 1396.62 748.366 1368.38 720.155L1368.38 719.472 1368.06 719.788 1367.69 719.472 1367.69 720.155C1339.45 748.366 1317.05 783.093 1302.04 821.926 1285.98 884.955 1313.97 951.558 1367.69 978.105L1367.69 978.473 1368.06 978.263Z" stroke="#0A3B70" stroke-width="4.58333" stroke-linecap="round" stroke-linejoin="round" stroke-miterlimit="10" fill="#EEBF12" fill-rule="evenodd"/><path d="M1388.6 978.505 1388.69 978.707 1388.78 978.46C1426.74 970.293 1460.58 927.426 1468.12 877.946 1469.84 846.393 1466.2 816.297 1457.47 789.748L1457.65 789.254 1457.41 789.446 1457.3 789.127 1457.12 789.621C1433.37 804.346 1411.23 825.063 1392.26 850.336 1366.24 893.091 1364.61 947.68 1388.43 978.333L1388.34 978.58 1388.6 978.505Z" stroke="#0A3B70" stroke-width="4.58333" stroke-linecap="round" stroke-linejoin="round" stroke-miterlimit="10" fill="#EEBF12" fill-rule="evenodd"/><path d="M43.1814 201.427 43.3409 201.585 43.3409 201.322C76.2131 180.666 93.3482 128.811 83.519 79.7338 74.3362 49.497 60.6263 22.4599 43.3409 0.49898L43.3409-0.0272847 43.1814 0.235641 42.969-0.0272847 42.969 0.49898C25.684 22.4599 11.9737 49.497 2.79131 79.7338-7.03838 128.811 10.0972 180.666 42.969 201.322L42.969 201.585 43.1814 201.427Z" stroke="#0A3B70" stroke-width="4.58333" stroke-linecap="round" stroke-linejoin="round" stroke-miterlimit="10" fill="#EEBF12" fill-rule="evenodd" transform="matrix(-0.939693 0.34202 0.34202 0.939693 1318.05 774.453)"/><path d="M1434.9 1062.43 1435.03 1062.82 1435.28 1062.42C1499.4 1059.66 1572.15 996.486 1605.84 914.316 1622.39 861.008 1629.76 808.614 1627.45 760.773L1627.93 760.018 1627.41 760.247 1627.4 759.676 1626.91 760.431C1582.58 778.557 1538.21 807.382 1496.89 844.904 1436.66 910.172 1410.15 1002.8 1434.74 1062.08L1434.49 1062.48 1434.9 1062.43Z" stroke="#0A3B70" stroke-width="4.58333" stroke-linecap="round" stroke-linejoin="round" stroke-miterlimit="10" fill="#EEBF12" fill-rule="evenodd"/><path d="M69.0304 358.747 69.3488 359.01 69.3488 358.536C121.938 321.755 149.352 229.39 133.623 141.983 118.933 88.1346 97.0007 39.9841 69.3488 0.875591L69.3488-0.0190166 69.0304 0.454745 68.7119-0.0190166 68.7119 0.875591C41.0605 39.9841 19.1277 88.1346 4.43781 141.983-11.2917 229.39 16.1223 321.755 68.7119 358.536L68.7119 359.01 69.0304 358.747Z" stroke="#0A3B70" stroke-width="4.58333" stroke-linecap="round" stroke-linejoin="round" stroke-miterlimit="10" fill="#EEBF12" fill-rule="evenodd" transform="matrix(-0.843391 0.5373 0.5373 0.843391 1165.54 722.759)"/><path d="M1371.04 1137.43 1371.17 1137.83 1371.42 1137.43C1435.54 1134.66 1508.29 1071.49 1541.99 989.323 1558.53 936.014 1565.9 883.62 1563.6 835.779L1564.08 835.025 1563.55 835.253 1563.54 834.683 1563.06 835.437C1518.72 853.564 1474.35 882.389 1433.03 919.911 1372.8 985.178 1346.3 1077.81 1370.89 1137.09L1370.63 1137.48 1371.04 1137.43Z" stroke="#0A3B70" stroke-width="4.58333" stroke-linecap="round" stroke-linejoin="round" stroke-miterlimit="10" fill="#EEBF12" fill-rule="evenodd"/><path d="M69.0354 358.753 69.3538 359.016 69.3538 358.543C121.943 321.761 149.357 229.396 133.628 141.989 118.938 88.1408 97.0057 39.9899 69.3538 0.881379L69.3538-0.0128155 69.0354 0.460533 68.7169-0.0128155 68.7169 0.881379C41.0655 39.9899 19.1331 88.1408 4.44282 141.989-11.2867 229.396 16.1273 321.761 68.7169 358.543L68.7169 359.016 69.0354 358.753Z" stroke="#0A3B70" stroke-width="4.58333" stroke-linecap="round" stroke-linejoin="round" stroke-miterlimit="10" fill="#EEBF12" fill-rule="evenodd" transform="matrix(-0.843391 0.5373 0.5373 0.843391 1229.39 797.764)"/><path d="M1367.53 1168.26 1367.96 1168.49 1367.96 1168.04C1436.53 1136.17 1472.28 1056.2 1451.78 980.505 1432.62 933.858 1404.02 892.146 1367.96 858.264L1367.96 857.485 1367.53 857.875 1367.11 857.485 1367.11 858.264C1331.04 892.146 1302.44 933.858 1283.28 980.505 1262.79 1056.2 1298.54 1136.17 1367.11 1168.04L1367.11 1168.49 1367.53 1168.26Z" stroke="#0A3B70" stroke-width="4.58333" stroke-linecap="round" stroke-linejoin="round" stroke-miterlimit="10" fill="#EEBF12" fill-rule="evenodd"/><path d="M0.0379799-0.0136424C51.1944 138.758 186.976 228.841 335.899 222.801 332.82 155.878 285.404 99.0675 219.664 83.5354 140.794 73.4 65.5003 44.7577 0.0379799-0.0136424Z" stroke="#0A3B70" stroke-width="4.58333" stroke-linecap="round" stroke-linejoin="round" stroke-miterlimit="10" fill="#EEBF12" fill-rule="evenodd" transform="matrix(-0.990268 0.139173 0.139173 0.990268 1670.91 911.478)"/><path d="M1055.02 911.466C1086.36 1056.01 1208.28 1164.11 1356.6 1178.86 1362.86 1112.15 1323.81 1049.3 1260.88 1024.77 1184.18 1003.75 1113.61 964.912 1055.02 911.466Z" stroke="#0A3B70" stroke-width="4.58333" stroke-linecap="round" stroke-linejoin="round" stroke-miterlimit="10" fill="#EEBF12" fill-rule="evenodd"/><path d="M884.501 985.007C944.844 1001.04 999.198 1035.38 1040.6 1083.62 1125.88 1173.02 1250.26 1209.25 1367.97 1178.99 1485.7 1209.27 1610.11 1173.03 1695.4 1083.62 1736.8 1035.38 1791.16 1001.04 1851.5 985.007 1791.26 966.422 1726.09 978.631 1675.93 1017.9 1583.15 1088.91 1478.87 1142.18 1368.03 1175.2 1257.16 1142.19 1152.88 1088.92 1060.07 1017.9 1009.92 978.631 944.742 966.422 884.501 985.007Z" stroke="#0A3B70" stroke-width="4.58333" stroke-linecap="round" stroke-linejoin="round" stroke-miterlimit="10" fill="#EEBF12" fill-rule="evenodd"/><path d="M1365.54 1176.65C1367.13 1138.18 1397.2 1106.79 1435.95 1103.15 1495.44 1101.29 1549.08 1067.23 1575.54 1014.49 1569.05 1111.82 1484.03 1185.52 1385.64 1179.1 1378.9 1178.66 1372.19 1177.84 1365.54 1176.65Z" stroke="#0A3B70" stroke-width="4.58333" stroke-linecap="round" stroke-linejoin="round" stroke-miterlimit="10" fill="#EEBF12" fill-rule="evenodd"/><path d="M0.0225983 162.146C1.61327 123.675 31.6861 92.2864 70.4309 88.648 129.92 86.7951 183.559 52.7289 210.023-0.0119969 203.532 97.3193 118.513 171.017 20.1275 164.599 13.3845 164.156 6.67194 163.341 0.0225983 162.146Z" stroke="#0A3B70" stroke-width="4.58333" stroke-linecap="round" stroke-linejoin="round" stroke-miterlimit="10" fill="#EEBF12" fill-rule="evenodd" transform="matrix(-1 1.22465e-16 1.22465e-16 1 1362.5 1014.5)"/><g clip-path="url(#clip1)"><g clip-path="url(#clip2)"><path d="M114.948 161.051C115.155 127.357 102.165 94.9196 78.7584 70.682 72.3233 64.0199 65.1891 58.0707 57.4795 52.9372 49.7661 58.0701 42.6284 64.0194 36.19 70.682 12.783 94.9196-0.20701 127.357-1.6194e-06 161.051 11.9711 155.093 24.7962 151.032 38.0154 149.016 38.8104 128.685 45.5805 109.039 57.4795 92.5339 69.3747 109.04 76.141 128.686 76.933 149.016 77.453 162.373 75.3807 175.704 70.8305 188.273 67.572 197.28 63.0788 205.792 57.4795 213.564 65.3393 224.47 75.2488 233.743 86.6544 240.86 96.2274 228.907 103.595 215.344 108.411 200.807 112.659 187.979 114.866 174.563 114.948 161.051Z" stroke="#0A3B70" stroke-width="5.29573" stroke-linecap="round" stroke-linejoin="round" stroke-miterlimit="3" fill="#EEBF12" fill-rule="evenodd" transform="matrix(1.00581 0 0 1 1308.19 392.43)"/><path d="M50.9313 219.241C81.3285 239.482 118.883 245.884 154.269 236.859 163.118 234.601 171.703 231.41 179.878 227.339 179.821 217.938 178.735 208.571 176.641 199.406 168.036 161.742 142.995 129.92 108.411 112.698 108.328 126.211 106.122 139.627 101.873 152.454 123.39 164.622 139.842 184.089 148.252 207.334 124.508 210.421 100.43 205.181 80.1168 192.508 68.7074 185.392 58.7942 176.119 50.9313 165.211 45.3321 157.439 40.8389 148.928 37.5803 139.921 24.3633 141.64 11.6029 145.896 3.88656e-06 152.454 4.81623 166.992 12.1834 180.554 21.7565 192.508 30.048 202.867 39.8888 211.885 50.9313 219.241Z" stroke="#0A3B70" stroke-width="5.29573" stroke-linecap="round" stroke-linejoin="round" stroke-miterlimit="3" fill="#EEBF12" fill-rule="evenodd" transform="matrix(1.00581 0 0 1 1314.77 440.778)"/><path d="M71.4673 112.698C36.8827 129.92 11.8424 161.742 3.23694 199.406 1.14289 208.571 0.0574664 217.938-3.84607e-06 227.339 8.1751 231.41 16.7596 234.601 25.6089 236.859 60.9956 245.884 98.5496 239.482 128.947 219.241 117.901 211.886 108.056 202.868 99.7613 192.508 79.4483 205.181 55.3693 210.421 31.6265 207.334 40.0389 184.087 56.4944 164.62 78.0155 152.454 89.6151 145.897 102.372 141.641 115.585 139.921 124.452 138.767 133.431 138.767 142.298 139.921 146.848 127.352 148.92 114.021 148.4 100.663 135.506 98.6956 122.388 98.6956 109.493 100.663 96.2705 102.679 83.4417 106.739 71.4673 112.698Z" stroke="#0A3B70" stroke-width="5.29573" stroke-linecap="round" stroke-linejoin="round" stroke-miterlimit="3" fill="#EEBF12" fill-rule="evenodd" transform="matrix(1.00581 0 0 1 1236.31 440.778)"/></g></g><path d="M729.5 290.5 1993.5 290.5 1993.5 577.955 1993.5 644.129 1993.5 962.398 1993.04 962.398 1993.04 1049.19 1993.5 1049.19 1993.5 1437.78C1993.5 1728.68 1402.07 1930.23 1361.5 1942.5L1361.48 1942.49 1361.48 1941.09 1356.12 1939.4C1284.54 1916.15 729.5 1718.19 729.5 1436.38L729.5 1047.79 729.779 1047.79 729.779 960.998 729.5 960.998 729.5 693.683 729.5 644.129 729.5 577.955Z" stroke="#EEBF12" stroke-width="20.625" stroke-miterlimit="8" fill="none" fill-rule="evenodd"/><path d="M804 428.5 833.636 419.926 840 380 846.364 419.926 876 428.5 846.364 437.074 840 477 833.636 437.074Z" fill="#FFFFFF" fill-rule="evenodd"/><path d="M979 835 1004.11 828.459 1009.5 798 1014.89 828.459 1040 835 1014.89 841.541 1009.5 872 1004.11 841.541Z" fill="#FFFFFF" fill-rule="evenodd"/><path d="M1009 598 1021.35 594.111 1024 576 1026.65 594.111 1039 598 1026.65 601.889 1024 620 1021.35 601.889Z" fill="#FFFFFF" fill-rule="evenodd"/><path d="M839 765.5 851.348 761.522 854 743 856.652 761.522 869 765.5 856.652 769.477 854 788 851.348 769.477Z" fill="#FFFFFF" fill-rule="evenodd"/><path d="M1110 437 1122.35 433.111 1125 415 1127.65 433.111 1140 437 1127.65 440.889 1125 459 1122.35 440.889Z" fill="#FFFFFF" fill-rule="evenodd"/><path d="M1225 452 1250.11 445.459 1255.5 415 1260.89 445.459 1286 452 1260.89 458.541 1255.5 489 1250.11 458.541Z" fill="#FFFFFF" fill-rule="evenodd"/><path d="M864 633 888.697 626.459 894 596 899.303 626.459 924 633 899.303 639.541 894 670 888.697 639.541Z" fill="#FFFFFF" fill-rule="evenodd"/><path d="M1166 671.5 1178.35 667.523 1181 649 1183.65 667.523 1196 671.5 1183.65 675.477 1181 694 1178.35 675.477Z" fill="#FFFFFF" fill-rule="evenodd"/><path d="M812 909 824.348 905.111 827 887 829.652 905.111 842 909 829.652 912.889 827 931 824.348 912.889Z" fill="#FFFFFF" fill-rule="evenodd"/></g></svg>