<svg width="864" height="1566" xmlns="http://www.w3.org/2000/svg" xmlns:xlink="http://www.w3.org/1999/xlink" overflow="hidden"><defs><clipPath id="clip0"><rect x="929" y="345" width="864" height="1566"/></clipPath></defs><g clip-path="url(#clip0)" transform="translate(-929 -345)"><path d="M1582.17 568.701 1583.99 571.695C1586.86 576.926 1589.29 582.4 1590.89 587.063 1592.18 590.843 1593.1 594.969 1593.71 599.275L1594.2 606.102 1596.62 606.518 1596.7 606.543 1607.39 607.99 1606.58 608.891 1605.13 608.924 1604.57 608.939 1608.99 610.286C1613.09 611.777 1617.11 613.515 1620.96 615.541 1626.34 618.374 1631.25 622.471 1635.58 627.023L1639.79 632.376 1638.74 624.743C1638.11 621.485 1637.35 618.503 1636.44 616.055 1633.31 607.603 1623.91 598.779 1617.28 592.427 1610.32 585.761 1599.81 578.007 1591.39 573.125ZM1150.4 562.458 1134.03 568.843C1125.34 573.001 1114.39 579.744 1107.07 585.645 1100.08 591.267 1090.19 599.067 1086.57 606.826 1085.53 609.073 1084.59 611.828 1083.78 614.848L1082.71 619.975 1086.98 615.957 1089.83 613.848 1091.28 612.479 1092.42 611.923 1095.45 609.682C1097.81 608.187 1100.29 606.938 1102.82 605.898L1108.78 603.942 1111.2 602.761 1115.54 602.612 1125.36 601.134C1129.89 600.867 1133.83 600.973 1136.64 601.146L1139.38 601.372 1140.13 590.942C1140.74 586.635 1141.66 582.51 1142.96 578.73 1144.55 574.067 1146.98 568.593 1149.85 563.362ZM1142.73 530.444C1142.79 531.283 1142.85 532.121 1142.92 532.96L1143.12 533.686 1143 534.054C1143.01 534.213 1143.02 534.371 1143.03 534.53 1143.02 534.589 1143.01 534.647 1143 534.705L1144.71 534.294ZM1310.81 525.421 1306.02 528.728C1294.84 535.57 1284.31 542.494 1272.36 548.015 1267.32 550.341 1257.58 552.74 1250.54 555.643L1249.72 556.079 1256.89 556.354C1261.03 558.428 1281.49 562.245 1303.05 565.071L1303.43 565.11 1305 554.987C1305.93 550.817 1307.08 542.993 1308.69 534.761ZM1410.25 523.697 1413.63 534.143C1416.05 542.163 1418.02 549.788 1418.92 553.825L1420.16 561.571 1423.26 561.269 1432.73 559.727 1455.57 555.97 1459.99 555.549 1444.36 547.2C1438.84 543.924 1433.41 540.483 1427.82 537.062 1423.28 534.279 1417.73 530.031 1411.97 525.223ZM1401.72 478.167 1403.82 478.77 1404.3 478.63C1405.62 478.744 1406.99 480.314 1407.8 481.171 1408.65 482.076 1409.74 482.13 1409.62 483.413L1408.9 484.676 1409.84 487.596 1407.41 492.07 1407.88 492.057 1406.86 493.081 1406.73 493.323 1406.64 493.49 1406.24 493.702 1406 493.943 1404.99 494.372 1406.49 495.014 1410.51 496.663 1411.45 494.839 1412.29 493.534 1412.55 492.462 1413.6 491.506 1413.67 491.397 1413.8 491.32 1415.97 489.345C1417.32 488.525 1418.86 487.948 1420.53 487.688L1423.49 487.804 1423.89 487.568 1425.18 487.87 1425.22 487.872 1425.4 487.879 1425.61 487.971 1426.8 488.252 1428.58 489.307 1429.57 489.75 1429.68 489.8 1429.76 489.875 1429.88 490 1431.45 490.682C1432.03 490.944 1432.47 491.309 1432.61 492.18L1432.48 492.685 1432.92 493.132C1433.77 494.444 1434.37 495.937 1434.65 497.56L1433.21 503.529 1438.17 504.791 1438.31 504.221 1438.39 503.887 1439.62 502.767 1439.67 502.689 1439.77 502.634 1441.73 500.848 1442.23 500.395 1442.44 500.318 1443.2 500.043 1443.36 498.779 1445.07 496.993 1445.88 496.292 1446.3 495.57 1447.28 495.082 1447.48 494.906 1447.78 494.829 1449.51 493.966C1450.69 493.635 1451.95 493.524 1453.24 493.674L1455.43 494.376 1455.93 494.244C1457.31 494.404 1458.7 496.094 1459.52 497.017 1460.39 497.993 1461.53 498.083 1461.36 499.427L1460.55 500.759 1461.43 503.863 1461.08 504.469 1461.14 504.538 1461.24 504.638C1462.2 506.106 1462.87 507.779 1463.18 509.596L1462.83 511.05 1465.68 511.769 1468.21 512.405 1469.55 511.183 1470.05 510.723C1471.71 509.71 1473.61 508.998 1475.68 508.677L1479.3 508.819 1480 508.409C1482.21 508.068 1485.16 510.078 1486.86 511.152L1487.25 511.32 1487.53 511.077 1487.55 511.039 1487.82 510.571 1488.17 510.394 1488.51 510.228 1488.88 509.907 1489.43 509.766 1491.04 508.966C1492.21 508.636 1493.47 508.524 1494.76 508.675L1496.95 509.376 1497.45 509.244C1498.83 509.404 1500.22 511.094 1501.05 512.018 1501.91 512.993 1503.05 513.083 1502.88 514.427L1502.07 515.76 1502.95 518.864 1502.75 519.208 1504.44 518.594 1504.62 516.735 1506.34 514.801 1507.16 514.044 1507.6 513.235 1508.64 512.677 1508.8 512.528 1509.05 512.457 1510.93 511.449C1512.16 511.066 1513.48 510.91 1514.85 511.029L1517.1 511.679 1517.73 511.49C1519.18 511.617 1520.7 513.354 1521.59 514.303 1522.52 515.304 1523.72 515.363 1523.59 516.784L1522.77 518.239 1523.81 521.491 1523.34 522.354 1524.48 523.82 1524.34 524.347 1525.77 524.575C1525.75 524.482 1525.73 524.39 1525.72 524.297 1525.72 524.236 1525.73 524.175 1525.74 524.114L1525.52 523.436 1525.86 522.808 1526.13 519.992 1528.16 517.721 1529.08 516.876 1529.68 515.766C1531.97 513.909 1534.99 512.9 1538.2 513.178L1540.85 513.94 1541.46 513.757C1543.18 513.905 1544.98 515.957 1546.03 517.077 1547.14 518.26 1548.56 518.329 1548.4 520.007L1547.5 521.593 1547.55 521.736 1548.03 521.29 1548.15 521.073 1548.38 520.647 1549.21 520.204 1549.63 519.815 1550.29 519.628 1552.3 518.553C1553.74 518.103 1555.3 517.92 1556.9 518.059L1559.55 518.821 1560.17 518.638C1561.89 518.787 1563.68 520.838 1564.73 521.958 1565.85 523.141 1567.26 523.211 1567.1 524.888L1566.21 526.474 1566.63 527.795 1567.62 526.613 1568.85 525.146 1569.38 524.863 1570.34 524.35C1570.34 524.346 1570.35 524.341 1570.35 524.337L1570.37 524.331 1573.25 522.788C1574.87 522.281 1576.62 522.075 1578.42 522.232L1581.45 523.107 1582.05 522.927C1583.01 523.01 1583.99 523.628 1584.88 524.382L1587.09 526.594 1587.29 526.749C1587.29 526.751 1587.29 526.753 1587.29 526.755L1587.29 526.763 1589.01 528.09C1589.54 528.511 1589.89 529.002 1589.8 529.943L1588.85 531.636 1589.46 533.55 1590.13 532.752 1590.77 531.985 1592.12 531.263 1592.41 530.997 1592.86 530.869 1594.79 529.837 1595.61 529.395C1597.39 528.839 1599.32 528.613 1601.3 528.785L1604.52 529.713 1605.31 529.478C1607.43 529.662 1609.64 532.195 1610.94 533.578 1612.31 535.038 1614.06 535.125 1613.86 537.196L1613.43 537.959 1613.63 538.309 1613.7 538.441 1614.18 542.713 1614.48 542.354 1614.59 542.224 1615.94 541.501 1616.22 541.235 1616.67 541.107 1619.43 539.633C1621.21 539.077 1623.13 538.851 1625.11 539.023L1628.33 539.951 1629.13 539.716C1631.25 539.9 1633.46 542.434 1634.75 543.816 1636.13 545.276 1637.88 545.363 1637.68 547.434L1637.25 548.198 1637.41 548.484 1637.52 548.679 1637.81 551.315 1638.74 550.818 1639.2 550.572C1641.26 549.928 1643.48 549.667 1645.77 549.866L1649.51 550.944 1650.41 550.674C1652.85 550.886 1655.39 553.796 1656.89 555.384 1658.46 557.061 1660.47 557.161 1660.25 559.54L1659.75 560.412 1660.11 561.042C1660.76 563.044 1661.03 565.205 1660.82 567.432L1660.25 569.281 1668 568.449 1672.09 569.627 1673.59 569.492C1676.49 569.743 1679.52 573.198 1681.3 575.083 1683.18 577.073 1685.58 577.192 1685.31 580.016L1684.7 581.094 1685.03 581.681C1685.81 584.051 1686.12 586.61 1685.87 589.245 1685.62 591.881 1684.83 594.344 1683.61 596.542L1682.32 598.081 1686.1 600.009C1687.44 601.14 1688.64 602.474 1689.53 603.417 1691.41 605.408 1693.81 605.526 1693.54 608.35L1692.92 609.428 1693.26 610.015C1694.04 612.385 1694.35 614.944 1694.1 617.579 1693.85 620.215 1693.06 622.679 1691.84 624.876L1689.6 627.54 1690.07 627.527 1687.63 629.97 1689.29 630.818C1690.68 631.997 1691.93 633.389 1692.86 634.371 1694.82 636.446 1697.31 636.57 1697.03 639.514L1696.4 640.62 1696.83 641.386C1697.65 643.852 1697.97 646.514 1697.71 649.256L1697.47 650.045 1699.05 651.372C1701.33 654.14 1702.5 658.56 1702.5 658.56 1702.5 658.56 1708.61 659.81 1710.67 661.32 1713.33 663.259 1716.83 666.886 1717 670.073 1717.07 671.497 1714.6 674.24 1714.6 674.24 1714.6 674.24 1713.98 673.776 1712.98 673.081L1711.16 671.899 1710.54 671.495 1710.65 671.719C1710.67 672.127 1709.33 671.085 1707.44 669.801L1706.26 669.066 1704.72 668.258 1704.19 667.982C1702.56 667.286 1701.01 666.822 1699.75 666.821 1694.36 666.816 1688.03 671.53 1683.82 674.738L1678.96 679.468C1678.92 679.759 1678.88 680.05 1678.84 680.341L1677.78 683.472 1676.53 689.27C1676.05 691.176 1675.03 693.686 1673.78 696.378L1672.82 698.261C1672.82 698.264 1672.83 698.267 1672.83 698.27 1673.14 698.884 1673.02 699.884 1672.55 701.146L1670.82 704.418 1671.79 705.547C1672.29 706.151 1672.57 706.799 1672.24 707.88L1671.65 708.581 1671.84 709.174C1672.04 711.124 1671.86 713.156 1671.25 715.168 1670.63 717.181 1669.64 718.984 1668.36 720.521L1666.31 722.215 1666.61 722.262 1664.37 723.817 1663.81 724.278 1663.61 724.343 1662.77 724.92 1659.6 725.647 1658.2 726.103 1657.75 726.07 1656.52 726.353 1654.17 725.806 1652.15 725.658 1651.05 725.094 1649.39 729.993C1648.55 732.111 1647.57 734.212 1646.54 735.783 1644.84 738.395 1642.89 741.105 1640.58 743.646L1639.23 744.782 1638.14 746.121 1632.45 750.494C1632.45 750.494 1632.45 750.494 1632.45 750.495L1628.77 752.199 1626.92 753.049 1626.16 756.075 1626.49 756.383 1625.79 757.565 1625.02 760.612 1625.3 761.62 1628.69 761.977 1637.42 762.947C1639.76 765.375 1641.16 766.085 1640.91 768.378L1640.52 768.348 1640.9 770.098 1640.91 770.108C1640.78 771.258 1640.23 772.387 1639.19 773.489L1638.41 774.016 1637.98 774.308 1637.34 775.013C1636.68 775.541 1635.81 776.058 1634.47 776.712L1634.44 776.709C1634.44 776.71 1634.44 776.711 1634.44 776.712L1632.17 776.458 1629.07 776.121 1627.65 782.173 1630.66 784.185C1631.26 785.185 1631.7 786.492 1632.01 788.053L1632.14 789.349 1634.36 790.256 1636.5 793.048 1637.72 794.517 1638.86 798.838 1639.29 800.261C1639.29 800.331 1639.29 800.401 1639.29 800.471L1639.44 801.033C1639.41 802.217 1639.38 803.401 1639.34 804.584 1639.35 805.494 1639.37 806.404 1639.38 807.315 1639.36 807.371 1639.35 807.428 1639.33 807.485 1639.35 807.666 1639.36 807.848 1639.38 808.029L1639.24 808.479C1639.23 808.82 1639.22 809.161 1639.21 809.502L1637.22 816.042 1636.5 817.225 1636.29 817.923 1635.7 818.556 1634.03 821.296 1631.5 823.05 1630.55 824.061 1629.77 824.247 1629.47 824.451C1629.48 824.405 1629.48 824.359 1629.49 824.313L1628.33 824.589 1628.23 824.946C1626.61 829.376 1624.47 832.032 1621.61 831.821 1620.19 831.715 1618.91 830.916 1617.82 829.562L1616.98 827.809 1615.36 835.226 1615.62 835.271 1614.38 840.179 1615.97 840.369 1618.09 840.629 1618.15 840.747 1620.62 843.454C1621.18 844.221 1621.45 844.972 1621.33 846.119L1621.23 846.11 1620.98 846.968 1621.33 847.739 1619.82 850.93 1619.73 851.229 1617.99 852.503 1617.88 852.634 1617.42 852.922 1617.23 853.901 1615.84 854.069 1615.31 854.452 1614 854.293 1568.96 859.764C1347.03 883.819 1172.9 862.979 1116.17 854.961L1111.09 854.223 1108.99 854.452 1108.02 853.778 1105.83 853.46C1105.84 853.065 1105.85 852.67 1105.85 852.274L1104.65 851.44 1104.54 851.115 1102.94 848.008 1103.25 847.236 1102.95 846.354 1103.24 845.799 1102.94 845.83C1102.77 844.679 1102.97 844.042 1103.48 843.367L1105.82 840.735C1105.84 840.7 1105.85 840.664 1105.87 840.629L1109.83 840.199C1109.81 840.126 1109.79 840.054 1109.78 839.981L1107.12 834.664 1108.53 834.521 1107.78 831.232 1104.99 832.892C1102.14 833.104 1100 830.447 1098.38 826.017L1098.25 825.534 1097.12 825.266 1097.14 825.404 1096.84 825.2 1096.06 825.013 1095.11 824.002 1092.58 822.248 1090.91 819.507 1090.32 818.876 1090.1 818.179 1089.39 816.995 1087.4 810.454C1087.39 810.113 1087.38 809.772 1087.37 809.431L1087.23 808.981 1087.27 808.438 1087.23 808.267C1087.24 807.358 1087.25 806.448 1087.27 805.539 1087.23 804.354 1087.2 803.17 1087.17 801.986L1087.32 801.423C1087.32 801.353 1087.32 801.283 1087.32 801.213L1087.75 799.798 1088.89 795.469 1090.11 793.996 1092.25 791.208 1094.48 790.297C1094.52 789.906 1094.56 789.515 1094.6 789.124 1094.9 787.564 1095.35 786.256 1095.95 785.257L1097.13 784.467 1095.24 776.178 1089.97 776.712C1089.96 776.709 1089.96 776.707 1089.96 776.704L1089.88 776.712C1087.8 775.765 1086.27 774.758 1085.21 773.699 1084.14 772.641 1083.56 771.531 1083.37 770.377L1084.38 767.994 1083.37 768.09C1083 765.788 1084.23 765.538 1086.52 762.947L1102.28 761.358C1102.28 761.352 1102.28 761.347 1102.28 761.341L1101.97 760.295C1101.61 759.745 1101.25 759.183 1101.38 758.594 1101.78 756.793 1099.02 755.258 1098.78 754.887L1099.1 754.907 1098.91 754.771C1098.82 754.663 1099.01 754.68 1099.7 754.848L1100.47 754.953 1099.34 752.372 1095.28 750.495 1095.28 750.494 1089.59 746.121 1088.5 744.782 1087.15 743.646C1084.84 741.105 1082.89 738.395 1081.19 735.783 1080.16 734.212 1079.18 732.111 1078.34 729.993L1078.04 729.097 1075.16 730.175 1070.23 728.981 1070.08 729.037 1067.85 730.183 1067.59 730.201 1065.84 730.331 1063.49 730.877 1062.25 730.594 1062.05 730.609 1061.8 730.627 1060.39 730.168 1057.23 729.444 1056.4 728.87 1056.19 728.803 1055.62 728.327 1053.39 726.786 1053.69 726.74 1051.64 725.045C1050.36 723.508 1049.37 721.705 1048.75 719.692 1048.14 717.68 1047.96 715.649 1048.16 713.698L1048.35 713.102 1047.76 712.404C1047.43 711.323 1047.71 710.675 1048.22 710.071L1049.18 708.943 1047.45 705.67C1046.98 704.408 1046.86 703.409 1047.17 702.794L1050.87 699.127 1048.9 695.616C1048 693.655 1047.13 691.675 1045.96 689.965 1043.94 687.011 1039.07 681.463 1036.18 679.262 1033.02 676.856 1028.67 673.603 1024.42 672.129L1020.25 671.345 1015.81 672.507 1013.76 673.583 1012.56 674.326C1010.67 675.609 1009.34 676.651 1009.36 676.243L1009.46 676.017 1007.02 677.605C1006.02 678.301 1005.4 678.764 1005.4 678.764 1005.4 678.764 1002.93 676.022 1003 674.597 1003.17 671.41 1006.67 667.783 1009.33 665.844 1011.39 664.335 1017.5 663.084 1017.5 663.084 1017.5 663.084 1018.67 658.665 1020.95 655.896L1021.51 655.432 1020.14 650.639C1019.93 647.893 1020.32 645.238 1021.18 642.788L1021.62 642.043 1021.09 641.06C1020.99 639.582 1021.56 638.825 1022.4 638.182L1025.1 636.186C1025.11 636.181 1025.11 636.176 1025.11 636.171L1025.44 635.928 1027.64 633.814 1026.94 633.461 1026.16 633.111 1025.39 632.316 1025.03 632.112 1024.26 631.15 1022.42 629.443 1022.26 629.044 1022.08 628.858 1022.19 628.863 1021.97 628.31 1020.36 626.317C1019.19 624.096 1018.46 621.618 1018.26 618.978 1018.07 616.338 1018.44 613.786 1019.27 611.432L1019.74 610.631 1019.22 609.668C1019.02 606.833 1021.41 606.762 1023.33 604.804L1024.04 604.129 1024.35 603.743 1024.67 603.523 1026.84 601.457C1028.21 600.351 1029.71 599.452 1031.16 599.355L1032.82 599.538 1033.62 599.327 1033.05 598.738 1033.39 598.754 1031.33 596.198C1030.17 593.977 1029.43 591.498 1029.24 588.858 1029.04 586.218 1029.41 583.666 1030.24 581.312L1030.65 580.621 1030.07 579.548C1029.86 576.713 1032.26 576.642 1034.18 574.684 1036 572.83 1039.1 569.429 1042.01 569.235L1043.76 569.428 1047.55 568.418 1054.19 569.263 1052.8 564.367C1052.63 562.137 1052.94 559.981 1053.64 557.992L1054.06 557.279 1053.64 556.49C1053.46 554.101 1055.49 554.041 1057.11 552.392 1058.65 550.83 1061.27 547.965 1063.72 547.801L1064.58 548.073 1068.22 547.101C1070.51 546.947 1072.73 547.253 1074.77 547.937L1074.8 547.953 1075.31 548.24 1075.72 545.195 1076.02 544.682 1075.58 543.87C1075.43 541.808 1077.18 541.756 1078.58 540.332 1079.91 538.984 1082.17 536.51 1084.3 536.369L1085.14 536.637 1088.33 535.786C1090.31 535.653 1092.23 535.917 1094 536.508L1094.48 536.775 1094.67 535.315 1094.94 534.858 1094.53 534.107C1094.38 532.046 1096.13 531.994 1097.54 530.57 1098.86 529.222 1101.13 526.748 1103.25 526.607L1103.89 526.81 1107.28 525.905C1109.26 525.772 1111.18 526.036 1112.95 526.627L1115.88 528.266 1116.1 528.335 1116.25 528.476 1117.61 529.239 1118.43 527.427C1118.97 527.02 1119.68 526.685 1120.32 526.038 1121.52 524.814 1123.57 522.566 1125.49 522.438L1126.16 522.65 1129.13 521.854C1130.94 521.733 1132.68 521.973 1134.29 522.512L1136.77 523.903 1137.26 524.054 1137.58 524.36 1138.18 524.699 1138.64 524.957 1138.78 525.132 1140.11 526.781 1140.45 527.109 1142.1 529.033 1143.39 525.299 1142.54 523.736C1142.48 522.903 1142.8 522.476 1143.28 522.113L1144.91 520.922 1144.96 520.883C1144.97 520.878 1144.98 520.874 1144.98 520.87L1147.05 518.91C1147.86 518.259 1148.75 517.731 1149.61 517.674L1150.09 517.827 1152.87 517.089C1154.47 516.981 1156.02 517.194 1157.46 517.672L1159.83 519.005 1159.98 519.048 1160.06 519.134 1161.33 519.843 1161.85 520.849 1162.81 521.771 1164.79 524.08C1164.86 525.041 1164.93 526.003 1165 526.965L1165.32 527.593 1165.09 528.259C1165.1 528.302 1165.1 528.345 1165.1 528.388L1164.71 530.353 1168.54 529.798 1166.5 525.82 1167.63 522.522 1166.86 521.073C1166.75 519.647 1167.95 519.611 1168.91 518.626 1169.82 517.694 1171.37 515.983 1172.82 515.885L1173.53 516.112 1175.68 515.537 1175.68 515.537 1178.31 515.871 1179.59 516.035 1180.74 516.68 1181.26 516.977 1181.69 517.108 1181.96 517.369 1182.88 517.885 1183.26 518.612 1184.1 519.425 1185.78 521.389C1185.84 522.223 1185.91 523.057 1185.97 523.891L1186.28 524.493 1186.01 525.274 1185.49 527.872 1189.43 527.465 1191.59 521.646 1192.06 521.138 1191.76 520.056C1192.16 517.442 1194.35 517.827 1196.49 516.41 1198.53 515.069 1202.04 512.562 1204.72 512.931L1205.26 513.234 1209.98 513.193C1212.5 513.539 1214.81 514.361 1216.86 515.552L1220.17 518.463 1220.3 518.532 1220.37 518.631 1220.65 518.883 1222.07 520.124C1222.07 520.136 1222.08 520.147 1222.08 520.159L1222.32 520.632 1224.89 520.013 1224.65 517.808C1224.85 515.786 1225.46 513.898 1226.39 512.214L1226.8 511.733 1226.49 510.818C1226.7 508.658 1228.51 508.886 1230.21 507.638 1231.82 506.455 1234.6 504.258 1236.81 504.454L1237.65 504.873 1241.15 504.504C1243.24 504.688 1245.18 505.274 1246.91 506.174L1249.38 508.133 1249.82 508.349 1250.07 508.678 1251.4 509.737 1253.21 512.957 1256 512.237 1255.07 509.301C1255.25 507.468 1255.8 505.755 1256.65 504.228L1256.95 503.868 1256.66 502.991C1256.85 501.022 1258.5 501.23 1260.05 500.092 1261.51 499.015 1264.04 497.012 1266.05 497.191L1266.82 497.578 1270.08 497.236C1271.97 497.404 1273.74 497.934 1275.32 498.751L1277.75 500.678 1277.97 500.783 1278.09 500.942 1279.4 501.982 1279.8 503.237 1280.66 504.396 1284.53 503.134 1282.99 498.294 1285.01 494.582 1284.46 492.949C1284.62 491.277 1286.03 491.454 1287.35 490.487 1288.59 489.572 1290.74 487.871 1292.46 488.022L1293.08 488.335 1295.69 488.061C1297.29 488.202 1298.79 488.653 1300.12 489.346L1302.28 491.06 1302.36 491.098C1302.38 491.117 1302.39 491.137 1302.41 491.157L1303.58 492.086 1303.83 492.878 1303.93 493.191 1304.7 494.214 1305.44 495.449 1309.28 494.002 1308.38 492.867 1309.02 492.955 1307.01 487.918 1308.41 484.855 1307.88 483.592C1307.9 482.915 1308.19 482.593 1308.6 482.335L1309.93 481.536C1309.93 481.527 1309.94 481.518 1309.94 481.509 1309.94 481.506 1309.94 481.504 1309.94 481.501L1310.06 481.428 1310.22 481.333 1311.88 480.018C1312.58 479.551 1313.33 479.188 1314.03 479.204L1314.41 479.364 1316.71 478.968C1318.02 478.997 1319.26 479.282 1320.38 479.771L1322.33 481.107 1322.34 481.113 1322.35 481.123 1323.34 481.803 1323.69 482.669 1324.42 483.51 1325.83 485.511C1325.82 486.113 1325.8 486.714 1325.79 487.316L1333.92 483.902 1337.08 487.349C1343.31 492.209 1351.29 495.128 1360 495.128 1368.71 495.128 1376.69 492.209 1382.92 487.349L1384.8 485.296 1386.34 485.568C1388.68 486.25 1390.61 487.189 1391.59 488.481L1391.74 488.688 1392.47 489.009 1392.05 486.646C1392.05 486.561 1392.06 486.477 1392.07 486.392L1391.96 486.049 1392.13 485.73C1392.21 484.94 1392.28 484.149 1392.36 483.358L1393.91 481.624 1394.82 480.792 1394.96 480.52 1395.16 480.155 1395.52 479.965 1395.98 479.717 1396.13 479.585 1396.35 479.522 1398.18 478.546C1399.29 478.2 1400.49 478.06 1401.72 478.167ZM1328.19 465.264 1391.81 465.264 1391.77 465.624C1388.75 479.595 1375.67 490.105 1360 490.105 1344.33 490.105 1331.25 479.595 1328.23 465.624ZM1367.79 429.777 1372.62 431.195C1380.38 434.298 1386.6 440.175 1389.88 447.511L1391.41 452.165 1367.79 452.165ZM1353.97 429.36 1353.97 452.165 1328.59 452.165 1330.12 447.511C1334.22 438.341 1342.91 431.451 1353.46 429.408ZM1363.04 393.176 1363.04 409.79 1364.67 409.552C1372.48 408.028 1378.63 402.163 1380.23 394.719L1380.48 393.176ZM1340.81 393.176 1341.06 394.719C1342.66 402.163 1348.81 408.028 1356.62 409.552L1358.2 409.783 1358.2 393.176ZM1358.2 371.97 1356.62 372.201C1348.81 373.725 1342.66 379.589 1341.06 387.035L1340.82 388.565 1358.2 388.565ZM1363.04 371.963 1363.04 388.565 1380.47 388.565 1380.23 387.035C1378.63 379.589 1372.48 373.725 1364.67 372.201ZM1360.66 347C1363.49 349.91 1364.83 355.196 1364.63 358.597 1369.71 356.127 1376.24 358.883 1378.45 362.837 1374.73 362.026 1368.98 362.323 1365.51 365.877L1364.31 367.436 1365.62 367.628C1375.32 369.524 1382.97 376.822 1384.95 386.089L1385.16 387.368 1386.74 386.295C1390.31 383.193 1390.68 377.777 1390.02 373.86 1394.1 375.849 1397.01 382.396 1394.46 387.031 1397.3 387.039 1403.36 387.978 1406.56 390.828 1403.52 393.531 1397.98 394.804 1394.42 394.616 1397.01 399.466 1394.12 405.696 1389.98 407.803 1390.83 404.25 1390.52 398.766 1386.8 395.457L1385.17 394.31 1384.95 395.652C1382.97 404.918 1375.32 412.218 1365.62 414.113L1364.3 414.307 1365.42 415.808C1368.67 419.22 1374.34 419.571 1378.45 418.941 1376.36 422.834 1369.5 425.617 1364.65 423.184 1364.64 425.898 1363.65 431.683 1360.67 434.742 1357.84 431.83 1356.5 426.544 1356.7 423.145 1351.62 425.614 1345.09 422.859 1342.88 418.904 1346.6 419.715 1352.35 419.419 1355.82 415.865L1357.01 414.319 1355.6 414.113C1345.9 412.218 1338.26 404.918 1336.27 395.652L1336.06 394.302 1334.49 395.368C1330.91 398.469 1330.54 403.886 1331.2 407.803 1327.13 405.813 1324.22 399.267 1326.76 394.631 1323.92 394.623 1317.86 393.684 1314.66 390.834 1317.71 388.131 1323.24 386.859 1326.81 387.046 1324.22 382.197 1327.1 375.966 1331.24 373.86 1330.39 377.411 1330.71 382.897 1334.43 386.206L1336.07 387.36 1336.27 386.089C1338.26 376.822 1345.9 369.524 1355.6 367.628L1357.02 367.421 1355.91 365.933C1352.66 362.522 1346.99 362.17 1342.88 362.8 1344.97 358.908 1351.83 356.124 1356.68 358.558 1356.69 355.843 1357.68 350.058 1360.66 347Z" stroke="#000000" stroke-width="2.29167" stroke-miterlimit="8" fill="none" fill-rule="evenodd"/><path d="M932 811 1361 811 1361 1906 1317.39 1903.99C1100.92 1883.89 932 1716.75 932 1513.54Z" fill-rule="evenodd"/><path d="M0 0 428 0 428 1095 384.492 1092.99C168.528 1072.89 0 905.749 0 702.539Z" fill="#041B5C" fill-rule="evenodd" transform="matrix(-1 0 0 1 1789 811)"/><path d="M0 0 362 0 362 182 318.924 180.018C197.077 168.742 90.2838 111.062 20.1622 26.6774Z" fill="#FFFFFF" fill-rule="evenodd" transform="matrix(-1 0 0 1 1723 1724)"/><rect x="0" y="0" width="428" height="182" fill="#FFFFFF" transform="matrix(-1 0 0 1 1789 1359)"/><rect x="0" y="0" width="428" height="182" fill="#FFFFFF" transform="matrix(-1 0 0 1 1789 994)"/><path d="M1146 1496C1150.93 1514.23 1173.84 1525.8 1173.84 1558.69 1173.84 1586.17 1152.7 1614.73 1152.7 1659.91 1152.7 1663.57 1152.7 1666.17 1152.7 1667.98L1152.7 1669.26 1157.65 1669.26 1157.68 1667.09C1158.35 1642.74 1165.08 1592.65 1208.02 1592.65 1231.06 1592.65 1240 1612.41 1240 1624.9 1240 1642.89 1227.26 1656.59 1214.25 1656.59 1207.21 1656.59 1201.25 1651.3 1199.08 1647.69 1199.08 1647.69 1214.8 1647.97 1214.8 1635.46 1214.8 1628.79 1211.28 1622.39 1200.98 1622.39 1191.32 1622.39 1173.33 1634.86 1171.12 1664.13L1170.93 1669.26 1179.58 1669.26C1183.01 1669.26 1185.78 1671.49 1185.78 1674.24 1185.78 1676.99 1183.01 1679.22 1179.58 1679.22L1157.75 1679.22 1157.8 1679.71C1158.9 1686.38 1162.06 1695.29 1171.08 1695.29 1178.87 1695.29 1181.18 1686.7 1181.18 1684.63 1181.18 1684.63 1187.24 1688.48 1187.24 1700.02 1187.24 1708.01 1177.71 1713.05 1169.92 1713.05 1162.13 1713.05 1156.65 1706.83 1156.65 1706.83L1153.72 1704.75 1154.61 1706.74C1157.92 1714.95 1160.76 1728.58 1155.21 1737.91 1148.86 1748.57 1146.89 1753 1146 1757 1145.11 1753 1143.14 1748.57 1136.79 1737.91 1131.24 1728.59 1134.08 1714.95 1137.39 1706.74L1138.28 1704.75 1135.35 1706.83C1135.35 1706.83 1129.87 1713.05 1122.08 1713.05 1114.29 1713.05 1104.76 1708.01 1104.76 1700.02 1104.76 1688.48 1110.82 1684.63 1110.82 1684.63 1110.82 1686.7 1113.13 1695.29 1120.92 1695.29 1129.94 1695.29 1133.1 1686.38 1134.2 1679.71L1134.25 1679.22 1112.42 1679.22C1108.99 1679.22 1106.22 1676.99 1106.22 1674.24 1106.22 1671.49 1108.99 1669.26 1112.42 1669.26L1121.07 1669.26 1120.88 1664.13C1118.67 1634.86 1100.68 1622.4 1091.02 1622.4 1080.73 1622.4 1077.2 1628.79 1077.2 1635.46 1077.2 1647.97 1092.92 1647.69 1092.92 1647.69 1090.75 1651.3 1084.79 1656.59 1077.74 1656.59 1064.74 1656.59 1052 1642.89 1052 1624.9 1052 1612.41 1060.94 1592.65 1083.98 1592.65 1126.92 1592.65 1133.65 1642.74 1134.32 1667.09L1134.35 1669.26 1139.3 1669.26 1139.3 1667.98C1139.3 1666.17 1139.3 1663.57 1139.3 1659.91 1139.3 1614.73 1118.16 1586.17 1118.16 1558.69 1118.16 1525.8 1141.07 1514.23 1146 1496Z" fill="#FFC000" fill-rule="evenodd"/><path d="M1146 1194C1150.93 1212.23 1173.84 1223.8 1173.84 1256.69 1173.84 1284.17 1152.7 1312.73 1152.7 1357.91 1152.7 1361.57 1152.7 1364.17 1152.7 1365.98L1152.7 1367.26 1157.65 1367.26 1157.68 1365.09C1158.35 1340.74 1165.08 1290.65 1208.02 1290.65 1231.06 1290.65 1240 1310.41 1240 1322.9 1240 1340.89 1227.26 1354.59 1214.25 1354.59 1207.21 1354.59 1201.25 1349.3 1199.08 1345.69 1199.08 1345.69 1214.8 1345.97 1214.8 1333.46 1214.8 1326.79 1211.28 1320.4 1200.98 1320.4 1191.32 1320.4 1173.33 1332.86 1171.12 1362.13L1170.93 1367.26 1179.58 1367.26C1183.01 1367.26 1185.78 1369.49 1185.78 1372.24 1185.78 1374.99 1183.01 1377.22 1179.58 1377.22L1157.75 1377.22 1157.8 1377.71C1158.9 1384.38 1162.06 1393.29 1171.08 1393.29 1178.87 1393.29 1181.18 1384.7 1181.18 1382.63 1181.18 1382.63 1187.24 1386.48 1187.24 1398.02 1187.24 1406.01 1177.71 1411.05 1169.92 1411.05 1162.13 1411.05 1156.65 1404.83 1156.65 1404.83L1153.72 1402.75 1154.61 1404.74C1157.92 1412.95 1160.76 1426.59 1155.21 1435.91 1148.86 1446.57 1146.89 1451 1146 1455 1145.11 1451 1143.14 1446.57 1136.79 1435.91 1131.24 1426.59 1134.08 1412.96 1137.39 1404.74L1138.28 1402.75 1135.35 1404.83C1135.35 1404.83 1129.87 1411.05 1122.08 1411.05 1114.29 1411.05 1104.76 1406.01 1104.76 1398.02 1104.76 1386.48 1110.82 1382.63 1110.82 1382.63 1110.82 1384.7 1113.13 1393.29 1120.92 1393.29 1129.94 1393.29 1133.1 1384.38 1134.2 1377.71L1134.25 1377.22 1112.42 1377.22C1108.99 1377.22 1106.22 1374.99 1106.22 1372.24 1106.22 1369.49 1108.99 1367.26 1112.42 1367.26L1121.07 1367.26 1120.88 1362.13C1118.67 1332.86 1100.68 1320.4 1091.02 1320.4 1080.73 1320.4 1077.2 1326.79 1077.2 1333.46 1077.2 1345.97 1092.92 1345.69 1092.92 1345.69 1090.75 1349.3 1084.79 1354.59 1077.74 1354.59 1064.74 1354.59 1052 1340.89 1052 1322.9 1052 1310.41 1060.94 1290.65 1083.98 1290.65 1126.92 1290.65 1133.65 1340.74 1134.32 1365.09L1134.35 1367.26 1139.3 1367.26 1139.3 1365.98C1139.3 1364.17 1139.3 1361.57 1139.3 1357.91 1139.3 1312.73 1118.16 1284.17 1118.16 1256.69 1118.16 1223.8 1141.07 1212.23 1146 1194Z" fill="#FFC000" fill-rule="evenodd"/><path d="M1146 893C1150.93 911.161 1173.84 922.684 1173.84 955.455 1173.84 982.823 1152.7 1011.27 1152.7 1056.29 1152.7 1059.93 1152.7 1062.51 1152.7 1064.32L1152.7 1065.6 1157.65 1065.6 1157.68 1063.44C1158.35 1039.17 1165.08 989.28 1208.02 989.28 1231.06 989.28 1240 1008.96 1240 1021.4 1240 1039.33 1227.26 1052.97 1214.25 1052.97 1207.21 1052.97 1201.25 1047.71 1199.08 1044.11 1199.08 1044.11 1214.8 1044.39 1214.8 1031.93 1214.8 1025.28 1211.28 1018.91 1200.98 1018.91 1191.32 1018.91 1173.33 1031.32 1171.12 1060.48L1170.93 1065.6 1179.58 1065.6C1183.01 1065.6 1185.78 1067.82 1185.78 1070.56 1185.78 1073.3 1183.01 1075.52 1179.58 1075.52L1157.75 1075.52 1157.8 1076C1158.9 1082.65 1162.06 1091.52 1171.08 1091.52 1178.87 1091.52 1181.18 1082.97 1181.18 1080.91 1181.18 1080.91 1187.24 1084.74 1187.24 1096.24 1187.24 1104.2 1177.71 1109.22 1169.92 1109.22 1162.13 1109.22 1156.65 1103.02 1156.65 1103.02L1153.72 1100.95 1154.61 1102.93C1157.92 1111.12 1160.76 1124.69 1155.21 1133.98 1148.86 1144.6 1146.89 1149.02 1146 1153 1145.11 1149.02 1143.14 1144.6 1136.79 1133.98 1131.24 1124.69 1134.08 1111.12 1137.39 1102.93L1138.28 1100.95 1135.35 1103.02C1135.35 1103.02 1129.87 1109.22 1122.08 1109.22 1114.29 1109.22 1104.76 1104.2 1104.76 1096.24 1104.76 1084.74 1110.82 1080.91 1110.82 1080.91 1110.82 1082.97 1113.13 1091.52 1120.92 1091.52 1129.94 1091.52 1133.1 1082.65 1134.2 1076L1134.25 1075.52 1112.42 1075.52C1108.99 1075.52 1106.22 1073.3 1106.22 1070.56 1106.22 1067.82 1108.99 1065.6 1112.42 1065.6L1121.07 1065.6 1120.88 1060.48C1118.67 1031.32 1100.68 1018.91 1091.02 1018.91 1080.73 1018.91 1077.2 1025.28 1077.2 1031.93 1077.2 1044.39 1092.92 1044.11 1092.92 1044.11 1090.75 1047.71 1084.79 1052.97 1077.74 1052.97 1064.74 1052.97 1052 1039.33 1052 1021.4 1052 1008.96 1060.94 989.28 1083.98 989.28 1126.92 989.28 1133.65 1039.17 1134.32 1063.44L1134.35 1065.6 1139.3 1065.6 1139.3 1064.32C1139.3 1062.51 1139.3 1059.93 1139.3 1056.29 1139.3 1011.27 1118.16 982.823 1118.16 955.455 1118.16 922.684 1141.07 911.161 1146 893Z" fill="#FFC000" fill-rule="evenodd"/><path d="M1360.72 811.5 1789.5 811.5 1789.5 1514.02C1789.5 1730.77 1597.65 1906.49 1361 1906.49L1360.72 1906.47 1360.72 1906.5 1317.19 1904.49C1101.11 1884.39 932.5 1717.25 932.5 1514.04L932.5 811.514 1360.72 811.514Z" stroke="#000000" stroke-width="6.875" stroke-miterlimit="8" fill="none" fill-rule="evenodd"/></g></svg>