<svg width="1275" height="1688" xmlns="http://www.w3.org/2000/svg" xmlns:xlink="http://www.w3.org/1999/xlink" overflow="hidden"><defs><clipPath id="clip0"><rect x="726" y="355" width="1275" height="1688"/></clipPath></defs><g clip-path="url(#clip0)" transform="translate(-726 -355)"><path d="M743.458 372.411 1984.45 372.411 1984.45 1742.42C1982.98 1808.7 1966.02 1906.63 1824.28 1920.96 1742.94 1928.47 1541.9 1925.18 1521.21 1926.56 1489.3 1927.94 1393.25 1910.06 1363.82 1996.41 1335.42 1930.81 1279.03 1923.83 1213.36 1924.77 998.595 1932.78 932.364 1928.67 902.566 1923.63 743.97 1895.89 743.246 1761.76 743.458 1742.42L743.458 372.411Z" stroke="#FFD200" stroke-width="33.0949" stroke-miterlimit="8" fill-rule="evenodd"/><path d="M48.8119 76.4073C65.6733 76.7171 64.2398 52.6502 71.5322 51.3496 77.1375 64.7014 122.404 50.3901 101.681 19.0948 92.1871 4.75659 73.7755-2.57211 65.1524 1.55122 50.0785 8.75872 60.6124 21.4052 50.8482 29.6773 22.1225 54.0142 16.7856 49.8518 0.0758067 59.0229Z" stroke="#000000" stroke-width="4.58333" stroke-miterlimit="8" fill="#FFD200" fill-rule="evenodd" transform="matrix(-1 1.22465e-16 1.22465e-16 1 1041.5 1554.5)"/><path d="M43.9972 72.1568C60.4735 75.1443 64.4596 51.1539 71.9068 51.03 74.4152 65.1047 122.043 58.1744 108.72 23.98 102.616 8.31258 86.1909-1.85163 76.8052 0.847526 60.3974 5.56638 67.901 19.728 56.4662 26.3419 22.8236 45.8016 18.5192 40.8436 0.0667462 47.2402Z" stroke="#000000" stroke-width="4.58333" stroke-miterlimit="8" fill="#FFD200" fill-rule="evenodd" transform="matrix(-1 1.22465e-16 1.22465e-16 1 1022.5 1562.5)"/><path d="M931.416 1585.85C930.93 1592.87 925.075 1600.31 914.217 1602.51 909.07 1603.56 907.549 1599.84 902.553 1598.64 897.958 1597.54 891.254 1598.1 885.359 1602.19 879.083 1606.55 877.819 1612.41 877.819 1612.41 870.787 1601.58 875.492 1588.88 885.118 1580.1 894.193 1571.84 907.643 1567.05 919.753 1570.59 927.623 1573.27 931.858 1579.47 931.416 1585.85Z" stroke="#000000" stroke-width="4.58333" stroke-miterlimit="8" fill="#FFD200" fill-rule="evenodd"/><path d="M392.68 156.119C393.053 106.725 364.099 66.3612 299.529 53.4153 299.529 53.4153 285.981 33.9579 244.326 28.8343 188.524 21.971 157.601 47.1646 107.296 30.473 88.4718 24.227 75.856 10.4766 57.2898 3.70722 45.345-0.64755 37.8067 0.429901 37.8067 0.429901 3.97353 35.5588-5.68803 78.178 3.15456 126.531 3.15456 126.531 12.8446 117.299 25.9056 124.405 67.0965 146.815 53.6842 174.893 121.965 193.861 140.948 199.135 185.162 192.444 185.162 192.444 185.162 192.444 175.7 201.366 172.523 220.792 169.232 240.922 193.045 258.86 196.96 278.91 198.649 287.564 198.808 297.173 194.432 305.133 188.93 315.14 174.495 320.579 169.153 330.647 164.911 338.642 161.69 346.357 169.996 358.288 176.479 367.602 197.528 369.12 213.812 368.919 213.812 368.919 215.026 374.462 217.358 376.768 223.769 383.107 234.71 377.548 239.799 384.685 247.122 394.948 240.096 402.334 226.045 405.996 231.983 412.653 246.124 416.736 259.346 406.605 256.695 440.318 283.311 440.747 296.266 441.312 273.178 427.227 286.054 410.17 288.586 391.549 289.787 382.708 285.641 369.525 278.892 363.983 297.13 364.522 309.777 370.274 316.901 378.214 324.134 386.273 325.677 396.587 321.603 405.996 337.436 401.62 343.026 395.887 342.597 380.422 350.583 381.908 357.08 377.431 356.352 372.507 361.006 377.552 366.528 382.231 378.793 384.076 378.793 384.076 370.999 392.329 372.942 397.066 379.619 413.344 444.598 422.353 453.72 400.363 456.571 393.49 445.093 382.553 445.093 382.553 445.093 382.553 448.091 374.629 452.152 373.978 460.83 386.111 466.543 383.279 473.326 385.851 475.277 396.544 471.888 415.199 503.127 403.661 519.038 397.786 534.278 386.462 539.988 372.658 543.706 363.669 548.423 350.858 536.066 345.614 520.609 339.055 515.753 354.438 502.343 351.55 492.81 349.498 489.127 340.429 479.6 338.357 471.359 336.566 462.707 341.584 454.504 339.677 442.724 336.937 441.446 323.24 430.192 319.228 427.053 318.109 420.163 317.863 416.86 318.569 411.729 319.665 408.604 324.563 403.528 325.825 400.018 326.696 395.99 326.868 392.548 325.825 368.272 318.462 356.539 293.059 332.944 284.268 326.185 281.749 310.986 281.629 310.986 281.629 321.356 275.873 328.232 269.382 327.697 261.333 355.624 259.848 371.286 239.61 375.897 223.378 386.787 236.808 393.832 263.871 360.222 262.01 365.684 272.682 384.276 276.189 395.685 270.821 371.703 296.503 395.986 312.7 416.218 305.524 416.218 305.524 402.078 302.151 404.727 290.209 406.987 280.018 427.107 271.143 432.575 261.854 447.487 236.525 420.974 213.923 420.974 213.923 420.974 213.923 437.955 213.601 444.128 217.695 448.134 220.353 449.645 225.18 450.463 229.416 451.755 236.114 447.928 249.662 447.928 249.662 447.928 249.662 461.525 237.228 464.398 229.416 467.393 221.273 468.013 211.806 464.398 203.843 454.729 182.551 423.838 183.666 423.838 183.666 438.165 168.104 459.507 175.295 470.387 183.806 463.15 160.757 439.039 158.173 417.111 166.93 430.673 150.589 419.85 138.392 410.27 133.707 413.187 146.125 409.999 159.462 392.68 156.119Z" stroke="#000000" stroke-width="4.58333" stroke-miterlimit="8" fill="#FFD200" fill-rule="evenodd" transform="matrix(-1 1.22465e-16 1.22465e-16 1 1431.5 1267.5)"/><path d="M130.227 45.0921C117.662 45.5578 115.041 39.1343 100.248 34.2013 81.4659 27.9389 75.7798 10.5044 57.2548 3.71679 45.3364-0.649565 37.8149 0.43076 37.8149 0.43076 4.05659 35.6547-5.58327 78.3893 3.23986 126.874 3.23986 126.874 12.9086 117.616 25.9405 124.742 67.04 147.212 56.2458 170.261 124.376 189.281 143.316 194.57 187.432 187.86 187.432 187.86 187.432 187.86 205.852 182.697 215.444 176.462 226.899 169.016 240.242 158.615 240.242 158.615 210.438 169.943 185.026 170.746 166.485 166.612 146.321 162.115 119.708 151.066 102.772 126.828 89.5722 107.938 77.761 89.7646 77.761 89.7646 77.761 89.7646 110.74 83.6998 124.913 87.7637 138.589 91.6852 152.42 101.834 165.402 107.183 176.198 111.63 187.995 114.678 199.913 115.934 213.054 117.318 226.762 117.213 239.601 114.475 249.205 112.427 258.527 108.673 266.347 103.536 271.987 99.8304 280.151 89.6799 280.151 89.6799 280.151 89.6799 261.594 96.5764 251.679 97.7018 230.842 100.068 208.906 105.255 188.697 100.348 176.697 97.4329 148.734 84.9787 139.881 77.5372 134.037 72.6258 130.593 67.3817 129.026 60.5436 127.14 52.3177 130.227 45.0921 130.227 45.0921Z" stroke="#000000" stroke-width="4.58333" stroke-miterlimit="8" fill="#FFD200" fill-rule="evenodd" transform="matrix(-1 1.22465e-16 1.22465e-16 1 1431.5 1267.5)"/><path d="M278.445 133.176C278.817 83.7404 263.774 39.062 199.411 26.1051 199.411 26.1051 185.895 6.61992 144.374 1.49232 136.214 0.484463 128.628 0.216639 121.395 0.356499 114.162 0.495998 107.354 1.05147 100.77 1.87081 73.7948 8.22434 64.3244 13.1162 59.6325 22.697 53.3615 35.5021 67.9666 53.3212 85.6378 58.7639 101.651 63.6965 112.48 62.6987 129.355 60.6574 141.145 59.2307 152.008 53.8162 163.878 52.9896 169.395 52.6057 175.167 55.6607 180.468 54.315 186.613 52.7546 192.708 49.0707 195.488 44.186 197.659 40.3716 195.488 31.4061 195.488 31.4061 195.488 31.4061 201.445 37.5232 202.101 41.2515 202.927 45.9426 200.533 50.6841 198.403 55.072 195.964 60.0926 191.561 64.3619 188.202 68.9877 183.56 75.3802 174.303 88.2044 174.303 88.2044 174.303 88.2044 128.099 98.4733 103.684 97.7657 91.4198 97.4099 76.0655 90.4198 64.4523 87.0686 50.8567 83.1449 41.5344 71.7986 27.9107 67.9467 19.0927 65.453 0.111679 65.7695 0.111679 65.7695 0.111679 65.7695 16.5681 79.4174 25.596 86.9918 36.1158 95.8178 50.7673 107.672 62.9558 114.805 72.9413 120.649 80.1936 121.03 92.2513 122.283 102.278 123.326 112.664 123.689 122.628 122.283 136.677 120.302 162.981 110.546 162.981 110.546 142.589 134.883 116.092 150.796 85.4137 165.261 85.4137 165.261 76.0251 174.217 72.8596 193.66 69.5791 213.806 93.2816 231.717 97.1835 251.783 98.8674 260.444 99.0796 270.134 94.7172 278.1 89.2331 288.116 74.8211 293.488 69.4962 303.565 65.416 308.389 62.6373 315.701 70.1692 318.616 73.3344 319.841 82.3151 311.941 88.4398 311.138 93.6494 310.454 94.8235 314.708 100.546 314.356 120.117 313.155 113.571 325.116 124.31 329.219 132.289 332.268 132.536 341.857 138.77 345.69 147.282 350.926 153.14 357.065 153.453 364.812 153.648 369.618 145.676 382.7 126.216 379.013 132.133 385.676 146.214 389.719 159.394 379.58 156.752 413.322 183.247 413.757 196.16 414.322 173.147 400.225 169.598 383.166 172.121 364.529 173.32 355.68 169.21 342.529 162.482 336.982 154.37 330.293 122.973 324.429 113.74 309.994 109.939 304.05 113.74 289.731 113.74 289.731 113.74 289.731 124.215 275.649 121.422 268.017 112.71 244.216 101.359 249.032 111.214 221.478 113.747 214.396 126.367 203.348 126.367 203.348 126.367 203.348 123.489 221.461 126.367 230.01 129.263 238.605 141.34 245.268 147.055 254.911 152.57 264.216 151.662 276.531 157.937 283.332 169.465 295.825 181.294 302.337 198.347 308.928 211.766 314.114 228.203 308.127 242.545 311.061 250.603 312.708 256.99 319.316 265.274 319.592 272.857 319.845 281.473 317.804 286.743 313.194 290.895 309.559 292.112 298.737 292.112 298.737 238.772 267.619 213.335 259.775 161.726 268.402 161.726 268.402 182.077 248.391 184.554 235.998 186.671 225.401 176.879 204.415 176.879 204.415 176.879 204.415 181.834 174.221 189.507 160.69 196.381 148.571 218.552 128.696 218.552 128.696 218.552 128.696 201.056 152.535 198.347 166.022 195.307 181.158 186.935 205.37 203.399 211.881 210.8 214.806 215.798 202.196 223.603 200.149 228.025 198.989 234.219 202.914 237.495 200.149 245.232 193.614 232.147 180.486 237.495 172.421 244.972 161.143 265.991 161.442 276.64 152.158 283.99 145.751 278.445 133.176 278.445 133.176ZM165.559 131.939C165.559 131.939 189.242 156.194 170.604 182.017 152.24 207.46 123.861 196.973 123.861 196.973 144.363 195.298 153.276 182.561 158.721 174.349 166.665 162.37 170.86 154.019 165.559 131.939Z" stroke="#000000" stroke-width="4.58333" stroke-miterlimit="8" fill="#FFD200" fill-rule="evenodd" transform="matrix(-1 1.22465e-16 1.22465e-16 1 1331.5 1294.5)"/><path d="M63.9837 240.767C82.2164 241.309 94.8583 247.077 101.981 255.041 109.21 263.125 110.753 273.47 106.681 282.906 122.508 278.516 128.095 272.767 127.667 257.255 135.65 258.746 142.145 254.256 141.417 249.316 146.069 254.376 151.589 259.071 163.851 260.92 163.851 260.92 156.06 269.198 158.001 273.949 164.676 290.275 229.632 299.311 238.751 277.256 241.602 270.362 230.127 259.393 230.127 259.393 230.127 259.393 233.125 251.446 237.183 250.793 245.859 262.961 251.569 260.121 258.351 262.701 260.301 273.426 256.913 292.136 288.142 280.564 304.047 274.671 319.281 263.313 324.989 249.47 328.706 240.453 333.422 227.603 321.07 222.344 305.617 215.766 300.764 231.195 287.358 228.298 277.828 226.239 274.147 217.145 264.622 215.066 256.385 213.269 247.736 218.303 239.536 216.389 239.536 216.389 242.238 220.509 244.582 221.526 250.346 224.027 258.541 219.715 263.976 222.695 267.267 224.499 266.546 229.299 269.517 231.463 274.714 235.246 282.047 237.223 288.91 237.308 297.891 237.419 307.275 225.837 314.539 230.294 318.46 232.699 315.833 238.625 314.539 242.568 313.102 246.947 309.905 250.941 306.227 254.258 299.313 260.494 290.856 266.08 281.292 268.871 277.575 269.955 272.696 271.409 269.517 269.455 264.31 266.258 269.578 257.192 264.669 253.674 260.78 250.888 253.761 254.779 249.431 252.505 245.294 250.334 245.532 244.636 241.812 241.984 236.112 237.922 221.032 234.97 221.032 234.97 221.032 234.97 227.907 241.893 227.958 246.075 228.017 250.867 220.865 254.163 220.34 258.934 219.717 264.584 228.919 270.239 225.881 275.301 222.877 280.305 213.811 280.752 207.18 281.146 196.338 281.79 184.185 280.604 175.318 275.301 172.442 273.581 170.016 270.669 169.777 267.702 169.193 260.478 180.166 247.829 180.166 247.829 180.166 247.829 165.723 252.252 158.695 250.752 155.024 249.967 151.285 247.804 149.691 244.906 147.548 241.015 150.383 232.047 150.383 232.047 150.383 232.047 141.812 231.645 137.916 230.294 133.471 228.752 126.14 223.279 126.14 223.279 126.14 223.279 139.034 239.151 135.145 246.659 133.821 249.216 131.81 249.346 128.568 248.801 120.556 247.455 109.517 234.97 109.517 234.97 109.517 234.97 119.842 250.027 119.907 258.35 119.947 263.527 113.673 272.963 113.673 272.963 113.673 272.963 115.928 260.196 113.673 254.258 111.248 247.874 106.27 241.807 99.8205 237.892 92.765 233.609 81.8581 235.84 74.8853 231.463 68.8744 227.688 68.2957 219.601 62.4178 215.68 57.2017 212.202 48.7442 213.505 43.7163 209.836 39.3403 206.642 36.8341 201.707 35.4048 196.977 34.549 194.144 36.2898 191.034 35.4048 188.208 31.942 177.158 27.4859 168.087 21.7918 157.716 17.5543 149.998 6.68707 142.81 4.92824 134.433 3.80049 129.062 4.92824 118.068 4.92824 118.068 4.92824 118.068 1.36833 127.696 0.772668 132.68 0.100422 138.305-0.688863 144.277 1.46551 149.631 3.38146 154.392 8.66552 157.658 11.8552 161.905 16.6689 168.315 17.0594 173.033 16.58 180.61 16.2181 186.332 14.9097 190.253 13.2401 195.807 11.8107 200.563 12.8439 205.981 15.3183 210.42 18.0286 215.284 22.6732 219.899 28.4782 222.11 34.1639 224.276 42.2699 219.447 47.1797 222.695 49.8254 224.445 48.1171 228.5 49.9504 230.878 53.2729 235.19 63.9837 240.767 63.9837 240.767ZM173.436 0.355644C176.145 9.71769 177.272 21.1329 177.732 32.2872L175.358 53.0342C175.358 53.0342 189.327 43.9936 194.133 37.9271 196.821 34.5328 198.17 30.4596 199.372 26.5043 199.919 24.7045 200.246 20.9776 200.246 20.9776 200.246 20.9776 202.273 25.0688 202.429 27.2415 202.696 30.9699 201.999 34.8654 200.246 38.2953 196.337 45.9419 182.343 58.1927 182.343 58.1927 182.343 58.1927 199.18 48.9182 208.541 46.033 213.422 44.5297 218.631 43.3273 223.823 43.4542 227.282 43.5381 233.866 45.6651 233.866 45.6651 233.866 45.6651 226.252 45.17 222.513 45.6651 218.285 46.224 214.098 47.3338 210.288 48.9812 199.822 53.507 181.908 66.6672 181.908 66.6672 181.908 66.6672 214.292 67.4545 227.754 74.0367 234.72 77.4432 240.855 83.0867 243.472 89.512 245.508 94.5119 242.599 105.356 242.599 105.356 242.599 105.356 242.282 93.7401 238.669 89.1438 235.255 84.8004 229.278 81.8677 223.387 80.3006 209.089 76.4966 178.414 79.932 178.414 79.932 178.414 79.932 183.988 81.1294 186.274 82.5116 191.06 85.4061 194.438 89.7552 197.625 93.9336 201.643 99.1998 205.706 104.755 207.232 110.884 209.086 118.339 209.525 126.593 206.358 133.728 203.128 141.004 188.893 151.783 188.893 151.783 188.893 151.783 197.946 139.023 199.809 131.886 201.281 126.247 201.609 120.137 199.809 114.568 198.074 109.204 194.118 104.374 189.766 100.198 185.383 95.9915 174.048 89.8806 174.048 89.8806 174.048 89.8806 181.696 100.536 183.654 106.462 185.851 113.113 187.44 120.324 185.837 127.096 184.548 132.537 182.252 138.905 176.668 141.834 171.722 144.429 159.203 142.203 159.203 142.203 159.203 142.203 167.508 141.079 170.555 138.887 174.073 136.355 176.347 132.418 177.104 128.569 178.58 121.08 175.883 113.206 172.738 106.093 170.408 100.823 162.259 91.723 162.259 91.723L160.956 99.7457C156.346 116.026 140.689 136.324 112.771 137.813 113.307 145.886 106.433 152.396 96.0666 158.169 96.0666 158.169 111.261 158.289 118.019 160.816 125.829 163.736 132.338 168.482 138.433 173.793 115.644 164.478 91.4108 159.225 63.1103 165.413 63.1103 165.413 77.7419 158.647 82.5043 153.138 86.2481 148.807 89.5241 143.26 88.738 137.941 87.5413 129.843 72.8071 117.483 72.8071 117.483 72.8071 117.483 68.3951 108.709 67.9587 104.039 67.2987 96.9795 69.5102 89.8918 71.4222 82.9966 72.4199 79.3969 75.5777 72.4753 75.5777 72.4753 75.5777 72.4753 73.1499 84.1212 72.8071 90.0107 72.4791 95.6574 71.5056 101.564 73.4996 106.961 76.6835 115.579 90.8162 129.757 90.8162 129.757 90.8162 129.757 100.881 117.087 108.824 114.56 115.535 112.426 124.019 118.658 130.296 115.729 135.812 113.156 138.481 106.974 139.3 101.701 140.073 96.7341 135.145 87.0881 135.145 87.0881 135.145 87.0881 145.814 80.5182 151.076 77.1517 155.271 74.4672 160.439 72.5568 163.543 68.9683 167.893 63.9399 170.973 57.6565 171.162 51.4333 171.7 33.7148 171.05 17.935 173.436 0.355644" stroke="#000000" stroke-width="4.58333" stroke-miterlimit="8" fill="#FFD200" fill-rule="evenodd" transform="matrix(-1 1.22465e-16 1.22465e-16 1 1216.5 1391.5)"/><path d="M392.68 156.119C393.053 106.725 364.099 66.3612 299.529 53.4153 299.529 53.4153 285.981 33.9579 244.326 28.8343 188.524 21.971 157.601 47.1646 107.296 30.473 88.4718 24.227 75.856 10.4766 57.2898 3.70722 45.345-0.64755 37.8067 0.429901 37.8067 0.429901 3.97353 35.5588-5.68803 78.178 3.15456 126.531 3.15456 126.531 12.8446 117.299 25.9056 124.405 67.0965 146.815 53.6842 174.893 121.965 193.861 140.948 199.135 185.162 192.444 185.162 192.444 185.162 192.444 175.7 201.366 172.523 220.792 169.232 240.922 193.045 258.86 196.96 278.91 198.649 287.564 198.808 297.173 194.432 305.133 188.93 315.14 174.495 320.579 169.153 330.647 164.911 338.642 161.69 346.357 169.996 358.288 176.479 367.602 197.528 369.12 213.812 368.919 213.812 368.919 215.026 374.462 217.358 376.768 223.769 383.107 234.71 377.548 239.799 384.685 247.122 394.948 240.096 402.334 226.045 405.996 231.983 412.653 246.124 416.736 259.346 406.605 256.695 440.318 283.311 440.747 296.266 441.312 273.178 427.227 286.054 410.17 288.586 391.549 289.787 382.708 285.641 369.525 278.892 363.983 297.13 364.522 309.777 370.274 316.901 378.214 324.134 386.273 325.677 396.587 321.603 405.996 337.436 401.62 343.026 395.887 342.597 380.422 350.583 381.908 357.08 377.431 356.352 372.507 361.006 377.552 366.528 382.231 378.793 384.076 378.793 384.076 370.999 392.329 372.942 397.066 379.619 413.344 444.598 422.353 453.72 400.363 456.571 393.49 445.093 382.553 445.093 382.553 445.093 382.553 448.091 374.629 452.152 373.978 460.83 386.111 466.543 383.279 473.326 385.851 475.277 396.544 471.888 415.199 503.127 403.661 519.038 397.786 534.278 386.462 539.988 372.658 543.706 363.669 548.423 350.858 536.066 345.614 520.609 339.055 515.753 354.438 502.343 351.55 492.81 349.498 489.127 340.429 479.6 338.357 471.359 336.566 462.707 341.584 454.504 339.677 442.724 336.937 441.446 323.24 430.192 319.228 427.053 318.109 420.163 317.863 416.86 318.569 411.729 319.665 408.604 324.563 403.528 325.825 400.018 326.696 395.99 326.868 392.548 325.825 368.272 318.462 356.539 293.059 332.944 284.268 326.185 281.749 310.986 281.629 310.986 281.629 321.356 275.873 328.232 269.382 327.697 261.333 355.624 259.848 371.286 239.61 375.897 223.378 386.787 236.808 393.832 263.871 360.222 262.01 365.684 272.682 384.276 276.189 395.685 270.821 371.703 296.503 395.986 312.7 416.218 305.524 416.218 305.524 402.078 302.151 404.727 290.209 406.987 280.018 427.107 271.143 432.575 261.854 447.487 236.525 420.974 213.923 420.974 213.923 420.974 213.923 437.955 213.601 444.128 217.695 448.134 220.353 449.645 225.18 450.463 229.416 451.755 236.114 447.928 249.662 447.928 249.662 447.928 249.662 461.525 237.228 464.398 229.416 467.393 221.273 468.013 211.806 464.398 203.843 454.729 182.551 423.838 183.666 423.838 183.666 438.165 168.104 459.507 175.295 470.387 183.806 463.15 160.757 439.039 158.173 417.111 166.93 430.673 150.589 419.85 138.392 410.27 133.707 413.187 146.125 409.999 159.462 392.68 156.119Z" stroke="#000000" stroke-width="4.58333" stroke-miterlimit="8" fill="#FFD200" fill-rule="evenodd" transform="matrix(-1 1.22465e-16 1.22465e-16 1 1431.5 1267.5)"/><path d="M919.116 1636.76C924.472 1643.09 926.708 1652.77 921.467 1660.69 918.983 1664.44 914.999 1662.08 910.797 1663.81 906.934 1665.41 903.05 1669.61 902.551 1676.41 902.018 1683.66 905.942 1689.41 905.942 1689.41 892.63 1683.95 885.407 1670.38 884.536 1657.47 883.714 1645.29 888.539 1633.71 899.233 1630.06 906.489 1628.01 914.233 1631 919.116 1636.76Z" stroke="#000000" stroke-width="4.58333" stroke-miterlimit="8" fill="#FFD200" fill-rule="evenodd"/><path d="M21.1389 0.54052C29.438 1.30365 37.875 6.66497 39.7201 16.0293 40.5959 20.4682 36.0767 21.5798 34.2946 25.7781 32.6555 29.6394 32.8423 35.3819 37.2924 40.6105 42.0294 46.1765 48.9083 47.5456 48.9083 47.5456 35.5272 53.0001 20.7688 48.3569 11.0214 39.7144 1.83216 31.5666-2.90416 19.8647 2.16452 9.71929 5.91094 3.14602 13.5709-0.156078 21.1389 0.54052Z" stroke="#000000" stroke-width="4.58333" stroke-miterlimit="8" fill="#FFD200" fill-rule="evenodd" transform="matrix(-0.956212 -0.292675 -0.292675 0.956212 1047.66 1669.11)"/><path d="M0.0843155 18.4681C0.0843155 18.4681 10.617 14.3242 16.0721 14.9624 20.598 15.4917 23.4058 17.4312 27.8891 18.1752 31.1038 18.7087 34.8595 18.4897 37.6208 17.0067 52.4728 8.0914 48.7211-0.0433056 65.8432 0.122108 84.0239 0.29817 90.4612 23.6864 87.3219 41.255 85.6174 50.7936 80.1715 60.9892 66.8154 61.1198 61.3077 61.1021 58.6239 57.7743 53.6086 55.8617 38.0391 49.9232 7.73094 36.5804 7.73094 36.5804Z" stroke="#000000" stroke-width="4.58333" stroke-miterlimit="8" fill="#FFD200" fill-rule="evenodd" transform="matrix(-1 1.22465e-16 1.22465e-16 1 1051.5 721.5)"/><path d="M77.2529 68.4857C77.2529 68.4857 88.5605 74.9261 94.7896 72.6312 104.493 69.0561 115.328 56.6229 120.744 48.9432 125.444 42.2781 129.27 34.0897 127.758 26.4395 126.648 20.823 123.197 14.8905 116.535 14.0031 100.185 11.8241 99.1311 18.8877 91.2824 19.9251 88.6686 20.2705 82.4558 17.4941 80.7601 15.7793 76.0228 10.9869 75.7456 6.73373 69.5375 3.34317 64.1468 0.399185 56.9612-0.338517 50.5981 0.382313 43.1354 1.22699 33.1379 4.25355 26.0475 8.67294 19.7604 12.5916 16.042 17.8388 11.3166 24.0703 5.1759 32.1671 0.0929868 51.3118 0.0929868 51.3118L47.7919 69.67Z" stroke="#000000" stroke-width="4.58333" stroke-miterlimit="8" fill="#FFD200" fill-rule="evenodd" transform="matrix(-1 1.22465e-16 1.22465e-16 1 1113.5 733.5)"/><path d="M175.104 0.1747C168.178 0.386425 161.133 1.45044 154.516 2.63883 144.906 4.3639 134.484 7.84999 128.557 14.4843 122.1 21.7117 125.154 33.3411 124.193 42.7245 123.765 46.9098 119.327 53.053 118.823 57.5083 117.931 58.5058 117.098 59.4174 116.137 60.4458 109.028 68.0506 100.245 76.1659 91.9682 79.9676 80.0096 85.4613 61.0518 88.2026 48.331 92.2872 15.9512 102.684 0.105297 116.927 0.105297 116.927L110.431 209.134C123.463 185.046 146.778 181.008 148.697 135.406 148.697 135.406 162.57 135.082 167.831 132.562 177.653 127.861 178.461 111.335 178.461 111.335 178.461 111.335 181.125 91.3123 175.776 83.3796 171.412 76.9107 163.316 73.7881 154.628 74.9452 146.916 75.9722 140.082 87.2647 140.082 87.2647L126.879 66.6056 130.459 64.0469 169.286 44.7145C169.286 44.7145 173.282 49.6723 174.208 52.4854 175.465 56.3012 174.444 62.8341 177.341 65.9424 180.96 69.8232 188.958 72.2657 194.797 72.1967 209.272 72.027 221.305 64.3769 233.064 57.2239 238.489 53.9233 243.259 49.0565 244.924 43.5776 247.567 34.881 246.006 27.356 237.876 21.5916 229.807 15.8729 215.74 24.0561 209.231 17.9905 206.085 15.0594 208.91 11.3537 205.651 8.51428 197.79 1.66899 186.648-0.178295 175.104 0.1747Z" stroke="#000000" stroke-width="4.58333" stroke-miterlimit="8" fill="#FFD200" fill-rule="evenodd" transform="matrix(-1 1.22465e-16 1.22465e-16 1 1268.5 756.5)"/><path d="M175.104 0.1747C168.178 0.386425 161.133 1.45044 154.516 2.63883 144.906 4.3639 134.484 7.84999 128.557 14.4843 122.1 21.7117 125.154 33.3411 124.193 42.7245 119.972 49.0403 116.802 55.8414 116.137 60.4458 109.028 68.0506 100.245 76.1659 91.9682 79.9676 80.0096 85.4613 61.0518 88.2026 48.331 92.2872 15.9512 102.684 0.105297 116.927 0.105297 116.927L110.431 209.134C123.463 185.046 146.778 181.008 148.697 135.406 148.697 135.406 162.57 135.082 167.831 132.562 177.653 127.861 178.461 111.335 178.461 111.335 178.461 111.335 181.125 91.3123 175.776 83.3796 171.412 76.9107 163.316 73.7881 154.628 74.9452 146.916 75.9722 140.082 87.2647 140.082 87.2647 136.5 78.0714 131.421 73.9574 127.045 67.4543 140.183 59.0245 154.228 52.6451 169.62 45.5632 169.62 45.5632 173.282 49.6723 174.208 52.4854 175.465 56.3012 174.444 62.8341 177.341 65.9424 180.96 69.8232 188.958 72.2657 194.797 72.1967 209.272 72.027 221.305 64.3769 233.064 57.2239 238.489 53.9233 243.259 49.0565 244.924 43.5776 247.567 34.881 246.006 27.356 237.876 21.5916 229.807 15.8729 215.74 24.0561 209.231 17.9905 206.085 15.0594 208.91 11.3537 205.651 8.51428 197.79 1.66899 186.648-0.178295 175.104 0.1747Z" stroke="#000000" stroke-width="4.58333" stroke-miterlimit="8" fill="#FFD200" fill-rule="evenodd" transform="matrix(-1 1.22465e-16 1.22465e-16 1 1268.5 756.5)"/><path d="M14.2565 1.02835C6.3969 3.38426-0.342113 10.246 0.419457 19.728 0.779557 24.223 5.47632 24.4286 8.3546 28.1733 11.0019 31.617 12.3876 37.2481 9.48778 43.2068 6.40157 49.5501 0.0874168 52.22 0.0874168 52.22 14.5849 54.9359 27.6658 47.5456 34.7836 37.2322 41.4942 27.509 42.9058 15.1879 35.2088 6.28711 29.7721 0.609951 21.4247-1.1198 14.2565 1.02835Z" stroke="#000000" stroke-width="4.58333" stroke-miterlimit="8" fill="#FFD200" fill-rule="evenodd" transform="matrix(-0.816124 -0.577877 -0.577877 0.816124 1021.14 782.348)"/><path d="M11.9773 1.18209C5.37559 3.98106-0.284849 12.1348 0.354718 23.4028 0.657482 28.7442 4.60237 28.9885 7.01983 33.4383 9.24344 37.5305 10.4072 44.2221 7.97183 51.3027 5.37953 58.8402 0.0756015 62.013 0.0756015 62.013 12.2535 65.2402 23.2405 56.4583 29.2194 44.2026 34.8559 32.6488 36.0415 18.0077 29.5763 7.43097 25.0101 0.684859 17.9982-1.3708 11.9773 1.18209Z" stroke="#000000" stroke-width="4.58333" stroke-miterlimit="8" fill="#FFD200" fill-rule="evenodd" transform="matrix(-0.624998 -0.780626 -0.780626 0.624998 988.843 749.453)"/><path d="M14.2768 1.03879C6.41674 3.3947-0.32197 10.2561 0.439247 19.7388 0.800069 24.2331 5.49688 24.4387 8.37446 28.1841 11.0218 31.6274 12.4075 37.2589 9.50801 43.2176 6.42178 49.5605 0.107563 52.2307 0.107563 52.2307 14.6052 54.9464 27.6862 47.556 34.8041 37.2423 41.5144 27.5195 42.9264 15.1984 35.2289 6.29755 29.7925 0.620753 21.445-1.10936 14.2768 1.03879Z" stroke="#000000" stroke-width="4.58333" stroke-miterlimit="8" fill="#FFD200" fill-rule="evenodd" transform="matrix(-0.940049 -0.34104 -0.34104 0.940049 1075.62 804.754)"/><path d="M0.223651 26.967C-0.550911 21.3337 2.94605 14.7864 11.3648 11.888 15.3555 10.5139 17.204 13.3083 21.4466 13.7372 25.348 14.1316 30.6799 12.9802 34.7674 9.09718 39.119 4.96347 39.1651 0.162078 39.1651 0.162078 46.6602 8.04869 44.9668 18.6548 38.6395 26.6576 32.6742 34.2024 22.5899 39.4334 12.2015 37.8919 5.38835 36.5866 0.929975 32.1048 0.223651 26.967Z" stroke="#000000" stroke-width="4.58333" stroke-miterlimit="8" fill="#FFD200" fill-rule="evenodd" transform="matrix(-1 1.22465e-16 1.22465e-16 1 1106.5 838.5)"/><path d="M20.4329 74.1664C37.0332 76.2398 42.8462 67.0028 50.2362 66.4664 69.4681 65.0704 85.8721 86.4309 92.8302 58.1311 97.497 39.1501 65.4034-5.2305 47.53 1.07761 31.5925 6.70283 41.3626 28.2287 30.2363 35.1645 22.3263 40.0953 8.21119 32.9206 0.288631 37.8353Z" stroke="#000000" stroke-width="4.58333" stroke-miterlimit="8" fill="#FFD200" fill-rule="evenodd" transform="matrix(-1 1.22465e-16 1.22465e-16 1 1638.5 1722.5)"/><path d="M1576.12 1742C1577.61 1749.01 1574.02 1757.98 1564.13 1763.25 1559.44 1765.75 1556.94 1762.56 1551.77 1762.82 1547.02 1763.06 1540.69 1765.53 1536.13 1771.23 1531.27 1777.3 1531.68 1783.41 1531.68 1783.41 1521.86 1774.82 1522.87 1761.04 1529.74 1749.68 1536.21 1738.98 1547.89 1730.42 1560.59 1730.41 1568.95 1730.77 1574.77 1735.61 1576.12 1742Z" stroke="#000000" stroke-width="4.58333" stroke-miterlimit="8" fill="#FFD200" fill-rule="evenodd"/><path d="M25.6384 51.2393C38.5303 60.1909 49.0081 54.8381 55.6203 57.5797 72.8297 64.7155 75.2132 94.0715 98.0737 72.975 113.407 58.8252 111.443 3.06673 92.4505 0.704017 75.5152-1.4023 74.2723 11.8208 60.6488 12.9133 50.9636 13.69 43.2402 1.46784 33.5535 2.22557 25.1751 2.88052 19.8133 14.2053 0.291251 12.3729Z" stroke="#000000" stroke-width="4.58333" stroke-miterlimit="8" fill="#FFD200" fill-rule="evenodd" transform="matrix(-1 1.22465e-16 1.22465e-16 1 1665.5 1748.5)"/><path d="M43.3925 25.202C46.5808 21.1473 47.7243 11.0142 42.5484 5.99399 38.9132 2.46752 32.8432 0.113445 27.2571 0.278066 19.7366 0.500304 10.8387 4.37605 8.31465 11.346 3.61946 24.3106 3.96495 24.1606 0.107788 26.6013L8.83325 37.9412 26.5797 41.2701 43.754 33.6617Z" stroke="#000000" stroke-width="4.58333" stroke-miterlimit="8" fill="#FFD200" fill-rule="evenodd" transform="matrix(-1 1.22465e-16 1.22465e-16 1 1077.5 1151.5)"/><path d="M4.16541 5.29829C4.16541 5.29829 9.24675 3.51799 13.0179 3.23484 15.9582 3.01348 21.2177 4.3954 24.0833 3.82454 28.0938 3.02535 31.0287 0.0268842 35.1487 0.286649 39.5905 0.566315 45.1079 5.29829 45.1079 5.29829L39.5752 12.0794 25.5585 18.2708 12.6487 18.2708 0.10784 8.54151Z" stroke="#000000" stroke-width="4.58333" stroke-miterlimit="8" fill="#FFD200" fill-rule="evenodd" transform="matrix(-1 1.22465e-16 1.22465e-16 1 1076.5 1173.5)"/><path d="M1042.22 1171.6C1041.03 1177.36 1035.37 1182.84 1026.19 1183.41 1021.84 1183.68 1021 1180.43 1017.02 1178.86 1013.37 1177.42 1007.79 1177.11 1002.47 1179.82 996.819 1182.71 995.12 1187.41 995.12 1187.41 990.551 1177.63 995.851 1167.66 1004.76 1161.51 1013.16 1155.7 1024.77 1153.29 1034.34 1157.63 1040.51 1160.75 1043.3 1166.36 1042.22 1171.6Z" stroke="#000000" stroke-width="4.58333" stroke-miterlimit="8" fill="#FFD200" fill-rule="evenodd"/><path d="M690.592 220.592C694.794 234.619 696.103 248.823 693.061 259.191 722.607 274.37 723.384 295.162 723.586 316.05 735.6 318.218 744.702 331.582 752.988 348.217 752.988 348.217 763.942 346.006 770.944 347.365 782.489 349.605 785.126 356.528 792.154 358.529 796.412 359.741 800.217 359.023 804.498 357.867 811.403 356.001 814.106 346.182 821.219 347.365 836.522 349.911 839.105 370.694 836.818 382.654 833.908 397.873 822.566 403.278 822.566 403.278 826.305 414.177 838.61 412.251 842.429 419.172 845.264 424.308 838.55 433.569 833.003 438.661 822.818 448.01 808.767 452.943 793.725 453.514 785.824 453.815 772.7 452.22 772.178 445.568 771.976 442.978 773.98 439.726 774.872 435.444 776.125 429.427 773.75 424.848 773.75 424.848 773.75 424.848 770.137 432.951 766.342 435.539 762.084 438.445 756.221 439.792 750.744 439.891 742.085 440.047 730.02 437.093 720.78 432.417 711.197 427.567 704.579 420.872 707.875 413.779 710.579 407.959 725.902 408.407 731.554 403.467 737.602 398.18 730.655 394.196 730.655 394.196 730.655 394.196 718.414 390.607 713.149 387.384 707.787 384.101 701.141 376.031 701.141 376.031 700.232 383.644 694.372 393.78 676.565 392.02 686.324 386.26 687.926 378.904 684.308 370.638 679.858 375.866 677.037 385.406 654.12 383.694 668.866 374.99 670.068 364.155 667.586 355.974 663.058 362.092 651.035 368.618 635.827 364.205 654.549 359.462 660.606 345.93 648.172 328.633 645.291 342.303 640.094 346.853 633.134 353.042 631.968 345.364 632.892 336.85 625.728 331.471 625.728 331.471 619.754 335.38 617.198 337.715 607.919 346.195 602.617 357.549 592.734 365.529 583.148 373.271 571.197 378.703 559.741 384.356 539.215 394.484 518.688 396.962 500.15 409.522 485.217 419.639 460.161 448.162 453.354 463.259 431.412 511.922 440.582 565.482 455.822 607.819 463.877 630.193 470.672 657.644 465.811 679.342 460.554 702.797 446.683 711.41 436.632 730.43 423.966 754.397 438.573 772.865 444.264 776.315 455.827 783.324 466.89 781.124 474.451 776.598 486.688 769.273 485.231 750.368 466.82 751.811 479.974 739.735 503.664 747.887 500.375 765.812 518.511 754.384 520.115 742.058 514.29 733.363 506.62 721.911 487.465 717.214 472.207 727.213 476.561 716.246 493.589 711.203 508.904 715.577 521.675 719.223 533.596 730.294 535.388 741.782 538.553 762.069 527.969 778.505 509.241 790.221 617.765 792.776 606.053 878.639 563.556 895.141 569.907 885.469 576.52 862.367 572.646 853.419 567.617 862.229 563.361 870.243 551.997 871.3 564.385 845.51 545.485 828.378 523.829 825.415 532.079 839.808 532.401 862.756 518.779 873.003 509.027 880.338 492.486 881.427 479.614 873.097 495.012 874.85 504.619 867.636 507.108 860.23 511.381 847.52 497.735 835.168 493.978 833.268 487.522 830.003 465.607 831.486 452.904 828.538 445.079 826.721 433.49 816.427 433.49 816.427 433.49 816.427 437.833 831.518 437.306 837.715 435.456 859.414 412.85 876.09 381.867 871.583 370.848 869.981 358.654 863.789 354.822 854.932 349.808 843.345 360.392 835.35 373.9 840.836 361.395 842.917 364.699 850.609 373.563 854.838 378.58 857.231 386.336 858.863 391.968 858.528 401.749 857.945 415.355 854.655 415.984 839.796 416.35 831.141 399.265 824.189 395.896 816.049 393.713 810.778 393.875 802.252 391.07 801.858 391.846 813.081 352.642 825.088 342.702 799.398 366.329 812.119 380.964 799.192 380.184 790.505 379.812 786.362 372.285 781.961 374.909 771.962 362.45 781.176 339.465 797.429 292.538 789.086 275.027 801.765 254.668 808.779 224.531 797.128 222.747 805.785 216.762 805.608 211.514 806.967 214.871 810.388 219.008 815.125 220.267 818.698 223.005 826.469 222.621 835.418 219.257 843.012 210.684 862.366 182.137 871.991 173.021 891.167 169.789 897.969 167.794 906.175 170.889 913.022 175.843 923.979 192.325 928.22 201.077 937.336 205.574 942.02 212.299 952.757 212.299 952.757 226.603 955.969 232.166 947.702 245.293 949.161 257.558 950.525 259.462 964.888 258.648 972.245 257.298 984.429 241.633 996.713 222.063 1003.28 202.802 1009.74 179.743 1010.65 162.809 1000.72 152.858 994.89 158.647 980.424 168.083 973.476 168.083 973.476 168.207 965.834 159.667 963.353 153.027 961.422 145.13 964.898 138.569 962.785 127.042 959.072 119.154 949.161 119.154 949.161 119.154 949.161 113.892 953.248 112.758 955.974 111.606 958.74 111.179 962.159 112.758 964.771 114.409 967.505 120.695 970.201 122.409 972.908 125.687 978.086 128.313 982.571 122.409 985.68 115.898 989.108 94.9963 989.221 83.131 985.68 64.9194 980.245 49.2858 972.507 40.5983 957.96 36.7481 951.512 34.6827 941.514 40.5983 936.294 44.6692 932.703 49.9253 934.209 55.7485 934.971 61.1025 935.67 65.6466 939.06 71.0106 939.701 74.7291 940.145 78.9403 940.561 82.2328 939.039 89.3877 935.731 96.9344 922.483 96.9344 922.483 82.4933 930.358 70.036 930.904 59.2272 925.51 72.2529 924.439 83.8297 918.917 87.3952 907.912 83.1418 909.73 53.2337 928.126 43.7404 906.399 63.7028 916.658 85.125 895.112 75.0505 882.179 75.0505 882.179 72.9076 894.875 58.1054 898.168 51.0031 899.748 40.95 893.393 33.6407 894.005 22.022 894.978 8.89892 904.976 12.0937 915.67 15.7833 928.021 37.344 925.415 37.344 925.415 37.344 925.415 31.9241 930.432 28.2535 931.375 24.2844 932.394 19.6497 932.132 15.9092 930.618 9.83386 928.158 4.66137 923.425 2.21797 918.131-0.783448 911.625-0.42022 903.744 2.21797 897.128 5.6396 888.548 12.8944 881.101 21.6325 875.841 26.9063 872.666 40.1492 870.353 40.1492 870.353 27.122 866.27 24.4535 858.931 23.6528 853.325 22.443 844.856 33.3456 835.17 44.4141 842.161 35.2562 844.239 39.1118 855.435 44.3016 857.203 49.7486 859.057 63.57 859.019 66.2973 844.715 67.9104 836.258 62.7433 835.315 63.4921 830.902 64.5353 824.754 71.7461 821.12 72.021 814.914 72.2677 809.335 64.3077 806.636 65.1755 801.102 66.5404 792.398 76.1571 787.531 71.6841 785.018 60.3749 783.511 55.935 775.186 61.9205 767.516 68.7984 758.703 85.235 752.554 96.2613 758.244 106.514 763.535 107.109 767.823 114.441 770.164 127.007 774.177 125.087 765.063 135.539 761.839 149.82 757.434 161.638 765.435 169.991 763.069 173.173 748.457 187.995 732.984 211.851 716.806 198.037 690.05 212.694 679.319 220.604 664.772 220.604 664.772 210.142 660.412 210.84 644.81 211.343 633.569 218.289 618.53 229.885 603.095 213.327 606.772 200.25 633.299 173.161 636.663 160.812 638.198 152.32 651.041 157.534 660.989 160.516 666.674 167.969 671.382 181.725 672.403 158.094 685.4 125.498 664.826 146.728 633.064 118 635.772 101.198 642.405 114.773 672.83 75.5068 645.134 107.756 623.12 129.556 616.047 125.176 615.385 120.733 614.42 116.236 613.116 85.6757 604.253 64.2536 578.331 60.4622 544.147 56.0227 504.129 69.4351 472.011 95.7001 439.985 116.81 414.245 148.428 392.268 178.633 369.692 208.837 347.116 237.578 324.122 253.822 299.966 268.988 277.413 279.984 250.233 277.276 227.497 275.516 212.711 268.933 202.286 259.954 193.226 249.826 183.005 204.058 161.42 194.394 191.295 186.12 178.155 193.547 169.441 202.544 165.804 214.696 160.892 230.813 163.58 240.406 166.478 232.79 145.227 198.678 143.585 181.308 158.122 170.11 167.491 159.124 201.209 197.024 204.338 163.272 222.549 134.401 194.299 146.439 172.497 130.832 173.176 108.745 191.697 114.404 207.607 117.401 216.034 130.881 222.591 151.835 227.651 117.628 236.301 93.8053 225.243 86.5786 210.197 76.4392 189.086 92.4187 161.296 99.9005 157.145L75.619 170.791C82.8706 152.442 94.412 118.841 133.623 116.206 86.5479 99.4163 75.119 76.871 72.637 59.9491 68.3923 31.0059 79.7714 2.06048 116.641 0.188037 130.548-0.518001 151.549 11.6965 149.811 30.3467 138.569 11.9807 127.581 9.19363 117.649 10.5088 91.9689 13.909 90.9088 29.8921 90.2589 33.307 88.346 43.3612 92.2171 52.3473 100.042 60.4938 125.579 87.0837 194.055 54.1272 237.843 81.8489 250.973 90.1607 278.746 111.071 279.309 140.655 292.285 145.563 321.525 170.015 308.372 194.032 313.061 205.493 313.345 215.098 313.076 224.47 312.136 257.241 302.397 289.073 285.019 314.915 264.808 344.971 233.071 369.491 202.424 392.397 171.776 415.305 142.034 436.696 125.215 457.204 101.713 485.86 92.44 507.971 96.1488 541.404 98.9947 567.059 112.28 579.917 127.908 584.451 146.488 589.839 159.335 587.039 175.266 579.72 191.196 572.401 208.201 559.8 228.234 548.5 238.507 542.706 248.193 539.16 256.964 537.052 257.733 535.783 259.77 532.322 259.77 532.322 275.351 491.579 299.806 475.001 330.357 453.135 327.934 412.465 347.198 392.735 367.391 373.855 366.678 342.627 367.622 310.343 411.089 244.745L429.226 217.374 545.848 149.991 669.866 192.623Z" stroke="#000000" stroke-width="4.58333" stroke-miterlimit="8" fill="#FFD200" fill-rule="evenodd" transform="matrix(-1 1.22465e-16 1.22465e-16 1 1851.5 828.5)"/><path d="M162.626 63.6816C108.343 85.0649 64.2068 107.966 37.887 136.589 19.1163 157.003 7.25461 183.278 0.185221 223.26 7.84198 143.159 32.8576 85.9322 138.501 30.2651L173.885 0.259532 183.535 8.44272 183.535 20.7179 193.185 32.3114C186.663 44.0437 175.809 58.4884 162.626 63.6816Z" stroke="#000000" stroke-width="4.58333" stroke-miterlimit="8" fill="#FFD200" fill-rule="evenodd" transform="matrix(-1 1.22465e-16 1.22465e-16 1 1443.5 1115.5)"/><path d="M12.0027 0.250443C12.0027 0.250443 3.74125 6.18467 1.87279 10.2815-0.619927 15.7465-0.159048 22.1081 1.27672 27.8363 2.23029 31.6412 5.87647 34.6526 7.23561 38.3689 8.77224 42.5724 7.39539 47.4299 9.61917 51.41 11.6554 55.0531 16.9878 56.8473 19.1534 60.4381 22.557 66.0808 23.9201 78.9958 23.9201 78.9958 32.8991 70.7978 36.9325 60.2583 31.6672 47.8987 31.6672 47.8987 42.5451 54.6826 45.9686 59.4349 48.5831 63.0636 49.1373 68.0577 47.5142 71.5481 52.367 76.34 52.2521 84.8698 53.4218 92.5615 60.4048 86.3617 65.6194 81.8033 68.5108 68.1085 80.9867 85.4359 74.9089 98.9944 56.1245 103.745 71.3834 108.166 83.4472 101.629 87.9913 95.4998 90.4812 103.695 89.2756 114.55 74.4787 123.269 97.4739 124.986 100.305 115.427 104.769 110.19 108.399 118.471 106.792 125.84 96.9992 131.61 114.868 133.374 120.746 123.219 121.659 115.593 121.659 115.593 128.329 123.678 133.708 126.967 138.991 130.196 151.274 133.79 151.274 133.79 151.274 133.79 158.244 137.782 152.176 143.078 146.504 148.027 131.129 147.578 128.416 153.41 125.109 160.514 131.749 167.222 141.365 172.081 150.635 176.766 162.743 179.725 171.43 179.569 176.926 179.47 182.809 178.12 187.083 175.208 190.889 172.615 194.514 164.498 194.514 164.498 194.514 164.498 196.897 169.086 195.64 175.114 194.745 179.403 192.734 182.661 192.937 185.256 193.46 191.92 206.63 193.518 214.557 193.216 229.65 192.643 243.75 187.703 253.969 178.337 259.535 173.235 266.272 163.957 263.427 158.811 259.595 151.879 247.248 153.808 243.497 142.889 243.497 142.889 254.878 137.474 257.797 122.227 259.487 113.4 258.526 99.7771 251.764 92.1946 251.764 92.1946 252.541 108.618 250.58 116.586 249.528 120.858 248.714 125.764 244.99 128.797 242.321 130.972 238.104 132.516 234.466 131.883 230.251 131.149 227.975 127.115 224.956 124.534 220.912 121.074 218.586 117.213 213.465 114.983 205.764 111.629 187.61 111.234 187.61 111.234 187.61 111.234 204.658 117.82 210.592 124.146 214.878 128.714 213.452 138.125 218.852 141.762 222.848 144.453 229.897 141.531 233.933 144.18 236.847 146.092 236.042 150.4 238.602 152.643 241.865 155.503 251.171 158.084 251.171 158.084L249.374 165.035C249.374 165.035 236.132 163.95 229.983 165.64 224.902 167.036 220.364 169.923 216.697 173.196 213.64 175.924 209.874 182.869 209.874 182.869 209.874 182.869 204.582 179.348 203.411 176.823 199.795 169.033 204.822 160.858 199.889 153.6 196.556 148.695 188.012 147.781 183.284 143.77 177.502 138.862 173.246 125.137 173.246 125.137 173.246 125.137 171.282 133.433 171.193 138.69 171.119 143.096 173.152 146.615 175.331 150.622 177.564 154.728 183.751 158.585 184.436 163.064 184.889 166.017 180.894 170.687 177.914 172.289 171.256 175.871 161.806 173.827 154.214 171.987 146.678 170.161 138.756 167.024 134.105 161.711 132.641 160.039 132.309 155.666 132.309 155.666 132.309 155.666 150.977 152 156.18 145.993 158.744 143.034 160.195 138.262 157.977 135.113 156.21 132.606 148.264 132.011 148.264 132.011 136.99 125.407 127.506 117.798 119.98 109.091L113.422 122.497C111.645 114.957 112.936 109.997 107.8 99.6268L95.1507 112.244C95.6828 103.176 95.5208 94.1067 92.3402 85.0374L78.7546 94.5009C83.106 85.3574 81.4165 73.6709 70.7902 58.2238L59.547 73.9967C52.9931 62.121 58.6314 50.6442 23.9433 38.1138 26.2444 47.2796 30.7459 58.298 25.8172 61.3783 25.8172 61.3783 24.1334 57.1784 16.7341 50.3617 13.5657 47.4429 15.9956 41.4376 14.1271 37.4742 11.5816 32.0769 8.07821 27.3793 7.54648 24.3128 6.15409 16.2802 12.0027 0.250443 12.0027 0.250443Z" stroke="#000000" stroke-width="4.58333" stroke-miterlimit="8" fill="#FFD200" fill-rule="evenodd" transform="matrix(-1 1.22465e-16 1.22465e-16 1 1272.5 1089.5)"/><path d="M235.547 9.52553C232.913 2.5871 225.692-0.455741 219.904 0.353064 214.082 1.16691 209.713 5.8796 212.932 14.4461 214.993 21.1824 216.602 28.3669 217.522 36.1156 220.429 60.5862 208.744 88.684 193.228 111.817 176.33 137.011 147.196 160.245 116.986 182.883 86.7759 205.522 55.5685 227.416 35.258 252.245 9.53768 283.688-3.18958 314.054 1.11159 352.929 4.72912 385.626 24.7297 409.263 52.6111 417.37 79.4083 425.162 103.495 420.192 123.592 410.936 143.687 401.679 161.029 388.613 178.785 378.572 187.074 373.885 194.184 371.378 199.945 370.057L193.788 351.036C185.432 352.953 176.094 356.444 165.91 362.202 146.396 373.237 129.292 385.887 112.507 393.619 95.7228 401.35 80.5127 404.628 60.2243 398.729 42.0261 393.436 27.2909 378.283 24.2862 351.131 20.4589 316.538 30.4744 292.757 54.4027 263.505 71.9306 242.078 101.938 220.499 132.436 197.645 162.932 174.791 194.021 150.5 213.492 121.469 230.441 96.1982 244.367 65.1173 240.697 34.2235 239.655 25.4531 237.897 17.2047 235.547 9.52553Z" stroke="#000000" stroke-width="4.58333" stroke-miterlimit="8" fill="#FFD200" fill-rule="evenodd" transform="matrix(-1 1.22465e-16 1.22465e-16 1 1785.5 1019.5)"/><path d="M38.3898 0.246416C26.2207 0.154593 11.2203 2.49788 4.14408 10.8323-0.950627 16.8327-1.32293 26.8385 3.58274 32.9498 13.7736 45.6454 39.0668 49.4328 53.9967 51.8532 59.4323 52.7348 67.021 59.8874 67.021 59.8874 67.021 59.8874 68.7437 70.0087 70.9508 78.1297 72.65 84.3805 77.9981 90.4117 84.6492 93.5362 91.9961 96.9871 106.432 96.9387 106.432 96.9387 106.432 96.9387 115.574 115.708 125.295 120.474 131.731 123.629 141.861 125.962 147.527 121.892 152.903 118.028 150.67 109.945 149.211 104.123 144.385 84.8607 121.815 74.3488 121.815 74.3488 122.076 51.8442 119.705 26.6979 91.6105 17.5432 91.6105 17.5432 57.3792 0.389172 38.3898 0.246416ZM165.267 100.72C165.267 100.72 172.324 108.052 174.361 112.345 176.011 115.821 176.72 123.404 176.72 123.404L197.828 125.295 213.211 136.354C208.783 119.905 219.168 110.949 235.105 110.172L228.144 102.704 220.621 102.704 210.966 111.306 202.432 113.29 193.787 112.818 178.965 102.232ZM172.677 132.478C171.306 137.458 167.161 139.333 161.225 139.189 161.225 139.189 166.491 149.908 170.994 154.122 174.56 157.462 180.896 158.301 184.13 161.873 186.211 164.172 186.875 167.16 187.499 170.002 188.814 175.994 188.06 188.244 188.06 188.244 188.06 188.244 199.454 180.183 206.362 178.224 211.607 176.738 222.98 177.186 222.98 177.186 222.98 177.186 217.029 173.709 215.007 170.474 213.498 168.059 214.289 164.35 212.087 162.346 208.304 158.9 200.011 163.212 195.583 160.361 189.009 156.128 190.852 146.702 185.814 141.174 182.429 137.459 172.677 132.478 172.677 132.478ZM143.709 148.924C143.709 148.924 144.786 157.548 142.361 161.023 139.385 165.29 127.864 167.801 122.264 170.191 119.285 171.461 120.13 173.877 120.13 173.877 120.13 173.877 133.167 169.516 139.779 170.758 147.299 172.17 157.407 182.006 157.407 182.006 157.407 182.006 163.045 179.922 163.358 177.753 164.238 171.658 152.342 168.661 150.446 163.008 148.94 158.517 150.783 148.924 150.783 148.924L143.709 148.924Z" stroke="#000000" stroke-width="4.58333" stroke-miterlimit="8" fill="#FFD200" fill-rule="evenodd" transform="matrix(-1 1.22465e-16 1.22465e-16 1 1254.5 1074.5)"/><path d="M127.945 22.1155C111.377 25.7911 98.2951 52.3134 71.1931 55.6776 58.8377 57.2113 50.3411 70.052 55.5582 79.9981 58.5404 85.6833 65.9977 90.3897 79.761 91.4097 56.1179 104.403 23.506 83.8338 44.7468 52.0784 16.0046 54.7863-0.806412 61.418 12.7767 91.8373-19.8016 63.2044 18.0524 45.9035 51.0433 38.832L49.1629 56.8749C49.1629 56.8749 59.6954 42.998 68.1685 39.9212 72.96 38.1809 79.0005 41.6027 83.8209 39.9212 95.993 35.6734 101.285 23.0961 111.77 16.374 121.997 9.81841 145.31 0.362697 145.31 0.362697Z" stroke="#000000" stroke-width="4.58333" stroke-miterlimit="8" fill="#FFD200" fill-rule="evenodd" transform="matrix(-1 1.22465e-16 1.22465e-16 1 1749.5 1410.5)"/><path d="M410.514 0.256582 386.971 6.20942C366.996 46.0901 366.578 70.6694 367.126 94.6527 346.952 113.51 327.706 133.214 330.128 173.835 299.605 195.673 275.173 212.23 259.607 252.924 259.607 252.924 257.572 256.381 256.804 257.649 247.787 279.636 255.493 291.065 229.784 323.603 218.198 339.019 211.227 354.047 210.725 365.273 210.028 380.856 220.479 385.211 220.479 385.211 212.576 399.741 197.935 410.459 211.734 437.181 187.9 453.339 173.093 468.793 169.915 483.387 161.57 485.75 149.762 477.758 135.495 482.158 125.053 485.379 126.972 494.481 114.418 490.474 107.092 488.135 106.497 483.852 96.2549 478.568 85.2395 472.885 68.8183 479.026 61.9476 487.828 55.9673 495.489 60.4027 503.803 71.7015 505.308 76.17 507.819 66.5625 512.679 65.199 521.372 64.3321 526.899 72.285 529.596 72.038 535.168 71.7632 541.366 64.5593 544.995 63.517 551.136 62.7695 555.544 67.9311 556.485 66.3202 564.932 63.5949 579.218 49.7869 579.257 44.3457 577.405 39.1599 575.64 35.3087 564.457 44.4575 562.381 33.3996 555.399 22.5075 565.073 23.716 573.531 24.5158 579.13 27.182 586.46 40.197 590.539 40.197 590.539 26.9663 592.85 21.6983 596.019 12.9678 601.272 5.71992 608.711 2.30225 617.28-0.333941 623.888-0.697094 631.759 2.30225 638.257 2.30225 638.257 4.74983 621.96 9.58946 615.106 13.0511 610.204 18.1389 605.579 24.3885 603.389 32.5117 600.544 42.3554 604.981 50.736 602.729 56.9543 601.057 63.9126 598.413 66.9928 593.563 68.4566 591.257 66.9928 585.72 66.9928 585.72 66.9928 585.72 82.8196 577.517 85.7159 570.696 87.9096 565.529 80.5967 559.318 83.3617 554.349 87.8082 546.358 106.316 548.337 109.709 539.986 111.484 535.617 102.647 531.248 104.328 526.852 105.295 524.321 111.502 524.935 112.063 522.317 112.956 518.153 102.807 516.015 103.542 511.829 104.511 506.306 112.927 503.54 119.014 501.34 129.569 497.525 142.435 500.816 153.209 497.466 161.285 494.955 168.275 490.341 174.848 485.654 180.718 481.47 183.198 473.487 190.432 471.291 193.872 470.248 198.544 474.634 201.307 472.615 203.455 471.044 200.066 467.591 201.307 465.433 204.037 460.685 213.301 460.369 215.994 455.606 219.721 449.017 215.658 433.684 215.658 433.684 204.458 395.399 258.035 384.521 259.271 351.762 259.271 351.762 265.95 376.034 261.737 400.896 259.73 412.741 247.401 432.049 245.368 443.889 244.439 449.31 242.882 455.271 245.368 460.331 249.89 469.531 258.984 479.114 270.483 481.402 273.339 481.971 277.502 481.267 278.778 479.04 281.93 473.543 272.448 467.881 271.379 461.843 269.642 452.029 273.173 432.174 273.173 432.174 274.114 417.111 289.514 411.198 296.493 396.455 296.493 396.455 299.699 406.294 298.287 413.369 296.491 422.37 299.657 438.136 302.995 446.819 306.411 455.701 302.434 461.377 312.301 465.622 316.435 467.4 322.083 467.422 326.204 465.622 331.921 463.126 331.699 454.795 337.416 452.3 342.91 449.899 351.888 459.333 356.811 456.173 371.622 446.668 367.076 424.032 370.713 408.645 374.278 393.568 370.041 362.911 370.041 362.911 370.041 362.911 388.691 380.694 394.482 397.778 400.139 414.465 390.915 443.025 400.985 446.063 409.278 448.566 412.772 439.211 417.802 433.118 421.66 428.445 418.617 419.708 419.932 414.125 425.854 388.974 412.051 354.517 411.972 329.084 411.884 300.581 412.822 273.988 419.932 246.121 428.739 211.606 441.615 174.365 466.685 147.757 504.336 107.792 549.492 103.384 578.239 85.676 592.801 76.7053 597.187 72.8253 597.187 72.8253L594.945 59.3132C594.945 59.3132 594.283 65.8379 583.172 73.8646 551.781 96.5442 511.037 97.9865 466.796 135.094 433.767 162.797 403.899 246.782 403.899 246.782 400.697 169.975 419.584 102.441 493.592 50.0532 475.493 38.1706 470.052 26.3124 467.357 14.4298 456.662 15.9811 446.714 21.3657 439.665 41.4543 425.13 30.6513 407.826 12.7506 410.514 0.256582ZM344.478 270.405C325.292 293.957 314.769 311.066 311.964 339.855 309.411 366.078 307.824 374.197 327.661 413.936 327.661 413.936 288.987 392.797 295.932 341.367 302.632 291.751 344.478 270.405 344.478 270.405Z" stroke="#000000" stroke-width="4.58333" stroke-miterlimit="8" fill="#FFD200" fill-rule="evenodd" transform="matrix(-1 1.22465e-16 1.22465e-16 1 1851.5 1108.5)"/><path d="M288.495 108.604C291.526 98.3127 290.222 84.2142 286.035 70.2899L265.381 42.5282 141.792 0.211197 25.5732 67.0964 7.49962 94.2644C10.9361 99.823 2.51945 107.766 0.152781 116.106 8.51503 116.505 19.6998 114.904 24.7599 108.953 22.1407 122.251 5.17366 129.858 33.751 155.842 33.751 155.842 36.1375 147.188 39.4295 143.921 44.917 138.476 55.4946 138.081 61.1979 132.795 67.3081 127.131 71.1352 120.874 71.1352 120.874 71.8609 131.47 68.1801 134.375 78.2334 143.524 101.572 164.762 124.775 147.968 134.073 141.536 126.57 159.779 102.625 156.6 84.385 159.815 91.8154 170.168 107.984 179.345 127.435 179.21 159.019 178.992 198.746 158.125 166.252 106.967 193.949 99.9376 193.308 85.2555 189.879 75.4664 172.448 78.0546 162.857 70.2813 172.876 58.0915 172.876 58.0915 197.769 67.4484 204.109 76.767 213.218 90.1582 204.109 122.861 204.109 122.861 215.418 120.945 226.869 112.583 234.395 99.0192 238.648 114.334 233.323 121.97 231.556 131.206 251.079 117.862 262.665 102.296 267.046 84.7145 277.069 100.434 268.96 117.24 261.841 133.987 273.107 131.706 296.406 122.773 288.495 108.604Z" stroke="#000000" stroke-width="4.58333" stroke-miterlimit="8" fill="#FFD200" fill-rule="evenodd" transform="matrix(-1 1.22465e-16 1.22465e-16 1 1447.5 979.5)"/><path d="M89.8538 325.462C89.8538 325.462 73.617 292.398 72.8904 274.891 72.6546 269.203 74.9426 263.588 77.0273 258.173 79.7293 251.152 86.5212 245.274 87.7829 237.971 88.3832 234.493 84.5365 230.77 86.1277 227.521 87.8529 224.001 93.3778 222.962 96.8837 220.555 103.097 216.289 111.072 213.162 115.085 207.319 118.74 201.997 115.8 194.638 119.222 189.207 123.242 182.825 131.119 178.781 137.423 173.881 144.611 168.294 150.152 159.398 159.761 157.859 170.642 156.115 181.337 162.673 191.2 166.914 201.422 171.31 219.331 183.634 219.331 183.634 196.192 189.806 182.373 177.369 170.517 171.792 170.517 171.792 179.28 185.856 172.999 190.6 164.818 196.779 144.042 184.331 144.042 184.331 144.042 184.331 159.875 200.579 161.417 208.712 162.896 216.523 156.297 223.554 153.143 231.004 145.716 248.549 120.449 258.404 114.258 276.285 110.315 287.674 112.456 303.91 120.049 313.903 127.297 323.441 142.688 319.93 152.315 327.836 160.715 334.733 169.69 353.611 169.69 353.611 169.69 353.611 193.077 344.913 203.611 348.735 206.351 349.729 207.71 352.6 208.575 355.005 210.413 360.116 210.608 365.968 208.575 371.026 206.683 375.734 198.472 379.966 193.683 382.87 185.403 387.891 178.989 390.17 168.863 391.229 158.975 392.262 147.895 393.043 139.078 389.139 135.608 387.603 132.146 384.748 131.632 381.476 130.839 376.427 138.716 372.628 139.078 367.543 139.356 363.658 137.45 359.668 134.942 356.398 131.338 351.7 126.257 347.239 120.049 345.251 113.089 343.023 104.762 347.266 97.7111 345.251 87.8384 342.431 72.8904 329.228 72.8904 329.228 72.8904 329.228 59.3718 343.705 59.653 352.218 59.8898 359.387 73.3669 364.301 68.7538 370.33 63.2094 377.576 45.4763 369.99 35.66 367.543 20.691 363.812 0.232475 350.214 0.232475 350.214 8.92286 364.749 24.5622 372.48 42.7801 377.911 54.6501 381.449 75.5599 381.336 82.0728 377.911 87.98 374.805 85.3516 370.324 82.0728 365.149 80.3588 362.445 74.0701 359.752 72.4178 357.02 70.8389 354.409 71.2663 350.995 72.4178 348.229 73.5528 345.506 78.8174 341.423 78.8174 341.423 78.8174 341.423 86.7075 351.325 98.2385 355.035 104.803 357.147 112.701 353.674 119.344 355.603 127.887 358.082 127.764 365.717 127.764 365.717 118.324 372.661 112.533 387.113 122.488 392.941 139.427 402.857 162.495 401.947 181.763 395.493 201.341 388.935 217.012 376.66 218.361 364.487 219.176 357.136 217.271 342.786 205.002 341.423 191.87 339.964 186.305 348.224 171.996 345.015 171.996 345.015 165.268 334.287 160.77 329.608 152.015 320.5 135.527 316.263 130.57 305.314 127.474 298.474 129.469 290.274 132.703 283.478 141.823 264.318 170.381 254.702 178.957 235.365 182.321 227.776 182.706 218.835 179.967 211.071 178.708 207.501 174.569 202.768 171.21 199.349 176.461 197.993 182.447 198.169 184.233 189.519 214.381 201.161 234.747 194.151 252.264 181.484 299.209 189.821 322.202 173.581 334.666 164.375L334.764 172.785 340.318 180.061 340.936 185.256 350.811 165.511C350.811 165.511 352.884 184.395 358.832 192.012 363.828 198.409 371.622 202.827 376.726 209.163 380.929 214.381 382.898 227.35 382.898 227.35 382.898 227.35 385.367 213.653 382.28 207.604 379.179 201.528 372.688 196.43 369.324 190.452 364.897 182.587 366.238 164.472 366.238 164.472 366.238 164.472 373.368 179.919 380.433 185.256 387.288 190.437 405.735 194.61 405.735 194.61 405.735 194.61 389.972 186.07 384.135 180.061 373.682 169.173 371.133 160.642 376.112 147.323 376.112 147.323 382.2 164.343 389.072 170.707 394.531 175.763 410.055 181.1 410.055 181.1 410.055 181.1 396.001 172.737 392.158 166.55 388.585 160.797 388.044 153.807 388.456 147.323 388.99 138.886 396.411 122.878 396.411 122.878 406.467 103.875 420.343 95.268 425.6 71.8336 430.464 50.1534 423.666 22.7254 415.609 0.371102 415.609 0.371102 400.235 21.7672 396.974 33.7512 392.746 49.2932 400.093 65.9517 396.35 81.5812 393.953 91.5959 391.491 108.996 385.119 117.689 378.151 127.199 358.902 142.918 358.902 142.918 358.902 142.918 352.507 139.015 350.787 134.508 347.535 125.986 346.077 106.2 347.66 97.3492 350.513 81.4066 339.546 57.9293 339.546 57.9293 339.546 57.9293 343.14 87.4519 338.921 101.554 335.079 114.397 331.082 139.366 317.908 146.602 312.668 149.479 305.04 145.806 299.18 147.653 293.061 149.581 290.057 156.946 283.575 157.639 276.636 158.382 269.429 154.741 264.224 150.806 257.501 145.726 252.849 128.295 250.28 121.002 246.769 111.029 248.764 102.806 249.657 92.6189 239.934 97.5101 235.755 119.535 239.669 134.668 241.689 142.476 252.154 156.217 252.154 156.217 252.154 156.217 242.229 160.578 241.542 164.627 240.961 168.047 247.784 173.561 247.784 173.561 247.784 173.561 232.012 174.537 224.687 172.511 217.121 170.418 204.712 161.473 204.712 161.473L221.566 163.05C221.566 163.05 203.486 148.689 198.47 139.398 195.326 133.576 194.443 126.866 194.725 120.476 195.05 113.087 198.072 105.907 200.967 98.9265 202.93 94.1896 208.458 85.2605 208.458 85.2605 208.458 85.2605 196.141 89.3128 191.604 93.1447 186.737 97.2538 183.334 102.767 181.616 108.387 179.28 116.021 185.33 124.802 181.616 132.039 179.689 135.794 172.93 136.695 171.004 140.449 169.189 143.987 174.487 149.511 171.004 152.012 166.996 154.891 162.29 150.666 157.271 152.012 143.391 155.734 136.146 168.663 124.186 175.665 120.977 177.544 117.389 179.151 113.574 179.87 109.717 180.596 105.57 179.133 101.714 179.87 96.5407 180.858 88.5402 181.297 87.3573 185.651 86.4653 188.932 94.9264 190.17 94.8477 193.535 94.7665 197.012 88.1763 198.16 86.7327 201.419 85.2054 204.866 88.8073 209.218 86.7327 212.456 82.5955 218.914 69.8072 218.49 64.8848 224.546 61.5193 228.685 61.7669 234.273 61.1392 239.263 58.9927 264.84 65.7168 306.709 89.8538 325.462" stroke="#000000" stroke-width="4.58333" stroke-miterlimit="8" fill="#FFD200" fill-rule="evenodd" transform="matrix(-1 1.22465e-16 1.22465e-16 1 1811.5 1436.5)"/><path d="M153.455 7.14443C138.58 40.6783 138.285 62.8797 138.783 84.5936 118.435 103.509 99.0235 123.277 101.466 164.024 70.6792 185.931 46.036 202.54 30.3359 243.361 30.3359 243.361 28.284 246.829 27.5092 248.1 18.4136 270.156 26.1865 281.621 0.25572 314.261 37.6758 302.202 37.7959 254.046 58.2813 221.327 73.0081 197.805 98.9638 190.847 114.954 170.854 111.867 131.676 128.665 106.389 159.476 90.8884 151.404 61.8588 155.887 31.6597 173.256 0.260735Z" stroke="#000000" stroke-width="4.58333" stroke-miterlimit="8" fill="#FFD200" fill-rule="evenodd" transform="matrix(-1 1.22465e-16 1.22465e-16 1 1622.5 1118.5)"/><path d="M690.592 220.592C694.794 234.619 696.103 248.823 693.061 259.191 722.607 274.37 723.384 295.162 723.586 316.05 735.6 318.218 744.702 331.582 752.988 348.217 752.988 348.217 763.942 346.006 770.944 347.365 782.489 349.605 785.126 356.528 792.154 358.529 796.412 359.741 800.217 359.023 804.498 357.867 811.403 356.001 814.106 346.182 821.219 347.365 836.522 349.911 839.105 370.694 836.818 382.654 833.908 397.873 822.566 403.278 822.566 403.278 826.305 414.177 838.61 412.251 842.429 419.172 845.264 424.308 838.55 433.569 833.003 438.661 822.818 448.01 808.767 452.943 793.725 453.514 785.824 453.815 772.7 452.22 772.178 445.568 771.976 442.978 773.98 439.726 774.872 435.444 776.125 429.427 773.75 424.848 773.75 424.848 773.75 424.848 770.137 432.951 766.342 435.539 762.084 438.445 756.221 439.792 750.744 439.891 742.085 440.047 730.02 437.093 720.78 432.417 711.197 427.567 704.579 420.872 707.875 413.779 710.579 407.959 725.902 408.407 731.554 403.467 737.602 398.18 730.655 394.196 730.655 394.196 730.655 394.196 718.414 390.607 713.149 387.384 707.787 384.101 701.141 376.031 701.141 376.031 700.232 383.644 694.372 393.78 676.565 392.02 686.324 386.26 687.926 378.904 684.308 370.638 679.858 375.866 677.037 385.406 654.12 383.694 668.866 374.99 670.068 364.155 667.586 355.974 663.058 362.092 651.035 368.618 635.827 364.205 654.549 359.462 660.606 345.93 648.172 328.633 645.291 342.303 640.094 346.853 633.134 353.042 631.968 345.364 632.892 336.85 625.728 331.471 625.728 331.471 619.754 335.38 617.198 337.715 607.919 346.195 602.617 357.549 592.734 365.529 583.148 373.271 571.197 378.703 559.741 384.356 539.215 394.484 518.688 396.962 500.15 409.522 485.217 419.639 460.161 448.162 453.354 463.259 431.412 511.922 440.582 565.482 455.822 607.819 463.877 630.193 470.672 657.644 465.811 679.342 460.554 702.797 446.683 711.41 436.632 730.43 423.966 754.397 438.573 772.865 444.264 776.315 455.827 783.324 466.89 781.124 474.451 776.598 486.688 769.273 485.231 750.368 466.82 751.811 479.974 739.735 503.664 747.887 500.375 765.812 518.511 754.384 520.115 742.058 514.29 733.363 506.62 721.911 487.465 717.214 472.207 727.213 476.561 716.246 493.589 711.203 508.904 715.577 521.675 719.223 533.596 730.294 535.388 741.782 538.553 762.069 527.969 778.505 509.241 790.221 617.765 792.776 606.053 878.639 563.556 895.141 569.907 885.469 576.52 862.367 572.646 853.419 567.617 862.229 563.361 870.243 551.997 871.3 564.385 845.51 545.485 828.378 523.829 825.415 532.079 839.808 532.401 862.756 518.779 873.003 509.027 880.338 492.486 881.427 479.614 873.097 495.012 874.85 504.619 867.636 507.108 860.23 511.381 847.52 497.735 835.168 493.978 833.268 487.522 830.003 465.607 831.486 452.904 828.538 445.079 826.721 433.49 816.427 433.49 816.427 433.49 816.427 437.833 831.518 437.306 837.715 435.456 859.414 412.85 876.09 381.867 871.583 370.848 869.981 358.654 863.789 354.822 854.932 349.808 843.345 360.392 835.35 373.9 840.836 361.395 842.917 364.699 850.609 373.563 854.838 378.58 857.231 386.336 858.863 391.968 858.528 401.749 857.945 415.355 854.655 415.984 839.796 416.35 831.141 399.265 824.189 395.896 816.049 393.713 810.778 393.875 802.252 391.07 801.858 391.846 813.081 352.642 825.088 342.702 799.398 366.329 812.119 380.964 799.192 380.184 790.505 379.812 786.362 372.285 781.961 374.909 771.962 362.45 781.176 339.465 797.429 292.538 789.086 275.027 801.765 254.668 808.779 224.531 797.128 222.747 805.785 216.762 805.608 211.514 806.967 214.871 810.388 219.008 815.125 220.267 818.698 223.005 826.469 222.621 835.418 219.257 843.012 210.684 862.366 182.137 871.991 173.021 891.167 169.789 897.969 167.794 906.175 170.889 913.022 175.843 923.979 192.325 928.22 201.077 937.336 205.574 942.02 212.299 952.757 212.299 952.757 226.603 955.969 232.166 947.702 245.293 949.161 257.558 950.525 259.462 964.888 258.648 972.245 257.298 984.429 241.633 996.713 222.063 1003.28 202.802 1009.74 179.743 1010.65 162.809 1000.72 152.858 994.89 158.647 980.424 168.083 973.476 168.083 973.476 168.207 965.834 159.667 963.353 153.027 961.422 145.13 964.898 138.569 962.785 127.042 959.072 119.154 949.161 119.154 949.161 119.154 949.161 113.892 953.248 112.758 955.974 111.606 958.74 111.179 962.159 112.758 964.771 114.409 967.505 120.695 970.201 122.409 972.908 125.687 978.086 128.313 982.571 122.409 985.68 115.898 989.108 94.9963 989.221 83.131 985.68 64.9194 980.245 49.2858 972.507 40.5983 957.96 36.7481 951.512 34.6827 941.514 40.5983 936.294 44.6692 932.703 49.9253 934.209 55.7485 934.971 61.1025 935.67 65.6466 939.06 71.0106 939.701 74.7291 940.145 78.9403 940.561 82.2328 939.039 89.3877 935.731 96.9344 922.483 96.9344 922.483 82.4933 930.358 70.036 930.904 59.2272 925.51 72.2529 924.439 83.8297 918.917 87.3952 907.912 83.1418 909.73 53.2337 928.126 43.7404 906.399 63.7028 916.658 85.125 895.112 75.0505 882.179 75.0505 882.179 72.9076 894.875 58.1054 898.168 51.0031 899.748 40.95 893.393 33.6407 894.005 22.022 894.978 8.89892 904.976 12.0937 915.67 15.7833 928.021 37.344 925.415 37.344 925.415 37.344 925.415 31.9241 930.432 28.2535 931.375 24.2844 932.394 19.6497 932.132 15.9092 930.618 9.83386 928.158 4.66137 923.425 2.21797 918.131-0.783448 911.625-0.42022 903.744 2.21797 897.128 5.6396 888.548 12.8944 881.101 21.6325 875.841 26.9063 872.666 40.1492 870.353 40.1492 870.353 27.122 866.27 24.4535 858.931 23.6528 853.325 22.443 844.856 33.3456 835.17 44.4141 842.161 35.2562 844.239 39.1118 855.435 44.3016 857.203 49.7486 859.057 63.57 859.019 66.2973 844.715 67.9104 836.258 62.7433 835.315 63.4921 830.902 64.5353 824.754 71.7461 821.12 72.021 814.914 72.2677 809.335 64.3077 806.636 65.1755 801.102 66.5404 792.398 76.1571 787.531 71.6841 785.018 60.3749 783.511 55.935 775.186 61.9205 767.516 68.7984 758.703 85.235 752.554 96.2613 758.244 106.514 763.535 107.109 767.823 114.441 770.164 127.007 774.177 125.087 765.063 135.539 761.839 149.82 757.434 161.638 765.435 169.991 763.069 173.173 748.457 187.995 732.984 211.851 716.806 198.037 690.05 212.694 679.319 220.604 664.772 220.604 664.772 210.142 660.412 210.84 644.81 211.343 633.569 218.289 618.53 229.885 603.095 213.327 606.772 200.25 633.299 173.161 636.663 160.812 638.198 152.32 651.041 157.534 660.989 160.516 666.674 167.969 671.382 181.725 672.403 158.094 685.4 125.498 664.826 146.728 633.064 118 635.772 101.198 642.405 114.773 672.83 75.5068 645.134 107.756 623.12 129.556 616.047 125.176 615.385 120.733 614.42 116.236 613.116 85.6757 604.253 64.2536 578.331 60.4622 544.147 56.0227 504.129 69.4351 472.011 95.7001 439.985 116.81 414.245 148.428 392.268 178.633 369.692 208.837 347.116 237.578 324.122 253.822 299.966 268.988 277.413 279.984 250.233 277.276 227.497 275.516 212.711 268.933 202.286 259.954 193.226 249.826 183.005 204.058 161.42 194.394 191.295 186.12 178.155 193.547 169.441 202.544 165.804 214.696 160.892 230.813 163.58 240.406 166.478 232.79 145.227 198.678 143.585 181.308 158.122 170.11 167.491 159.124 201.209 197.024 204.338 163.272 222.549 134.401 194.299 146.439 172.497 130.832 173.176 108.745 191.697 114.404 207.607 117.401 216.034 130.881 222.591 151.835 227.651 117.628 236.301 93.8053 225.243 86.5786 210.197 76.4392 189.086 92.4187 161.296 99.9005 157.145L75.619 170.791C82.8706 152.442 94.412 118.841 133.623 116.206 86.5479 99.4163 75.119 76.871 72.637 59.9491 68.3923 31.0059 79.7714 2.06048 116.641 0.188037 130.548-0.518001 151.549 11.6965 149.811 30.3467 138.569 11.9807 127.581 9.19363 117.649 10.5088 91.9689 13.909 90.9088 29.8921 90.2589 33.307 88.346 43.3612 92.2171 52.3473 100.042 60.4938 125.579 87.0837 194.055 54.1272 237.843 81.8489 250.973 90.1607 278.746 111.071 279.309 140.655 292.285 145.563 321.525 170.015 308.372 194.032 313.061 205.493 313.345 215.098 313.076 224.47 312.136 257.241 302.397 289.073 285.019 314.915 264.808 344.971 233.071 369.491 202.424 392.397 171.776 415.305 142.034 436.696 125.215 457.204 101.713 485.86 92.44 507.971 96.1488 541.404 98.9947 567.059 112.28 579.917 127.908 584.451 146.488 589.839 159.335 587.039 175.266 579.72 191.196 572.401 208.201 559.8 228.234 548.5 238.507 542.706 248.193 539.16 256.964 537.052 257.733 535.783 259.77 532.322 259.77 532.322 275.351 491.579 299.806 475.001 330.357 453.135 327.934 412.465 347.198 392.735 367.391 373.855 366.678 342.627 367.622 310.343 411.089 244.745L429.226 217.374 545.848 149.991 669.866 192.623Z" stroke="#000000" stroke-width="4.58333" stroke-miterlimit="8" fill="#FFD200" fill-rule="evenodd" transform="matrix(-1 1.22465e-16 1.22465e-16 1 1851.5 828.5)"/><path d="M77.6835 211.391C89.672 209.157 117.374 206.487 118.952 176.751 119.895 158.974 98.8743 136.943 73.0985 139.803 29.7905 144.607 37.3327 182.909 37.3327 182.909 18.6322 168.093 19.3845 158.902 22.66 146.731 11.2893 149.675 7.34723 160.208 7.06952 168.284-9.91018 149.935 4.18299 109.486 59.3427 113.63 59.3427 113.63 52.3111 101.397 51.925 93.2104 51.2905 79.7504 68.9033 63.3231 58.2788 53.2271 50.5718 45.9036 39.0673 50.7082 30.8558 55.9787 42.7681 27.3757 76.2151 46.1399 74.6001 56.8105 95.3537 38.1701 82.952 18.208 77.7059 14.9312 69.7671 9.97348 47.6012 3.3957 34.257 25.2304 32.7933-5.00457 73.312-0.659975 80.9189 2.40574 110.82 14.4568 108.082 38.2822 104.517 52.245 126.355 30.8056 140.607 35.2748 144.628 38.4302 161.065 51.3322 141.819 63.9704 146.052 75.0672 146.052 75.0672 138.325 73.0663 137.452 66.8856 136.916 63.0986 139.767 58.3747 138.025 54.8536 137.006 52.7952 133.781 51.223 131.144 51.4846 125.103 52.0833 120.126 57.3026 117.957 62.0726 114.469 69.7398 115.992 79.2302 120.25 86.6178 128.084 100.209 151.31 104.116 159.814 117.42 166.48 127.849 167.982 138.525 168.033 145.811 184.151 130.487 200.74 136.037 206.015 140.691 210.403 144.562 217.73 157.171 199.95 169.398 199.95 169.398 206.668 152.187 198.803 149.665 184.711 145.149 176.25 150.605 173.275 161.108 166.638 184.552 167.752 206.288 125.984 225.708 112.87 231.805 86.9285 237.391 74.953 244.959 40.597 266.67 38.8123 292.242 38.8123 292.242 20.0638 264.123 39.4331 219.02 77.6835 211.391Z" stroke="#000000" stroke-width="4.58333" stroke-miterlimit="8" fill="#FFD200" fill-rule="evenodd" transform="matrix(-1 1.22465e-16 1.22465e-16 1 1795.5 1064.5)"/><path d="M1038.01 1259.53C1046.03 1262.14 1053.11 1269.22 1052.74 1278.64 1052.57 1283.11 1047.85 1283.15 1045.1 1286.78 1042.58 1290.12 1041.42 1295.69 1044.59 1301.72 1047.97 1308.16 1054.45 1311.04 1054.45 1311.04 1039.95 1313.25 1026.46 1305.42 1018.85 1294.9 1011.68 1284.97 1009.74 1272.65 1017.12 1264.05 1022.36 1258.57 1030.7 1257.14 1038.01 1259.53Z" stroke="#000000" stroke-width="4.58333" stroke-miterlimit="8" fill="#FFD200" fill-rule="evenodd"/><path d="M21.173 0.396309C29.4724 1.1598 37.9089 6.52112 39.7544 15.8851 40.6294 20.324 36.111 21.4359 34.3289 25.6342 32.6894 29.4955 32.8767 35.2381 37.3267 40.4667 42.0633 46.0326 48.9425 47.4014 48.9425 47.4014 35.5611 52.8562 20.8032 48.2131 11.0555 39.5705 1.86599 31.4228-2.86957 19.7209 2.19872 9.57543 5.9451 3.00181 13.6046-0.299929 21.173 0.396309Z" stroke="#000000" stroke-width="4.58333" stroke-miterlimit="8" fill="#FFD200" fill-rule="evenodd" transform="matrix(-0.995175 0.0981159 0.0981159 0.995175 1137.26 1245.43)"/><path d="M1035.58 1196.84C1037.99 1203.53 1035.53 1212.82 1026.23 1219.32 1021.83 1222.39 1018.88 1219.58 1013.7 1220.52 1008.93 1221.38 1002.86 1224.64 998.999 1230.85 994.885 1237.46 996.095 1243.41 996.095 1243.41 985.061 1236.26 984.293 1222.59 989.749 1210.51 994.893 1199.14 1005.57 1189.19 1018.39 1187.5 1026.88 1186.75 1033.38 1190.74 1035.58 1196.84Z" stroke="#000000" stroke-width="4.58333" stroke-miterlimit="8" fill="#FFD200" fill-rule="evenodd"/><path d="M1634.71 1809.54C1641.05 1814.95 1644.79 1824.14 1640.8 1832.74 1638.9 1836.82 1634.56 1835.1 1630.62 1837.45 1627.02 1839.62 1623.79 1844.34 1624.35 1851.12 1624.95 1858.34 1629.77 1863.41 1629.77 1863.41 1615.62 1860.07 1606.28 1847.81 1603.4 1835.23 1600.68 1823.37 1603.69 1811.21 1613.8 1805.97 1620.73 1802.85 1628.94 1804.61 1634.71 1809.54Z" stroke="#000000" stroke-width="4.58333" stroke-miterlimit="8" fill="#FFD200" fill-rule="evenodd"/><path d="M21.4086 0.583675C29.7081 1.3468 38.1451 6.70813 39.9898 16.0725 40.8656 20.5113 36.3468 21.6233 34.5643 25.8216 32.9252 29.6829 33.1121 35.4254 37.5621 40.6541 42.2991 46.22 49.178 47.5887 49.178 47.5887 35.7969 53.0432 21.0385 48.4001 11.2915 39.7575 2.10187 31.6101-2.63445 19.9082 2.43459 9.7628 6.18065 3.18917 13.8402-0.112923 21.4086 0.583675Z" stroke="#000000" stroke-width="4.58333" stroke-miterlimit="8" fill="#FFD200" fill-rule="evenodd" transform="matrix(-0.812115 0.583497 0.583497 0.812115 1796.84 1775.59)"/><path d="M1577.99 1784.18C1579.76 1790.98 1576.46 1799.91 1566.61 1805.45 1561.95 1808.07 1559.28 1805.04 1554.05 1805.49 1549.23 1805.9 1542.9 1808.57 1538.48 1814.32 1533.78 1820.45 1534.43 1826.41 1534.43 1826.41 1524.13 1818.38 1524.64 1804.84 1531.18 1793.46 1537.35 1782.73 1548.88 1773.91 1561.78 1773.41 1570.28 1773.45 1576.37 1777.98 1577.99 1784.18Z" stroke="#000000" stroke-width="4.58333" stroke-miterlimit="8" fill="#FFD200" fill-rule="evenodd"/><path d="M72.2157 3.21204C72.2157 3.21204 68.7063 16.2372 53.91 15.4195 43.4379 14.8409 31.0747 22.4176 26.8898 30.3761 21.2986 41.0093 23.0371 52.3209 27.3143 63.3776 30.0375 70.4162 43.2023 81.1078 43.2023 81.1078 24.585 81.1847-8.69692 72.6254 2.446 40.7069-4.63881-11.3964 55.6094 0.461194 72.2157 3.21204Z" stroke="#000000" stroke-width="4.58333" stroke-miterlimit="8" fill="#FFD200" fill-rule="evenodd" transform="matrix(-1 1.22465e-16 1.22465e-16 1 1412.5 680.5)"/><path d="M57.2064 0.112987C59.7943 6.65326 60.1756 13.2062 59.2189 20.9471 66.3303 18.3397 71.3166 9.31045 73.1926 4.33576ZM30.6001 0.206843C33.6769 6.59623 34.5474 13.0769 34.1773 20.8529 41.0777 17.8726 45.3133 8.64949 46.8099 3.58491ZM11.0362 41.4054C8.56425 48.9062 5.44397 54.8776 0.192774 60.175L16.8496 61.1132C17.2638 55.9071 16.5258 46.0104 11.0362 41.4054Z" stroke="#000000" stroke-width="4.58333" stroke-miterlimit="8" fill="#FFD200" fill-rule="evenodd" transform="matrix(-1 1.22465e-16 1.22465e-16 1 1347.5 695.5)"/><path d="M7.22688 37.5358C7.22688 37.5358 21.1263 33.8716 54.6924 34.5124 66.4741 34.7377 82.9382 37.5863 94.1976 40.3056 112.235 44.6619 129.082 52.0725 147.534 55.1965 170.968 59.1634 196.381 54.9637 198.894 41.8177 201.584 27.743 183.92 19.2128 166.681 22.8777 155.445 15.2034 167.958 1.39616 182.358 0.29173 212.286-2.00324 233.531 17.5565 226.968 45.3478 223.627 59.498 213.98 69.3674 195.535 74.1815 160.758 83.2593 131.669 69.394 103.93 57.5536 90.9129 51.9973 70.216 48.6328 55.4251 49.4717 34.9544 50.6331 9.98897 65.523 9.98897 65.523L0.163175 55.121Z" stroke="#000000" stroke-width="4.58333" stroke-miterlimit="8" fill="#FFD200" fill-rule="evenodd" transform="matrix(-1 1.22465e-16 1.22465e-16 1 1415.5 681.5)"/><path d="M197.632 0C186.756 4.29407 176.008 15.0912 185.593 28.3952 185.593 28.3952 176.07 24.4823 170.038 26.1628 155.978 30.0794 160.355 53.2929 173.082 54.995 178.613 55.7339 190.438 51.473 190.438 51.473L189.54 66.0695C188.353 85.3709 169.555 89.5284 159.358 76.045 160.806 72.9645 164.295 70.315 163.207 62.6469L144.183 43.9969 137.617 69.0289C140.758 76.1847 145.196 76.8569 147.707 78.2341 147.128 88.2791 136.97 94.2901 127.9 90.0547L127.209 89.4005 128.688 84.7141C130.553 82.8611 133.827 81.6456 139.317 81.6053 134.669 78.4225 129.623 77.2341 125.008 77.621L118.625 80.5959 110.404 67.0991C110.404 67.0991 118.659 66.1016 122.448 62.2189 131.171 53.2864 119.612 33.9426 106.108 39.3246 100.308 41.6308 95.9644 50.8901 95.9644 50.8901 94.0252 30.2083 60.602 35.5121 58.3565 45.0582 61.0804 52.7295 67.3995 45.8183 78.0355 58.3435 88.9364 71.1828 97.104 87.8835 102.682 103.075L105.524 112.336 100.792 110.878C101.529 114.879 102.935 118.116 105.055 121.018L109.306 125.067 109.994 128.858 91.4353 127.352C84.0496 127.66 76.664 129.024 69.2783 131.885 82.6231 139.88 66.0734 169.608 91.3644 177.982 91.3644 177.982 81.1768 180.252 76.8504 183.811 71.5213 188.194 72.2237 197.16 66.1233 200.765 60.6165 204.02 50.5939 205.375 45.9304 201.295 37.3308 193.773 43.8608 183.742 52.2405 182.75 37.2065 175.008 20.9563 192.614 28.8926 207.654 37.407 223.789 62.9679 218.251 62.9679 218.251 44.7674 240.602 36.555 261.752 43.7336 287.926 48.4835 305.241 69.9034 317.272 61.7189 333.229 56.3432 343.712 41.061 351.181 24.3108 347.726 8.27485 344.419 9.01013 321.552 25.0298 323.564 14.858 314.231-1.65591 325.618 0.134409 335.914 2.70553 350.697 13.0518 355.956 19.6592 359.042 19.6592 359.042 8.00423 362.768 8.32652 371.259 8.8591 385.312 26.1802 385.812 26.1802 385.812 26.1802 385.812 19.1234 378.35 21.7743 373.424 28.1808 361.521 38.5434 369.034 49.3091 370.187 70.0204 372.404 80.3223 354.198 80.3223 354.198 80.3223 354.198 83.994 357.877 76.7434 370.436 67.9118 385.734 37.8626 386.606 28.8854 401.845 22.5793 412.549 27.0055 427.185 33.8358 429.096 33.8358 429.096 32.8104 415.488 42.0875 413.392 49.6914 411.674 56.3732 413.222 64.6415 411.544 51.055 424.753 42.3133 439.48 42.2078 453.115 42.1189 464.562 46.4656 474.776 60.791 483.138 69.395 488.16 87.3867 488.094 100.948 481.752 83.9582 480.611 66.8477 481.121 65.9766 464.312 65.5065 455.248 75.7726 453.765 82.8594 445.989 87.1833 441.245 90.5573 432.201 90.5573 432.201 98.2139 442.926 90.1511 460.227 115.65 470.83 115.65 470.83 106.501 484.236 110.623 496.649 116.136 513.253 132.332 519.542 153.712 529.255 162.854 533.409 172.302 541.908 172.232 550.323 172.108 565.186 163.729 569.155 152.517 569.385 158.318 575.009 182.243 575.299 189.467 558.744 189.467 558.744 199.201 598.243 173.402 606.538 162.133 610.159 148.329 608.36 144.115 598.291 141.531 592.117 146.904 585.083 155.566 585.465 144.866 576.827 127.88 590.019 135.504 605.653 140.621 616.149 153.089 623.327 169.598 622.566 194.812 621.402 210.684 604.612 217.478 591.017 222.453 595.868 220.011 607.756 211.468 617.766 233.958 614.87 230.26 598.039 237.651 592.382 237.651 592.382 243.922 600.712 239.6 610.512 229.981 632.32 220.282 634.139 232.113 651.734 233.989 644.857 238.001 644.742 241.206 643.316 270.9 630.109 272.635 616.096 272.841 591.506 276.403 595.849 279.327 603.398 279.898 609.935 280.848 620.801 278.373 631.772 284.133 641.899 287.825 648.391 295.732 653.706 302.788 654.83 309.835 655.952 322.358 654.608 328.395 649.815 317.529 651.395 310.847 647.905 306.957 644.432 300.5 638.666 302.281 630.174 305.333 619.384 307.664 611.146 303.661 602.955 309.878 595.394 309.878 595.394 311.021 604.483 313.35 608.513 318.675 617.731 331.467 622.989 336.496 632.322 340.85 640.4 344.928 650.116 341.705 658.56 339.54 664.232 332.964 668.467 326.659 671.193 319.109 674.459 301.53 674.726 301.53 674.726 312.887 681.231 338.589 684.46 354.824 675.46 365.069 669.78 368.98 657.156 368.803 646.85 368.554 632.402 347.834 607.236 347.834 607.236 369.311 613.926 381.101 605.443 386.277 592.564 386.277 592.564 372.76 598.775 366.181 596.966 360.476 595.396 355.372 590.249 354.824 585.228 353.8 575.866 370.853 565.615 367.531 549.713 372.234 555.24 375.201 558.216 381.076 561.053 400.04 570.213 423.36 575.822 419.276 614.729 433.691 607.673 434.594 593.052 433.767 577.463 447.078 585.256 445.256 610.456 444.636 617.771 460.367 604.951 467.782 586.942 460.94 568.337 470.535 575.356 483.013 592.727 483.667 609.31 483.947 616.409 481.803 624.374 475.432 633.741 482.502 632.659 499.866 625.718 498.06 600.536 498.06 600.536 504.212 612.045 518.423 616.319 530.791 620.039 538.256 616.852 543.485 622.018 552.894 631.318 545.573 647.445 545.573 647.445 569.698 631.971 549.452 605.696 536.637 598.483 547.133 599.518 555.328 596.231 557.778 588.256 557.778 588.256 539.803 588.922 531.892 585.927 495.816 572.27 497.533 559.817 491.28 538.637 489.545 532.76 488.15 523.998 481.14 516.555 505.292 524.905 511.612 542.879 505.987 556.252 514.15 554.658 521.69 552.281 522.612 541.566 546.047 551.496 550.928 564.886 549.663 579.424 568.143 574.84 572.071 554.226 566.92 537.972 561.589 521.148 546.456 508.538 523.223 495.866 539.526 497.498 550.183 493.239 555.218 481.727 555.218 481.727 545.363 479.734 539.501 476.542 519.344 465.568 517.971 452.992 506.946 442.425 495.473 431.429 473.62 425.359 473.62 425.359 473.62 425.359 471.499 416.052 468.066 412.532 460.166 404.436 447.784 400.382 437.246 394.793 410.106 380.398 388.965 363.309 358.939 353.778 334.586 346.05 288.569 343.673 278.26 342.564 270.013 341.678 258.698 334.852 254.42 325.696 250.384 317.052 254.878 305.66 268.539 306.415 274.955 306.769 281.744 316 285.205 320.408 290.531 327.192 298.581 329.308 297.241 328.183L298.63 320.408C301.645 323.905 304.427 327.405 313.444 330.903L315.295 324.684C317.351 328.217 319.984 331.711 328.721 334.791L329.183 327.794C340.706 338.595 356.92 337.687 365.224 333.713 365.224 333.713 349.839 329.554 345.755 316.973 344.518 313.166 346.072 307.22 345.295 303.328 342.809 290.876 335.081 288.903 335.081 288.903 335.081 288.903 328.468 286.894 324.867 286.568 317.951 285.943 313.438 284.532 307.224 284.616 301.101 284.698 296.116 287.461 290.044 288.125 281.096 289.102 271.12 289.283 263.116 285.785 252.216 281.021 242.656 272.315 242.222 262.004 242.004 256.809 247.795 253.428 247.795 253.428 247.795 253.428 243.498 246.614 244.544 242.122 246.696 232.88 261.822 219.033 277.973 217.951 285.633 217.439 292.218 220.046 297.009 220.291 310.708 220.989 316.046 216.783 316.046 216.783 317.997 226.583 324.978 230.896 335.493 232.605 343.486 233.905 351.911 232.573 356.438 227.308 359.41 232.216 364.305 233.17 369.338 231.929 376.177 230.242 383.272 224.504 386.154 219.121 390.141 211.673 390.182 196.365 390.182 196.365 396.527 196.209 403.004 192.004 399.813 187.123 397.524 183.751 392.261 180.718 385.177 177.989 365.324 165.388 356.113 159.273 333.726 156.24 333.824 147.338 322.867 138.724 313.109 137.173 309.993 131.038 304.341 127.909 298.126 126.32L296.445 126.173 296.98 120.348C299.866 101.692 307.573 73.3907 322.194 53.517 331.7 40.5944 338.615 47.2466 340.66 39.4787 337.571 30.0376 303.731 26.0681 303.627 46.7898 303.627 46.7898 298.474 37.7165 292.484 35.6411 278.522 30.8038 268.704 50.5662 278.199 59.14 282.327 62.867 290.655 63.5374 290.655 63.5374L282.825 78.9485C274.681 94.9727 256.359 89.4643 254.402 76.1267 256.788 74.6526 261.158 73.8064 263.658 66.5378L254.886 41.8091 237.547 61.1782C237.142 68.8765 240.86 71.3824 242.577 74.4001 233.594 88.2621 214.46 84.8546 211.563 65.634L209.375 51.0997C209.375 51.0997 221.557 54.8862 227.013 53.9294 239.565 51.7284 241.878 28.3819 227.496 25.0277 221.325 23.5885 212.165 27.87 212.165 27.87 220.554 14.2118 208.868 3.85673 197.632 0Z" stroke="#000000" stroke-width="4.58333" stroke-miterlimit="8" fill="#FFD200" fill-rule="evenodd" transform="matrix(-1 1.22465e-16 1.22465e-16 1 1649.5 469.5)"/><path d="M1379.45 631.414C1379.45 636.384 1374.3 640.414 1367.95 640.414 1361.59 640.414 1356.45 636.384 1356.45 631.414 1356.45 626.443 1361.59 622.414 1367.95 622.414 1374.3 622.414 1379.45 626.443 1379.45 631.414Z" stroke="#000000" stroke-width="4.58333" stroke-miterlimit="8" fill="#FFD200" fill-rule="evenodd"/><path d="M43.6769 1.91899 42.3238 0.0841568 40.7453 1.82255C35.0191 8.13792 26.0941 9.93483 18.5424 12.5115 9.63689 15.5495 2.87981 23.5404 0.216103 30.0841 6.30905 24.5893 11.8163 18.9071 19.6772 16.3438 26.9453 13.9733 35.8907 12.5487 41.9858 6.57687 48.6354 14.4349 58.9831 16.9542 69.2158 12.5827 60.4016 11.8051 49.7662 10.1537 43.6769 1.91899Z" stroke="#000000" stroke-width="4.58333" stroke-miterlimit="8" fill="#FFD200" fill-rule="evenodd" transform="matrix(-1 1.22465e-16 1.22465e-16 1 1409.5 612.5)"/><path d="M0.518177 0.369442C0.518177 0.369442-2.56331 18.6878 13.3333 28.3687 20.6594 32.8305 40.2781 30.4465 40.2781 30.4465 40.2781 30.4465 34.7289 12.5834 26.6694 7.35889 12.1046-2.0828 0.518177 0.369442 0.518177 0.369442Z" stroke="#000000" stroke-width="4.58333" stroke-miterlimit="8" fill="#FFD200" fill-rule="evenodd" transform="matrix(-1 1.22465e-16 1.22465e-16 1 1561.5 609.5)"/><path d="M1364.49 626.414C1362.62 626.414 1361.45 627.727 1361.45 628.954 1361.45 630.181 1362.57 631.414 1364.49 631.414 1366.41 631.414 1367.45 630.241 1367.45 628.954 1367.45 627.667 1366.35 626.414 1364.49 626.414Z" stroke="#000000" stroke-width="4.58333" stroke-miterlimit="8" fill="#FFD200" fill-rule="evenodd"/><path d="M0.994266 4.83941 10.0773 11.3516 19.3328 14.102 28.1863 10.9846 27.3608 2.24205C27.3608 2.24205 24.2386 3.76143 19.5214 3.87987 12.8049 4.04832 0.976886 0.101894 0.976886 0.101894 0.148814 1.26898-0.288938 2.7752 0.994266 4.83941Z" stroke="#000000" stroke-width="4.58333" stroke-miterlimit="8" fill="#FFD200" fill-rule="evenodd" transform="matrix(-1 1.22465e-16 1.22465e-16 1 1278.5 651.5)"/><path d="M0.188184 26.1002C4.36789 24.3998 8.64782 23.3725 13.0146 22.9235 20.9267 22.1095 25.9186 24.4041 32.4697 25.2633 38.4664 26.05 46.0911 25.4992 51.769 23.0576 61.2212 43.8892 86.7861 38.9059 92.4374 32.7383 99.6089 43.1677 112.683 35.2007 118.34 29.3253 125.586 21.7997 127.477 10.3892 127.154 1.76064L121.204 0.101121C122.861 21.3676 114.683 25.3077 108.952 24.6261 106.681 24.3561 105.893 15.4234 105.664 7.56862 96.3611 21.5014 90.2037 28.4238 81.7113 29.8912 71.5771 31.6428 58.5289 25.6251 54.0835 11.7178 39.4351 27.4062 13.9902 9.10515 0.188184 26.1002Z" stroke="#000000" stroke-width="4.58333" stroke-miterlimit="8" fill="#FFD200" fill-rule="evenodd" transform="matrix(-1 1.22465e-16 1.22465e-16 1 1385.5 663.5)"/></g></svg>