<svg width="1368" height="1546" xmlns="http://www.w3.org/2000/svg" xmlns:xlink="http://www.w3.org/1999/xlink" overflow="hidden"><defs><clipPath id="clip0"><rect x="679" y="277" width="1368" height="1546"/></clipPath></defs><g clip-path="url(#clip0)" transform="translate(-679 -277)"><path d="M1931.49 1515.33C2045.62 1315.4 1940.74 967.341 1965.31 729.676 1988.04 509.928 2039.97 452.047 2039.97 452.047 1910.94 359.151 1676.93 287.986 1364.46 287.986 1052 287.986 817.996 359.151 688.965 452.047 688.965 452.047 740.903 509.928 763.625 729.676 788.201 967.341 683.318 1315.4 797.451 1515.33 917.659 1725.91 1270.77 1759.67 1364.46 1817.99 1458.16 1759.67 1811.28 1725.91 1931.49 1515.33Z" fill="#0C2A5C" fill-rule="evenodd"/><path d="M1144.49 1583.38C1249.27 1583.38 1256.75 1624.64 1361.53 1624.64 1466.31 1624.64 1473.79 1583.38 1578.57 1583.38 1675.87 1583.38 1697.57 1619.04 1795.62 1624.64L1823.67 1624.5 1802.95 1639.4C1648.33 1740.39 1431.85 1770.29 1361.49 1814 1291.13 1770.29 1074.66 1740.39 920.047 1639.4L899.329 1624.5 927.443 1624.64C1025.49 1619.04 1047.19 1583.38 1144.49 1583.38ZM1144.49 1265.22C1249.27 1265.22 1256.75 1306.47 1361.53 1306.47 1466.31 1306.47 1473.79 1265.22 1578.57 1265.22 1675.87 1265.22 1697.57 1300.87 1795.62 1306.47 1848.38 1309.62 1902.41 1302.53 1957.38 1285.53L1982 1276.48 1979.29 1338.01C1972.68 1402.42 1957.81 1461.62 1929.24 1511.57L1919.69 1525.76 1903.02 1529.95C1866.91 1536.86 1831.17 1539.3 1795.62 1537.2 1697.57 1531.61 1675.87 1495.95 1578.57 1495.95 1474.54 1495.95 1466.31 1537.2 1361.53 1537.2 1257.5 1537.2 1249.27 1495.95 1144.49 1495.95 1047.19 1495.95 1025.49 1531.61 927.443 1537.2 892.267 1539.3 856.53 1536.86 820.324 1529.95L803.241 1525.67 793.753 1511.57C765.183 1461.62 750.319 1402.42 743.71 1338.01L741 1276.48 765.573 1285.53C820.371 1302.54 874.118 1309.62 927.443 1306.47 1025.49 1300.87 1047.19 1265.22 1144.49 1265.22ZM1144.49 942C1249.27 942 1256.75 983.251 1361.53 983.251 1466.31 983.251 1473.79 942 1578.57 942 1675.87 942 1697.57 977.656 1795.62 983.251 1848.38 986.398 1902.41 979.317 1957.38 962.308L1966.45 958.976 1971.72 1026.58C1974.66 1062.06 1977.59 1097.76 1979.81 1133.16L1981.7 1184.14 1957.49 1193.05C1902.69 1210.06 1848.94 1217.13 1795.62 1213.99 1697.57 1208.39 1675.87 1172.74 1578.57 1172.74 1474.54 1172.74 1466.31 1213.99 1361.53 1213.99 1257.5 1213.99 1249.27 1172.74 1144.49 1172.74 1047.19 1172.74 1025.49 1208.39 927.443 1213.99 874.679 1217.13 820.652 1210.05 765.678 1193.04L741.303 1184.09 743.192 1133.16C745.415 1097.76 748.339 1062.06 751.282 1026.58L756.547 958.988 765.573 962.311C820.371 979.322 874.118 986.398 927.443 983.251 1025.49 977.656 1047.19 942 1144.49 942Z" fill="#BF9000" fill-rule="evenodd"/><path d="M1650.74 585.066C1649.84 585.836 1648.98 586.687 1648.17 587.646 1637.16 600.637 1636.43 618.743 1650.85 634.474 1665.26 650.205 1672.64 653.756 1679.7 665.291 1686.75 676.826 1688.06 683.103 1689.07 691.065 1690.68 679.127 1690.27 667.737 1678.51 643.623 1669.32 624.782 1657.47 609.156 1650.74 585.066ZM1374.21 370C1374.63 375.174 1374.91 380.131 1377.46 383.655 1379.76 387.416 1383.69 390.85 1385.89 393.708 1387.16 394.958 1386.8 394.484 1388.1 393.549 1388.96 392.98 1389.08 392.769 1390.39 392.496 1390.47 394.783 1389.48 397.008 1393.51 399.529 1394.66 400.068 1397.8 398.769 1398.29 400.591 1399.18 402.03 1404.49 399.701 1407.48 403.16 1408.15 404.511 1408.03 405.856 1407.26 407.753 1408.51 408.152 1412.54 409.192 1414.12 411.426 1414.64 412.761 1414.6 414.353 1413.68 415.746 1414.71 415.808 1416.97 416.695 1417.89 418.686 1418.44 419.696 1418.22 421.807 1417.34 423.737 1419.13 424.263 1421.71 425.874 1422.43 427.498 1423.15 429.119 1421.09 430.834 1420.67 431.857 1422.19 432.559 1422.45 433.231 1422.04 433.796 1421.62 434.362 1419.68 434.443 1418.19 435.248 1421.01 437.655 1439.27 473.076 1399.27 490.811 1398.14 493.649 1406.35 505.59 1404.72 512.45 1408.37 513.941 1415.66 512.157 1415.82 514.064 1415.71 514.962 1415.28 515.549 1414.68 515.941L1413.06 516.459 1414.57 518.785C1416.96 524.237 1416.51 537.858 1417.31 541.43 1418.11 545.002 1423.14 545.555 1436.24 552.325 1449.34 559.095 1457.67 562.462 1465.47 566.852 1466.89 565.346 1468.41 563.953 1470.03 562.651 1465.19 559.874 1462.88 556.395 1463.93 551.755 1464.98 547.116 1468.56 544.492 1473.81 545.133 1471.81 548.404 1472.18 551.314 1475.19 552.511 1478.2 553.708 1482.01 553.046 1491.27 548.124 1500.53 543.201 1509.64 538.74 1520.96 536.322 1532.28 533.905 1541.22 534.739 1546.94 535.681 1544.98 532.605 1545.89 528.588 1549.84 527.777 1551.17 531.463 1552.99 532.28 1557.21 531.564 1561.43 530.849 1563.92 528.106 1563.65 525.026 1563.39 521.945 1560.72 519.287 1554.9 519.441 1549.08 519.595 1545.66 520.457 1544.78 523.413 1543.91 526.369 1543.14 528.388 1540.16 529.954 1537.17 531.52 1531.52 531.107 1530 526.406 1533.36 526.544 1534.59 525.387 1534.44 523.649 1534.29 521.911 1532.55 520.847 1531.51 518.956 1530.47 517.065 1530.22 514.525 1531.56 512.606 1532.9 510.688 1534.65 510.304 1537.28 510.203 1537.35 507.672 1538.11 506.108 1539.07 505.161L1539.95 504.771 1536.38 505.361C1532.32 506.673 1528.91 508.311 1524.73 509.887 1516.36 513.039 1507.25 515.656 1499.16 514.271 1491.07 512.886 1484.3 504.229 1486.55 495.228 1488.23 488.476 1494.54 485.388 1498.68 486.591 1500.06 486.993 1501.2 487.871 1501.85 489.249 1495.34 492.352 1495.69 497.389 1497.89 500.314 1500.09 503.239 1504.02 505.567 1517.93 502.849 1524.88 501.489 1530.6 500.608 1535.97 500.499L1547.42 502.138 1552.44 501.458C1557.1 503.143 1564.1 505.608 1567.57 510.601 1562.56 506.921 1554.2 504.031 1546.01 504.656L1546.26 503.728 1542.28 504.386 1544.32 509.75C1560.63 509.457 1566.14 512.694 1572.42 521.382 1574.08 518.351 1575.03 512.46 1570.63 506.077 1566.23 499.694 1558.29 497.061 1549.3 496.696 1540.3 496.331 1534.53 497.528 1532.03 495.348 1529.52 493.169 1529.79 488.148 1529.89 485.312 1530 482.477 1531.09 481.409 1532.42 480.972 1532.5 478.315 1532.15 475.861 1533.82 474.136 1535.5 472.411 1539.16 472.934 1544.13 471.146 1548.97 469.405 1551.08 468.627 1556.33 468.796 1557.87 465.793 1558.74 463.705 1560.43 462.546 1562.12 461.388 1566.74 462.41 1574.52 462.333 1582.3 462.256 1582.81 459.597 1591.59 461.213 1600.37 462.828 1610.51 463.963 1613.8 462.458 1617.09 460.952 1618.56 457.961 1616.76 454.126 1619.81 453.37 1623.13 456.329 1623.38 460.605 1623.64 464.882 1621.95 467.655 1617.14 470.273 1622.94 469.846 1626.61 471.276 1630.92 475.204 1635.23 479.133 1637.02 481.4 1641.86 481.827 1641.98 488.859 1639.48 492.131 1633.69 496.205 1634.17 509.319 1636.82 517.724 1637.16 528.683 1637.5 539.642 1635.27 544.659 1629.59 547.483 1627.64 554.987 1623.93 558.731 1620.54 563.007 1617.16 567.282 1616.26 574.801 1623.28 576.251 1622.2 581.392 1615.11 581.507 1612.34 576.892 1608.01 584.708 1604.29 586.682 1600.63 592.559 1596.98 598.435 1598.01 604.019 1604.63 606.872 1601.38 611.159 1592.59 610.644 1589.97 603.859 1582.35 614.924 1579.71 622.09 1580.07 630.454 1580.44 638.818 1583.89 642.515 1588.86 642.818 1593.83 643.122 1595.82 640.353 1597.03 635.659 1601.75 639.417 1602.47 645.547 1598.84 650.889 1595.22 656.231 1587.76 658.113 1580.75 655.54 1584.62 670.395 1590.56 683.628 1602.75 699.047 1614.94 714.465 1618.23 720.678 1625.66 726.72 1633.1 732.763 1646.56 736.096 1661.36 727.93 1676.15 719.764 1678.95 700.053 1674.74 686.237 1670.53 672.42 1657.15 661.417 1644.4 649.379 1631.37 637.073 1624.48 623.255 1627.2 603.758 1629.1 590.175 1635.96 577.706 1647.62 570.954 1647.17 568.268 1646.78 565.493 1646.46 562.594 1642.3 524.527 1657.63 497.888 1683.36 489.284 1688.99 487.402 1693.96 486.507 1698.35 486.416 1714 486.091 1722.19 496.001 1726.16 507.677 1731.26 522.681 1725.05 536.677 1716.24 547.057 1707.43 557.437 1706.26 563.944 1706.86 567.344 1707.46 570.743 1709.91 573.22 1716.08 573.245 1714.96 577.587 1710.4 582.3 1702.1 579.892 1693.81 577.484 1689.48 566.901 1690.5 557.635 1691.53 548.37 1695.18 544.125 1699.45 540.858 1690.1 543.421 1680.95 537.573 1680.89 526.389 1680.82 515.205 1686.47 510.858 1689.79 509.653 1688.62 515.931 1692.06 527.346 1703.39 522.47 1714.71 517.593 1714.1 501.189 1697.15 500.429 1679.74 499.649 1665.61 511.588 1659.86 534.079 1657.18 544.523 1656.52 555.453 1658 566.859 1660.39 566.293 1662.91 565.916 1665.57 565.766 1688.29 564.485 1697.7 583.447 1700.61 598.282 1703.51 613.116 1702.52 622.883 1705.87 627.628 1709.22 632.371 1714.99 633.462 1719.55 627.628 1720.45 631.48 1720.01 640.48 1705.97 641.021 1691.93 641.562 1683.8 628.078 1686.34 612.621 1679.14 615.145 1672.01 613.403 1670.48 603.053 1674.7 604.557 1684.95 604.362 1681.78 591.876 1679.63 583.441 1670.07 578.553 1660.7 580.268 1663.13 589.309 1666.83 598.625 1671.93 608.224 1686.23 635.141 1697.97 651.821 1700.53 681.287 1703.06 710.34 1693.35 729.005 1670.67 740.676 1647.99 752.346 1630.29 745.802 1618.09 735.548 1620.08 745.936 1620.29 749.566 1621 762.069 1621.72 774.573 1621.6 782.009 1626.06 791.072 1634.2 787.95 1639.87 785.408 1649.7 778.576 1659.53 771.743 1662.9 770.127 1668.22 768.023 1673.55 765.92 1679.83 770.732 1681.77 778.701 1683.9 787.488 1687.3 788.776 1690.99 788.796 1694.68 788.816 1697.24 786.64 1696.81 782.097 1706.47 786.346 1705.63 799.521 1694.8 800.74 1702.05 801.052 1706.65 801.481 1710.91 806.188 1715.17 810.896 1715.82 817.126 1712.2 821.393 1713.54 826.377 1712.78 829.52 1710.24 831.798 1707.71 834.077 1704.43 834.052 1702.08 832.893 1706.02 831.282 1706.34 829.125 1705.33 827.677 1704.32 826.228 1701.63 826.258 1698.9 826.984 1696.17 827.709 1694.24 827.465 1691.65 825.603 1693.01 833.553 1693.19 836.853 1693.31 843.218 1693.44 849.582 1693.81 855.003 1695.42 858.385 1697.03 861.769 1698.36 865.435 1693.94 868.853 1689.53 872.271 1688.69 876.542 1683.7 876.456 1678.72 876.369 1676.27 876.263 1672.95 876.784 1669.63 877.306 1667.9 877.794 1664.71 876.758 1662.55 878.691 1659.19 878.313 1658.05 884.377 1654.22 882.173 1651.43 878.479 1651.53 872.487 1648.24 873.062 1644.75 873.903 1641.23 880.318 1638.32 879.236 1637.12 877.434 1636.41 874.462 1634.67 874.845 1633.53 876.002 1632.17 877.567 1629.43 874.978 1628.41 870.538 1629.06 866.411 1629.71 862.283 1631.97 859.969 1634.27 859.656 1636.39 856.017 1636.98 853.429 1638.8 849.886 1640.63 846.344 1644.71 844.689 1650.27 846.137 1657.36 847.984 1662.05 849.128 1669.83 849.983 1659.85 840.437 1663.17 835.575 1657.63 824.846 1651.32 828.442 1649.54 832.107 1643.05 837.379 1636.56 842.65 1634 844.001 1626.85 846.137 1627.04 855.21 1619.68 859.438 1611.45 857.095 1609.67 866.436 1603.52 869.318 1597.06 868.996 1597.33 874.01 1599.6 880.457 1604 881.386 1608.4 882.316 1611.15 879.464 1611.57 873.268 1614.39 876.722 1616.6 881.957 1613.04 888.864 1609.49 895.77 1596.64 898.05 1589.91 893.99 1583.18 889.932 1581.5 883.736 1580.23 876.259 1576.59 886.522 1562.56 885.488 1560.04 877.968 1564.88 877.528 1571.07 874.688 1569.09 864.937 1567.1 855.186 1560.88 851.905 1557.31 841.437 1553.73 830.97 1556.88 824.267 1557.98 811.551 1559.07 798.835 1559.03 788.244 1559.03 779.699 1559.03 771.153 1560.25 764.317 1565.09 757.054 1556.19 763.349 1551.83 766.731 1542.3 772.729 1530.24 780.32 1522.23 783.668 1511.95 788.152 1501.87 792.543 1497.76 795.278 1498.05 798.903 1498.35 802.529 1503.53 810.48 1507.83 821.577 1512.14 832.675 1515.41 839.229 1519.66 840.797 1523.92 842.364 1526.89 841.024 1530.81 838.233 1531.29 847.99 1523.92 850.371 1516.3 850.41 1517.05 851.858 1517.37 853.09 1517.56 854.255 1513.64 855.424 1509.72 855.005 1506.09 851.603 1503.77 852.958 1501.93 854.93 1501.78 858.193 1501.64 861.456 1503.41 863.754 1506.69 864.689 1505.64 866.566 1504.08 868.338 1499.89 868.426 1495.7 868.514 1492.58 866.111 1490.85 862.017 1489.56 870.237 1487.73 874.796 1482.44 877.399 1477.14 880.001 1470.24 880.39 1466.87 876.331 1469.23 875.387 1470.21 874.711 1472.04 873.248 1468.91 869.271 1469.21 866.251 1470.4 862.524 1470.4 862.524 1460.14 864.011 1455.52 867.216 1450.89 870.42 1452.15 874.693 1447.1 876.188 1442.06 877.684 1438.89 875.06 1432.8 876.829 1426.78 878.58 1422.87 878.909 1419.02 874.604 1415.35 874.946 1413.73 876.582 1411.17 880.398 1406.34 877.968 1405.74 873.565 1406.22 869.628 1402.52 869.73 1399.24 870.27 1395.79 874.995 1392.3 874.022 1391.28 871.48 1390.55 868.346L1388.51 869.623C1384.99 865.125 1383.18 855.139 1394.13 851.069 1398.2 845.971 1397.8 842.234 1403.98 840.016 1410.41 837.708 1423.61 842.735 1430.75 846.058 1437.89 849.381 1437.8 847.763 1443.54 843.339 1448.49 839.521 1451.68 836.88 1460.79 832.765 1456.4 823.233 1449.35 818.854 1442.69 808.112 1432.31 806.796 1427.46 804.487 1423.76 797.115 1418.93 795.977 1416.48 794.667 1411.72 789.687 1406.97 784.708 1403.01 784.562 1400.18 786.431 1397.35 788.3 1397.15 791.619 1398.22 794.484 1388.03 794.998 1386.99 783.431 1392.31 776.535 1397.63 769.639 1405.5 767.924 1413.52 770.227 1412.49 765.265 1412.57 760.874 1416.05 756.769 1419.52 752.663 1426.35 752.496 1427.4 756.983 1422.83 757.799 1422.26 763.032 1427.61 764.246 1432.97 765.46 1439.3 762.517 1449.07 752.71 1458.83 742.903 1466.98 736.683 1477.88 729.851 1488.78 723.02 1493.23 722.374 1502.49 722.588 1511.74 722.802 1525.19 723.534 1540.76 724.938 1556.34 726.342 1565.2 727.059 1576.52 727.715 1574.98 717.648 1571.4 709.525 1557.97 699.552 1544.54 689.58 1533.34 691.071 1524.04 691.071 1514.74 691.071 1510.35 690.004 1505.68 685.716 1501.02 681.428 1498.5 679.345 1492.93 676.028 1491.89 684.084 1489.06 691.796 1477.95 691.184 1472.34 695.923 1462.51 696.467 1457.55 689.262 1448.95 689.7 1442.63 680.693 1445.77 671.103 1448.91 661.526 1460.8 663.175 1459.84 669.446 1457.04 668.993 1453.31 669.408 1453.97 674.735 1454.64 680.062 1466.38 680.717 1465.75 670.676 1465.12 660.635 1457.34 658.926 1454.18 645.04 1451.51 650.121 1445.81 652.448 1441.29 648.601 1446.92 645.307 1446.68 641.525 1445.91 637.065 1439.01 638.31 1435.06 638.652 1428.46 639.406 1421.85 640.161 1419.51 640.314 1418.17 642.934 1416.83 645.555 1417.93 648.799 1415.68 652.934 1413.44 657.068 1409.37 658.091 1405.57 658.633 1401.06 668.104 1385.79 665.558 1387.37 655.579 1390.53 656.274 1392.45 655.604 1394.21 654.618 1391.41 650.02 1393.85 647.615 1395.37 645.005 1392.58 644.918 1390.95 645.072 1387.48 646.5 1384 647.928 1381.17 647.202 1379.59 645.325 1378.01 643.448 1377.47 641.352 1375.39 639.023 1372.66 638.898 1371.17 639.399 1370.28 643.377 1361.43 638.618 1364.96 629.14 1372.15 628.633 1372.45 621.176 1376.2 618.699 1382.39 618.992 1377.49 617.087 1376.19 613.014 1378.05 607.869 1375.9 606.811 1372.78 606.015 1369.22 610.005 1363.77 598.287 1376.28 592.549 1383.31 594.837 1384.93 592.827 1385.73 591.888 1387.86 591.098 1389.99 590.309 1392.15 590.74 1394.03 591.847 1393.66 589.238 1393.32 586.736 1393.17 584.021 1396.66 583.837 1400.56 584.761 1403.09 590.127 1405.63 595.494 1404.73 598.429 1406.52 605.449 1409.75 608.26 1412.21 609.549 1415.18 613.78 1418.16 618.009 1422.91 615.441 1430.65 611.513 1438.38 607.586 1442.84 606.075 1448.2 603.96 1447.83 600.436 1448.16 597.442 1448.99 594.068 1441.79 589.405 1433.94 584.92 1425.64 579.791 1416.89 574.382 1407.95 568.428 1405.12 566.649 1403.7 565.759 1402.66 565.419 1401.73 565.472L1400.61 565.961 1397.44 571.429C1394.46 573.42 1389.93 577.188 1382.67 578.854 1371.94 577.477 1372.43 575.421 1369.49 573.017 1368.1 570.948 1365.46 564.683 1368.7 560.421 1370.82 559.664 1370.62 562.276 1372.6 562.519 1374.59 562.76 1376.3 562.737 1380.8 562.032 1385.66 556.215 1390.04 546.185 1390.03 543.943 1391.25 535.917 1390.58 530.548 1390.44 526.8 1391.21 526.01 1391.51 526.17 1391.49 525.036 1391.18 522.886 1391.17 521.638 1391.08 520.866L1390.41 519.766 1388.29 520.544C1387.43 521.066 1386.58 521.799 1385.79 522.741 1385.07 521.07 1384.66 519.506 1384.54 518.067L1384.61 517.464 1379.98 517.16C1377.97 517.065 1376.49 516.823 1376.3 515.821 1375.94 513.836 1380.13 514.271 1384.21 513.922L1385.25 513.726 1386.94 511.082 1387.25 510.887 1386.18 507.91C1385.63 501.583 1388.42 493.088 1388.64 491.08 1381.25 487.627 1370.65 481.774 1369.51 476.015 1383.97 480.992 1395.65 479.747 1399.82 471.868 1400.67 470.146 1402.65 465.553 1402.29 457.91 1401.58 455.11 1403.2 444.817 1380.25 427.001 1378.19 425.049 1370.68 418.624 1368.95 416.39 1369.82 415.737 1372.41 414.259 1371.39 409.591 1371.69 406.717 1365.91 397.226 1365 388.563 1364.97 384.945 1365.33 382.768 1365.85 380.965 1366.48 379.163 1369.18 373.332 1374.21 370Z" fill="#BF9000" fill-rule="evenodd"/><path d="M285.737 215.067C284.843 215.836 283.981 216.687 283.169 217.646 272.165 230.637 271.434 248.743 285.846 264.474 300.257 280.205 307.644 283.756 314.697 295.291 321.749 306.827 323.06 313.103 324.07 321.065 325.681 309.127 325.27 297.737 313.51 273.623 304.322 254.782 292.468 239.156 285.737 215.067ZM9.21251 0C9.62629 5.17428 9.90707 10.1309 12.4627 13.6551 14.7592 17.4164 18.6941 20.8496 20.8892 23.708 22.1647 24.9585 21.8013 24.4844 23.1046 23.5489 23.9648 22.9805 24.0804 22.7694 25.3867 22.4965 25.4747 24.7832 24.4834 27.0082 28.5051 29.5287 29.6575 30.0679 32.803 28.7686 33.291 30.5909 34.177 32.0297 39.4916 29.7009 42.481 33.16 43.1456 34.5113 43.0346 35.856 42.2596 37.753 43.5144 38.1525 47.5372 39.1919 49.1243 41.4265 49.6411 42.7615 49.6041 44.3531 48.6816 45.7466 49.715 45.8083 51.9662 46.6951 52.8891 48.6862 53.4425 49.6963 53.221 51.8076 52.3355 53.7369 54.1276 54.2631 56.7086 55.8742 57.4276 57.4982 58.1465 59.1191 56.0949 60.8342 55.6731 61.8572 57.1932 62.5588 57.4493 63.2312 57.0359 63.7964 56.6221 64.3616 54.6781 64.4428 53.1906 65.2482 56.005 67.6552 74.2747 103.076 34.2651 120.811 33.1442 123.65 41.3468 135.59 39.7192 142.45 43.3654 143.941 50.6618 142.157 50.8176 144.064 50.7071 144.962 50.2849 145.549 49.6836 145.941L48.0559 146.459 49.5749 148.785C51.9612 154.237 51.5099 167.858 52.3091 171.43 53.1084 175.002 58.1376 175.555 71.2375 182.325 84.3379 189.095 92.6695 192.462 100.471 196.852 101.886 195.346 103.413 193.953 105.028 192.651 100.192 189.874 97.8751 186.395 98.929 181.755 99.9832 177.116 103.556 174.492 108.814 175.133 106.809 178.404 107.182 181.314 110.188 182.511 113.195 183.708 117.013 183.046 126.27 178.124 135.527 173.201 144.641 168.74 155.959 166.323 167.276 163.905 176.22 164.739 181.944 165.682 179.979 162.605 180.887 158.588 184.842 157.777 186.169 161.463 187.992 162.28 192.209 161.564 196.427 160.849 198.923 158.106 198.654 155.026 198.385 151.945 195.716 149.287 189.898 149.441 184.08 149.595 180.657 150.457 179.784 153.413 178.912 156.369 178.141 158.388 175.157 159.954 172.173 161.52 166.522 161.107 164.996 156.407 168.362 156.544 169.586 155.387 169.438 153.649 169.291 151.911 167.554 150.847 166.51 148.956 165.467 147.065 165.224 144.525 166.564 142.606 167.903 140.688 169.654 140.304 172.277 140.203 172.347 137.673 173.111 136.108 174.075 135.161L174.949 134.771 171.376 135.361C167.315 136.673 163.91 138.311 159.728 139.887 151.364 143.039 142.251 145.656 134.158 144.271 126.065 142.887 119.301 134.23 121.547 125.228 123.231 118.477 129.538 115.388 133.679 116.592 135.06 116.993 136.2 117.871 136.848 119.249 130.341 122.353 130.687 127.389 132.891 130.314 135.094 133.239 139.02 135.567 152.928 132.849 159.882 131.489 165.596 130.608 170.968 130.499L182.424 132.138 187.437 131.458C192.101 133.143 199.103 135.608 202.569 140.602 197.563 136.921 189.204 134.031 181.013 134.656L181.26 133.728 177.277 134.386 179.316 139.75C195.627 139.457 201.14 142.695 207.423 151.382 209.082 148.351 210.029 142.46 205.63 136.077 201.23 129.694 193.292 127.061 184.298 126.696 175.303 126.331 169.533 127.528 167.027 125.348 164.52 123.169 164.786 118.148 164.892 115.312 164.997 112.477 166.092 111.409 167.422 110.972 167.504 108.315 167.152 105.861 168.824 104.136 170.496 102.411 174.157 102.934 179.129 101.146 183.967 99.4054 186.08 98.6267 191.328 98.7957 192.871 95.7931 193.739 93.7051 195.43 92.5464 197.121 91.3878 201.738 92.41 209.521 92.3327 217.304 92.2558 217.807 89.5972 226.589 91.213 235.37 92.8283 245.506 93.9634 248.799 92.4579 252.093 90.9525 253.562 87.9607 251.759 84.1264 254.81 83.3704 258.131 86.3287 258.383 90.6053 258.636 94.8819 256.946 97.6548 252.138 100.273 257.941 99.8458 261.609 101.276 265.92 105.204 270.231 109.134 272.019 111.4 276.856 111.827 276.979 118.859 274.478 122.131 268.694 126.205 269.172 139.319 271.821 147.725 272.159 158.683 272.497 169.642 270.266 174.66 264.588 177.483 262.636 184.987 258.933 188.731 255.544 193.007 252.155 197.282 251.256 204.801 258.279 206.251 257.197 211.393 250.109 211.508 247.342 206.893 243.012 214.709 239.289 216.682 235.634 222.559 231.98 228.435 233.012 234.019 239.63 236.872 236.377 241.159 227.592 240.644 224.972 233.86 217.355 244.925 214.705 252.09 215.071 260.454 215.437 268.818 218.886 272.515 223.858 272.818 228.83 273.122 230.825 270.353 232.032 265.659 236.754 269.418 237.471 275.548 233.844 280.889 230.216 286.231 222.757 288.113 215.751 285.54 219.622 300.395 225.556 313.628 237.749 329.047 249.941 344.465 253.228 350.678 260.664 356.72 268.1 362.763 281.563 366.096 296.355 357.93 311.148 349.764 313.949 330.054 309.739 316.237 305.529 302.42 292.151 291.418 279.402 279.379 266.37 267.074 259.481 253.255 262.202 233.758 264.097 220.175 270.956 207.706 282.621 200.954 282.172 198.268 281.777 195.493 281.46 192.594 277.296 154.527 292.635 127.888 318.362 119.284 323.99 117.402 328.962 116.507 333.346 116.416 349.005 116.091 357.188 126.002 361.158 137.677 366.261 152.681 360.049 166.677 351.238 177.057 342.428 187.437 341.262 193.944 341.863 197.344 342.464 200.743 344.907 203.22 351.082 203.245 349.96 207.587 345.397 212.3 337.105 209.892 328.812 207.484 324.478 196.901 325.504 187.635 326.53 178.37 330.179 174.125 334.447 170.858 325.097 173.421 315.953 167.573 315.887 156.389 315.822 145.205 321.465 140.858 324.793 139.653 323.625 145.931 327.061 157.346 338.386 152.47 349.711 147.593 349.097 131.189 332.149 130.429 314.736 129.649 300.614 141.588 294.857 164.079 292.184 174.523 291.515 185.453 292.996 196.859 295.388 196.293 297.91 195.917 300.572 195.766 323.286 194.485 332.703 213.448 335.606 228.282 338.509 243.117 337.519 252.883 340.872 257.628 344.224 262.371 349.986 263.462 354.552 257.628 355.449 261.481 355.009 270.48 340.969 271.021 326.929 271.562 318.801 258.078 321.34 242.621 314.142 245.145 307.007 243.403 305.477 233.054 309.695 234.557 319.954 234.362 316.779 221.876 314.633 213.441 305.071 208.553 295.698 210.268 298.126 219.309 301.831 228.625 306.931 238.224 321.232 265.142 332.975 281.822 335.534 311.287 338.058 340.34 328.355 359.005 305.67 370.676 282.986 382.346 265.289 375.802 253.091 365.548 255.077 375.936 255.285 379.566 256.004 392.069 256.723 404.573 256.599 412.009 261.06 421.072 269.198 417.95 274.873 415.408 284.702 408.576 294.531 401.743 297.899 400.127 303.223 398.023 308.548 395.92 314.834 400.732 316.767 408.701 318.898 417.488 322.297 418.776 325.987 418.796 329.678 418.816 332.236 416.64 331.813 412.097 341.472 416.346 340.628 429.521 329.797 430.74 337.048 431.052 341.65 431.482 345.91 436.189 350.169 440.896 350.82 447.127 347.197 451.393 348.535 456.377 347.779 459.52 345.243 461.798 342.706 464.077 339.427 464.053 337.076 462.893 341.017 461.282 341.34 459.125 340.329 457.677 339.318 456.229 336.626 456.259 333.901 456.984 331.175 457.709 329.24 457.465 326.648 455.603 328.014 463.553 328.19 466.853 328.314 473.218 328.436 479.583 328.807 485.003 330.417 488.386 332.027 491.769 333.361 495.436 328.945 498.853 324.528 502.271 323.688 506.543 318.705 506.456 313.722 506.369 311.274 506.263 307.953 506.784 304.633 507.306 302.898 507.794 299.711 506.758 297.551 508.691 294.193 508.313 293.05 514.377 289.22 512.174 286.432 508.479 286.531 502.487 283.242 503.062 279.753 503.903 276.225 510.318 273.325 509.236 272.123 507.434 271.413 504.462 269.67 504.845 268.527 506.002 267.171 507.567 264.431 504.978 263.411 500.538 264.063 496.411 264.715 492.284 266.975 489.969 269.274 489.656 271.388 486.017 271.977 483.429 273.804 479.886 275.631 476.344 279.707 474.689 285.269 476.137 292.361 477.985 297.046 479.128 304.828 479.983 294.847 470.437 298.168 465.575 292.63 454.846 286.321 458.442 284.536 462.107 278.048 467.379 271.56 472.65 269.004 474.001 261.854 476.137 262.038 485.21 254.684 489.438 246.448 487.095 244.666 496.436 238.521 499.318 232.059 498.996 232.326 504.01 234.603 510.457 238.999 511.386 243.396 512.316 246.15 509.464 246.571 503.269 249.392 506.722 251.596 511.957 248.043 518.864 244.49 525.771 231.639 528.05 224.908 523.991 218.178 519.932 216.496 513.736 215.234 506.26 211.586 516.522 197.559 515.488 195.043 507.969 199.876 507.529 206.073 504.688 204.087 494.937 202.101 485.186 195.885 481.905 192.309 471.438 188.734 460.97 191.879 454.267 192.976 441.551 194.074 428.835 194.028 418.244 194.028 409.699 194.028 401.153 195.254 394.318 200.091 387.054 191.191 393.35 186.83 396.731 177.299 402.729 165.237 410.32 157.235 413.668 146.946 418.152 136.869 422.543 132.756 425.278 133.054 428.903 133.351 432.529 138.529 440.48 142.833 451.577 147.137 462.675 150.408 469.229 154.663 470.797 158.917 472.364 161.893 471.024 165.809 468.233 166.294 477.99 158.924 480.371 151.298 480.41 152.046 481.858 152.368 483.09 152.56 484.256 148.642 485.424 144.723 485.005 141.09 481.603 138.77 482.958 136.925 484.93 136.784 488.193 136.642 491.456 138.405 493.754 141.691 494.689 140.64 496.566 139.082 498.338 134.893 498.426 130.704 498.514 127.583 496.111 125.849 492.018 124.558 500.237 122.731 504.797 117.437 507.399 112.143 510.001 105.238 510.39 101.874 506.331 104.227 505.387 105.213 504.712 107.041 503.249 103.914 499.271 104.213 496.251 105.404 492.524 105.404 492.524 95.1433 494.011 90.5163 497.216 85.8897 500.42 87.1514 504.693 82.1041 506.188 77.0563 507.684 73.885 505.06 67.8022 506.829 61.785 508.58 57.8679 508.909 54.0194 504.604 50.3491 504.946 48.7282 506.582 46.1654 510.398 41.3366 507.968 40.7404 503.565 41.2155 499.628 37.5162 499.731 34.2396 500.27 30.7868 504.995 27.298 504.022 26.2776 501.48 25.5544 498.346L23.512 499.624C19.9899 495.125 18.1803 485.139 29.1269 481.069 33.2046 475.971 32.7956 472.234 38.9784 470.016 45.4118 467.708 58.6085 472.735 65.747 476.058 72.8854 479.381 72.8032 477.763 78.5366 473.339 83.4858 469.521 86.6803 466.88 95.7876 462.765 91.3974 453.233 84.3508 448.854 77.6874 438.112 67.3141 436.796 62.4645 434.487 58.7589 427.115 53.9258 425.977 51.4795 424.667 46.7235 419.687 41.9676 414.708 38.0131 414.562 35.181 416.431 32.3489 418.3 32.1492 421.619 33.216 424.485 23.0292 424.998 21.9881 413.431 27.3094 406.535 32.6307 399.639 40.504 397.924 48.5234 400.227 47.4853 395.265 47.5724 390.874 51.0474 386.769 54.5218 382.663 61.3528 382.496 62.4042 386.983 57.8312 387.799 57.2575 393.032 62.6146 394.246 67.9719 395.46 74.3036 392.517 84.0669 382.71 93.8301 372.903 101.976 366.683 112.88 359.851 123.784 353.02 128.233 352.375 137.487 352.588 146.741 352.802 160.189 353.534 175.764 354.938 191.341 356.342 200.2 357.06 211.518 357.715 209.983 347.648 206.399 339.525 192.97 329.552 179.54 319.58 168.341 321.071 159.041 321.071 149.742 321.071 145.348 320.004 140.682 315.716 136.016 311.428 133.499 309.345 127.934 306.028 126.894 314.084 124.056 321.796 112.95 321.185 107.34 325.923 97.5083 326.467 92.5495 319.262 83.9487 319.701 77.626 310.693 80.7719 301.103 83.9136 291.526 95.7962 293.176 94.8377 299.446 92.0431 298.993 88.3096 299.408 88.9743 304.735 89.6389 310.062 101.383 310.717 100.752 300.676 100.121 290.635 92.3391 288.926 89.1846 275.04 86.5061 280.121 80.8098 282.448 76.2852 278.601 81.922 275.307 81.6766 271.525 80.9119 267.065 74.0135 268.31 70.064 268.652 63.4581 269.406 56.8454 270.161 54.5062 270.314 53.1673 272.934 51.8284 275.555 52.9265 278.799 50.6841 282.934 48.4417 287.068 44.3746 288.091 40.5741 288.633 36.0642 298.105 20.7888 295.558 22.3742 285.579 25.5315 286.274 27.4479 285.604 29.2093 284.618 26.4148 280.02 28.8479 277.615 30.3661 275.005 27.5794 274.919 25.954 275.072 22.4795 276.5 19.0046 277.928 16.1722 277.202 14.5925 275.326 13.0129 273.448 12.4705 271.352 10.3863 269.023 7.65772 268.898 6.16527 269.399 5.27704 273.377-3.56816 268.618-0.0436188 259.14 7.15313 258.634 7.44595 251.176 11.1976 248.699 17.3889 248.992 12.4851 247.087 11.188 243.014 13.0501 237.869 10.9041 236.811 7.7831 236.015 4.21708 240.005-1.23348 228.287 11.2758 222.55 18.3082 224.837 19.9349 222.827 20.7252 221.888 22.8595 221.098 24.9937 220.309 27.1469 220.74 29.0343 221.847 28.6597 219.238 28.3183 216.736 28.1716 214.021 31.655 213.837 35.5578 214.761 38.093 220.127 40.6279 225.494 39.7338 228.429 41.524 235.45 44.749 238.26 47.2071 239.549 50.1816 243.78 53.1558 248.009 57.9147 245.441 65.6481 241.514 73.381 237.586 77.8428 236.075 83.1966 233.961 82.8326 230.436 83.1597 227.442 83.9943 224.068 76.7875 219.405 68.9369 214.92 60.641 209.791 51.8916 204.382 42.9539 198.428 40.1183 196.649 38.7007 195.759 37.6597 195.419 36.7314 195.472L35.6051 195.961 32.4355 201.429C29.4628 203.42 24.928 207.188 17.6654 208.854 6.94051 207.477 7.43474 205.421 4.49023 203.018 3.10134 200.948 0.456567 194.683 3.70367 190.421 5.82049 189.664 5.62122 192.276 7.60397 192.52 9.5872 192.76 11.2989 192.737 15.7953 192.032 20.6559 186.215 25.0417 176.185 25.0305 173.944 26.2534 165.917 25.5839 160.548 25.4447 156.8 26.215 156.011 26.514 156.17 26.4865 155.036 26.1849 152.886 26.1674 151.638 26.0832 150.866L25.4101 149.766 23.2877 150.544C22.4342 151.066 21.5836 151.799 20.7852 152.741 20.0694 151.07 19.6636 149.506 19.5392 148.067L19.6073 147.464 14.9825 147.16C12.9657 147.065 11.4944 146.823 11.2967 145.821 10.942 143.836 15.131 144.271 19.2082 143.923L20.249 143.726 21.9418 141.082 22.2502 140.888 21.184 137.91C20.6272 131.583 23.4187 123.088 23.6443 121.08 16.249 117.628 5.64613 111.774 4.51169 106.016 18.9742 110.992 30.647 109.748 34.8209 101.868 35.667 100.146 37.6465 95.5533 37.2906 87.9105 36.5819 85.1106 38.1959 74.8173 15.2503 57.0013 13.19 55.0491 5.67807 48.6244 3.94929 46.3897 4.81642 45.7369 7.41234 44.259 6.38539 39.5914 6.6937 36.7168 0.912062 27.2257 0.00250272 18.563-0.0344422 14.9446 0.329048 12.7684 0.849017 10.9656 1.47982 9.16291 4.17644 3.33253 9.21251 0Z" fill="#BF9000" fill-rule="evenodd" transform="matrix(-1 0 0 1 1363 370)"/><path d="M1931.57 1511.53C2045.62 1311.72 1940.82 963.897 1965.37 726.387 1988.08 506.783 2039.97 448.94 2039.97 448.94 1911.03 356.104 1677.2 284.986 1364.96 284.986 1052.73 284.986 818.9 356.104 689.965 448.94 689.965 448.94 741.864 506.783 764.569 726.387 789.128 963.897 684.323 1311.72 798.37 1511.53 918.49 1721.97 1271.34 1755.71 1364.96 1813.99 1458.59 1755.71 1811.44 1721.97 1931.57 1511.53Z" stroke="#FFFFFF" stroke-width="13.75" stroke-miterlimit="8" fill="none" fill-rule="evenodd"/></g></svg>