<svg width="1151" height="1368" xmlns="http://www.w3.org/2000/svg" xmlns:xlink="http://www.w3.org/1999/xlink" overflow="hidden"><defs><clipPath id="clip0"><rect x="13" y="327" width="1151" height="1368"/></clipPath></defs><g clip-path="url(#clip0)" transform="translate(-13 -327)"><path d="M511.8 1386.14 621.38 1401.75C628.067 1429.1 628.997 1460.81 681.413 1456.82L774.156 1458.92C792.837 1450.59 808.967 1451.02 812.042 1402.1 837.587 1395.71 875.252 1393.98 902.852 1384.45 902.553 1377.79 904.051 1380.94 906.991 1369.07 924.498 1367.69 964.827 1349.86 971.498 1354.19 974.451 1352.78 978.661 1331.72 981.365 1329.28 1036.95 1287.09 1083.38 1271.8 1146 1232L1131.94 1309.81 1143.99 1346.94 1136.79 1451.13C1100.72 1505.04 1056.33 1549.08 1038.8 1621.25L1015.18 1655.27C1023.77 1701.39 521.993 1708.44 481.403 1664.91 447.625 1647.4 415.481 1584.95 380.106 1563.62 377.846 1555.55 286.353 1507.3 294.94 1504.63 315.836 1498.14 294.706 1458.69 292 1463.14 322.076 1471.09 357.981 1484.18 391.411 1481.07 397.481 1480.52 402.456 1477.66 408.396 1476.05 423.22 1484.04 452.535 1473.42 467.068 1461.85 471.012 1462.52 479.737 1457.36 483.684 1452.16 497.258 1443.16 506.126 1405.88 511.8 1386.14Z" fill-rule="evenodd"/><path d="M511.8 1386.14 621.38 1401.75C628.067 1429.1 628.997 1460.81 681.413 1456.82L774.156 1458.92C792.837 1450.59 808.967 1451.02 812.042 1402.1 837.587 1395.71 875.252 1393.98 902.852 1384.45 902.553 1377.79 904.051 1380.94 906.991 1369.07 924.498 1367.69 964.827 1349.86 971.498 1354.19 974.451 1352.78 978.661 1331.72 981.365 1329.28 1036.95 1287.09 1083.38 1271.8 1146 1232L1131.94 1309.81 1143.99 1346.94 1136.79 1451.13C1100.72 1505.04 1056.33 1549.08 1038.8 1621.25L1015.18 1655.27C1023.77 1701.39 521.993 1708.44 481.403 1664.91 447.625 1647.4 415.481 1584.95 380.106 1563.62 377.846 1555.55 286.353 1507.3 294.94 1504.63 315.836 1498.14 294.706 1458.69 292 1463.14 322.076 1471.09 357.981 1484.18 391.411 1481.07 397.481 1480.52 402.456 1477.66 408.396 1476.05 423.22 1484.04 452.535 1473.42 467.068 1461.85 471.012 1462.52 479.737 1457.36 483.684 1452.16 497.258 1443.16 506.126 1405.88 511.8 1386.14Z" stroke="#000000" stroke-width="2.3375" stroke-linejoin="bevel" stroke-miterlimit="10" fill="none" fill-rule="evenodd"/><path d="M1136 1418C916.047 1547.47 692.985 1547.23 469.116 1481.96 409.274 1502.8 361.584 1515.89 304 1476.06" stroke="#010000" stroke-width="2.3375" stroke-linejoin="bevel" stroke-miterlimit="10" fill="none" fill-rule="evenodd"/><path d="M214.955 1454.83C213.593 1445.77 213.744 1437.86 215.055 1431L291.822 1463.64C292.532 1463.83 293.242 1464.02 293.959 1464.21 296.13 1466.29 299.292 1471.69 301.487 1477.94 302.935 1482.08 303.963 1486.58 303.999 1490.73 304.054 1497.22 301.699 1502.88 294.787 1505L293.841 1504.41C297.121 1502.6 298.824 1501.19 298.824 1501.19 294.195 1499.65 289.884 1499.17 285.781 1499.34L214.955 1454.83Z" fill="#AD873B" fill-rule="evenodd"/><path d="M1073 1541.86C869.325 1622.78 667.308 1632.83 467.179 1562.18L303.704 1491C303.757 1497.49 301.422 1503.15 294.569 1505.27 285.979 1507.92 377.5 1556.02 379.76 1564.07 415.175 1585.33 442.25 1638.7 472.692 1657.77 497.998 1715.81 1024.11 1692.83 1015.02 1655.43L1038.65 1621.52C1041.88 1608.27 1046.02 1595.97 1050.85 1584.39 1057.2 1569.15 1064.76 1555.16 1073 1541.86Z" stroke="#000000" stroke-width="2.3375" stroke-linejoin="bevel" stroke-miterlimit="10" fill="#95621F" fill-rule="evenodd"/><path d="M968.471 1492.28 968.27 1491.24 973.048 1490.85 982.548 1490.06 987.874 1517.25 973.591 1518.43 968.471 1492.28ZM310.93 1480.01C333.537 1486.65 353.321 1495.57 376.735 1501.57 355.311 1500.78 333.858 1494.58 310.93 1480.01ZM965.743 1381.65 863.733 1409.3 864.327 1393.21C862.343 1393.53 860.353 1393.84 858.365 1394.14 841.714 1396.68 825.227 1398.74 811.996 1402.04 810.962 1418.51 808.444 1429.38 804.85 1436.88 802.209 1442.39 798.99 1446.07 795.344 1448.82 789.817 1452.98 783.319 1454.97 776.397 1457.87L776.374 1458.05 775.965 1458.05C775.348 1458.31 774.731 1458.57 774.104 1458.85L767.708 1458.71 726.97 1457.79 720.538 1457.64 715.464 1457.52 702.361 1457.23 699.336 1457.16 693.062 1457.02 681.348 1456.75C680.544 1456.81 679.754 1456.87 678.974 1456.91 675.521 1457.11 672.298 1457.15 669.295 1457.03 665.248 1456.88 661.595 1456.45 658.288 1455.79 644.661 1453.06 636.922 1446.26 632.006 1437.53 630.018 1433.98 628.486 1430.13 627.224 1426.1L562.52 1418.64 558.905 1418.23 534.951 1415.46 530.497 1414.95 516.58 1413.35 504.317 1411.94C499.08 1428.89 492.308 1446.31 483.591 1452.09 479.644 1457.29 470.918 1462.45 466.973 1461.78 461.578 1466.07 454.14 1470.24 446.17 1473.36 432.666 1478.66 417.612 1480.99 408.293 1475.97 402.352 1477.59 397.376 1480.44 391.306 1480.99 358.654 1484.03 323.639 1471.62 294 1463.63 296.152 1465.72 299.287 1471.14 301.464 1477.41 302.899 1481.55 303.919 1486.07 303.955 1490.24L467.405 1561.62C667.502 1632.47 869.489 1622.39 1073.13 1541.24 1092.66 1509.65 1116.09 1481.97 1136.79 1451.06L1143.99 1346.91 1131.94 1309.78 1146 1232C1117.18 1250.31 1091.79 1263.43 1067.36 1276.37 1064.86 1277.69 1062.37 1279.02 1059.9 1280.34 1044.15 1288.74 1028.7 1297.29 1012.87 1307.35 1008.47 1310.14 1004.05 1313.05 999.573 1316.11L1001.28 1346.79 971.132 1363.03 965.743 1381.65ZM705.487 1483.64C705.661 1483.39 705.835 1483.13 706.003 1482.88 707.706 1482.94 709.238 1483.21 710.616 1483.68 720.967 1487.17 722.642 1501.65 722.927 1517.16L698.351 1518.65C691.297 1501.38 700.515 1490.85 705.487 1483.64ZM534.187 1466.64C548.68 1467.09 550.97 1478.51 551.288 1496.08L526.897 1492.73C519.589 1474.84 529.376 1473.87 534.187 1466.64ZM826.318 1480.04C840.815 1480.49 841.438 1494.19 841.759 1511.76L822.703 1513.74C815.398 1495.85 821.513 1487.27 826.318 1480.04ZM787.47 1482.72C801.964 1483.16 804.074 1499.42 804.394 1517L779.821 1518.49C772.512 1500.6 782.659 1489.94 787.47 1482.72ZM899.476 1469.44C913.969 1469.88 914.593 1483.58 918.154 1499.01L899.009 1503.4C891.703 1485.52 894.666 1476.66 899.476 1469.44ZM862.853 1475.95C877.345 1476.4 877.969 1490.1 881.533 1505.52L862.388 1509.92C855.083 1492.03 858.044 1483.18 862.853 1475.95ZM931.367 1462.51C945.861 1462.95 946.487 1476.66 950.048 1492.08L930.903 1496.47C923.598 1478.59 926.559 1469.73 931.367 1462.51ZM645.075 1483.63C659.568 1484.07 661.859 1495.49 662.179 1513.06L637.782 1509.71C630.477 1491.82 640.267 1490.85 645.075 1483.63ZM590.678 1478.87C605.171 1479.32 607.462 1490.74 607.78 1508.31L583.388 1504.96C576.083 1487.06 585.867 1486.1 590.678 1478.87ZM496.948 1532.62 492.203 1554.07 474.338 1545.22 478.906 1528.61 496.948 1532.62ZM829.765 1558.08 835.086 1585.27 820.809 1586.45 815.485 1559.26 829.765 1558.08ZM868.617 1555.41 873.94 1582.59 859.663 1583.77 854.337 1556.58 868.617 1555.41ZM954.61 1539.85 968.891 1538.66 974.214 1565.85 959.931 1567.03 954.61 1539.85ZM891.703 1551.35 905.984 1550.17 911.305 1577.36 897.027 1578.54 891.703 1551.35ZM922.719 1546.77 936.996 1545.59 942.32 1572.78 928.04 1573.96 922.719 1546.77ZM745.508 1483.91C760 1484.35 762.111 1500.62 762.432 1518.18L737.858 1519.68C730.552 1501.79 740.7 1491.13 745.508 1483.91ZM570.742 1547.58 568.878 1576.57 552.412 1572.69 555.763 1546.27 570.742 1547.58ZM632.884 1556.66 634.131 1587.13 619.899 1587.1 618.604 1557.84 632.884 1556.66ZM685.748 1560.06 688.707 1587.04 673.549 1590.57 671.469 1561.24 685.748 1560.06ZM740.28 1561.19 743.239 1588.16 728.08 1591.7 726 1562.37 740.28 1561.19ZM789.292 1561.83 794.613 1589.01 780.333 1590.19 775.012 1563.01 789.292 1561.83Z" stroke="#000000" stroke-width="2.3375" stroke-linejoin="bevel" stroke-miterlimit="10" fill="#95621F" fill-rule="evenodd"/><path d="M933.243 1377.54C923.294 1382.54 912.204 1386.88 901 1390.92L901.608 1407 1001.19 1359.65 1005.17 1340.12 1034 1318.12 1030.01 1288C1024.35 1293.23 1018.64 1298.74 1012.83 1304.6 1012.24 1305.28 1011.65 1306.98 1011.06 1309.21L1010.21 1324.5 1007.05 1326.25C1006.33 1328.82 1005.6 1330.72 1004.85 1331.24 1003.7 1330.74 1001.67 1331.04 999.01 1331.88 985.607 1336.14 956.152 1354.61 941.674 1358.6 939.631 1370.94 937.901 1368.12 938.695 1374.66 936.923 1375.65 935.103 1376.6 933.243 1377.54Z" stroke="#000000" stroke-width="2.3375" stroke-linejoin="bevel" stroke-miterlimit="10" fill="#996633" fill-rule="evenodd"/><path d="M916.172 1342.85 907.716 1348.89 901.571 1378.77 888.311 1383.55 881.067 1386.17 874.423 1388.57 868.173 1390.82 861.338 1393.28 855.471 1395.4 829.767 1404.67 826.436 1424.96 821.74 1423.3 820 1451 824.465 1450.11 845.365 1445.9C848.384 1437.73 850.076 1426.4 849.877 1409.79 862.784 1403.9 879.008 1398.62 895.371 1392.83L901.225 1390.73C912.4 1386.67 923.461 1382.32 933.384 1377.3 935.238 1376.36 937.054 1375.4 938.822 1374.41 938.029 1367.84 939.755 1370.67 941.792 1358.28 956.231 1354.27 985.608 1335.73 998.977 1331.46 1001.63 1330.61 1003.65 1330.32 1004.8 1330.82 1005.55 1330.3 1006.28 1328.39 1007 1325.81L1002.47 1328.34 1005.73 1279 967.082 1306.56 959.178 1312.19 938.458 1326.96C944.559 1334.16 950.929 1341.28 957.435 1348.29 944.636 1347.55 930.683 1345.53 916.172 1342.85Z" stroke="#000000" stroke-width="2.3375" stroke-linejoin="bevel" stroke-miterlimit="10" fill="#AD873B" fill-rule="evenodd"/><path d="M1029.75 1262.09 1012.9 1274.15 1012.87 1274.78 1011 1309C1011.59 1306.76 1012.18 1305.05 1012.76 1304.36 1018.54 1298.47 1024.23 1292.94 1029.86 1287.68 1034.06 1283.75 1038.24 1279.98 1042.39 1276.33 1057.33 1263.19 1072.01 1251.63 1087 1240.16L1086.73 1233C1075.53 1238.26 1064.65 1241.96 1054.26 1244.56L1046.31 1250.24 1029.75 1262.09Z" stroke="#000000" stroke-width="2.3375" stroke-linejoin="bevel" stroke-miterlimit="10" fill="#AD873B" fill-rule="evenodd"/><path d="M511.969 1071.82 470.644 1065.2 425.715 1058C301.376 1100.48 289.288 1164.66 308.074 1222.73 312.985 1237.91 320.01 1252.68 327.692 1266.54 341.829 1292.03 449.884 1351.84 465.909 1352.01 467.93 1352.03 468.485 1351.1 467.209 1349.04 466.993 1348.69 466.78 1348.35 466.567 1348 393.041 1229.18 435.207 1269 473.666 1281.68 474.813 1282.35 475.972 1283.03 477.134 1283.72 484.288 1287.96 491.703 1292.64 499.286 1297.71 503.363 1300.44 507.487 1303.27 511.648 1306.2 548.82 1332.41 588.659 1366.44 620.568 1400 618.851 1397.6 617.172 1395.2 615.525 1392.82 550.386 1298.43 538.033 1219.33 559.11 1166.31 565.75 1149.61 575.705 1135.5 588.374 1124.32 606.581 1108.24 630.388 1098.21 658.001 1095.23L583.928 1083.36 536.559 1075.76 524.362 1073.81 514.761 1072.27 511.969 1071.82Z" stroke="#000000" stroke-width="2.3375" stroke-linejoin="bevel" stroke-miterlimit="10" fill="#E3E4E5" fill-rule="evenodd"/><path d="M764.235 1094.95C741.837 1094.05 721.955 1093.67 707.454 1094.34 612.197 1202.71 612.063 1324.01 679.44 1379.35 681.264 1384.52 765.59 1402.7 781.545 1409 753.143 1392.38 722.05 1376.83 724.874 1347.68 730.928 1315.33 766.961 1313.78 812.087 1321.11 817.286 1321.96 822.605 1322.92 828.011 1323.96 836.681 1325.64 845.581 1327.54 854.577 1329.5 872.96 1333.53 891.743 1337.89 909.811 1341.39 911.896 1341.8 913.968 1342.18 916.031 1342.56 930.514 1345.23 944.44 1347.24 957.213 1347.98 950.721 1340.99 944.362 1333.91 938.274 1326.74 937.249 1325.53 936.235 1324.33 935.228 1323.12 931.91 1319.13 928.688 1315.12 925.576 1311.09 907.2 1287.25 892.864 1262.57 887.565 1237.24 882.145 1211.32 886.194 1184.75 905.079 1157.75 905.103 1157.71 905.13 1157.67 905.157 1157.64 910.284 1150.33 916.495 1142.98 923.904 1135.61 934.135 1125.44 946.644 1115.21 961.714 1104.95 962.283 1104.56 962.861 1104.17 963.436 1103.78 964.61 1103 965.797 1102.21 967 1101.42 963.49 1102.27 958.064 1102.77 951.118 1103.01 946.539 1103.17 941.298 1103.21 935.51 1103.15 931.374 1103.11 926.962 1103.03 922.312 1102.9 908.466 1102.52 892.516 1101.78 875.562 1100.88 864.754 1100.31 853.533 1099.67 842.194 1099.02 838.064 1098.79 833.919 1098.55 829.768 1098.32 807.28 1097.03 784.705 1095.77 764.235 1094.95Z" stroke="#000000" stroke-width="2.3375" stroke-linejoin="bevel" stroke-miterlimit="10" fill="#E3E4E5" fill-rule="evenodd"/><path d="M966.89 1101.27C968.382 1100.29 969.899 1099.31 971.439 1098.33 971.469 1099.59 969.871 1100.55 966.89 1101.27ZM923.767 1135.55C916.353 1142.93 910.138 1150.29 905.007 1157.62 905.007 1157.7 905.007 1157.79 905.004 1157.88 904.938 1165.97 905.696 1174.13 907.099 1182.24 914.627 1225.81 940.647 1267.79 956.006 1289.23 956.195 1289.5 956.383 1289.76 956.566 1290.02 960.324 1295.23 963.401 1299.15 965.341 1301.5 967.321 1303.89 968.124 1304.64 967.271 1303.43 966.225 1301.45 965.227 1299.53 964.283 1297.68 962.317 1293.83 960.579 1290.29 959.06 1287.02 952.26 1272.4 949.836 1263.35 951.073 1257.8 953.866 1245.29 975.317 1250.66 1007.25 1250.27 1008.08 1250.26 1008.91 1250.24 1009.76 1250.22 1010.35 1250.21 1010.94 1250.2 1011.53 1250.18 1012.29 1250.16 1013.04 1250.13 1013.81 1250.11 1018.57 1249.92 1023.53 1249.59 1028.67 1249.03 1031.48 1248.73 1034.35 1248.37 1037.27 1247.92 1040.08 1247.49 1042.94 1246.99 1045.85 1246.41 1048.49 1245.88 1051.18 1245.28 1053.89 1244.61 1064.3 1242.02 1075.19 1238.32 1086.41 1233.08 1094.26 1229.41 1102.28 1224.99 1110.41 1219.66 1101.66 1220.54 1093.77 1221.05 1086.7 1221.22 1086.45 1221.23 1086.21 1221.23 1085.96 1221.24 1083.3 1221.29 1080.75 1221.3 1078.32 1221.26 1075.81 1221.22 1073.42 1221.13 1071.14 1220.99 1064.24 1220.57 1058.4 1219.7 1053.55 1218.45 1008.53 1206.82 1046.8 1161.86 1085.08 1127.34 1106.69 1107.86 1128.31 1091.7 1134.94 1086.75 1135.21 1086.56 1135.45 1086.38 1135.66 1086.22 1136.49 1085.6 1136.96 1085.25 1137 1085.2L1098 1084.56 1071.34 1084.12 1022.97 1083.33 1018.31 1083.25 974.286 1082.53 944.819 1082.04 942.877 1082.01 942.359 1082C941.558 1082.63 940.77 1083.26 939.998 1083.9 933.422 1089.31 927.923 1095.08 923.375 1101.12 922.964 1101.67 922.565 1102.21 922.173 1102.76 926.827 1102.89 931.24 1102.97 935.38 1103.01 941.172 1103.07 946.416 1103.03 950.998 1102.87 957.948 1102.63 963.378 1102.12 966.89 1101.27 965.709 1102.05 964.546 1102.82 963.393 1103.59 963.369 1103.62 963.348 1103.63 963.324 1103.64 962.748 1104.03 962.17 1104.42 961.601 1104.81 946.521 1115.1 934.004 1125.35 923.767 1135.55Z" stroke="#000000" stroke-width="2.3375" stroke-linejoin="bevel" stroke-miterlimit="10" fill="#E3E4E5" fill-rule="evenodd"/><path d="M511.8 1386.16 621.38 1401.76C628.067 1429.12 628.997 1460.83 681.413 1456.84L774.156 1458.94C792.837 1450.61 808.967 1451.04 812.042 1402.11 837.587 1395.72 875.252 1394 902.852 1384.46 902.553 1377.81 904.051 1380.95 906.991 1369.09 924.498 1367.71 964.827 1349.87 971.498 1354.2 974.451 1352.79 978.661 1331.72 981.365 1329.29 1036.95 1287.09 1083.38 1271.81 1146 1232L1131.94 1309.82 1143.99 1346.95 1136.79 1451.14C1100.72 1505.06 1056.33 1549.11 1038.8 1621.29L1015.18 1655.31C1024.27 1692.82 498.31 1715.89 473.011 1657.65 437.309 1635.97 415.479 1584.98 380.106 1563.65 377.843 1555.58 286.353 1507.32 294.94 1504.66 315.836 1498.17 294.706 1458.71 292 1463.16 322.076 1471.11 357.981 1484.2 391.411 1481.09 397.481 1480.54 402.456 1477.68 408.396 1476.07 423.22 1484.06 452.535 1473.44 467.068 1461.87 471.012 1462.54 479.737 1457.38 483.684 1452.17 497.258 1443.17 506.126 1405.89 511.8 1386.16Z" stroke="#000000" stroke-width="2.3375" stroke-linejoin="bevel" stroke-miterlimit="10" fill="none" fill-rule="evenodd"/><path d="M673 1480 845.464 1445.38 847.001 1444" stroke="#000000" stroke-width="2.3375" stroke-linejoin="bevel" stroke-miterlimit="10" fill="none" fill-rule="evenodd"/><path d="M826 1425 833.793 1377.74 905.804 1354.11 917.107 1317.62 1085.27 1196 1087 1242.03" stroke="#000000" stroke-width="2.3375" stroke-linejoin="bevel" stroke-miterlimit="10" fill="none" fill-rule="evenodd"/><path d="M1139 1378C931.916 1476.55 704.617 1520.18 489 1448.52" stroke="#000000" stroke-width="2.3375" stroke-linejoin="bevel" stroke-miterlimit="10" fill="none" fill-rule="evenodd"/><path d="M1133 1455C788.174 1652.77 537.893 1486.79 464.214 1505.96 381.999 1517.31 349.128 1488.78 296 1476.62" stroke="#000000" stroke-width="2.3375" stroke-linejoin="bevel" stroke-miterlimit="10" fill="none" fill-rule="evenodd"/><path d="M1080 1539.08C874.07 1622.08 669.827 1633.06 467.521 1561.92L304 1491" stroke="#000000" stroke-width="2.3375" stroke-linejoin="bevel" stroke-miterlimit="10" fill="none" fill-rule="evenodd"/><path d="M1052 1583.89C851.077 1658.1 653.172 1651.14 457.5 1584.18L299 1504" stroke="#000000" stroke-width="2.3375" stroke-linejoin="bevel" stroke-miterlimit="10" fill="none" fill-rule="evenodd"/><path d="M930.484 1497 950 1492.6C946.37 1477.16 945.731 1463.44 930.957 1463 926.056 1470.23 923.037 1479.09 930.484 1497Z" stroke="#000000" stroke-width="2.3375" stroke-linejoin="bevel" stroke-miterlimit="10" fill-rule="evenodd"/><path d="M899.296 1504 918.001 1499.6C914.522 1484.16 913.913 1470.44 899.754 1470 895.053 1477.23 892.16 1486.09 899.296 1504Z" stroke="#000000" stroke-width="2.3375" stroke-linejoin="bevel" stroke-miterlimit="10" fill-rule="evenodd"/><path d="M862.297 1510 881 1505.6C877.519 1490.16 876.909 1476.45 862.75 1476 858.054 1483.24 855.161 1492.1 862.297 1510Z" stroke="#FF0000" stroke-width="2.3375" stroke-linejoin="bevel" stroke-miterlimit="10" fill="none" fill-rule="evenodd"/><path d="M862.297 1510 881 1505.6C877.519 1490.16 876.909 1476.45 862.75 1476 858.054 1483.24 855.161 1492.1 862.297 1510Z" stroke="#000000" stroke-width="2.3375" stroke-linejoin="bevel" stroke-miterlimit="10" fill-rule="evenodd"/><path d="M822.463 1514 842.001 1512C841.672 1494.27 841.032 1480.45 826.17 1480 821.243 1487.29 814.973 1495.95 822.463 1514Z" stroke="#FF0000" stroke-width="2.3375" stroke-linejoin="bevel" stroke-miterlimit="10" fill="none" fill-rule="evenodd"/><path d="M822.463 1514 842.001 1512C841.672 1494.27 841.032 1480.45 826.17 1480 821.243 1487.29 814.973 1495.95 822.463 1514Z" stroke="#000000" stroke-width="2.3375" stroke-linejoin="bevel" stroke-miterlimit="10" fill-rule="evenodd"/><path d="M779.551 1519 804.001 1517.5C803.681 1499.81 801.582 1483.44 787.162 1483 782.376 1490.27 772.281 1501 779.551 1519Z" stroke="#000000" stroke-width="2.3375" stroke-linejoin="bevel" stroke-miterlimit="10" fill-rule="evenodd"/><path d="M737.549 1520 762 1518.49C761.681 1500.81 759.581 1484.45 745.161 1484 740.378 1491.27 730.281 1502 737.549 1520Z" stroke="#000000" stroke-width="2.3375" stroke-linejoin="bevel" stroke-miterlimit="10" fill-rule="evenodd"/><path d="M698.549 1519 723 1517.49C722.678 1499.81 720.578 1483.45 706.163 1483 701.376 1490.27 691.282 1500.99 698.549 1519Z" stroke="#020000" stroke-width="2.3375" stroke-linejoin="bevel" stroke-miterlimit="10" fill-rule="evenodd"/><path d="M637.618 1509.71 662.001 1513C661.68 1495.69 659.391 1484.44 644.906 1484 640.102 1491.12 630.318 1492.07 637.618 1509.71Z" stroke="#020000" stroke-width="2.3375" stroke-linejoin="bevel" stroke-miterlimit="10" fill-rule="evenodd"/><path d="M583.62 1505.59 608 1509C607.683 1491.09 605.394 1479.45 590.906 1479 586.098 1486.36 576.318 1487.35 583.62 1505.59Z" stroke="#020000" stroke-width="2.3375" stroke-linejoin="bevel" stroke-miterlimit="10" fill-rule="evenodd"/><path d="M526.62 1492.7 551.001 1496C550.684 1478.69 548.394 1467.44 533.907 1467 529.098 1474.12 519.316 1475.07 526.62 1492.7Z" stroke="#000000" stroke-width="2.3375" stroke-linejoin="bevel" stroke-miterlimit="10" fill-rule="evenodd"/><path d="M928.158 1574 923 1547.19 936.84 1546 942.001 1572.83Z" stroke="#010000" stroke-width="2.3375" stroke-linejoin="bevel" stroke-miterlimit="10" fill-rule="evenodd"/><path d="M897.161 1579 892 1552.17 905.843 1551 911.001 1577.81Z" stroke="#000000" stroke-width="2.3375" stroke-linejoin="bevel" stroke-miterlimit="10" fill-rule="evenodd"/><path d="M960.157 1567 955 1540.17 968.84 1539 974 1565.83Z" stroke="#000000" stroke-width="2.3375" stroke-linejoin="bevel" stroke-miterlimit="10" fill-rule="evenodd"/><path d="M859.434 1584 854 1557.17 868.569 1556 874 1582.81Z" stroke="#000000" stroke-width="2.3375" stroke-linejoin="bevel" stroke-miterlimit="10" fill-rule="evenodd"/><path d="M820.432 1587 815 1559.21 829.571 1558 835.001 1585.79Z" stroke="#000000" stroke-width="2.3375" stroke-linejoin="bevel" stroke-miterlimit="10" fill-rule="evenodd"/><path d="M780.158 1591 775 1563.16 788.843 1562 794.001 1589.77Z" stroke="#000000" stroke-width="2.3375" stroke-linejoin="bevel" stroke-miterlimit="10" fill-rule="evenodd"/><path d="M728.051 1592 726 1563.16 740.083 1562 743 1588.54Z" stroke="#000000" stroke-width="2.3375" stroke-linejoin="bevel" stroke-miterlimit="10" fill-rule="evenodd"/><path d="M673.172 1591 671 1561.2 685.91 1560 689 1587.4Z" stroke="#000000" stroke-width="2.3375" stroke-linejoin="bevel" stroke-miterlimit="10" fill-rule="evenodd"/><path d="M619.335 1587.95 618 1558.2 632.715 1557 634 1588Z" stroke="#000000" stroke-width="2.3375" stroke-linejoin="bevel" stroke-miterlimit="10" fill-rule="evenodd"/><path d="M552 1573.19 555.474 1547 571.001 1548.32 569.068 1577Z" stroke="#000000" stroke-width="2.3375" stroke-linejoin="bevel" stroke-miterlimit="10" fill-rule="evenodd"/><path d="M474 1545.3 478.647 1529 497 1532.94 492.173 1554Z" stroke="#000000" stroke-width="2.3375" stroke-linejoin="bevel" stroke-miterlimit="10" fill-rule="evenodd"/><path d="M973.428 1519 968 1491.21 982.566 1490 988 1517.79Z" stroke="#000000" stroke-width="2.3375" stroke-linejoin="bevel" stroke-miterlimit="10" fill-rule="evenodd"/><path d="M504 1412 627 1427" stroke="#000000" stroke-width="2.3375" stroke-linejoin="bevel" stroke-miterlimit="10" fill="none" fill-rule="evenodd"/><path d="M518.001 1388 516 1414" stroke="#000000" stroke-width="2.3375" stroke-linejoin="bevel" stroke-miterlimit="10" fill="none" fill-rule="evenodd"/><path d="M525 1389 524 1413" stroke="#000000" stroke-width="2.3375" stroke-linejoin="bevel" stroke-miterlimit="10" fill="none" fill-rule="evenodd"/><path d="M531 1391 530 1415" stroke="#000000" stroke-width="2.3375" stroke-linejoin="bevel" stroke-miterlimit="10" fill="none" fill-rule="evenodd"/><path d="M539.001 1391 538 1415" stroke="#000000" stroke-width="2.3375" stroke-linejoin="bevel" stroke-miterlimit="10" fill="none" fill-rule="evenodd"/><path d="M547 1392 546 1416" stroke="#000000" stroke-width="2.3375" stroke-linejoin="bevel" stroke-miterlimit="10" fill="none" fill-rule="evenodd"/><path d="M556 1393 554 1418" stroke="#000000" stroke-width="2.3375" stroke-linejoin="bevel" stroke-miterlimit="10" fill="none" fill-rule="evenodd"/><path d="M563.001 1395 562 1419" stroke="#000000" stroke-width="2.3375" stroke-linejoin="bevel" stroke-miterlimit="10" fill="none" fill-rule="evenodd"/><path d="M572 1395 571 1419" stroke="#000000" stroke-width="2.3375" stroke-linejoin="bevel" stroke-miterlimit="10" fill="none" fill-rule="evenodd"/><path d="M580.001 1397 579 1421" stroke="#000000" stroke-width="2.3375" stroke-linejoin="bevel" stroke-miterlimit="10" fill="none" fill-rule="evenodd"/><path d="M589.002 1397 588 1421" stroke="#000000" stroke-width="2.3375" stroke-linejoin="bevel" stroke-miterlimit="10" fill="none" fill-rule="evenodd"/><path d="M635 1448 636 1472" stroke="#000000" stroke-width="2.3375" stroke-linejoin="bevel" stroke-miterlimit="10" fill="none" fill-rule="evenodd"/><path d="M642 1448 643.001 1470" stroke="#000000" stroke-width="2.3375" stroke-linejoin="bevel" stroke-miterlimit="10" fill="none" fill-rule="evenodd"/><path d="M648 1447 649.001 1471" stroke="#000000" stroke-width="2.3375" stroke-linejoin="bevel" stroke-miterlimit="10" fill="none" fill-rule="evenodd"/><path d="M654 1447 655.013 1471" stroke="#000000" stroke-width="2.3375" stroke-linejoin="bevel" stroke-miterlimit="10" fill="none" fill-rule="evenodd"/><path d="M658 1447 659 1470" stroke="#000000" stroke-width="2.3375" stroke-linejoin="bevel" stroke-miterlimit="10" fill="none" fill-rule="evenodd"/><path d="M513 1388 512 1413" stroke="#000000" stroke-width="2.3375" stroke-linejoin="bevel" stroke-miterlimit="10" fill="none" fill-rule="evenodd"/><path d="M522.002 1390 521 1413" stroke="#000000" stroke-width="2.3375" stroke-linejoin="bevel" stroke-miterlimit="10" fill="none" fill-rule="evenodd"/><path d="M529 1390 528 1415" stroke="#000000" stroke-width="2.3375" stroke-linejoin="bevel" stroke-miterlimit="10" fill="none" fill-rule="evenodd"/><path d="M536.001 1391 535 1416" stroke="#000000" stroke-width="2.3375" stroke-linejoin="bevel" stroke-miterlimit="10" fill="none" fill-rule="evenodd"/><path d="M544 1391 542 1416" stroke="#000000" stroke-width="2.3375" stroke-linejoin="bevel" stroke-miterlimit="10" fill="none" fill-rule="evenodd"/><path d="M551.001 1392 550 1417" stroke="#000000" stroke-width="2.3375" stroke-linejoin="bevel" stroke-miterlimit="10" fill="none" fill-rule="evenodd"/><path d="M560 1394 559 1419" stroke="#000000" stroke-width="2.3375" stroke-linejoin="bevel" stroke-miterlimit="10" fill="none" fill-rule="evenodd"/><path d="M568 1394 567 1419" stroke="#000000" stroke-width="2.3375" stroke-linejoin="bevel" stroke-miterlimit="10" fill="none" fill-rule="evenodd"/><path d="M576.001 1395 574 1419" stroke="#000000" stroke-width="2.3375" stroke-linejoin="bevel" stroke-miterlimit="10" fill="none" fill-rule="evenodd"/><path d="M584.001 1396 583 1420" stroke="#000000" stroke-width="2.3375" stroke-linejoin="bevel" stroke-miterlimit="10" fill="none" fill-rule="evenodd"/><path d="M630 1447 631 1472" stroke="#000000" stroke-width="2.3375" stroke-linejoin="bevel" stroke-miterlimit="10" fill="none" fill-rule="evenodd"/><path d="M645 1447 646 1471" stroke="#000000" stroke-width="2.3375" stroke-linejoin="bevel" stroke-miterlimit="10" fill="none" fill-rule="evenodd"/><path d="M651 1446 652.001 1469" stroke="#000000" stroke-width="2.3375" stroke-linejoin="bevel" stroke-miterlimit="10" fill="none" fill-rule="evenodd"/><path d="M692 1477 701.001 1493" stroke="#000000" stroke-width="2.3375" stroke-linejoin="bevel" stroke-miterlimit="10" fill="none" fill-rule="evenodd"/><path d="M702 1475 712.001 1492" stroke="#000000" stroke-width="2.3375" stroke-linejoin="bevel" stroke-miterlimit="10" fill="none" fill-rule="evenodd"/><path d="M712 1472 722 1490" stroke="#000000" stroke-width="2.3375" stroke-linejoin="bevel" stroke-miterlimit="10" fill="none" fill-rule="evenodd"/><path d="M721 1471 730 1488" stroke="#000000" stroke-width="2.3375" stroke-linejoin="bevel" stroke-miterlimit="10" fill="none" fill-rule="evenodd"/><path d="M731 1469 742.001 1487" stroke="#000000" stroke-width="2.3375" stroke-linejoin="bevel" stroke-miterlimit="10" fill="none" fill-rule="evenodd"/><path d="M741 1468 749.001 1485" stroke="#000000" stroke-width="2.3375" stroke-linejoin="bevel" stroke-miterlimit="10" fill="none" fill-rule="evenodd"/><path d="M748 1466 758.001 1484" stroke="#000000" stroke-width="2.3375" stroke-linejoin="bevel" stroke-miterlimit="10" fill="none" fill-rule="evenodd"/><path d="M758 1464 770.001 1482" stroke="#000000" stroke-width="2.3375" stroke-linejoin="bevel" stroke-miterlimit="10" fill="none" fill-rule="evenodd"/><path d="M767 1462 777 1478" stroke="#000000" stroke-width="2.3375" stroke-linejoin="bevel" stroke-miterlimit="10" fill="none" fill-rule="evenodd"/><path d="M776 1459 788.001 1477" stroke="#000000" stroke-width="2.3375" stroke-linejoin="bevel" stroke-miterlimit="10" fill="none" fill-rule="evenodd"/><path d="M787 1457 798.001 1475" stroke="#000000" stroke-width="2.3375" stroke-linejoin="bevel" stroke-miterlimit="10" fill="none" fill-rule="evenodd"/><path d="M799 1456C799.432 1457.14 811.001 1476 811.001 1476" stroke="#000000" stroke-width="2.3375" stroke-linejoin="bevel" stroke-miterlimit="10" fill="none" fill-rule="evenodd"/><path d="M818 1451 827 1465" stroke="#000000" stroke-width="2.3375" stroke-linejoin="bevel" stroke-miterlimit="10" fill="none" fill-rule="evenodd"/><path d="M830 1450 837 1461" stroke="#000000" stroke-width="2.3375" stroke-linejoin="bevel" stroke-miterlimit="10" fill="none" fill-rule="evenodd"/><path d="M686 1478 693 1491" stroke="#000000" stroke-width="2.3375" stroke-linejoin="bevel" stroke-miterlimit="10" fill="none" fill-rule="evenodd"/><path d="M698 1475C698.452 1476.19 706.001 1492 706.001 1492" stroke="#000000" stroke-width="2.3375" stroke-linejoin="bevel" stroke-miterlimit="10" fill="none" fill-rule="evenodd"/><path d="M708 1474 717 1491" stroke="#000000" stroke-width="2.3375" stroke-linejoin="bevel" stroke-miterlimit="10" fill="none" fill-rule="evenodd"/><path d="M717 1471 726.001 1488" stroke="#000000" stroke-width="2.3375" stroke-linejoin="bevel" stroke-miterlimit="10" fill="none" fill-rule="evenodd"/><path d="M727 1469 736.001 1489" stroke="#000000" stroke-width="2.3375" stroke-linejoin="bevel" stroke-miterlimit="10" fill="none" fill-rule="evenodd"/><path d="M736 1468 745 1487" stroke="#000000" stroke-width="2.3375" stroke-linejoin="bevel" stroke-miterlimit="10" fill="none" fill-rule="evenodd"/><path d="M745 1465 754 1483" stroke="#000000" stroke-width="2.3375" stroke-linejoin="bevel" stroke-miterlimit="10" fill="none" fill-rule="evenodd"/><path d="M754 1464 763.001 1483" stroke="#000000" stroke-width="2.3375" stroke-linejoin="bevel" stroke-miterlimit="10" fill="none" fill-rule="evenodd"/><path d="M763 1463C764.008 1464.42 773.001 1481 773.001 1481" stroke="#000000" stroke-width="2.3375" stroke-linejoin="bevel" stroke-miterlimit="10" fill="none" fill-rule="evenodd"/><path d="M772 1460 781 1478" stroke="#000000" stroke-width="2.3375" stroke-linejoin="bevel" stroke-miterlimit="10" fill="none" fill-rule="evenodd"/><path d="M782 1458 792.001 1477" stroke="#000000" stroke-width="2.3375" stroke-linejoin="bevel" stroke-miterlimit="10" fill="none" fill-rule="evenodd"/><path d="M793 1456 802 1474" stroke="#000000" stroke-width="2.3375" stroke-linejoin="bevel" stroke-miterlimit="10" fill="none" fill-rule="evenodd"/><path d="M804 1454 815 1472" stroke="#000000" stroke-width="2.3375" stroke-linejoin="bevel" stroke-miterlimit="10" fill="none" fill-rule="evenodd"/><path d="M811 1453C812.006 1453.2 821.001 1469 821.001 1469" stroke="#000000" stroke-width="2.3375" stroke-linejoin="bevel" stroke-miterlimit="10" fill="none" fill-rule="evenodd"/><path d="M824 1449 831.001 1463" stroke="#000000" stroke-width="2.3375" stroke-linejoin="bevel" stroke-miterlimit="10" fill="none" fill-rule="evenodd"/><path d="M852 1431 1001.11 1359.72 1005.08 1340.14 1163 1219" stroke="#000000" stroke-width="2.3375" stroke-linejoin="bevel" stroke-miterlimit="10" fill="none" fill-rule="evenodd"/><path d="M858 1408 861.001 1425" stroke="#000000" stroke-width="2.3375" stroke-linejoin="bevel" stroke-miterlimit="10" fill="none" fill-rule="evenodd"/><path d="M864 1406 866 1424" stroke="#000000" stroke-width="2.3375" stroke-linejoin="bevel" stroke-miterlimit="10" fill="none" fill-rule="evenodd"/><path d="M870 1403 871 1420" stroke="#000000" stroke-width="2.3375" stroke-linejoin="bevel" stroke-miterlimit="10" fill="none" fill-rule="evenodd"/><path d="M876 1400 877 1417" stroke="#000000" stroke-width="2.3375" stroke-linejoin="bevel" stroke-miterlimit="10" fill="none" fill-rule="evenodd"/><path d="M883 1398 884.001 1414" stroke="#000000" stroke-width="2.3375" stroke-linejoin="bevel" stroke-miterlimit="10" fill="none" fill-rule="evenodd"/><path d="M889 1395 890 1412" stroke="#000000" stroke-width="2.3375" stroke-linejoin="bevel" stroke-miterlimit="10" fill="none" fill-rule="evenodd"/><path d="M895 1393 896.001 1409" stroke="#000000" stroke-width="2.3375" stroke-linejoin="bevel" stroke-miterlimit="10" fill="none" fill-rule="evenodd"/><path d="M901 1390 902 1407" stroke="#000000" stroke-width="2.3375" stroke-linejoin="bevel" stroke-miterlimit="10" fill="none" fill-rule="evenodd"/><path d="M907 1389 908 1403" stroke="#000000" stroke-width="2.3375" stroke-linejoin="bevel" stroke-miterlimit="10" fill="none" fill-rule="evenodd"/><path d="M912 1387 913.001 1401" stroke="#000000" stroke-width="2.3375" stroke-linejoin="bevel" stroke-miterlimit="10" fill="none" fill-rule="evenodd"/><path d="M918 1385 919.007 1398" stroke="#000000" stroke-width="2.3375" stroke-linejoin="bevel" stroke-miterlimit="10" fill="none" fill-rule="evenodd"/><path d="M923 1383 924 1395" stroke="#000000" stroke-width="2.3375" stroke-linejoin="bevel" stroke-miterlimit="10" fill="none" fill-rule="evenodd"/><path d="M928 1380 929 1392" stroke="#000000" stroke-width="2.3375" stroke-linejoin="bevel" stroke-miterlimit="10" fill="none" fill-rule="evenodd"/><path d="M933 1377 934.002 1391" stroke="#000000" stroke-width="2.3375" stroke-linejoin="bevel" stroke-miterlimit="10" fill="none" fill-rule="evenodd"/><path d="M938 1376 939 1387" stroke="#000000" stroke-width="2.3375" stroke-linejoin="bevel" stroke-miterlimit="10" fill="none" fill-rule="evenodd"/><path d="M945 1359 946 1385" stroke="#000000" stroke-width="2.3375" stroke-linejoin="bevel" stroke-miterlimit="10" fill="none" fill-rule="evenodd"/><path d="M951 1356 952.001 1381" stroke="#000000" stroke-width="2.3375" stroke-linejoin="bevel" stroke-miterlimit="10" fill="none" fill-rule="evenodd"/><path d="M958.001 1378C957.946 1376.77 956 1353 956 1353" stroke="#000000" stroke-width="2.3375" stroke-linejoin="bevel" stroke-miterlimit="10" fill="none" fill-rule="evenodd"/><path d="M964 1349 965 1375" stroke="#000000" stroke-width="2.3375" stroke-linejoin="bevel" stroke-miterlimit="10" fill="none" fill-rule="evenodd"/><path d="M969 1346 970.002 1372" stroke="#000000" stroke-width="2.3375" stroke-linejoin="bevel" stroke-miterlimit="10" fill="none" fill-rule="evenodd"/><path d="M976 1344 977.001 1369" stroke="#000000" stroke-width="2.3375" stroke-linejoin="bevel" stroke-miterlimit="10" fill="none" fill-rule="evenodd"/><path d="M980 1342 982.001 1366" stroke="#000000" stroke-width="2.3375" stroke-linejoin="bevel" stroke-miterlimit="10" fill="none" fill-rule="evenodd"/><path d="M987.001 1364 986 1338" stroke="#000000" stroke-width="2.3375" stroke-linejoin="bevel" stroke-miterlimit="10" fill="none" fill-rule="evenodd"/><path d="M992 1335 993.001 1361" stroke="#000000" stroke-width="2.3375" stroke-linejoin="bevel" stroke-miterlimit="10" fill="none" fill-rule="evenodd"/><path d="M999 1331 1000 1358" stroke="#000000" stroke-width="2.3375" stroke-linejoin="bevel" stroke-miterlimit="10" fill="none" fill-rule="evenodd"/><path d="M1007 1331 1008 1337" stroke="#000000" stroke-width="2.3375" stroke-linejoin="bevel" stroke-miterlimit="10" fill="none" fill-rule="evenodd"/><path d="M1014 1305 1017 1329" stroke="#000000" stroke-width="2.3375" stroke-linejoin="bevel" stroke-miterlimit="10" fill="none" fill-rule="evenodd"/><path d="M1019 1299 1022 1326" stroke="#000000" stroke-width="2.3375" stroke-linejoin="bevel" stroke-miterlimit="10" fill="none" fill-rule="evenodd"/><path d="M1024 1293 1027 1322" stroke="#000000" stroke-width="2.3375" stroke-linejoin="bevel" stroke-miterlimit="10" fill="none" fill-rule="evenodd"/><path d="M1029 1286 1034 1318" stroke="#000000" stroke-width="2.3375" stroke-linejoin="bevel" stroke-miterlimit="10" fill="none" fill-rule="evenodd"/><path d="M1037 1284 1040 1311" stroke="#000000" stroke-width="2.3375" stroke-linejoin="bevel" stroke-miterlimit="10" fill="none" fill-rule="evenodd"/><path d="M1042 1276 1046 1307" stroke="#000000" stroke-width="2.3375" stroke-linejoin="bevel" stroke-miterlimit="10" fill="none" fill-rule="evenodd"/><path d="M1049 1272 1052 1299" stroke="#000000" stroke-width="2.3375" stroke-linejoin="bevel" stroke-miterlimit="10" fill="none" fill-rule="evenodd"/><path d="M1055 1267 1059 1298" stroke="#000000" stroke-width="2.3375" stroke-linejoin="bevel" stroke-miterlimit="10" fill="none" fill-rule="evenodd"/><path d="M1064 1261 1067 1293" stroke="#000000" stroke-width="2.3375" stroke-linejoin="bevel" stroke-miterlimit="10" fill="none" fill-rule="evenodd"/><path d="M1071 1255 1074 1285" stroke="#000000" stroke-width="2.3375" stroke-linejoin="bevel" stroke-miterlimit="10" fill="none" fill-rule="evenodd"/><path d="M1078 1248 1081 1279" stroke="#000000" stroke-width="2.3375" stroke-linejoin="bevel" stroke-miterlimit="10" fill="none" fill-rule="evenodd"/><path d="M1084 1243 1086 1276" stroke="#000000" stroke-width="2.3375" stroke-linejoin="bevel" stroke-miterlimit="10" fill="none" fill-rule="evenodd"/><path d="M1094 1235C1094.33 1246 1094.54 1252.15 1095 1268" stroke="#000000" stroke-width="2.3375" stroke-linejoin="bevel" stroke-miterlimit="10" fill="none" fill-rule="evenodd"/><path d="M1089 1240 1090 1274" stroke="#000000" stroke-width="2.3375" stroke-linejoin="bevel" stroke-miterlimit="10" fill="none" fill-rule="evenodd"/><path d="M1102 1232 1104 1260" stroke="#000000" stroke-width="2.3375" stroke-linejoin="bevel" stroke-miterlimit="10" fill="none" fill-rule="evenodd"/><path d="M1109 1226 1111 1256" stroke="#000000" stroke-width="2.3375" stroke-linejoin="bevel" stroke-miterlimit="10" fill="none" fill-rule="evenodd"/><path d="M1115 1219 1118 1253" stroke="#000000" stroke-width="2.3375" stroke-linejoin="bevel" stroke-miterlimit="10" fill="none" fill-rule="evenodd"/><path d="M1124 1213 1125 1244" stroke="#000000" stroke-width="2.3375" stroke-linejoin="bevel" stroke-miterlimit="10" fill="none" fill-rule="evenodd"/><path d="M1132 1208 1133 1241" stroke="#000000" stroke-width="2.3375" stroke-linejoin="bevel" stroke-miterlimit="10" fill="none" fill-rule="evenodd"/><path d="M1139 1201 1140.01 1237" stroke="#000000" stroke-width="2.3375" stroke-linejoin="bevel" stroke-miterlimit="10" fill="none" fill-rule="evenodd"/><path d="M1145 1195 1146 1230" stroke="#000000" stroke-width="2.3375" stroke-linejoin="bevel" stroke-miterlimit="10" fill="none" fill-rule="evenodd"/><path d="M1153 1191 1152 1225" stroke="#000000" stroke-width="2.3375" stroke-linejoin="bevel" stroke-miterlimit="10" fill="none" fill-rule="evenodd"/><path d="M1160 1184 1157 1221" stroke="#000000" stroke-width="2.3375" stroke-linejoin="bevel" stroke-miterlimit="10" fill="none" fill-rule="evenodd"/><path d="M830 1405 900.93 1379.01 907.001 1349" stroke="#000000" stroke-width="2.3375" stroke-linejoin="bevel" stroke-miterlimit="10" fill="none" fill-rule="evenodd"/><path d="M842 1377 841 1400" stroke="#000000" stroke-width="2.3375" stroke-linejoin="bevel" stroke-miterlimit="10" fill="none" fill-rule="evenodd"/><path d="M847 1376 848 1398" stroke="#000000" stroke-width="2.3375" stroke-linejoin="bevel" stroke-miterlimit="10" fill="none" fill-rule="evenodd"/><path d="M854 1372 855 1396" stroke="#000000" stroke-width="2.3375" stroke-linejoin="bevel" stroke-miterlimit="10" fill="none" fill-rule="evenodd"/><path d="M860 1369 861.001 1393" stroke="#000000" stroke-width="2.3375" stroke-linejoin="bevel" stroke-miterlimit="10" fill="none" fill-rule="evenodd"/><path d="M867 1366 868.001 1392" stroke="#000000" stroke-width="2.3375" stroke-linejoin="bevel" stroke-miterlimit="10" fill="none" fill-rule="evenodd"/><path d="M874 1365 875.001 1389" stroke="#000000" stroke-width="2.3375" stroke-linejoin="bevel" stroke-miterlimit="10" fill="none" fill-rule="evenodd"/><path d="M881 1363 882 1386" stroke="#000000" stroke-width="2.3375" stroke-linejoin="bevel" stroke-miterlimit="10" fill="none" fill-rule="evenodd"/><path d="M889 1360 888 1384" stroke="#000000" stroke-width="2.3375" stroke-linejoin="bevel" stroke-miterlimit="10" fill="none" fill-rule="evenodd"/><path d="M895.001 1358 894 1380" stroke="#000000" stroke-width="2.3375" stroke-linejoin="bevel" stroke-miterlimit="10" fill="none" fill-rule="evenodd"/><path d="M902 1355 900 1378" stroke="#000000" stroke-width="2.3375" stroke-linejoin="bevel" stroke-miterlimit="10" fill="none" fill-rule="evenodd"/><path d="M907 1349 1087 1221" stroke="#000000" stroke-width="2.3375" stroke-linejoin="bevel" stroke-miterlimit="10" fill="none" fill-rule="evenodd"/><path d="M918 1316 920 1340" stroke="#000000" stroke-width="2.3375" stroke-linejoin="bevel" stroke-miterlimit="10" fill="none" fill-rule="evenodd"/><path d="M934 1308 936.001 1331" stroke="#000000" stroke-width="2.3375" stroke-linejoin="bevel" stroke-miterlimit="10" fill="none" fill-rule="evenodd"/><path d="M943 1299 944 1321" stroke="#000000" stroke-width="2.3375" stroke-linejoin="bevel" stroke-miterlimit="10" fill="none" fill-rule="evenodd"/><path d="M950 1294 951.001 1317" stroke="#000000" stroke-width="2.3375" stroke-linejoin="bevel" stroke-miterlimit="10" fill="none" fill-rule="evenodd"/><path d="M957 1289 959 1314" stroke="#000000" stroke-width="2.3375" stroke-linejoin="bevel" stroke-miterlimit="10" fill="none" fill-rule="evenodd"/><path d="M966 1281 968.001 1306" stroke="#000000" stroke-width="2.3375" stroke-linejoin="bevel" stroke-miterlimit="10" fill="none" fill-rule="evenodd"/><path d="M972 1278 973 1302" stroke="#000000" stroke-width="2.3375" stroke-linejoin="bevel" stroke-miterlimit="10" fill="none" fill-rule="evenodd"/><path d="M978 1273 979.001 1295" stroke="#000000" stroke-width="2.3375" stroke-linejoin="bevel" stroke-miterlimit="10" fill="none" fill-rule="evenodd"/><path d="M985 1269 986 1292" stroke="#000000" stroke-width="2.3375" stroke-linejoin="bevel" stroke-miterlimit="10" fill="none" fill-rule="evenodd"/><path d="M993 1263 994 1287" stroke="#000000" stroke-width="2.3375" stroke-linejoin="bevel" stroke-miterlimit="10" fill="none" fill-rule="evenodd"/><path d="M1000 1257 1001 1282" stroke="#000000" stroke-width="2.3375" stroke-linejoin="bevel" stroke-miterlimit="10" fill="none" fill-rule="evenodd"/><path d="M1012 1248 1013 1276" stroke="#000000" stroke-width="2.3375" stroke-linejoin="bevel" stroke-miterlimit="10" fill="none" fill-rule="evenodd"/><path d="M1028 1237 1030 1264" stroke="#000000" stroke-width="2.3375" stroke-linejoin="bevel" stroke-miterlimit="10" fill="none" fill-rule="evenodd"/><path d="M1037 1229 1038 1256" stroke="#000000" stroke-width="2.3375" stroke-linejoin="bevel" stroke-miterlimit="10" fill="none" fill-rule="evenodd"/><path d="M1045 1224 1046 1251" stroke="#000000" stroke-width="2.3375" stroke-linejoin="bevel" stroke-miterlimit="10" fill="none" fill-rule="evenodd"/><path d="M1071 1207 1072 1234" stroke="#000000" stroke-width="2.3375" stroke-linejoin="bevel" stroke-miterlimit="10" fill="none" fill-rule="evenodd"/><path d="M1077 1202 1079 1231" stroke="#000000" stroke-width="2.3375" stroke-linejoin="bevel" stroke-miterlimit="10" fill="none" fill-rule="evenodd"/><path d="M562.001 376 489 1442 506.463 1393.7Z" fill-rule="evenodd"/><path d="M562 376 489 1442 506.461 1393.7Z" stroke="#000000" stroke-width="2.3375" stroke-linejoin="bevel" stroke-miterlimit="10" fill="none" fill-rule="evenodd"/><path d="M562 376 489 1442 506.461 1393.7Z" stroke="#000000" stroke-width="2.3375" stroke-linejoin="bevel" stroke-miterlimit="10" fill="none" fill-rule="evenodd"/><path d="M890.276 338.397 800 1476 818.86 1472.23 891.001 328M890.276 338.397 890.276 338.397 890.276 338.397Z" stroke="#000000" stroke-width="2.3375" stroke-linejoin="bevel" stroke-miterlimit="10" fill-rule="evenodd"/><path d="M1002 1329 1046 672 1009.75 1324.73Z" stroke="#000000" stroke-width="2.3375" stroke-linejoin="bevel" stroke-miterlimit="10" fill-rule="evenodd"/><path d="M427 1051 662.001 1092 518.179 1070.97Z" stroke="#000000" stroke-width="2.3375" stroke-linejoin="bevel" stroke-miterlimit="10" fill="none" fill-rule="evenodd"/><path d="M492 745 599 762 537.019 758.097Z" stroke="#000000" stroke-width="2.3375" stroke-linejoin="bevel" stroke-miterlimit="10" fill="none" fill-rule="evenodd"/><path d="M505 651 591.001 662.116 544.886 665.001Z" stroke="#000000" stroke-width="2.3375" stroke-linejoin="bevel" stroke-miterlimit="10" fill-rule="evenodd"/><path d="M788 728.786 953 726 858.448 735Z" stroke="#000000" stroke-width="2.3375" stroke-linejoin="bevel" stroke-miterlimit="10" fill-rule="evenodd"/><path d="M702 1088 993.001 1106C993.001 1106 849.999 1102.81 843.787 1102.96 837.569 1103.11 702.006 1089.68 702 1088Z" stroke="#000000" stroke-width="2.3375" stroke-linejoin="bevel" stroke-miterlimit="10" fill="none" fill-rule="evenodd"/><path d="M943 1078 1151 1087 993.414 1085.56Z" stroke="#000000" stroke-width="2.3375" stroke-linejoin="bevel" stroke-miterlimit="10" fill="none" fill-rule="evenodd"/><path d="M982 911 1083 923.128 1035.02 925.001Z" stroke="#000000" stroke-width="2.3375" stroke-linejoin="bevel" stroke-miterlimit="10" fill="none" fill-rule="evenodd"/><path d="M1001 878 1070 887.724 1026.17 889.001Z" stroke="#000000" stroke-width="2.3375" stroke-linejoin="bevel" stroke-miterlimit="10" fill-rule="evenodd"/><path d="M113 1307 299.001 1370 190.507 1338.33Z" stroke="#000000" stroke-width="2.3375" stroke-linejoin="bevel" stroke-miterlimit="10" fill-rule="evenodd"/><path d="M1149.76 925.002C1152.55 924.126 1129.91 1181.01 1133.36 1199 1133.36 1199 1143.07 1192.46 1142.26 1194.69 1134.76 1215.29 1149.76 925.002 1149.76 925.002Z" stroke="#000200" stroke-width="2.3375" stroke-linejoin="bevel" stroke-miterlimit="10" fill-rule="evenodd"/><path d="M61.9999 1180 171.001 1187.15 102.772 1191Z" stroke="#000000" stroke-width="2.3375" stroke-linejoin="bevel" stroke-miterlimit="10" fill-rule="evenodd"/><path d="M108 1261 406.352 1473.28 425 1474Z" stroke="#000000" stroke-width="2.3375" stroke-linejoin="bevel" stroke-miterlimit="10" fill-rule="evenodd"/><path d="M112.72 955.121 105 1259.68C105 1259.68 106.739 1274.37 107.078 1264.71 107.417 1255.06 114.477 948.014 112.72 955.121Z" stroke="#000000" stroke-width="2.3375" stroke-linejoin="bevel" stroke-miterlimit="10" fill-rule="evenodd"/><path d="M105.314 1244.01C92.5643 1243.8 79.2018 1249.65 79.0025 1255.15 78.8033 1260.64 91.7639 1265.78 104.516 1265.99 117.263 1266.2 129.801 1261.5 129.998 1256 130.198 1250.51 118.064 1244.22 105.314 1244.01Z" stroke="#000000" stroke-width="2.3375" stroke-linejoin="bevel" stroke-miterlimit="10" fill-rule="evenodd"/><path d="M553 506 109 1086" stroke="#000000" stroke-width="2.3375" stroke-linejoin="bevel" stroke-miterlimit="10" fill="none" fill-rule="evenodd"/><path d="M543 696 107 1249" stroke="#000000" stroke-width="2.3375" stroke-linejoin="bevel" stroke-miterlimit="10" fill="none" fill-rule="evenodd"/><path d="M867.001 663 189 1322.01 213.858 1325" stroke="#000000" stroke-width="2.3375" stroke-linejoin="bevel" stroke-miterlimit="10" fill="none" fill-rule="evenodd"/><path d="M544 697.753 879.812 502 1088 1260" stroke="#000000" stroke-width="2.3375" stroke-linejoin="bevel" stroke-miterlimit="10" fill="none" fill-rule="evenodd"/><path d="M524 1026 616 1395" stroke="#000000" stroke-width="2.3375" stroke-linejoin="bevel" stroke-miterlimit="10" fill="none" fill-rule="evenodd"/><path d="M520.001 1019 446 1474" stroke="#000000" stroke-width="2.3375" stroke-linejoin="bevel" stroke-miterlimit="10" fill="none" fill-rule="evenodd"/><path d="M542 702 617.001 1394" stroke="#000000" stroke-width="2.3375" stroke-linejoin="bevel" stroke-miterlimit="10" fill="none" fill-rule="evenodd"/><path d="M867.689 670C698.702 969.939 938.561 1118.66 974 1343" stroke="#000000" stroke-width="2.3375" stroke-linejoin="bevel" stroke-miterlimit="10" fill="none" fill-rule="evenodd"/><path d="M1037 821 838 1376" stroke="#000000" stroke-width="2.3375" stroke-linejoin="bevel" stroke-miterlimit="10" fill="none" fill-rule="evenodd"/><path d="M799.689 729.157C786.744 753.695 782.723 771.422 749.579 801.683 727.863 821.515 713.643 854.909 695.436 881.737 641.635 1008.48 678.97 1054.6 705.862 1096.14 705.874 1071.31 689.07 1045.45 742.712 1023.95 788.939 1005.35 882.589 1058.13 967.001 1097 855.326 1035.18 796.109 830.741 946.852 729L799.689 729.157Z" stroke="#000000" stroke-width="2.3375" stroke-linejoin="bevel" stroke-miterlimit="10" fill="#E4CF84" fill-rule="evenodd"/><path d="M490.82 749C469.865 779.429 445.102 803.298 422.238 830.431 404.045 854.483 338.673 974.642 427.58 1049.47 409.722 991.901 445.692 991.236 483.409 992.422L659 1094C553.643 1040.49 459.735 892.246 597.781 762.006L490.82 749Z" stroke="#000000" stroke-width="2.3375" stroke-linejoin="bevel" stroke-miterlimit="10" fill="#E4CF84" fill-rule="evenodd"/><path d="M425.715 1058C268.854 1111.59 290.645 1199.72 327.693 1266.54 343.609 1295.25 478.629 1367.47 467.209 1349.04 392.798 1228.96 435.097 1268.96 473.667 1281.69 519.637 1308.28 577.369 1354.56 620.568 1400 498.965 1229.4 548.64 1107.05 658.001 1095.23L425.715 1058Z" stroke="#000000" stroke-width="2.3375" stroke-linejoin="bevel" stroke-miterlimit="10" fill="#E4CF84" fill-rule="evenodd"/><path d="M942.358 1082C842.585 1159.94 975.128 1314.53 967.27 1303.43 912.786 1200.14 1001.59 1291.03 1110.41 1219.65 922.744 1238.61 1136 1086.32 1137 1085.2L942.358 1082Z" stroke="#000000" stroke-width="2.3375" stroke-linejoin="bevel" stroke-miterlimit="10" fill="#E4CF84" fill-rule="evenodd"/><path d="M707.555 1094.34C612.17 1202.87 612.036 1324.36 679.504 1379.78 681.516 1385.48 783.695 1406.98 784.337 1411 755.233 1393.76 722.084 1378.15 724.999 1348.06 737.285 1282.4 872.841 1343.46 957.648 1348.36 887.658 1272.97 832.87 1187.01 972 1098.49 972.33 1112.24 777.454 1091.13 707.555 1094.34Z" stroke="#000000" stroke-width="2.3375" stroke-linejoin="bevel" stroke-miterlimit="10" fill="#E4CF84" fill-rule="evenodd"/><path d="M110 1470 299 1392" stroke="#000000" stroke-width="2.3375" stroke-linejoin="bevel" stroke-miterlimit="10" fill="none" fill-rule="evenodd"/><path d="M299 1500.91C299 1500.91 273.532 1522.18 229.825 1505.81 94.2161 1402.17 60.3291 1417.63 113.827 1468.95 85.4794 1460.17 56.5212 1453.74 32.9186 1426.65-1.97829 1380.44 16.5267 1345.38 47.0987 1322.16 67.2508 1306.85 95.8215 1277.03 117.007 1276L295.175 1389.98C286.506 1382.79 171.545 1382.2 232.332 1502.39 257.704 1516.73 273.411 1492.31 299 1500.91Z" stroke="#000000" stroke-width="2.3375" stroke-linejoin="bevel" stroke-miterlimit="10" fill="#E4CF84" fill-rule="evenodd"/><path d="M981.932 915C904.556 960.146 897.862 1012.56 943.407 1070.35 928.673 996.783 1077.13 1076.53 1148 1086 1084.79 1046.37 1022.57 995.816 1078.9 923.969L981.932 915Z" stroke="#000000" stroke-width="2.3375" stroke-linejoin="bevel" stroke-miterlimit="10" fill="#E4CF84" fill-rule="evenodd"/><path d="M467 1353 512 1386" stroke="#000000" stroke-width="2.3375" stroke-linejoin="bevel" stroke-miterlimit="10" fill="none" fill-rule="evenodd"/><path d="M784 1410 848 1432" stroke="#000000" stroke-width="2.3375" stroke-linejoin="bevel" stroke-miterlimit="10" fill="none" fill-rule="evenodd"/><path d="M889 342C834.087 379.796 775.572 399.726 722.206 411.71 727.212 443.119 731.754 477.304 713 555 769.163 538.674 821.704 515.697 873.857 478.079L889 342Z" stroke="#000000" stroke-width="2.3375" stroke-linejoin="bevel" stroke-miterlimit="10" fill="#FBF8F2" fill-rule="evenodd"/><path d="M963.189 710.988 992.926 702.895 990.2 693.462C1001.59 694.824 1012.87 693.66 1024.01 688.574L1017.44 681.989C1026.76 684.598 1036.25 691.611 1045 679L1037.42 792.918 1019.4 797.308C1009.22 806.789 998.895 812.59 988.223 809.207L977.793 826.15C977.793 826.15 939.858 860.939 945.589 852.753 954.836 839.535 972.315 705.619 963.189 710.988Z" stroke="#000000" stroke-width="2.3375" stroke-linejoin="bevel" stroke-miterlimit="10" fill="#FFFFFF" fill-rule="evenodd"/><path d="M114.815 955 97.2213 958.344 119.001 966.336 114.219 1053.41C111.1 1045.8 86.4727 1064.14 86.476 1078.94 86.4793 1088.64 66.6056 1083.27 67.0058 1072.36 67.4094 1061.46 76.6816 980.851 76.6816 980.851 76.6816 980.851 112.355 975.471 109.212 975.196 106.068 974.921 95.2043 970.322 95.2043 970.322L95.6942 956.997 114.815 955Z" stroke="#000000" stroke-width="2.3375" stroke-linejoin="bevel" stroke-miterlimit="10" fill-rule="evenodd"/><path d="M516.19 522 534 554.415C513.44 624.231 480.931 626.553 445.715 613.569L360.612 556.423C360.612 556.423 368.424 583.644 365.652 601.438 363.653 614.274 359.458 624.39 349.039 627.42 314.175 639.556 297.157 609.569 274.259 593.456L245.05 566.908C246.561 592.505 252.521 612.969 236.696 641.615 225.764 661.402 189.085 628.887 189.085 628.887 185.686 623.046 144.358 576.213 146.334 575.43 152.105 573.154 88.156 550.287 90.7327 567.154L48.0001 573.708 66.2109 565.007C79.7289 572.346 94.0531 558.013 108.021 553.231L134.769 555.564 166.333 578.892 196.088 620.926 224.751 631.997C233.48 615.079 231.787 601.205 228.623 587.761L226.228 561.833 230.016 550.164 264.948 542.926C290.537 566.449 315.52 606.456 342.185 601.102L333.291 569.467C324.037 545.402 334.163 540.636 344.586 536.162 344.475 539.177 365.751 516.546 387.384 527.898 414.114 541.923 464.399 591.9 466.785 587.979 500.515 591.938 503.089 549.052 516.19 522Z" stroke="#000000" stroke-width="2.3375" stroke-linejoin="bevel" stroke-miterlimit="10" fill="#E98517" fill-rule="evenodd"/><path d="M224.264 629.802 197.048 606.957C184.239 607.337 172.33 610.907 164.759 629.769L129.053 654.001 88.216 635.095 60.1726 634.376 47.0001 626.403 59.4987 622.363 82.8719 627.802 94.1288 627.067C104.882 639.759 116.066 640.952 127.322 640.188 138.732 645.249 150.762 633.852 162.84 621.066L179.268 602 210.669 603.011 222.66 612.585 228.001 619.878 224.264 629.802Z" stroke="#000000" stroke-width="2.3375" stroke-linejoin="bevel" stroke-miterlimit="10" fill="#E98517" fill-rule="evenodd"/><path d="M531 556 548 560" stroke="#000000" stroke-width="2.3375" stroke-linejoin="bevel" stroke-miterlimit="10" fill="none" fill-rule="evenodd"/><path d="M516 523 550 526" stroke="#000000" stroke-width="2.3375" stroke-linejoin="bevel" stroke-miterlimit="10" fill="none" fill-rule="evenodd"/><path d="M528 546 549.001 548" stroke="#000000" stroke-width="2.3375" stroke-linejoin="bevel" stroke-miterlimit="10" fill="none" fill-rule="evenodd"/><path d="M292.001 1463 215 1431" stroke="#000000" stroke-width="2.3375" stroke-linejoin="bevel" stroke-miterlimit="10" fill="none" fill-rule="evenodd"/><path d="M295.001 1505 215 1455" stroke="#000000" stroke-width="2.3375" stroke-linejoin="bevel" stroke-miterlimit="10" fill="none" fill-rule="evenodd"/><path d="M727.712 459.5C766.684 450.108 808.641 428.644 834.159 418.362 859.676 408.081 863.018 406.13 880.817 397.81 891.425 392.852 886.245 373.471 891.5 344.5 866.947 357.208 842.888 370.472 819.482 379.968 792.089 391.077 755.407 402.061 724.959 410.825 720.063 428.754 729.18 445.198 727.712 459.5Z" stroke="#1F1A17" stroke-width="0.989567" stroke-miterlimit="8" fill="#9A0404" fill-rule="evenodd"/><path d="M716.5 552.5C755.405 543.15 793.117 529.938 823.367 512.472 844.582 500.223 863.674 493.519 874.213 479.051 880.969 469.78 877.72 454.653 877.72 441.5 849.019 453.104 830.849 469.811 807.495 479.256 780.165 490.305 754.261 502.748 723.871 511.47 718.984 529.314 717.969 538.262 716.5 552.5Z" stroke="#1F1A17" stroke-width="0.989567" stroke-miterlimit="8" fill="#0C376A" fill-rule="evenodd"/><path d="M1040 756 1037.47 793.976 1019.44 798.362C1009.25 807.834 998.923 813.63 988.245 810.25L977.81 827.177C977.81 827.177 939.856 861.932 945.59 853.754 947.903 850.453 950.731 839.615 953.528 825.299L957.788 798.224 960.691 797.153C970.254 793.093 980.598 788.01 980.598 788.01L997.594 770.053C1009.23 773.433 1013.75 768.668 1024.86 759.196Z" stroke="#000000" stroke-width="2.3375" stroke-linejoin="bevel" stroke-miterlimit="10" fill="#095325" fill-rule="evenodd"/><path d="M1045 678 1042.79 711.449 1028.67 714.923C1018.58 724.396 1008.36 730.193 997.796 726.813L987.469 743.742C987.469 743.742 978.08 748.826 969.399 752.887L964.198 755 964.871 748.942C967.072 725.51 967.388 707.951 964 709.962L993.442 701.875 990.743 692.45C1002.02 693.812 1013.19 692.648 1024.22 687.566L1017.71 680.987C1026.94 683.593 1036.34 690.601 1045 678Z" stroke="#000000" stroke-width="2.3375" stroke-linejoin="bevel" stroke-miterlimit="10" fill="#095325" fill-rule="evenodd"/></g></svg>