<svg width="1973" height="1911" xmlns="http://www.w3.org/2000/svg" xmlns:xlink="http://www.w3.org/1999/xlink" overflow="hidden"><defs><clipPath id="clip0"><rect x="385" y="278" width="1973" height="1911"/></clipPath><clipPath id="clip1"><rect x="1213" y="760" width="340" height="430"/></clipPath><clipPath id="clip2"><rect x="1213" y="760" width="340" height="430"/></clipPath><clipPath id="clip3"><path d="M702.459 1619.24 834.14 1763.67 680.551 1903.7 548.87 1759.28Z" fill-rule="evenodd" clip-rule="evenodd"/></clipPath><clipPath id="clip4"><path d="M702.459 1619.24 834.14 1763.67 680.551 1903.7 548.87 1759.28Z" fill-rule="evenodd" clip-rule="evenodd"/></clipPath><clipPath id="clip5"><path d="M702.459 1619.24 834.14 1763.67 680.551 1903.7 548.87 1759.28Z" fill-rule="evenodd" clip-rule="evenodd"/></clipPath><clipPath id="clip6"><path d="M702.459 1619.24 834.14 1763.67 680.551 1903.7 548.87 1759.28Z"/></clipPath><clipPath id="clip7"><path d="M775.071 1711.29 922.263 1845.13 782.472 1998.87 635.28 1865.02Z" fill-rule="evenodd" clip-rule="evenodd"/></clipPath><clipPath id="clip8"><path d="M775.071 1711.29 922.263 1845.13 782.472 1998.87 635.28 1865.02Z" fill-rule="evenodd" clip-rule="evenodd"/></clipPath><clipPath id="clip9"><path d="M775.071 1711.29 922.263 1845.13 782.472 1998.87 635.28 1865.02Z" fill-rule="evenodd" clip-rule="evenodd"/></clipPath><clipPath id="clip10"><path d="M775.071 1711.29 922.263 1845.13 782.472 1998.87 635.28 1865.02Z"/></clipPath><clipPath id="clip11"><path d="M920.405 1835.98 1086.65 1930.99 983.553 2111.39 817.305 2016.38Z" fill-rule="evenodd" clip-rule="evenodd"/></clipPath><clipPath id="clip12"><path d="M920.405 1835.98 1086.65 1930.99 983.553 2111.39 817.305 2016.38Z" fill-rule="evenodd" clip-rule="evenodd"/></clipPath><clipPath id="clip13"><path d="M920.405 1835.98 1086.65 1930.99 983.553 2111.39 817.305 2016.38Z" fill-rule="evenodd" clip-rule="evenodd"/></clipPath><clipPath id="clip14"><path d="M920.405 1835.98 1086.65 1930.99 983.553 2111.39 817.305 2016.38Z"/></clipPath><clipPath id="clip15"><path d="M849.444 1784.73 992.438 1881.28 876.167 2053.49 733.173 1956.94Z" fill-rule="evenodd" clip-rule="evenodd"/></clipPath><clipPath id="clip16"><path d="M849.444 1784.73 992.438 1881.28 876.167 2053.49 733.173 1956.94Z" fill-rule="evenodd" clip-rule="evenodd"/></clipPath><clipPath id="clip17"><path d="M849.444 1784.73 992.438 1881.28 876.167 2053.49 733.173 1956.94Z" fill-rule="evenodd" clip-rule="evenodd"/></clipPath><clipPath id="clip18"><path d="M849.444 1784.73 992.438 1881.28 876.167 2053.49 733.173 1956.94Z"/></clipPath><clipPath id="clip19"><path d="M1000.42 1888.61 1148.81 1949.71 1069.7 2141.85 921.311 2080.75Z" fill-rule="evenodd" clip-rule="evenodd"/></clipPath><clipPath id="clip20"><path d="M1000.42 1888.61 1148.81 1949.71 1069.7 2141.85 921.311 2080.75Z" fill-rule="evenodd" clip-rule="evenodd"/></clipPath><clipPath id="clip21"><path d="M1000.42 1888.61 1148.81 1949.71 1069.7 2141.85 921.311 2080.75Z" fill-rule="evenodd" clip-rule="evenodd"/></clipPath><clipPath id="clip22"><path d="M1000.42 1888.61 1148.81 1949.71 1069.7 2141.85 921.311 2080.75Z"/></clipPath><clipPath id="clip23"><path d="M1181.42 1958.06 1371.4 1982.05 1345.37 2188.19 1155.39 2164.21Z" fill-rule="evenodd" clip-rule="evenodd"/></clipPath><clipPath id="clip24"><path d="M1181.42 1958.06 1371.4 1982.05 1345.37 2188.19 1155.39 2164.21Z" fill-rule="evenodd" clip-rule="evenodd"/></clipPath><clipPath id="clip25"><path d="M1181.42 1958.06 1371.4 1982.05 1345.37 2188.19 1155.39 2164.21Z" fill-rule="evenodd" clip-rule="evenodd"/></clipPath><clipPath id="clip26"><path d="M1181.42 1958.06 1371.4 1982.05 1345.37 2188.19 1155.39 2164.21Z"/></clipPath><clipPath id="clip27"><path d="M1756.74 1889.89 1914.61 1787.73 2027.5 1962.17 1869.64 2064.33Z" fill-rule="evenodd" clip-rule="evenodd"/></clipPath><clipPath id="clip28"><path d="M1756.74 1889.89 1914.61 1787.73 2027.5 1962.17 1869.64 2064.33Z" fill-rule="evenodd" clip-rule="evenodd"/></clipPath><clipPath id="clip29"><path d="M1756.74 1889.89 1914.61 1787.73 2027.5 1962.17 1869.64 2064.33Z" fill-rule="evenodd" clip-rule="evenodd"/></clipPath><clipPath id="clip30"><path d="M1756.74 1889.89 1914.61 1787.73 2027.5 1962.17 1869.64 2064.33Z"/></clipPath><clipPath id="clip31"><path d="M1836.51 1843.79 1985.38 1723.37 2115.67 1884.43 1966.79 2004.86Z" fill-rule="evenodd" clip-rule="evenodd"/></clipPath><clipPath id="clip32"><path d="M1836.51 1843.79 1985.38 1723.37 2115.67 1884.43 1966.79 2004.86Z" fill-rule="evenodd" clip-rule="evenodd"/></clipPath><clipPath id="clip33"><path d="M1836.51 1843.79 1985.38 1723.37 2115.67 1884.43 1966.79 2004.86Z" fill-rule="evenodd" clip-rule="evenodd"/></clipPath><clipPath id="clip34"><path d="M1836.51 1843.79 1985.38 1723.37 2115.67 1884.43 1966.79 2004.86Z"/></clipPath><clipPath id="clip35"><path d="M1912.41 1789.77 2044.42 1651.13 2193.6 1793.18 2061.59 1931.81Z" fill-rule="evenodd" clip-rule="evenodd"/></clipPath><clipPath id="clip36"><path d="M1912.41 1789.77 2044.42 1651.13 2193.6 1793.18 2061.59 1931.81Z" fill-rule="evenodd" clip-rule="evenodd"/></clipPath><clipPath id="clip37"><path d="M1912.41 1789.77 2044.42 1651.13 2193.6 1793.18 2061.59 1931.81Z" fill-rule="evenodd" clip-rule="evenodd"/></clipPath><clipPath id="clip38"><path d="M1912.41 1789.77 2044.42 1651.13 2193.6 1793.18 2061.59 1931.81Z"/></clipPath><clipPath id="clip39"><rect x="1281" y="1982" width="189" height="207"/></clipPath><clipPath id="clip40"><rect x="1281" y="1982" width="189" height="207"/></clipPath><clipPath id="clip41"><rect x="1281" y="1982" width="189" height="207"/></clipPath><clipPath id="clip42"><rect x="1281" y="1982" width="189" height="207"/></clipPath><clipPath id="clip43"><path d="M1382.38 1980.03 1572.68 1958.79 1595.66 2164.67 1405.36 2185.91Z" fill-rule="evenodd" clip-rule="evenodd"/></clipPath><clipPath id="clip44"><path d="M1382.38 1980.03 1572.68 1958.79 1595.66 2164.67 1405.36 2185.91Z" fill-rule="evenodd" clip-rule="evenodd"/></clipPath><clipPath id="clip45"><path d="M1382.38 1980.03 1572.68 1958.79 1595.66 2164.67 1405.36 2185.91Z" fill-rule="evenodd" clip-rule="evenodd"/></clipPath><clipPath id="clip46"><path d="M1382.38 1980.03 1572.68 1958.79 1595.66 2164.67 1405.36 2185.91Z"/></clipPath><clipPath id="clip47"><path d="M1485.97 1970.61 1669.91 1931.57 1713.04 2134.83 1529.11 2173.87Z" fill-rule="evenodd" clip-rule="evenodd"/></clipPath><clipPath id="clip48"><path d="M1485.97 1970.61 1669.91 1931.57 1713.04 2134.83 1529.11 2173.87Z" fill-rule="evenodd" clip-rule="evenodd"/></clipPath><clipPath id="clip49"><path d="M1485.97 1970.61 1669.91 1931.57 1713.04 2134.83 1529.11 2173.87Z" fill-rule="evenodd" clip-rule="evenodd"/></clipPath><clipPath id="clip50"><path d="M1485.97 1970.61 1669.91 1931.57 1713.04 2134.83 1529.11 2173.87Z"/></clipPath><clipPath id="clip51"><path d="M1678.41 1927.43 1832.41 1849.63 1926.1 2035.1 1772.1 2112.89Z" fill-rule="evenodd" clip-rule="evenodd"/></clipPath><clipPath id="clip52"><path d="M1678.41 1927.43 1832.41 1849.63 1926.1 2035.1 1772.1 2112.89Z" fill-rule="evenodd" clip-rule="evenodd"/></clipPath><clipPath id="clip53"><path d="M1678.41 1927.43 1832.41 1849.63 1926.1 2035.1 1772.1 2112.89Z" fill-rule="evenodd" clip-rule="evenodd"/></clipPath><clipPath id="clip54"><path d="M1678.41 1927.43 1832.41 1849.63 1926.1 2035.1 1772.1 2112.89Z"/></clipPath></defs><g clip-path="url(#clip0)" transform="translate(-385 -278)"><path d="M1574 285 1964 285 1964 1499.86C1923.09 1677.6 1773.13 1662.83 1754.9 1662.62 1718.2 1661.61 1667.86 1657.57 1614.88 1657.07L1574 1657.79Z" fill="#001C5C" fill-rule="evenodd"/><path d="M1186 285 1576 285 1576 1657.16 1563.43 1657.38C1492.1 1660.85 1422.57 1674.52 1380.88 1714 1334.69 1672.93 1258.57 1659.74 1187.45 1657.16L1186 1657.14Z" fill="#FFFFFF" fill-rule="evenodd"/><path d="M797 285 1187 285 1187 1657.21 1146.66 1656.81C1119.57 1657.19 1094.4 1658.72 1073.37 1660.28 965.86 1676.06 884.484 1636.75 877.342 1633.27 857.095 1618.01 817.247 1594.37 797 1505.34Z" fill="#9A0000" fill-rule="evenodd"/><g clip-path="url(#clip1)"><g clip-path="url(#clip2)"><path d="M0 410.072C7.59078 411.604 13.1652 418.105 13.5225 425.841 12.9093 428.149 10.5409 429.524 8.2324 428.911 5.92398 428.297 4.54975 425.928 5.16297 423.62 5.17841 423.562 5.19506 423.504 5.21291 423.447 6.32746 418.345 4.2727 413.073-2.96103e-07 410.072Z" stroke="#FFFFFF" stroke-width="1.76487" stroke-linecap="round" stroke-linejoin="round" stroke-miterlimit="3" fill="#9A0000" fill-rule="evenodd" transform="matrix(0.960151 -0.28564 0.286234 0.958161 1160.42 376.228)"/><path d="M0 410.387C7.59661 411.921 13.1753 418.426 13.5329 426.168 12.9192 428.478 10.549 429.854 8.23872 429.24 5.92854 428.626 4.55325 426.256 5.16694 423.946 5.18239 423.888 5.19905 423.83 5.21692 423.772 6.33233 418.667 4.27598 413.391-2.96331e-07 410.387Z" stroke="#FFFFFF" stroke-width="1.76623" stroke-linecap="round" stroke-linejoin="round" stroke-miterlimit="3" fill="#9A0000" fill-rule="evenodd" transform="matrix(0.672485 -0.740111 0.741648 0.671091 950.436 503.9)"/><path d="M0 410.046C7.59031 411.579 13.1644 418.079 13.5217 425.815 12.9085 428.123 10.5402 429.497 8.23189 428.884 5.92362 428.271 4.54947 425.902 5.16265 423.594 5.17809 423.536 5.19474 423.478 5.21259 423.421 6.32707 418.319 4.27244 413.048-2.96085e-07 410.046Z" stroke="#FFFFFF" stroke-width="1.76476" stroke-linecap="round" stroke-linejoin="round" stroke-miterlimit="3" fill="#9A0000" fill-rule="evenodd" transform="matrix(0.227098 -0.973872 0.975895 0.226627 838.431 707.283)"/><path d="M0 410.004C7.58953 411.537 13.1631 418.037 13.5203 425.771 12.9072 428.079 10.5391 429.453 8.23105 428.841 5.92301 428.227 4.54901 425.859 5.16213 423.551 5.17756 423.493 5.19421 423.435 5.21206 423.378 6.32643 418.277 4.272 413.006-2.96055e-07 410.004Z" stroke="#FFFFFF" stroke-width="1.76458" stroke-linecap="round" stroke-linejoin="round" stroke-miterlimit="3" fill="#9A0000" fill-rule="evenodd" transform="matrix(-0.0506979 -0.998714 1.00079 -0.0505928 824.439 843.471)"/><path d="M0 410.228C7.59367 411.761 13.1702 418.264 13.5277 426.003 12.9142 428.312 10.5449 429.687 8.23554 429.074 5.92624 428.46 4.55149 426.091 5.16494 423.782 5.18038 423.724 5.19704 423.666 5.2149 423.608 6.32987 418.505 4.27433 413.231-2.96216e-07 410.228Z" stroke="#FFFFFF" stroke-width="1.76555" stroke-linecap="round" stroke-linejoin="round" stroke-miterlimit="3" fill="#9A0000" fill-rule="evenodd" transform="matrix(0.858476 -0.514755 0.515824 0.856696 1038.04 683.388)"/><path d="M0 410.069C7.59072 411.602 13.1651 418.102 13.5224 425.838 12.9092 428.146 10.5408 429.521 8.23234 428.908 5.92394 428.294 4.54972 425.925 5.16294 423.617 5.17837 423.559 5.19502 423.501 5.21288 423.444 6.32742 418.342 4.27267 413.071-2.96101e-07 410.069Z" stroke="#FFFFFF" stroke-width="1.76486" stroke-linecap="round" stroke-linejoin="round" stroke-miterlimit="3" fill="#9A0000" fill-rule="evenodd" transform="matrix(0.279525 -0.960138 0.962133 0.278945 833.266 941.471)"/><path d="M0 410.069C7.59074 411.602 13.1652 418.103 13.5225 425.839 12.9092 428.147 10.5408 429.521 8.23236 428.909 5.92395 428.295 4.54973 425.926 5.16295 423.618 5.17838 423.56 5.19503 423.502 5.21289 423.445 6.32743 418.343 4.27268 413.071-2.96102e-07 410.069Z" stroke="#FFFFFF" stroke-width="1.76486" stroke-linecap="round" stroke-linejoin="round" stroke-miterlimit="3" fill="#9A0000" fill-rule="evenodd" transform="matrix(0.281203 -0.959648 0.961642 0.28062 823.541 958.578)"/><path d="M0 410.283C7.59469 411.816 13.172 418.32 13.5295 426.06 12.916 428.37 10.5463 429.745 8.23664 429.132 5.92704 428.518 4.5521 426.148 5.16563 423.839 5.18108 423.78 5.19774 423.722 5.2156 423.665 6.33072 418.561 4.2749 413.286-2.96256e-07 410.283Z" stroke="#FFFFFF" stroke-width="1.76578" stroke-linecap="round" stroke-linejoin="round" stroke-miterlimit="3" fill="#9A0000" fill-rule="evenodd" transform="matrix(-0.574375 -0.818592 0.820293 -0.573185 895.291 1339.32)"/><path d="M92.1582 329.061C92.6524 328.728 93.1589 328.414 93.6777 328.121 93.1851 328.457 92.6786 328.77 92.1582 329.061 88.6846 331.407 85.9119 334.651 84.1359 338.447 83.0862 341.801 80.3547 344.359 76.9387 345.187 82.9783 348.069 90.1681 346.946 95.042 342.36 95.5321 341.757 96.059 341.184 96.6186 340.645 96.135 341.253 95.6081 341.827 95.042 342.36 91.2163 347.059 89.8455 353.295 91.3494 359.164 92.8281 364.372 90.2752 369.878 85.345 372.113 76.1747 378.908 64.8276 382.097 53.4601 381.075 49.7873 381.757 46.2571 379.332 45.5752 375.659 45.5056 375.284 45.4679 374.904 45.4623 374.523 47.3719 369.414 44.778 363.724 39.6688 361.814 38.6154 361.42 37.5024 361.209 36.378 361.19 30.6544 361.836 26.5379 367 27.1836 372.723 27.1945 372.82 27.2066 372.916 27.2202 373.012 27.2629 373.209 27.2984 373.408 27.3264 373.608 28.122 376.341 29.6706 378.795 31.795 380.691 29.5463 378.904 27.9708 376.407 27.3264 373.608 27.2852 373.41 27.2499 373.212 27.2202 373.012 26.2967 368.585 21.9589 365.744 17.5315 366.667 14.9269 367.21 12.7486 368.986 11.6903 371.427 9.58352 375.934 11.3526 381.301 15.726 383.672 16.1865 383.854 16.639 384.056 17.0821 384.277 17.1957 384.317 17.3101 384.355 17.4252 384.391 17.3047 384.388 17.1877 384.35 17.0892 384.28 16.6194 384.114 16.1636 383.911 15.726 383.672 11.3896 381.973 6.54732 382.117 2.3201 384.073-0.796674 387.232-0.762318 392.32 2.39683 395.436 3.11212 396.142 3.95342 396.707 4.8771 397.103 7.85112 398.68 11.3648 398.883 14.5006 397.658 14.9198 397.45 15.3574 397.28 15.8076 397.152 18.1515 396.166 20.8592 396.707 22.6454 398.516 20.7189 396.987 18.1736 396.479 15.8076 397.152 15.3244 397.355 14.8687 397.618 14.4515 397.936 10.2049 398.733 6.18901 400.466 2.69589 403.009-0.452741 406.627-0.0721519 412.113 3.54595 415.262 7.16407 418.41 12.6496 418.029 15.7983 414.411 16.5768 413.517 17.1638 412.472 17.5232 411.342 19.3425 407.414 23.9845 405.684 27.9309 407.462 31.7636 409.438 36.2243 409.811 40.332 408.499 43.4987 407.401 47.0117 408.486 49.0078 411.179 53.2736 414.822 58.7156 416.796 64.3253 416.734 68.708 415.324 71.5725 411.117 71.2774 406.522 72.0488 402.58 75.8692 400.011 79.8106 400.782 80.4558 400.909 81.0809 401.122 81.6688 401.416 75.7648 410.533 78.3693 422.71 87.4862 428.614 87.6928 428.748 87.9028 428.877 88.1144 429.004 85.9593 423.473 88.696 417.243 94.2267 415.089 95.5092 414.589 96.876 414.34 98.2525 414.356 97.679 421.111 102.69 427.052 109.444 427.626 111.388 427.791 113.343 427.49 115.147 426.749 111.518 421.546 111.986 414.521 116.274 409.847 122.606 415.423 131.949 415.891 138.805 410.974 128.055 409.439 120.585 399.479 122.121 388.729 122.712 384.586 124.611 380.74 127.54 377.75 127.199 377.83 126.858 377.911 126.518 377.995 130.818 374.475 131.944 368.364 129.182 363.543 123.77 358.214 123.703 349.508 129.032 344.097 130.043 343.07 131.211 342.208 132.49 341.543 146.849 335.076 163.574 336.822 176.286 346.118 185.65 336.624 185.544 321.336 176.05 311.973 173.149 309.111 169.571 307.031 165.649 305.925 160.474 315.104 148.837 318.349 139.659 313.174 139.344 312.996 139.035 312.81 138.732 312.616 127.95 307.928 115.81 307.419 104.674 311.186 98.1814 312.045 92.2211 307.48 91.3617 300.987 91.3543 300.934 91.3478 300.88 91.3413 300.827 88.2116 306.201 89.5783 313.065 94.5273 316.831 88.1364 317.172 82.2684 320.47 78.6543 325.752 76.4745 327.585 73.6312 328.431 70.8036 328.088 77.1548 332.456 85.4365 332.832 92.1582 329.061ZM19.3286 385.298 25.8886 388.223C23.6348 387.406 21.4424 386.429 19.3286 385.298L17.4088 384.44C17.5953 384.444 17.7801 384.476 17.9562 384.538 18.4097 384.799 18.8672 385.052 19.3286 385.298Z" stroke="#FFFFFF" stroke-width="1.76457" stroke-linecap="round" stroke-linejoin="round" stroke-miterlimit="3" fill="#9A0000" fill-rule="evenodd" transform="matrix(1.00208 0 0 1 1233.43 680.336)"/><path d="M5.12249 398.664C-0.505138 406.552-1.57538 416.818 2.30389 425.698 7.9119 427.131 13.8314 426.737 19.1991 424.57 22.0448 423.422 25.2582 423.629 27.9327 425.134 32.1222 428.279 37.4045 429.6 42.5812 428.794 46.6268 425.081 46.8963 418.791 43.1831 414.745 41.6217 413.044 39.5169 411.94 37.23 411.621 32.06 409.665 26.7947 407.972 21.454 406.548 15.4455 405.3 9.83657 402.593 5.12249 398.664Z" stroke="#FFFFFF" stroke-width="1.76469" stroke-linecap="round" stroke-linejoin="round" stroke-miterlimit="3" fill="#9A0000" fill-rule="evenodd" transform="matrix(0.986792 0.173637 -0.173998 0.984746 1329.04 667.454)"/><path d="M31.5438 427.258C27.9948 430.068 22.8402 429.468 20.0307 425.919 18.044 423.409 17.7001 419.973 19.1501 417.119 14.8403 408.666 8.19345 401.628 4.36317e-07 396.842 11.1136 394.692 22.4804 399.065 29.2889 408.108 34.4575 406.47 39.9752 409.333 41.6129 414.501 43.2506 419.67 40.3883 425.188 35.2196 426.825 34.0329 427.201 32.7854 427.348 31.5438 427.258Z" stroke="#FFFFFF" stroke-width="1.76469" stroke-linecap="round" stroke-linejoin="round" stroke-miterlimit="3" fill="#9A0000" fill-rule="evenodd" transform="matrix(0.986792 0.173637 -0.173998 0.984746 1447.1 599.636)"/><path d="M5.32674 429.031C4.9356 424.136 3.07941 419.473-1.55827e-08 415.649 3.01313 419.511 4.86109 424.154 5.32674 429.031Z" stroke="#FFFFFF" stroke-width="0.196076" stroke-linecap="round" stroke-linejoin="round" stroke-miterlimit="3" fill="#9A0000" fill-rule="evenodd" transform="matrix(0.986792 0.173637 -0.173998 0.984746 1476.98 582.161)"/><path d="M9.29728 427.054C6.34796 428.285 3.19502 428.955 9.34965e-08 429.031 3.18798 428.915 6.32902 428.226 9.27277 426.997L9.29728 427.054Z" stroke="#FFFFFF" stroke-width="0.816984" stroke-linecap="square" stroke-miterlimit="3" fill="#9A0000" fill-rule="evenodd" transform="matrix(0.986792 0.173637 -0.173998 0.984746 1474.08 721.05)"/><path d="M9.29728 427.054C6.34796 428.285 3.19502 428.955 9.34965e-08 429.031 3.18798 428.915 6.32902 428.226 9.27277 426.997" stroke="#FFFFFF" stroke-width="0.196076" stroke-linecap="round" stroke-linejoin="round" stroke-miterlimit="3" fill="#9A0000" fill-rule="evenodd" transform="matrix(0.986792 0.173637 -0.173998 0.984746 1474.08 721.05)"/><path d="M2.92462 429.004C3.38791 424.117 2.36879 419.203-6.2327e-08 414.904 2.2969 419.229 3.3115 424.121 2.92462 429.004Z" stroke="#FFFFFF" stroke-width="1.76457" stroke-linecap="round" stroke-linejoin="round" stroke-miterlimit="3" fill="#9A0000" fill-rule="evenodd" transform="matrix(1.00208 0 0 1 1404.66 574.316)"/><path d="M120.137 427.185C132.42 432.283 146.511 426.459 151.609 414.177 156.707 401.893 150.884 387.803 138.601 382.705 134.902 381.169 130.878 380.581 126.894 380.992 121.934 381.679 116.938 380.014 113.381 376.491 104.277 368.958 94.1239 362.791 83.2425 358.182 70.2996 352.003 60.4342 340.816 55.9225 327.202 53.1772 323.126 52.65 317.949 54.5173 313.403 57.6997 308.277 56.1239 301.541 50.9975 298.359 46.3332 295.463 40.2445 296.479 36.7724 300.732 33.9925 303.458 33.7481 307.853 36.2087 310.871 38.4528 313.178 39.3103 316.499 38.4636 319.604 39.2152 316.499 38.3696 313.223 36.2087 310.871 35.331 309.611 34.7551 308.166 34.5257 306.647 34.1034 302.477 30.8039 299.181 26.6337 298.763 22.2255 297.568 17.683 300.172 16.4878 304.581 15.4939 308.246 17.1243 312.117 20.4409 313.967 24.4897 315.83 27.2672 319.677 27.7611 324.106 27.8204 320.701 26.1185 317.508 23.2595 315.658 19.712 312.541 14.7622 311.574 10.3022 313.125 6.25845 315.456 4.86983 320.624 7.20059 324.668 8.76117 327.375 11.6886 329 14.8119 328.893 17.9 329.187 20.7408 330.709 22.6958 333.117 18.3366 328.991 12.2611 327.21 6.36431 328.329 1.92227 329.381-0.826624 333.834 0.224463 338.275 1.27555 342.717 5.7286 345.467 10.1706 344.416 10.2146 344.405 10.2584 344.395 10.3022 344.383 14.2551 341.913 19.0903 341.296 23.5373 342.692 24.1839 345.531 26.2653 347.826 29.0274 348.746 32.7477 348.083 36.3009 350.561 36.9638 354.282 37.0112 354.547 37.0427 354.816 37.0584 355.086 39.1963 360.939 45.3347 364.309 51.421 362.97 49.5302 372.014 45.3021 380.406 39.158 387.308 44.5154 389.745 50.7309 389.382 55.7673 386.335 56.9192 391.897 55.3845 397.675 51.6252 401.932 56.8262 402.501 62.0887 402.017 67.0989 400.51 68.6302 405.701 67.7932 411.303 64.8113 415.82 75.3041 415.605 84.0676 407.762 85.4402 397.356 87.3438 405.437 91.1248 412.955 96.4776 419.301 94.9196 414.41 96.4801 409.064 100.424 405.78L100.701 417.61C99.3616 421.262 101.237 425.309 104.888 426.649 107.072 427.449 109.51 427.122 111.404 425.771L120.137 427.185Z" stroke="#FFFFFF" stroke-width="1.76469" stroke-linecap="round" stroke-linejoin="round" stroke-miterlimit="3" fill="#9A0000" fill-rule="evenodd" transform="matrix(0.986792 0.173637 -0.173998 0.984746 1302.36 480.533)"/><path d="M15.3184 384.726C5.25253 386.487-1.4803 396.074 0.280262 406.14 0.412558 406.896 0.591812 407.643 0.816984 408.378 2.03565 413.374 7.07406 416.436 12.0706 415.218 12.1678 415.195 12.2646 415.169 12.361 415.142 12.2059 412.747 12.8495 410.368 14.191 408.378 12.7091 410.412 12.0101 412.912 12.2221 415.42 13.1044 421.078 16.6728 425.959 21.7971 428.516 26.2754 430.127 31.2118 427.803 32.8228 423.324 33.736 420.786 33.4077 417.967 31.9359 415.706 28.4297 410.828 26.3351 405.079 25.8821 399.088 25.9157 392.495 21.623 386.658 15.3184 384.726Z" stroke="#FFFFFF" stroke-width="1.76469" stroke-linecap="round" stroke-linejoin="round" stroke-miterlimit="3" fill="#9A0000" fill-rule="evenodd" transform="matrix(0.986792 0.173637 -0.173998 0.984746 1336.26 419.517)"/><path d="M255.504 234.86 255.839 234.86C261.591 243.399 259.848 254.921 251.828 261.378 254.785 252.324 249.843 242.587 240.789 239.629 238.484 238.876 236.046 238.618 233.635 238.871 227.635 239.735 223.472 245.299 224.335 251.298 224.906 255.259 227.586 258.595 231.331 260.005 228.881 256.986 229.342 252.552 232.362 250.102 234.996 247.965 238.78 248.01 241.363 250.21 247.048 256.346 247.842 265.56 243.291 272.578 238.441 276.542 232.283 278.547 226.029 278.198 221.194 269.15 215.29 260.716 208.44 253.078 203.223 247.442 198.502 241.366 194.332 234.917 188.071 225.23 183.095 214.77 179.529 203.8 176.81 194.66 176.212 185.021 177.781 175.616 177.786 175.591 177.789 175.565 177.791 175.538 179.902 152.732 183.421 130.077 188.328 107.704 196.16 98.5164 195.062 84.7192 185.875 76.8858 178.498 70.5967 167.861 69.9166 159.743 75.215 166.448 87.1545 162.204 102.269 150.265 108.975 149.101 109.628 147.885 110.187 146.631 110.645 136.712 114.367 128.016 120.76 121.502 129.116L120.457 128.258C108.762 140.476 106.857 159.076 115.833 173.41 110.466 171.82 104.706 172.227 99.6168 174.554L66.049 184.937C57.8352 187.069 49.1593 186.566 41.2469 183.499 39.4716 182.849 37.7575 182.043 36.1248 181.089 37.7738 182.011 39.4854 182.816 41.2469 183.499 42.8081 184.07 44.4114 184.518 46.0423 184.839 44.3139 179.997 44.8414 174.637 47.4801 170.224 50.9854 167.283 51.442 162.056 48.4999 158.55 45.867 155.413 41.3373 154.671 37.8403 156.802 35.5248 159.27 35.2199 163.01 37.1051 165.821 37.7462 169.428 36.4466 173.106 33.6821 175.51 31.4921 170.393 31.1853 164.665 32.8162 159.343 32.9123 154.551 29.1063 150.59 24.3154 150.494 20.9592 150.427 17.8653 152.301 16.3713 155.307 14.607 160.296 16.8117 165.82 21.5262 168.223 24.5051 171.76 25.9594 176.334 25.57 180.942 21.0671 179.636 17.6502 175.955 16.6818 171.368 16.5944 166.921 12.9186 163.387 8.47143 163.474 7.73199 163.489 6.99808 163.605 6.29037 163.82 1.96916 165.218-0.399793 169.856 0.999166 174.177 1.94662 177.104 4.44811 179.256 7.4831 179.758 12.6188 179.196 17.6686 181.393 20.7583 185.534 17.2823 187.004 13.3462 186.933 9.92573 185.338 7.52151 182.937 3.62586 182.938 1.22455 185.342 1.02207 185.546 0.833999 185.762 0.661709 185.991-1.52228 192.313 1.83262 199.209 8.15508 201.394 10.7835 202.301 13.6442 202.277 16.257 201.325 22.7344 199.796 29.5554 200.999 35.1199 204.65 35.881 207.978 39.1958 210.059 42.5238 209.297 43.9914 208.962 45.2861 208.102 46.1649 206.88 46.917 214.733 44.8936 222.601 40.4463 229.117 48.4311 229.435 56.1555 226.244 61.5886 220.384 64.2012 223.233 65.2322 227.193 64.3416 230.955 70.2827 228.874 74.8862 224.101 76.7508 218.088 79.2779 222.529 83.1352 226.063 87.7794 228.194 88.9648 223.929 91.36 220.099 94.6743 217.165 99.6372 221.426 104.71 225.559 109.886 229.558 115.384 222.656 116.331 213.172 112.304 205.32L117.9 207.86C117.737 219.316 124.177 229.845 134.451 234.917 135.314 235.344 136.197 235.728 137.098 236.069 152.26 242.212 163.842 254.866 168.623 270.511 170.37 267.479 171.445 264.109 171.776 260.626 172.164 255.743 171.149 250.851 168.852 246.526 171.221 250.825 172.24 255.739 171.776 260.626 171.5 264.098 170.522 267.478 168.901 270.56 161.786 281.152 159.525 294.274 162.684 306.636 164.414 302.411 168.51 299.639 173.075 299.602 167.887 306.483 166.929 315.669 170.584 323.473 172.421 318.64 176.685 315.144 181.784 314.29 176.705 321.348 175.836 330.6 179.513 338.48 181.758 334.6 185.576 331.885 189.978 331.038 187.203 338.064 188.888 346.067 194.258 351.379 198.389 364.234 194.929 378.32 185.313 387.798 182.174 392.228 177.979 395.806 173.108 398.206 171.573 396.163 170.904 393.598 171.245 391.066 169.558 386.641 165.178 383.839 160.454 384.163 156.676 384.363 153.776 387.587 153.975 391.365 154.034 392.464 154.356 393.532 154.915 394.48 157.081 396.971 160.185 398.451 163.485 398.565 160.035 400.332 155.974 400.456 152.423 398.9 148.552 397.731 144.466 399.921 143.297 403.793 142.234 407.311 143.944 411.072 147.293 412.584 151.281 415.088 156.432 414.724 160.029 411.685 166.597 408.851 173.366 406.508 180.281 404.676 176.743 408.981 171.766 411.86 166.27 412.78 163.008 412.694 160.294 415.269 160.208 418.531 160.151 420.706 161.294 422.737 163.182 423.817 167.146 427.424 173.284 427.136 176.891 423.173 177.502 422.501 178.016 421.747 178.418 420.933 180.826 415.39 185.35 411.04 190.983 408.85 188.869 412.21 186.311 415.269 183.377 417.943 180.926 420.648 181.134 424.829 183.839 427.279 186.243 429.456 189.872 429.567 192.404 427.542 198.04 425.903 201.702 420.474 201.113 414.634 201.853 412.365 204.071 410.915 206.447 411.146 209.285 410.883 211.814 409.243 213.211 406.759 220.029 409.736 227.344 411.412 234.778 411.701 229.712 407.085 226.843 400.534 226.887 393.68 234.78 397.485 244.263 394.172 248.068 386.279 248.145 386.119 248.219 385.958 248.29 385.797 240.531 388.281 232.228 384.004 229.744 376.246 229.101 374.24 228.896 372.121 229.141 370.03 239.253 374.884 251.347 372.6 258.992 364.393 249.325 363.338 240.216 359.343 232.891 352.948 233.635 350.249 234.023 347.464 234.043 344.664 233.354 342.176 231.06 340.476 228.48 340.538 222.198 335.821 219.852 327.481 222.753 320.18 225.477 311.968 223.246 302.92 217.018 296.914 229.626 296.388 241.731 291.826 251.55 283.9 256.941 283.346 261.76 287.267 262.315 292.657 262.547 294.913 261.99 297.179 260.74 299.071 256.81 302.562 250.889 302.562 246.959 299.071 248.004 305.577 254.126 310.004 260.632 308.958 263.578 308.485 266.24 306.925 268.093 304.585 274.464 297.404 273.807 286.418 266.626 280.047 264.427 278.096 261.77 276.735 258.902 276.091 270.984 269.666 277.952 256.546 276.507 242.939 278.992 238.322 284.749 236.593 289.367 239.077 289.977 239.405 290.549 239.799 291.073 240.252 299.149 244.51 309.146 241.415 313.404 233.34 313.638 232.895 313.853 232.44 314.045 231.976 306.913 236.71 297.423 235.705 291.441 229.583 285.578 226.156 278.11 227.351 273.607 232.434 273.458 226.606 278.061 221.76 283.889 221.61 286.966 221.531 289.924 222.799 291.988 225.081 298.669 229.446 307.623 227.568 311.988 220.886 312.982 219.365 313.68 217.671 314.045 215.891 308.741 221.43 300.241 222.399 293.826 218.195 285.093 210.963 272.433 211.032 263.779 218.358 267.144 209.453 277.091 204.96 285.997 208.325 288.664 209.333 291.04 210.986 292.911 213.138 300.786 216.223 309.719 212.849 313.588 205.328 307.81 209.515 299.856 208.931 294.749 203.947 287.25 194.655 273.637 193.202 264.346 200.702 263 201.787 261.789 203.031 260.74 204.405 263.238 194.71 273.121 188.876 282.815 191.374 286.378 192.291 289.577 194.272 291.988 197.052 298.345 201.496 307.101 199.943 311.544 193.586 313.009 191.49 313.874 189.033 314.045 186.481 309.904 192.064 302.021 193.233 296.437 189.092 295.443 188.355 294.563 187.475 293.826 186.481 288.584 178.35 277.742 176.007 269.61 181.25 269.085 181.589 268.579 181.955 268.093 182.348 275.725 170.753 274.595 155.473 265.34 145.128 284.334 131.007 288.711 104.368 275.233 84.912 269.814 80.8464 268.716 73.1575 272.782 67.7384 275.451 64.1809 279.836 62.3467 284.244 62.9447 290.488 64.7307 294.102 71.241 292.317 77.4857 291.228 81.2911 288.299 84.2936 284.521 85.4757 292.772 88.9109 302.245 85.0068 305.68 76.7565 307.133 73.2656 307.318 69.3761 306.203 65.7631 298.152 48.4049 277.555 40.8597 260.196 48.9103 259.469 49.2474 258.754 49.6096 258.053 49.9963 243.133 56.1678 236.042 73.2652 242.213 88.1846 243.231 90.6452 244.581 92.9547 246.224 95.0501 232.47 91.5692 222.35 79.8743 220.882 65.7631 211.259 82.1173 216.518 103.166 232.703 113.072 241.671 116.427 249.024 123.073 253.266 131.657 248.101 121.975 236.067 118.314 226.385 123.479 218.467 127.702 214.364 136.709 216.373 145.455 225.548 136.65 240.123 136.95 248.928 146.125 250.45 147.711 251.738 149.508 252.751 151.459 258.043 158.901 258.536 168.736 254.017 176.67 238.454 193.186 239.117 219.161 255.504 234.86Z" stroke="#FFFFFF" stroke-width="1.76457" stroke-linecap="round" stroke-linejoin="round" stroke-miterlimit="3" fill="#9A0000" fill-rule="evenodd" transform="matrix(1.00208 0 0 1 1235.46 742.689)"/><path d="M109.175 291.825C111 302.729 121.319 310.09 132.223 308.265 132.542 308.212 132.86 308.15 133.176 308.082 135.36 313.113 133.052 318.962 128.021 321.146 126.978 321.599 125.864 321.869 124.729 321.945 141.608 332.71 149.983 352.858 145.708 372.415 143.897 361.315 136.382 351.984 125.922 347.85 134.344 355.925 136.333 368.631 130.783 378.893 129.391 385.082 131.73 391.514 136.771 395.363 128.978 398.643 119.967 396.734 114.175 390.576 112.383 385.925 109.053 382.027 104.739 379.531 110.796 385.045 113.612 393.273 112.206 401.343 112.287 410.292 117.806 418.291 126.143 421.546 116.935 425.159 106.46 421.698 101.218 413.311 99.3872 405.802 94.4137 399.445 87.567 395.861 86.1284 415.339 69.3318 430.063 49.8329 428.939 54.0658 424.718 55.1698 418.284 52.586 412.894 35.0144 413.664 17.4094 412.791-1.02216e-05 410.288 10.8396 408.782 19.6279 400.747 22.098 390.085 22.9695 381.751 28.1166 374.471 35.6836 370.871 30.171 369.684 24.4341 370.098 19.1489 372.064 27.0359 358.326 41.4678 349.646 57.2997 349.116 59.9332 320.611 81.0701 297.267 109.175 291.825Z" stroke="#FFFFFF" stroke-width="1.76457" stroke-linecap="round" stroke-linejoin="round" stroke-miterlimit="3" fill="#9A0000" fill-rule="evenodd" transform="matrix(1.00208 0 0 1 1302.74 506.28)"/><path d="M0 417.647C0.0762455 411.374 4.88561 406.355 10.742 406.436 16.4909 406.516 21.1331 411.489 21.2079 417.647 21.1317 423.921 16.3223 428.94 10.4659 428.858 4.71703 428.778 0.0748448 423.805-6.96587e-07 417.647Z" stroke="#FFFFFF" stroke-width="1.7646" stroke-linecap="round" stroke-linejoin="round" stroke-miterlimit="3" fill="#9A0000" fill-rule="evenodd" transform="matrix(0.998249 0.0871543 -0.0873354 0.996179 1369.19 386.228)"/><path d="M57.4558 417.067C48.8694 414.125 39.5475 414.918 31.5014 419.273 27.7382 422.638 22.9447 424.389 18.0463 424.191 14.9821 423.211 13.0797 419.939 13.6103 416.561 13.4872 411.815 9.79575 408.074 5.36531 408.207 3.35672 408.266 1.44214 409.131 1.29332e-06 410.63 3.45195 411.396 6.0256 414.498 6.33133 418.26 6.35011 423.147 9.38499 427.431 13.7737 428.766 20.3326 429.752 26.969 427.652 31.9753 423.006 39.3499 420.721 47.2066 420.957 54.4494 423.684 55.8278 425.295 58.1636 425.403 59.6668 423.926 61.1699 422.45 61.271 419.948 59.8927 418.338 59.2601 417.599 58.3891 417.145 57.4558 417.067Z" stroke="#FFFFFF" stroke-width="1.7646" stroke-linecap="round" stroke-linejoin="round" stroke-miterlimit="3" fill="#9A0000" fill-rule="evenodd" transform="matrix(0.998249 0.0871543 -0.0873354 0.996179 1349.08 408.539)"/><path d="M1.62572 414.085C-1.31542 418.771-0.154114 425.122 4.21958 428.273 4.60398 428.55 5.00669 428.797 5.42452 429.011 4.22493 424.314 5.16021 419.287 7.94888 415.441 6.5005 413.281 3.7389 412.689 1.62572 414.085Z" stroke="#FFFFFF" stroke-width="1.7646" stroke-linecap="round" stroke-linejoin="round" stroke-miterlimit="3" fill="#9A0000" fill-rule="evenodd" transform="matrix(0.998249 0.0871543 -0.0873354 0.996179 1368.54 400.241)"/><path d="M1.62572 414.085C-1.31542 418.771-0.154114 425.122 4.21958 428.273 4.60398 428.55 5.00669 428.797 5.42452 429.011 4.22493 424.314 5.16021 419.287 7.94888 415.441 6.5005 413.281 3.7389 412.689 1.62572 414.085Z" stroke="#FFFFFF" stroke-width="1.7646" stroke-linecap="round" stroke-linejoin="round" stroke-miterlimit="3" fill="#9A0000" fill-rule="evenodd" transform="matrix(0.998249 0.0871543 0.0873354 -0.996179 1310.31 1248.53)"/><path d="M75.976 334.735C75.32 342.507 68.9067 348.238 61.6514 347.535 60.7094 347.445 59.7794 347.244 58.8773 346.941 48.5688 346.705 38.5025 350.302 30.3904 357.12L13.9289 361.866C9.13297 361.032 4.21518 361.99-6.2328e-07 364.578L0 376.106 6.33133 368.647C6.49195 367.315 7.62968 366.376 8.87252 366.548 10.1153 366.72 10.9927 367.939 10.832 369.27 10.6714 370.601 9.53368 371.541 8.29086 371.369 8.26937 371.366 8.24797 371.362 8.22664 371.359 6.50123 374.098 3.70429 375.846 0.629048 376.106-0.906655 381.335 1.8056 386.907 6.68705 388.553 7.39375 388.79 8.12458 388.937 8.86386 388.989 14.2448 389.754 19.646 387.742 23.4218 383.564 25.0507 381.667 26.1491 379.317 26.5916 376.784 34.4949 380.259 38.2719 389.939 35.0279 398.405 32.7568 404.333 27.4994 408.326 21.5265 408.661 17.1557 405.368 11.1203 406.493 8.04623 411.176 6.71283 413.206 6.10428 415.682 6.33133 418.154 6.36813 420.038 7.82435 421.534 9.58392 421.495 10.5396 421.474 11.4359 420.994 12.0254 420.188 13.1782 422.963 13.4031 426.079 12.6627 429.011 16.7578 428.91 20.0008 425.271 19.9059 420.884 19.8618 418.837 19.0814 416.887 17.7277 415.441L48.1181 416.12C51.3818 418.178 55.5857 417.013 57.5076 413.517 59.2792 410.294 58.5078 406.16 55.7157 403.914 61.465 403.684 65.9515 398.505 65.7364 392.346 65.6499 389.871 64.7975 387.497 63.3133 385.598 58.8549 387.745 54.1814 389.338 49.3844 390.345 63.3359 388.455 75.2218 378.582 80.4038 364.578 80.508 371.917 86.1461 377.775 92.9962 377.663 93.6579 377.653 94.318 377.585 94.97 377.462 103.187 371.188 106.54 359.851 103.197 349.653 95.4364 348.414 87.5259 350.354 81.041 355.086 84.6666 351.13 86.5137 345.686 86.1061 340.16 83.3154 343.926 80.3575 347.547 77.2422 351.009L75.976 334.735Z" stroke="#FFFFFF" stroke-width="1.7646" stroke-linecap="round" stroke-linejoin="round" stroke-miterlimit="3" fill="#9A0000" fill-rule="evenodd" transform="matrix(0.998249 0.0871543 -0.0873354 0.996179 1365.04 428.075)"/><path d="M0 429.066 4.89413 429.066" stroke="#FFFFFF" stroke-width="0.98046" stroke-linecap="round" stroke-linejoin="round" stroke-miterlimit="3" fill="none" fill-rule="evenodd" transform="matrix(-0.966547 0.263381 -0.263928 -0.964543 1494 1209.26)"/><path d="M9.01908 415.482C12.1175 416.329 14.8132 418.478 16.4615 421.413 17.9702 421.135 18.9822 419.598 18.7219 417.982 18.6327 417.428 18.3984 416.913 18.0463 416.495L15.5138 413.62C17.9784 413.227 20.3137 414.919 20.8893 417.517 21.3803 420.056 20.2131 422.632 18.0463 423.791 17.842 426.318 15.9698 428.321 13.6103 428.537 8.9186 429.688 3.99138 428.706-1.24656e-07 425.825 2.95386 428.163 7.11774 427.493 9.30027 424.329 11.1357 421.667 11.0193 418.003 9.01908 415.482Z" stroke="#FFFFFF" stroke-width="0.980335" stroke-linecap="round" stroke-linejoin="round" stroke-miterlimit="3" fill="#9A0000" fill-rule="evenodd" transform="matrix(0.998249 0.0871543 -0.0873354 0.996179 1411.15 379.811)"/><path d="M0 418.628C3.26124 418.293 6.49104 417.67 9.6563 416.765 13.5143 418.035 16.8591 420.663 19.1492 424.224 16.9872 428.037 12.7186 429.84 8.70864 428.635 3.84923 428.164 0.0980915 423.854 6.54444e-07 418.628Z" stroke="#FFFFFF" stroke-width="0.980335" stroke-linecap="round" stroke-linejoin="round" stroke-miterlimit="3" fill="#9A0000" fill-rule="evenodd" transform="matrix(0.998249 0.0871543 -0.0873354 0.996179 1408.71 378.559)"/><path d="M7.26265 408.685C3.41262 408.404 0.163286 411.47 0.00505384 415.532-0.0491624 416.924 0.272031 418.315 0.931318 419.543 0.134007 423.769 2.68578 427.887 6.63087 428.741 6.89092 428.797 7.15364 428.839 7.41787 428.864 11.0638 429.646 14.6114 427.114 15.3415 423.208 15.7422 421.065 15.2137 418.842 13.9044 417.165 11.4734 416.066 8.69279 416.32 6.47021 417.843 5.01805 418.225 3.50826 418.283 2.0342 418.015 0.784488 415.508 1.66842 412.391 4.00851 411.052 5.00503 410.482 6.15725 410.306 7.26265 410.556 7.74491 410.361 7.98809 409.784 7.80579 409.267 7.71106 408.999 7.51325 408.787 7.26265 408.685Z" stroke="#FFFFFF" stroke-width="0.980335" stroke-linecap="round" stroke-linejoin="round" stroke-miterlimit="3" fill="#9A0000" fill-rule="evenodd" transform="matrix(0.998249 0.0871543 -0.0873354 0.996179 1407.39 377.876)"/><path d="M7.23814 420.057C7.47308 422.296 5.96904 424.316 3.87876 424.568 3.41421 424.623 2.94401 424.587 2.49168 424.461 4.12639 426.528 7.0166 426.786 8.94719 425.034 10.0298 424.052 10.6266 422.588 10.5631 421.07 11.741 423.83 10.6076 427.09 8.03159 428.352 7.72678 428.5 7.40904 428.618 7.08292 428.701 4.28348 429.723 1.24056 428.12 0.286358 425.121-0.0239274 424.146-0.0833358 423.1 0.114372 422.091 2.62699 422.207 5.11252 421.497 7.23814 420.057Z" stroke="#FFFFFF" stroke-width="0.980335" stroke-linecap="round" stroke-linejoin="round" stroke-miterlimit="3" fill="#9A0000" fill-rule="evenodd" transform="matrix(0.998249 0.0871543 -0.0873354 0.996179 1410.23 375.651)"/><path d="M0 421.74C3.24328 415.556 9.37306 411.916 15.9876 412.247 16.7418 415.172 16.9033 418.236 16.4615 421.234 15.6109 422.738 13.8809 423.38 12.3441 422.761 13.6504 424.26 13.5756 426.608 12.1769 428.008 10.7782 429.407 8.58537 429.327 7.27899 427.829 6.0352 426.402 6.0352 424.188 7.27899 422.761 5.00211 421.65 2.46709 421.295-1.24656e-07 421.74Z" stroke="#FFFFFF" stroke-width="0.980335" stroke-linecap="round" stroke-linejoin="round" stroke-miterlimit="3" fill="#9A0000" fill-rule="evenodd" transform="matrix(0.998249 0.0871543 -0.0873354 0.996179 1452.7 378.003)"/><path d="M0 410.102C7.59134 411.635 13.1662 418.136 13.5235 425.873 12.9103 428.181 10.5417 429.556 8.23301 428.943 5.92443 428.329 4.55009 425.96 5.16336 423.652 5.17879 423.594 5.19545 423.536 5.2133 423.479 6.32793 418.376 4.27302 413.104-2.96125e-07 410.102Z" stroke="#FFFFFF" stroke-width="1.765" stroke-linecap="round" stroke-linejoin="round" stroke-miterlimit="3" fill="#9A0000" fill-rule="evenodd" transform="matrix(0.342647 -0.939464 0.941416 0.341937 990.612 996.586)"/><path d="M0 410.104C7.59138 411.637 13.1663 418.138 13.5236 425.875 12.9103 428.183 10.5417 429.558 8.23305 428.945 5.92445 428.331 4.55011 425.962 5.16338 423.654 5.17882 423.596 5.19547 423.538 5.21333 423.481 6.32796 418.378 4.27304 413.106-2.96127e-07 410.104Z" stroke="#FFFFFF" stroke-width="1.76501" stroke-linecap="round" stroke-linejoin="round" stroke-miterlimit="3" fill="#9A0000" fill-rule="evenodd" transform="matrix(-0.34593 -0.93826 0.94021 -0.345213 985.514 1306.28)"/><path d="M0 410.286C7.59474 411.819 13.1721 418.323 13.5296 426.063 12.916 428.373 10.5464 429.748 8.23669 429.135 5.92708 428.521 4.55213 426.151 5.16567 423.841 5.18111 423.783 5.19777 423.725 5.21563 423.668 6.33076 418.564 4.27493 413.289-2.96258e-07 410.286Z" stroke="#FFFFFF" stroke-width="1.76579" stroke-linecap="round" stroke-linejoin="round" stroke-miterlimit="3" fill="#9A0000" fill-rule="evenodd" transform="matrix(-0.577232 -0.816581 0.818277 -0.576035 1059.12 1418.95)"/><path d="M0 410.022C7.58987 411.555 13.1636 418.055 13.5209 425.79 12.9078 428.098 10.5396 429.472 8.23141 428.859 5.92327 428.246 4.54921 425.877 5.16235 423.569 5.17779 423.511 5.19444 423.453 5.21229 423.396 6.3267 418.295 4.27219 413.024-2.96068e-07 410.022Z" stroke="#FFFFFF" stroke-width="1.76466" stroke-linecap="round" stroke-linejoin="round" stroke-miterlimit="3" fill="#9A0000" fill-rule="evenodd" transform="matrix(-0.990233 -0.152978 0.153296 -0.988181 1368.61 1592.23)"/><path d="M0 410.028C7.58997 411.561 13.1638 418.06 13.5211 425.796 12.9079 428.104 10.5397 429.478 8.23152 428.865 5.92335 428.252 4.54927 425.883 5.16242 423.575 5.17786 423.517 5.19451 423.459 5.21236 423.402 6.32679 418.301 4.27225 413.029-2.96072e-07 410.028Z" stroke="#FFFFFF" stroke-width="1.76469" stroke-linecap="round" stroke-linejoin="round" stroke-miterlimit="3" fill="#9A0000" fill-rule="evenodd" transform="matrix(0.986792 0.173637 -0.173998 0.984746 1343.64 484.628)"/><path d="M0 410.102C7.59133 411.634 13.1662 418.136 13.5235 425.872 12.9103 428.181 10.5416 429.555 8.233 428.942 5.92442 428.328 4.55009 425.96 5.16335 423.651 5.17879 423.593 5.19544 423.535 5.21329 423.478 6.32793 418.376 4.27301 413.104-2.96125e-07 410.102Z" stroke="#FFFFFF" stroke-width="1.765" stroke-linecap="round" stroke-linejoin="round" stroke-miterlimit="3" fill="#9A0000" fill-rule="evenodd" transform="matrix(0.941416 -0.341938 0.342648 0.939465 1104.05 504.37)"/><path d="M0 410.282C7.59467 411.816 13.172 418.32 13.5295 426.06 12.9159 428.369 10.5463 429.744 8.23662 429.131 5.92703 428.517 4.55209 426.147 5.16562 423.838 5.18107 423.78 5.19773 423.722 5.21559 423.664 6.33071 418.56 4.27489 413.286-2.96255e-07 410.282Z" stroke="#FFFFFF" stroke-width="1.76578" stroke-linecap="round" stroke-linejoin="round" stroke-miterlimit="3" fill="#9A0000" fill-rule="evenodd" transform="matrix(0.820294 -0.573186 0.574376 0.818594 989.447 568.805)"/><path d="M0 410.023C7.58988 411.556 13.1637 418.056 13.5209 425.791 12.9078 428.099 10.5396 429.473 8.23143 428.86 5.92329 428.247 4.54922 425.878 5.16237 423.57 5.1778 423.512 5.19445 423.454 5.2123 423.397 6.32672 418.296 4.2722 413.025-2.96068e-07 410.023Z" stroke="#FFFFFF" stroke-width="1.76467" stroke-linecap="round" stroke-linejoin="round" stroke-miterlimit="3" fill="#9A0000" fill-rule="evenodd" transform="matrix(0.156751 -0.987638 0.98969 0.156426 816.041 879.318)"/></g></g><path d="M1576.99 285.5 1966.5 285.5 1966.5 1499.8C1925.65 1677.46 1775.87 1662.7 1757.67 1662.49 1721.01 1661.48 1670.74 1657.44 1617.82 1656.94L1576.99 1657.66 1564.42 1657.88C1493.14 1661.35 1423.66 1675.02 1382 1714.5 1335.83 1673.43 1259.77 1660.24 1188.7 1657.66L1187.24 1657.64 1146.93 1657.24C1119.86 1657.62 1094.7 1659.15 1073.69 1660.71 966.249 1676.49 884.926 1637.18 877.789 1633.7 857.556 1618.45 817.734 1594.8 797.5 1505.78L797.5 285.5 1187.24 285.5 1576.99 285.5Z" stroke="#000000" stroke-width="15.4357" stroke-miterlimit="8" fill="none" fill-rule="evenodd"/><path d="M0.149241 972.702C6.96906 519.227 285.997 229.003 480.957 129.305 518.322 110.195 533.714 151.784 537.325 160.006 540.862 168.267 546.898 185.892 560.138 195.371 575.219 186.044 603.94 187.357 617.453 186.787 586.944 168.019 511.94 64.4574 504.682 48.9069 515.131 58.6141 611.471 133.131 672.763 117.58 656.405 98.8322 634.322 35.5648 640.376 0.219314 653.98 37.6393 698.001 65.9611 724.352 87.6596 775.249 129.419 830.595 123.976 847.171 135.701 895.442 169.999 862.891 215.089 856.781 223.826 851.73 231.059 829.92 271.943 832.728 310.315 836.12 355.805 802.529 373.639 763.906 355.766 721.088 335.934 605.034 352.931 582.896 368.919 561.287 384.526 531.197 382.87 512.141 364.731 488.999 342.881 478.331 323.372 478.331 323.372 299.874 442.065 157.105 698.542 156.704 972.702 156.321 1258.26 308.519 1513.28 497.059 1635.41 497.059 1635.41 510.864 1612.69 535.993 1595.21 560.083 1578.45 590.318 1572.77 609.867 1589.35 631.531 1607.8 746.071 1613.89 789.654 1596.07 845.055 1573.42 873.941 1591.05 868.288 1636.27 862.489 1683.28 887.655 1705 894.001 1713.36 900.438 1721.75 926.533 1755.8 879.594 1792.12 829.81 1830.68 798.845 1832.41 757.578 1860.83 724.644 1883.44 681.26 1933.71 673.31 1962.22 670.428 1917.41 702.56 1841.59 723.44 1816.42 675.297 1816.42 577.753 1867.53 568.088 1877.58 577.389 1863.36 628.34 1781.25 658.009 1761.13 648.399 1761.13 608.226 1756.96 596.992 1750.22 584.136 1760.29 568.088 1790.44 564.897 1798.84 561.688 1807.21 550.472 1850.57 512.304 1833.19 313.369 1742.42-6.72607 1426.25 0.149241 972.702" stroke="#000000" stroke-width="2.29167" stroke-miterlimit="8" fill-rule="evenodd" transform="matrix(-1.83697e-16 -1 -1 1.83697e-16 2354 2139)"/><g clip-path="url(#clip3)"><g clip-path="url(#clip4)"><g clip-path="url(#clip5)"><g clip-path="url(#clip6)"><text fill="#FFFFFF" font-family="Garamond,Garamond_MSFontService,sans-serif" font-weight="700" font-size="367" transform="matrix(0.193364 0.212081 -0.21214 0.193418 653.351 1744)">G</text></g></g></g></g><g clip-path="url(#clip7)"><g clip-path="url(#clip8)"><g clip-path="url(#clip9)"><g clip-path="url(#clip10)"><text fill="#FFFFFF" font-family="Garamond,Garamond_MSFontService,sans-serif" font-weight="700" font-size="367" transform="matrix(0.212398 0.193138 -0.193082 0.212337 737.962 1840)">U</text></g></g></g></g><g clip-path="url(#clip11)"><g clip-path="url(#clip12)"><g clip-path="url(#clip13)"><g clip-path="url(#clip14)"><text fill="#FFFFFF" font-family="Garamond,Garamond_MSFontService,sans-serif" font-weight="700" font-size="367" transform="matrix(0.249247 0.142444 -0.142403 0.249176 912.296 1970)">T</text></g></g></g></g><g clip-path="url(#clip15)"><g clip-path="url(#clip16)"><g clip-path="url(#clip17)"><g clip-path="url(#clip18)"><text fill="#FFFFFF" font-family="Garamond,Garamond_MSFontService,sans-serif" font-weight="700" font-size="367" transform="matrix(0.237927 0.16064 -0.160594 0.237859 831.226 1918)">S</text></g></g></g></g><g clip-path="url(#clip19)"><g clip-path="url(#clip20)"><g clip-path="url(#clip21)"><g clip-path="url(#clip22)"><text fill="#FFFFFF" font-family="Garamond,Garamond_MSFontService,sans-serif" font-weight="700" font-size="367" transform="matrix(0.265457 0.1093 -0.109269 0.265382 1009.44 2023)">I</text></g></g></g></g><g clip-path="url(#clip23)"><g clip-path="url(#clip24)"><g clip-path="url(#clip25)"><g clip-path="url(#clip26)"><text fill="#FFFFFF" font-family="Garamond,Garamond_MSFontService,sans-serif" font-weight="700" font-size="367" transform="matrix(0.284818 0.0359624 -0.0359521 0.284736 1225.4 2085)">T</text></g></g></g></g><g clip-path="url(#clip27)"><g clip-path="url(#clip28)"><g clip-path="url(#clip29)"><g clip-path="url(#clip30)"><text fill="#FFFFFF" font-family="Garamond,Garamond_MSFontService,sans-serif" font-weight="700" font-size="367" transform="matrix(0.241011 -0.155973 0.15593 0.240943 1872.16 1959)">A</text></g></g></g></g><g clip-path="url(#clip31)"><g clip-path="url(#clip32)"><g clip-path="url(#clip33)"><g clip-path="url(#clip34)"><text fill="#FFFFFF" font-family="Garamond,Garamond_MSFontService,sans-serif" font-weight="700" font-size="367" transform="matrix(0.222534 -0.180003 0.179952 0.222471 1958.05 1900)">R</text></g></g></g></g><g clip-path="url(#clip35)"><g clip-path="url(#clip36)"><g clip-path="url(#clip37)"><g clip-path="url(#clip38)"><text fill="#FFFFFF" font-family="Garamond,Garamond_MSFontService,sans-serif" font-weight="700" font-size="367" transform="matrix(0.196144 -0.205993 0.206051 0.196199 2039.47 1830)">E</text></g></g></g></g><g clip-path="url(#clip39)"><g clip-path="url(#clip40)"><g clip-path="url(#clip41)"><g clip-path="url(#clip42)"><text fill="#FFFFFF" font-family="Garamond,Garamond_MSFontService,sans-serif" font-weight="700" font-size="367" transform="matrix(0.287023 0 0 0.285912 1341.46 2102)">A</text></g></g></g></g><g clip-path="url(#clip43)"><g clip-path="url(#clip44)"><g clip-path="url(#clip45)"><g clip-path="url(#clip46)"><text fill="#FFFFFF" font-family="Garamond,Garamond_MSFontService,sans-serif" font-weight="700" font-size="367" transform="matrix(0.284455 -0.0317501 0.0317411 0.284374 1454.46 2093)">R</text></g></g></g></g><g clip-path="url(#clip47)"><g clip-path="url(#clip48)"><g clip-path="url(#clip49)"><g clip-path="url(#clip50)"><text fill="#FFFFFF" font-family="Garamond,Garamond_MSFontService,sans-serif" font-weight="700" font-size="367" transform="matrix(0.280823 -0.0596007 0.0595839 0.280744 1569.17 2076)">A</text></g></g></g></g><g clip-path="url(#clip51)"><g clip-path="url(#clip52)"><g clip-path="url(#clip53)"><g clip-path="url(#clip54)"><text fill="#FFFFFF" font-family="Garamond,Garamond_MSFontService,sans-serif" font-weight="700" font-size="367" transform="matrix(0.256242 -0.129439 0.129402 0.256169 1785.78 2008)">S</text></g></g></g></g></g></svg>