<svg width="1309" height="1415" xmlns="http://www.w3.org/2000/svg" xmlns:xlink="http://www.w3.org/1999/xlink" overflow="hidden"><defs><clipPath id="clip0"><rect x="712" y="2031" width="1309" height="1415"/></clipPath></defs><g clip-path="url(#clip0)" transform="translate(-712 -2031)"><path d="M721.337 2039.76 2012.34 2039.76C1997.62 2469.79 1996.48 2696.29 1825.48 2984.89 1706.58 3207.95 1540.11 3334.42 1366.84 3436.76 1136.95 3314.88 958.02 3113.67 850.437 2877.96 749.328 2633.57 747.382 2519.23 721.337 2039.76Z" stroke="#000000" stroke-width="15.7551" stroke-miterlimit="8" fill-rule="evenodd"/><path d="M768.333 2036.74 1970.33 2036.74C1956.63 2452.3 1955.58 2671.18 1796.36 2950.07 1685.65 3165.63 1530.65 3287.85 1369.33 3386.74 1155.3 3268.96 988.699 3074.51 888.533 2846.74 794.4 2610.56 792.579 2500.06 768.333 2036.74Z" fill="#EBD700" fill-rule="evenodd"/><path d="M847.335 2697.3C874.676 2683.43 909.554 2673.38 936.336 2658.46 965.601 2639.38 990.106 2641.04 1016.85 2617.43 1062.75 2590.88 1093.27 2572.15 1241.92 2522.83 1257.11 2519.3 1256.46 2527.19 1266.35 2524.6 1278.93 2520.41 1289.72 2507.27 1301.24 2507.27 1318.06 2519.72 1326.07 2510.7 1334.8 2513.05 1342 2516.16 1345.41 2526.25 1353.58 2526.25 1364.02 2518.76 1367.89 2524.47 1377.06 2522.13 1399.92 2508.44 1396.07 2499.89 1407.25 2503.96 1415.08 2499.84 1417.32 2495.85 1424.03 2497.36 1436.15 2497.56 1438.79 2506.99 1447.52 2508.92 1467.8 2504.82 1470.55 2516.41 1476.37 2517.17 1481.11 2517.05 1481.06 2519.64 1483.75 2516.79 1524.72 2464.78 1524.87 2473.95 1538.13 2472.18 1565.01 2467.92 1559.29 2472.94 1583.04 2490.76 1600.27 2507.89 1613.24 2516.56 1635.38 2530.96 1657.52 2545.37 1712.2 2579.79 1717.24 2577.28 1739.38 2574.14 1761.16 2594.14 1783.76 2604.18 1814.44 2615.92 1882.59 2631.13 1901.33 2649.35 1888.6 2697.99 1882.45 2717.54 1867.29 2762.7 1859.79 2807.7 1834.94 2843.64 1808.57 2904.04 1776.19 2957.1 1743.76 3033.13 1680.21 3117.75 1578.11 3243.09 1435.02 3346 1362.4 3378.76 1277.35 3333.62 1214.03 3282.44 1176.95 3245.48 1098.08 3170.86 1021.56 3076.36 990.439 3025.99 913.666 2903.73 887.866 2820.9 872.861 2781.14L847.335 2697.3Z" stroke="#000000" stroke-width="15.7551" stroke-miterlimit="8" fill-rule="evenodd"/><path d="M765.829 2044.25 1973.83 2044.25C1960.06 2456.73 1959 2674 1798.99 2950.82 1687.73 3164.78 1531.95 3286.1 1369.83 3384.25 1154.72 3267.35 987.296 3074.35 886.629 2848.25 792.027 2613.82 790.197 2504.16 765.829 2044.25Z" stroke="#EBD700" stroke-width="20.625" stroke-miterlimit="8" fill="none" fill-rule="evenodd"/></g></svg>