<svg width="1234" height="1614" xmlns="http://www.w3.org/2000/svg" xmlns:xlink="http://www.w3.org/1999/xlink" overflow="hidden"><defs><clipPath id="clip0"><rect x="747" y="254" width="1234" height="1614"/></clipPath></defs><g clip-path="url(#clip0)" transform="translate(-747 -254)"><path d="M1125.59 1712.27C1249.06 1712.58 1351.02 1760.1 1366.26 1821.95 1381.48 1760.1 1483.45 1712.27 1606.91 1712.27L1888.09 1711.59C1934.28 1711.59 1971.75 1672.38 1971.75 1624.02L1971.75 267.95 760.752 267.95 760.746 1624.02C760.746 1672.38 798.202 1711.59 844.396 1711.59L1125.57 1712.27Z" fill="#054053" fill-rule="evenodd"/><path d="M1028.74 870.562C1000.94 827.236 977.252 782.777 957.905 737.604L998.94 704.534C1009.87 703.581 1016.61 694.782 1014 684.881 1012.51 679.255 1008.2 674.21 1002.35 671.256 992.042 666.064 980.053 668.733 975.569 677.217 973.955 680.27 973.483 683.809 974.212 687.384L956.672 701.419 964.932 669.763C974.412 665.632 977.203 654.948 971.167 645.901 968.994 642.643 965.852 639.902 962.143 638.029 951.842 632.831 939.85 635.491 935.357 643.971 932.706 648.976 933.183 655.161 936.637 660.547L924.783 705.896 909.844 672.408C914.437 663.979 909.845 652.866 899.588 647.585 899.52 647.55 899.453 647.516 899.384 647.482 888.98 642.485 877.103 645.407 872.855 654.007 868.838 662.141 873.069 672.54 882.568 677.88L910.38 740.248 882.81 773.265C871.559 772.953 863.422 780.814 864.636 790.825 865.425 797.337 870.08 803.457 876.829 806.858 887.133 812.05 899.121 809.382 903.607 800.898 904.944 798.369 905.502 795.496 905.231 792.536L932.158 760.2C944.513 800.87 964.684 840.775 991.94 878.469 997.771 886.611 1010.24 890.512 1019.8 887.183 1027.58 884.472 1031.24 877.672 1028.74 870.562Z" stroke="#054053" stroke-width="5.3856" stroke-linecap="round" stroke-linejoin="round" stroke-miterlimit="10" fill="#EEBF12" fill-rule="evenodd"/><path d="M1140.51 872.42C1160.61 877.603 1182.1 871.522 1196.41 856.601 1150.96 831.104 1093.09 847.41 1067.14 893.02 1062.11 901.868 1058.52 911.452 1056.52 921.407 1055.18 947.347 1056.88 973.335 1061.59 998.836 1078.18 995.046 1089.28 979.312 1087.25 962.482 1088.93 982.788 1095.28 1002.46 1105.84 1020.07 1114.18 1000.83 1115.93 979.423 1110.84 958.867 1116.96 983.943 1131.89 1006.08 1153.07 1021.46 1154.57 994.711 1143.75 968.624 1123.47 950.128 1138.74 969.192 1161.02 981.612 1185.61 984.766 1173.35 961.419 1154.15 942.569 1130.76 930.91 1153.62 941.749 1178.77 946.968 1204.14 946.135 1186.95 927.037 1165.66 912.214 1141.93 902.823 1164.26 908.477 1187.7 907.951 1209.78 901.303 1188.86 886.825 1165.25 876.981 1140.51 872.42Z" stroke="#054053" stroke-width="5.3856" stroke-linecap="round" stroke-linejoin="round" stroke-miterlimit="10" fill="#EEBF12" fill-rule="evenodd"/><path d="M1109.56 866.505C1116.3 862.197 1122.43 857.027 1127.78 851.126 1088.96 833.486 1043.68 849.97 1026.65 887.944 1023.34 895.319 1021.27 903.197 1020.51 911.276 1019.65 933.758 1021.47 956.318 1025.93 978.494 1042.04 976.779 1053.4 962.459 1051.32 946.51 1050.98 943.923 1050.3 941.384 1049.28 938.963 1063.49 950.877 1081.71 956.981 1100.1 955.992 1096.26 940.947 1087.72 927.386 1075.71 917.245 1088.42 925.283 1103.79 927.918 1118.26 924.543 1111.23 912.104 1101.42 901.377 1089.59 893.2 1103.8 901.488 1120.86 903.212 1136.18 897.906 1131.1 884.84 1121.71 873.77 1109.56 866.505Z" stroke="#054053" stroke-width="5.3856" stroke-linecap="round" stroke-linejoin="round" stroke-miterlimit="10" fill="#EEBF12" fill-rule="evenodd"/><path d="M1022.81 852.848C1025.87 835.985 1020.72 818.863 1008.95 806.706 1000.71 796.724 998.447 783.041 1003.01 770.685 982.729 787.729 979.813 817.579 996.494 837.357 1003.22 845.33 1012.48 850.782 1022.81 852.848Z" stroke="#054053" stroke-width="5.3856" stroke-linecap="round" stroke-linejoin="round" stroke-miterlimit="10" fill="#EEBF12" fill-rule="evenodd"/><path d="M1021.02 862.437C1014.31 846.708 1000.44 834.918 983.644 830.665 971.062 826.454 961.561 816.095 958.63 803.392 950.703 828.005 964.719 854.582 989.934 862.754 1000.1 866.048 1011.04 865.937 1021.02 862.437Z" stroke="#054053" stroke-width="5.3856" stroke-linecap="round" stroke-linejoin="round" stroke-miterlimit="10" fill="#EEBF12" fill-rule="evenodd"/><path d="M1012.15 868.666C997.789 859.379 979.697 857.361 963.393 863.228 950.608 866.772 936.937 863.497 927.405 854.606 934.596 879.443 961.077 893.639 986.552 886.313 996.821 883.36 1005.83 877.15 1012.15 868.666Z" stroke="#054053" stroke-width="5.3856" stroke-linecap="round" stroke-linejoin="round" stroke-miterlimit="10" fill="#EEBF12" fill-rule="evenodd"/><path d="M1008.95 885.905C992.584 880.937 974.637 883.983 960.581 894.117 949.268 901.048 935.225 901.668 923.611 895.748 937.37 917.641 966.738 923.988 989.206 909.925 998.264 904.255 1005.21 895.802 1008.95 885.905Z" stroke="#054053" stroke-width="5.3856" stroke-linecap="round" stroke-linejoin="round" stroke-miterlimit="10" fill="#EEBF12" fill-rule="evenodd"/><path d="M1002.64 901.219C989.002 903.066 977.196 911.237 970.826 923.24 965.243 932.02 955.347 937.139 944.773 936.717 962.829 947.982 986.362 942.802 997.333 925.148 1001.75 918.037 1003.62 909.617 1002.64 901.219Z" stroke="#054053" stroke-width="5.3856" stroke-linecap="round" stroke-linejoin="round" stroke-miterlimit="10" fill="#EEBF12" fill-rule="evenodd"/><path d="M1079.27 850.252C1052.95 832.364 1017.39 838.623 999.844 864.233 993.643 873.284 990.297 883.987 990.222 895.022 989.365 917.51 991.191 940.075 995.662 962.254 1015.36 957.672 1027.22 938.104 1022.16 918.546 1021.34 915.371 1020.09 912.31 1018.44 909.445 1029.19 917.886 1042.74 921.954 1056.24 920.793 1051.97 909.621 1044.26 899.992 1034.21 893.282 1046.37 899.379 1060.41 900.365 1073.09 896.012 1066.23 884.462 1056.78 874.579 1045.5 867.136 1058.1 876.064 1073.93 879.103 1088.74 875.436 1090.25 866.075 1086.65 856.515 1079.27 850.252Z" stroke="#054053" stroke-width="5.3856" stroke-linecap="round" stroke-linejoin="round" stroke-miterlimit="10" fill="#EEBF12" fill-rule="evenodd"/><path d="M1007.46 689.211C1030.7 676.991 1031.16 648.476 1008.5 623.892 1014.54 644.005 1009.81 662.363 995.48 674.402 992.378 677.248 993.815 682.47 998.69 686.065 1001.3 687.99 1004.51 689.142 1007.46 689.211Z" stroke="#054053" stroke-width="5.3856" stroke-linecap="round" stroke-linejoin="round" stroke-miterlimit="10" fill="#EEBF12" fill-rule="evenodd"/><path d="M960.639 651.315C979.837 633.203 973.099 605.26 945.205 587.306 956.065 605.317 956.159 624.489 945.465 640.054 943.216 643.66 945.913 648.371 951.491 650.576 954.46 651.75 957.806 652.02 960.639 651.315Z" stroke="#054053" stroke-width="5.3856" stroke-linecap="round" stroke-linejoin="round" stroke-miterlimit="10" fill="#EEBF12" fill-rule="evenodd"/><path d="M896.838 655.462C902.908 628.837 883.289 605.787 851.899 602.665 869.727 614.293 879.567 632.35 878.974 652.349 878.995 656.872 883.527 660.001 889.097 659.339 892.094 658.982 894.93 657.561 896.838 655.462Z" stroke="#054053" stroke-width="5.3856" stroke-linecap="round" stroke-linejoin="round" stroke-miterlimit="10" fill="#EEBF12" fill-rule="evenodd"/><path d="M65.5406 5.54992C41.4438-7.99548 12.8347 3.40715 0.00929052 31.6681 16.9128 18.5418 37.6028 14.7506 56.9372 21.2365 61.3586 22.5592 65.8249 19.2735 66.9131 13.8979 67.4985 11.0056 66.9956 7.94659 65.5406 5.54992Z" stroke="#054053" stroke-width="5.3856" stroke-linecap="round" stroke-linejoin="round" stroke-miterlimit="10" fill="#EEBF12" fill-rule="evenodd" transform="matrix(0.952661 -0.304033 -0.304033 -0.952661 826.515 824.158)"/><path d="M1504.11 1135.19C1581.44 1149.06 1660.89 1148.15 1738.37 1132.51 1760.42 1125.07 1772.57 1100.96 1765.52 1078.67 1762.38 1068.73 1755.71 1060.36 1746.81 1055.18 1714.75 1033.89 1678.87 1019.13 1641.14 1011.68 1610.88 1007.83 1580.94 1001.97 1551.49 994.129 1532.8 988.421 1512.6 990.026 1494.83 998.631 1483 1007.26 1467.74 1009.28 1454.29 1003.99 1442.13 1001.32 1434.52 989.122 1437.3 976.737 1437.47 976.006 1437.67 975.283 1437.9 974.572 1440.74 984.319 1450.85 989.782 1460.49 986.774 1462.76 986.066 1464.88 984.917 1466.72 983.392 1477.67 973.36 1492.3 968.571 1506.84 970.256 1488.35 947.289 1489.85 913.692 1510.33 892.012 1507.76 877.795 1499.74 865.259 1488.03 857.13 1472.11 849.7 1465.31 830.492 1472.83 814.23 1474.86 809.834 1477.83 805.944 1481.52 802.845 1488.89 794.524 1499.01 789.243 1509.91 788.024 1522.37 788.367 1534.67 784.631 1544.99 777.367 1539.69 792.898 1528.53 805.713 1513.98 812.96 1505.1 816.676 1500.78 826.957 1504.33 835.922 1504.66 836.771 1505.06 837.591 1505.53 838.374 1515.87 851.067 1525.24 864.557 1533.54 878.728 1543.42 876.049 1553.58 874.679 1563.77 874.653L1772.12 927.03C1798.1 924.05 1817.06 900.272 1814.46 873.922 1812.74 856.516 1801.81 841.564 1785.94 834.906 1763.66 829.202 1740.33 840.37 1730.26 861.55 1724.28 868.747 1716.6 874.286 1707.95 877.634 1666.85 883.518 1627.02 861.949 1609.24 824.178 1631.18 846.939 1666.4 849.807 1692.15 830.929 1699.51 827.476 1707.14 824.64 1714.94 822.449 1722.69 818.838 1730.82 816.174 1739.17 814.517 1706.52 825.671 1671.33 825.8 1638.89 814.884 1611.66 806.15 1586.76 791.365 1565.97 771.594 1546.26 751.505 1546.53 718.786 1566.57 698.514 1569.27 695.778 1572.27 693.354 1575.49 691.287 1620.35 668.168 1672.75 666.371 1718.49 686.383 1740.72 700.774 1768.92 702.128 1792.72 689.946 1775.52 713.24 1744.25 720.409 1719.28 706.785L1778.72 728.419C1802.75 737.645 1826.57 747.428 1850.16 757.759 1875.63 766.453 1903.94 759.972 1923.59 740.944 1919.38 777.485 1886.84 804.022 1850.9 800.217 1848.62 799.975 1846.35 799.612 1844.11 799.128 1809.83 793.016 1777.61 778.561 1750.21 756.992 1722.72 741.799 1695.75 725.69 1669.33 708.691 1676.59 715.208 1682.03 723.546 1685.13 732.891 1688.41 745.677 1680.82 758.871 1668.19 762.361 1666.36 762.864 1664.49 763.145 1662.61 763.198 1648.87 763.891 1635.21 761.218 1622.78 755.405 1632.36 756.345 1640.98 749.205 1642.03 739.457 1642.47 735.398 1641.52 731.329 1639.33 727.934 1634.36 713.501 1618.75 706.049 1604.47 711.289 1598.61 713.439 1593.61 717.539 1590.31 722.915 1582.14 733.874 1584.19 749.362 1594.88 757.511 1596.76 758.946 1598.85 760.092 1601.06 760.912 1627.76 786.433 1665.5 796.393 1701.43 787.4 1738.34 790.229 1774.52 798.873 1808.68 813.024 1826.02 820.283 1839.29 834.895 1845.02 853.045 1853.37 830.819 1875.28 816.837 1898.49 818.919 1910.6 824.394 1924.92 818.803 1930.46 806.433 1934.83 796.698 1932.54 785.296 1924.8 778.22 1943.38 780.632 1956.33 797.912 1953.72 816.817 1951.37 833.784 1937.16 846.605 1920.32 846.952 1907.41 848.555 1895.88 856.1 1889.06 867.402 1884.66 881.021 1870.27 888.584 1856.91 884.294 1855.85 883.954 1854.81 883.542 1853.81 883.062 1850.76 893.249 1848.62 903.678 1847.4 914.227 1831.3 945.996 1798.51 965.505 1763.55 964.116 1692.05 949.944 1621.6 931.013 1552.66 907.446 1540.41 906.956 1529.97 916.648 1529.33 929.093 1528.86 938.194 1533.83 946.617 1541.92 950.444L1665.13 981.879C1706.16 991.324 1744.14 1010.91 1775.72 1038.91 1772.46 1000.15 1800.8 965.649 1839.01 961.845 1839.32 961.814 1839.63 961.785 1839.94 961.759 1851.54 960.802 1863.18 962.498 1873.98 966.722 1889 975.855 1908.56 971.611 1918.86 956.985 1919.95 985.003 1898.45 1008.91 1870.84 1010.37 1860.47 1010.93 1850.22 1008.19 1841.52 1002.54 1820.33 998.892 1800.02 1013.42 1796.15 1034.99 1794.53 1044.03 1796.05 1053.33 1800.43 1061.28 1812.53 1106.33 1786.25 1153.27 1741.73 1166.13 1734.66 1168.17 1727.37 1169.27 1720.05 1169.38L1518.01 1179.53C1503.03 1173.61 1495.02 1157.05 1500.12 1142.55 1501.05 1139.89 1502.4 1137.41 1504.11 1135.19Z" stroke="#054053" stroke-width="5.3856" stroke-linecap="round" stroke-linejoin="round" stroke-miterlimit="10" fill="#EEBF12" fill-rule="evenodd"/><path d="M1560.93 909.791C1578.96 908.624 1596.14 900.15 1608.84 886.161 1629.85 873.385 1655.57 874.662 1674.25 889.41 1657.6 894.394 1642.99 905.518 1633.17 920.699 1612.87 939.299 1582.74 937.694 1565.87 917.115 1564.01 914.845 1562.35 912.394 1560.93 909.79Z" stroke="#054053" stroke-width="5.3856" stroke-linecap="round" stroke-linejoin="round" stroke-miterlimit="10" fill="#EEBF12" fill-rule="evenodd"/><path d="M1598.89 932.745C1616.76 930.015 1633.15 920.079 1644.58 905.038 1662.6 885.28 1691.91 884.191 1710.05 902.605 1693.9 909.013 1680.33 921.349 1671.87 937.304 1648.55 952.089 1619.44 950.271 1598.89 932.745Z" stroke="#054053" stroke-width="5.3856" stroke-linecap="round" stroke-linejoin="round" stroke-miterlimit="10" fill="#EEBF12" fill-rule="evenodd"/><path d="M1652.41 945.013C1666.35 940.79 1678.35 931.057 1685.88 917.873 1707.15 898.975 1738.35 901.386 1755.58 923.26 1738.98 926.575 1723.9 936.131 1713.17 950.14 1697.34 966.74 1672.17 967.059 1656.95 950.853 1655.27 949.062 1653.75 947.107 1652.41 945.013Z" stroke="#054053" stroke-width="5.3856" stroke-linecap="round" stroke-linejoin="round" stroke-miterlimit="10" fill="#EEBF12" fill-rule="evenodd"/><path d="M1636.33 755.426C1647.13 757.735 1658.48 753.197 1665.44 743.79 1668.85 727.377 1661.84 710.972 1648.11 703.235" stroke="#054053" stroke-width="5.3856" stroke-linecap="round" stroke-linejoin="round" stroke-miterlimit="10" fill="#EEBF12" fill-rule="evenodd"/><path d="M1802.15 764.335C1829.03 780.465 1860.2 787.637 1891.71 784.941 1904.35 778.846 1914.07 767.393 1918.37 753.55 1908.45 765.279 1893.94 771.48 1879.42 770.201 1852.76 767.843 1826.97 760.193 1803.4 747.652" stroke="#054053" stroke-width="5.3856" stroke-linecap="round" stroke-linejoin="round" stroke-miterlimit="10" fill="#EEBF12" fill-rule="evenodd"/><path d="M1929.28 770.771C1942.28 780.331 1945 799.49 1935.35 813.564 1931.49 819.193 1926.02 823.397 1919.79 825.521 1900.64 823.662 1881.37 831.149 1867.47 845.846" stroke="#054053" stroke-width="5.3856" stroke-linecap="round" stroke-linejoin="round" stroke-miterlimit="10" fill="#EEBF12" fill-rule="evenodd"/><path d="M1720.75 851.109C1707.58 862.942 1691.66 870.798 1674.82 873.787 1650.27 868.008 1629.49 851.772 1617.34 828.886 1628.49 845.793 1646.56 856.145 1666.46 857.028 1677.06 854.996 1687.36 851.235 1696.98 845.88" stroke="#054053" stroke-width="5.3856" stroke-linecap="round" stroke-linejoin="round" stroke-miterlimit="10" fill="#EEBF12" fill-rule="evenodd"/><path d="M1795.99 998.345C1814.6 977.646 1842.55 969.761 1867.51 978.164 1885.73 984.079 1905.84 974.43 1914.17 955.776 1915.24 974.227 1904.95 991.833 1888.6 999.528 1873.84 1003.49 1858.45 999.811 1847.28 989.635" stroke="#054053" stroke-width="5.3856" stroke-linecap="round" stroke-linejoin="round" stroke-miterlimit="10" fill="#EEBF12" fill-rule="evenodd"/><path d="M1549.14 781.418C1533.68 789.621 1518.45 798.353 1503.5 807.598 1494.16 816.037 1490.01 829.157 1492.84 841.36" stroke="#054053" stroke-width="5.3856" stroke-linecap="round" stroke-linejoin="round" stroke-miterlimit="10" fill="#EEBF12" fill-rule="evenodd"/><path d="M1439.39 981.489C1450.17 1000.16 1473.69 1005.47 1491.92 993.352 1492.33 993.079 1492.74 992.798 1493.14 992.509 1500.69 986.544 1510.03 983.808 1519.19 984.881" stroke="#054053" stroke-width="5.3856" stroke-linecap="round" stroke-linejoin="round" stroke-miterlimit="10" fill="#EEBF12" fill-rule="evenodd"/><path d="M1585.62 916.949C1598.62 918.043 1611.44 911.546 1619.05 900.015 1630.23 882.358 1652.55 876.983 1668.9 888.01 1669.84 888.642 1670.75 889.322 1671.62 890.048" stroke="#054053" stroke-width="5.3856" stroke-linecap="round" stroke-linejoin="round" stroke-miterlimit="10" fill="#EEBF12" fill-rule="evenodd"/><path d="M1633.7 934.624C1648.99 934.583 1663.3 925.708 1671 911.491 1676.2 898.999 1689.87 893.006 1701.53 898.103 1704.42 899.365 1707.01 901.247 1709.15 903.633" stroke="#054053" stroke-width="5.3856" stroke-linecap="round" stroke-linejoin="round" stroke-miterlimit="10" fill="#EEBF12" fill-rule="evenodd"/><path d="M1667.09 950.161C1680.09 951.255 1692.92 944.758 1700.52 933.227 1711.71 915.57 1734.03 910.195 1750.38 921.222 1751.32 921.854 1752.22 922.534 1753.1 923.26" stroke="#054053" stroke-width="5.3856" stroke-linecap="round" stroke-linejoin="round" stroke-miterlimit="10" fill="#EEBF12" fill-rule="evenodd"/><path d="M1179.91 1239.36C1174.05 1216.69 1187.57 1193.44 1210.11 1187.44 1216.14 1185.84 1222.44 1185.6 1228.56 1186.73 1211.82 1191.74 1202.22 1209.45 1207.12 1226.29 1208.65 1231.54 1211.5 1236.3 1215.4 1240.1 1225.84 1248.18 1227.78 1263.28 1219.72 1273.83 1214.45 1280.74 1205.91 1284.26 1197.37 1283.04 1168.48 1294.58 1136.43 1295.04 1107.32 1284.33 1097.2 1283.54 1089.66 1274.63 1090.49 1264.43 1090.57 1263.39 1090.74 1262.35 1091 1261.34 1099.62 1249.15 1096.83 1232.27 1084.77 1223.64 1082.28 1221.86 1079.51 1220.52 1076.58 1219.69 1061.1 1217.38 1046.64 1228.15 1044.28 1243.75 1044.24 1244.01 1044.2 1244.27 1044.17 1244.54 1044.15 1245.09 1044.1 1245.63 1044.04 1246.18 1044.19 1253.97 1046.51 1261.55 1050.74 1268.06 1046.11 1261.75 1043.74 1254.04 1044.04 1246.18 1044.06 1245.63 1044.11 1245.08 1044.17 1244.54 1044.89 1232.17 1035.52 1221.6 1023.24 1220.93 1016.03 1220.54 1009.06 1223.7 1004.55 1229.4 995.812 1239.85 996.646 1255.31 1006.45 1264.66 1007.54 1265.47 1008.59 1266.32 1009.6 1267.21 1009.86 1267.4 1010.13 1267.58 1010.4 1267.75 1010.08 1267.66 1009.8 1267.47 1009.59 1267.22 1008.48 1266.45 1007.43 1265.6 1006.45 1264.66 996.281 1257.11 983.473 1254.08 970.991 1256.27 960.569 1262.44 957.048 1275.92 963.126 1286.4 964.508 1288.78 966.324 1290.87 968.479 1292.57 975.164 1298.83 984.236 1301.83 993.328 1300.8 994.571 1300.54 995.835 1300.4 997.104 1300.38 1003.96 1299.41 1010.7 1302.75 1014.1 1308.8 1010.13 1303.39 1003.8 1300.26 997.104 1300.38 995.696 1300.58 994.318 1300.95 993.002 1301.5 981.288 1300.62 969.516 1302.39 958.543 1306.66 947.711 1314.02 944.814 1328.8 952.073 1339.68 959.332 1350.56 973.997 1353.42 984.829 1346.06 987.513 1344.24 989.799 1341.88 991.547 1339.14 999.103 1330.02 1012.51 1328.7 1021.61 1336.18 1030.27 1344.1 1041.71 1348.23 1053.42 1347.65 1062.51 1346.96 1070.97 1352.3 1074.31 1360.82 1082.91 1373.48 1095.8 1382.53 1110.57 1386.32 1123.06 1385.66 1133.55 1376.54 1136.03 1364.18 1140.85 1354.29 1152.7 1350.18 1162.49 1354.99 1164.11 1355.78 1165.6 1356.79 1166.94 1357.98 1153.94 1366.7 1145.87 1381.17 1145.26 1396.86 1150.25 1411.41 1142.57 1427.33 1128.11 1432.43 1125.64 1433.3 1123.06 1433.81 1120.45 1433.95 1131.09 1446.58 1149.92 1448.09 1162.5 1437.32 1169.18 1431.6 1173.05 1423.22 1173.08 1414.41 1174.99 1392.83 1190.99 1375.14 1212.15 1371.21 1196.69 1382.18 1190.88 1402.49 1198.19 1419.98 1203.89 1431.06 1204.65 1444.08 1200.28 1455.8 1220.02 1451.74 1232.82 1432.35 1228.87 1412.48 1228.85 1412.38 1228.83 1412.28 1228.81 1412.18 1230.43 1401.7 1234.28 1391.68 1240.09 1382.81 1242.5 1395.32 1247.56 1407.16 1254.93 1417.51 1270.04 1429.74 1282.65 1444.8 1292.08 1461.86 1302.6 1441.77 1299.61 1417.26 1284.59 1400.44 1270.35 1374.94 1279.03 1342.58 1304.1 1327.61 1303.16 1327.59 1302.21 1327.57 1301.26 1327.55 1315.03 1321.25 1322.3 1305.88 1318.47 1291.19 1308.03 1273.29 1314.01 1250.2 1331.82 1239.61 1335.23 1237.59 1338.93 1236.12 1342.78 1235.26 1385.05 1228.24 1427.71 1244.63 1454.48 1278.18 1485.79 1259.64 1496.35 1219.11 1478.07 1187.65 1472.48 1178.04 1464.56 1170.01 1455.05 1164.33 1434.96 1184.98 1402.12 1185.39 1381.69 1165.24 1381 1164.56 1380.33 1163.85 1379.67 1163.13 1354.7 1143.14 1323.19 1133.25 1291.29 1135.39 1273.64 1133.09 1261.25 1116.81 1263.6 1099.03 1263.62 1098.88 1263.64 1098.74 1263.66 1098.59 1241.9 1109.5 1231.54 1135 1239.52 1158.06 1207.61 1146.59 1172.16 1150.77 1143.62 1169.36 1125.78 1186.86 1101.57 1196.15 1076.75 1195.02 1087.31 1219.91 1115.93 1231.38 1140.68 1220.64 1153.64 1215.02 1163.57 1204.03 1167.92 1190.51 1157.94 1207.41 1163.29 1229.2 1179.91 1239.36ZM1014.75 1271.49 1029.89 1283.86C1024.55 1280.11 1019.49 1275.97 1014.75 1271.49L1010.31 1267.86C1010.81 1268 1011.29 1268.22 1011.72 1268.51 1012.71 1269.52 1013.72 1270.51 1014.75 1271.49Z" stroke="#054053" stroke-width="5.17014" stroke-linecap="round" stroke-linejoin="round" stroke-miterlimit="10" fill="#EEBF12" fill-rule="evenodd"/><path d="M1082.41 1199.24C1094.95 1212.32 1114.68 1215.39 1130.91 1206.8 1138.67 1198.88 1147.46 1192.06 1157.04 1186.54" stroke="#054053" stroke-width="5.3856" stroke-linecap="round" stroke-linejoin="round" stroke-miterlimit="10" fill="#EEBF12" fill-rule="evenodd"/><path d="M1175.98 1371.76C1166.53 1375.77 1160.37 1385.12 1160.43 1395.38 1163.49 1415.09 1150.04 1433.84 1130.4 1437.26 1126.64 1437.92 1122.8 1437.97 1119.05 1437.41" stroke="#054053" stroke-width="5.3856" stroke-linecap="round" stroke-linejoin="round" stroke-miterlimit="10" fill="#EEBF12" fill-rule="evenodd"/><path d="M1199.68 1454.31C1212.9 1442.43 1217.34 1423.55 1210.72 1407.27 1211.03 1397.34 1214.88 1387.79 1221.58 1380.37" stroke="#054053" stroke-width="5.3856" stroke-linecap="round" stroke-linejoin="round" stroke-miterlimit="10" fill="#EEBF12" fill-rule="evenodd"/><path d="M1286.72 1459.46C1292.17 1454.29 1294.5 1446.63 1292.83 1439.38 1276.24 1420.59 1262.55 1399.39 1252.2 1376.47" stroke="#054053" stroke-width="5.3856" stroke-linecap="round" stroke-linejoin="round" stroke-miterlimit="10" fill="#EEBF12" fill-rule="evenodd"/><path d="M1027.82 1191.73C1049.05 1189.95 1068.65 1202.61 1075.35 1222.43 1075.66 1228.88 1070.59 1234.41 1064.03 1234.79 1057.47 1235.16 1051.89 1230.23 1051.58 1223.78 1051.56 1223.36 1051.57 1222.94 1051.59 1222.52 1050.75 1208.42 1041.37 1196.28 1027.82 1191.73Z" stroke="#054053" stroke-width="5.17014" stroke-linecap="round" stroke-linejoin="round" stroke-miterlimit="10" fill="#EEBF12" fill-rule="evenodd"/><path d="M954.957 1232.49C969.319 1216.79 992.302 1212.8 1010.71 1222.8 1015.25 1227.41 1015.16 1234.91 1010.51 1239.55 1005.87 1244.18 998.425 1244.19 993.891 1239.58 993.699 1239.39 993.515 1239.18 993.338 1238.98 983.118 1229.21 967.99 1226.65 954.957 1232.49Z" stroke="#054053" stroke-width="5.17014" stroke-linecap="round" stroke-linejoin="round" stroke-miterlimit="10" fill="#EEBF12" fill-rule="evenodd"/><path d="M915.687 1273.02C930.076 1257.34 953.066 1253.39 971.459 1263.42 975.984 1268.05 975.879 1275.54 971.224 1280.17 966.569 1284.79 959.128 1284.79 954.603 1280.17 954.414 1279.97 954.232 1279.77 954.056 1279.57 943.853 1269.78 928.73 1267.2 915.687 1273.02Z" stroke="#054053" stroke-width="5.17014" stroke-linecap="round" stroke-linejoin="round" stroke-miterlimit="10" fill="#EEBF12" fill-rule="evenodd"/><path d="M929.022 1363.66C926.008 1342.99 937.73 1322.73 957.461 1314.53 964.001 1313.76 969.858 1318.33 970.541 1324.74 971.225 1331.16 966.477 1336.98 959.936 1337.75 959.601 1337.79 959.265 1337.81 958.927 1337.82 944.661 1339.81 932.872 1349.99 929.022 1363.66Z" stroke="#054053" stroke-width="5.17014" stroke-linecap="round" stroke-linejoin="round" stroke-miterlimit="10" fill="#EEBF12" fill-rule="evenodd"/><path d="M1047.49 1269.56C1024.52 1282.78 1009.98 1307.14 1009.18 1333.7 1021.26 1343.7 1036.24 1349.49 1051.92 1350.23 1060.24 1350.62 1067.88 1354.81 1072.69 1361.62 1079.31 1374.25 1090.74 1383.58 1104.37 1387.5 1118.61 1382.89 1126.59 1367.53 1122.2 1353.19 1120.35 1347.15 1116.45 1341.97 1111.19 1338.55 1100.79 1327.77 1089.85 1317.54 1078.41 1307.89 1065.11 1297.91 1054.49 1284.74 1047.49 1269.56Z" stroke="#054053" stroke-width="5.17014" stroke-linecap="round" stroke-linejoin="round" stroke-miterlimit="10" fill="#EEBF12" fill-rule="evenodd"/><path d="M1409.08 1213.43C1403.15 1221.2 1391.97 1222.86 1384.11 1217.15 1378.56 1213.12 1375.95 1206.26 1377.43 1199.58 1363.71 1184.66 1345.85 1173.97 1325.97 1168.76 1348.18 1158.09 1374.51 1160.66 1393.81 1175.38 1403.79 1169.11 1416.98 1171.87 1423.27 1181.57 1429.55 1191.26 1426.56 1204.2 1416.58 1210.47 1414.29 1211.91 1411.75 1212.92 1409.08 1213.43Z" stroke="#054053" stroke-width="5.17014" stroke-linecap="round" stroke-linejoin="round" stroke-miterlimit="10" fill="#EEBF12" fill-rule="evenodd"/><path d="M1368.45 889.58C1336.84 836.654 1267.26 818.749 1213.02 849.587 1158.78 880.425 1140.43 948.329 1172.03 1001.25 1180.44 1015.33 1191.91 1027.42 1205.64 1036.67 1239.07 1081.19 1284.46 1115.8 1336.8 1136.7 1379.12 1158 1407.09 1199.22 1410.65 1245.56 1405.22 1273.41 1383.27 1295.41 1354.89 1301.45 1329.3 1305.49 1311.93 1329.01 1316.07 1353.97 1318.39 1367.89 1327.14 1379.99 1339.8 1386.77 1338.24 1365.14 1354.95 1346.38 1377.12 1344.86 1383.99 1344.39 1390.87 1345.65 1397.09 1348.52 1382.69 1364.86 1384.58 1389.5 1401.32 1403.56 1413.09 1413.44 1429.65 1415.78 1443.8 1409.58 1430.67 1402.64 1425.8 1386.63 1432.91 1373.82 1434.53 1370.9 1436.7 1368.3 1439.3 1366.17 1452.79 1402.36 1473.83 1435.42 1501.1 1463.26 1502.12 1498.52 1482.95 1531.41 1451.36 1548.57 1443.57 1553.71 1433.43 1554 1425.34 1549.32 1421.59 1535.91 1407.4 1528.01 1393.66 1531.67 1382.17 1534.73 1374.32 1545.06 1374.66 1556.67 1388.7 1575.84 1415.77 1580.72 1435.9 1567.71 1415.59 1580.93 1388.15 1575.67 1374.48 1555.94 1355.69 1556.43 1340.86 1571.68 1341.36 1590.02 1341.8 1606.54 1354.63 1620.22 1371.45 1622.13 1387.97 1604.36 1410.4 1592.89 1434.77 1589.75 1410.54 1593.31 1388.24 1604.71 1371.45 1622.13 1365.65 1637.77 1373.95 1655.03 1389.98 1660.69 1406.01 1666.34 1423.7 1658.24 1429.5 1642.6 1430.19 1640.73 1430.69 1638.79 1431 1636.82 1434.14 1621.23 1445.44 1608.39 1460.77 1603.01 1445.42 1608.88 1434.1 1621.86 1430.62 1637.58 1434.67 1654.1 1451.68 1664.28 1468.6 1660.32 1484.52 1656.6 1494.87 1641.61 1492.42 1625.81 1503.15 1618 1514.71 1611.33 1526.91 1605.94 1539 1596.88 1544.83 1581.96 1542 1567.34L1568.55 1581.31C1578.27 1592.39 1578.9 1608.54 1570.05 1620.3 1590.91 1618.39 1606.23 1600.34 1604.27 1580 1603.48 1571.82 1599.93 1564.13 1594.17 1558.14 1576.99 1552.21 1567.1 1534.65 1571.18 1517.32 1578.98 1526.74 1589.7 1533.44 1601.73 1536.43 1617.37 1540.23 1631.31 1548.89 1641.47 1561.09 1651.99 1536.43 1640.03 1508.12 1614.76 1497.86 1613.39 1497.3 1611.99 1496.81 1610.57 1496.37 1600.79 1494.42 1592.58 1487.98 1588.52 1479.08 1586.5 1471.34 1591.31 1463.47 1599.24 1461.51 1604.92 1460.1 1610.92 1462.09 1614.54 1466.58 1630.77 1478.62 1653.93 1475.53 1666.26 1459.69 1669.19 1455.93 1671.33 1451.64 1672.56 1447.08 1652.75 1452.68 1631.87 1442.41 1624.7 1423.54 1612.36 1403.44 1586.21 1396.05 1564.77 1406.62 1532.5 1365.09 1519.02 1312.49 1527.47 1261.02 1541.27 1268.92 1547.43 1285.23 1542.18 1299.98 1557.64 1298 1568.52 1284.17 1566.5 1269.09 1565.81 1263.96 1563.65 1259.12 1560.27 1255.13 1549.36 1240.73 1535.97 1228.28 1520.69 1218.34L1523.72 1168.34C1519.01 1144.16 1505.48 1122.47 1485.64 1107.28 1428.83 1045.21 1388.58 970.442 1368.45 889.58Z" stroke="#054053" stroke-width="5.3856" stroke-linecap="round" stroke-linejoin="round" stroke-miterlimit="10" fill="#EEBF12" fill-rule="evenodd"/><path d="M1335.8 1551.09C1349.12 1532.55 1372.35 1525.22 1392.15 1533.29 1397.25 1537.52 1397.88 1545.45 1393.56 1551 1389.24 1556.55 1381.61 1557.62 1376.51 1553.39 1376.26 1553.18 1376.02 1552.96 1375.79 1552.73 1364.41 1543.8 1348.64 1543.15 1335.8 1551.09Z" stroke="#054053" stroke-width="5.3856" stroke-linecap="round" stroke-linejoin="round" stroke-miterlimit="10" fill="#EEBF12" fill-rule="evenodd"/><path d="M1310.11 1619.48C1312.52 1597.25 1329.43 1579.6 1351.13 1576.66 1357.79 1577.83 1362.29 1584.28 1361.18 1591.09 1360.07 1597.89 1353.77 1602.47 1347.1 1601.3 1346.89 1601.27 1346.68 1601.23 1346.47 1601.18 1331.82 1599.23 1317.49 1606.44 1310.11 1619.48Z" stroke="#054053" stroke-width="5.3856" stroke-linecap="round" stroke-linejoin="round" stroke-miterlimit="10" fill="#EEBF12" fill-rule="evenodd"/><path d="M1350.24 1680.09C1347.07 1658.41 1359.36 1637.17 1380.06 1628.56 1386.93 1627.93 1392.94 1632.89 1393.48 1639.62 1394.02 1646.36 1388.88 1652.34 1382.01 1652.97 1381.87 1652.98 1381.74 1652.99 1381.6 1653 1366.64 1655.08 1354.28 1665.76 1350.24 1680.09Z" stroke="#054053" stroke-width="5.3856" stroke-linecap="round" stroke-linejoin="round" stroke-miterlimit="10" fill="#EEBF12" fill-rule="evenodd"/><path d="M1453.88 1699.72C1436.56 1687.05 1430.3 1663.25 1438.68 1641.98 1443.02 1636.46 1450.65 1635.44 1455.73 1639.7 1460.81 1643.97 1461.41 1651.91 1457.07 1657.43 1456.98 1657.55 1456.89 1657.66 1456.8 1657.77 1447.85 1670.28 1446.7 1686.81 1453.88 1699.72Z" stroke="#054053" stroke-width="5.3856" stroke-linecap="round" stroke-linejoin="round" stroke-miterlimit="10" fill="#EEBF12" fill-rule="evenodd"/><path d="M1378.39 1325.43C1370.45 1328.41 1362.56 1331.5 1354.71 1334.71 1338.71 1342.21 1327.58 1357.36 1325.34 1374.72 1319.22 1356.35 1325.98 1335.86 1342 1324.27 1355.25 1317.3 1369.28 1311.97 1383.77 1308.42" stroke="#054053" stroke-width="5.3856" stroke-linecap="round" stroke-linejoin="round" stroke-miterlimit="10" fill="#EEBF12" fill-rule="evenodd"/><path d="M1434.22 1341.64C1415.01 1353.85 1409.02 1379.03 1420.84 1397.88 1424.6 1403.87 1429.9 1408.74 1436.21 1411.98 1416.89 1412.57 1401.12 1397.46 1400.98 1378.22 1400.93 1372.27 1402.43 1366.36 1405.31 1361.07" stroke="#054053" stroke-width="5.3856" stroke-linecap="round" stroke-linejoin="round" stroke-miterlimit="10" fill="#EEBF12" fill-rule="evenodd"/><path d="M1542.71 1297.62C1549.64 1289.74 1552.35 1279.14 1550 1269.1 1546.29 1252.78 1534.81 1239.31 1519.13 1232.88" stroke="#054053" stroke-width="5.3856" stroke-linecap="round" stroke-linejoin="round" stroke-miterlimit="10" fill="#EEBF12" fill-rule="evenodd"/><path d="M1585.74 1447.87C1600.57 1446.28 1615.31 1450.42 1626.91 1459.43 1639.08 1469.3 1657.2 1467.29 1667.4 1454.94 1667.89 1454.34 1668.36 1453.73 1668.8 1453.1 1654 1459.14 1637.21 1455.79 1626.26 1444.61 1615.71 1431 1599.95 1422.38 1582.61 1420.72" stroke="#054053" stroke-width="5.3856" stroke-linecap="round" stroke-linejoin="round" stroke-miterlimit="10" fill="#EEBF12" fill-rule="evenodd"/><path d="M1582.38 1564.88C1590.83 1571.15 1597.3 1579.68 1601.09 1589.51 1598.99 1600.67 1592.25 1610.52 1582.54 1616.62 1592.65 1603.65 1590.48 1585.22 1577.69 1575.46 1577.51 1575.32 1577.32 1575.18 1577.14 1575.05L1548.15 1547.5" stroke="#054053" stroke-width="5.3856" stroke-linecap="round" stroke-linejoin="round" stroke-miterlimit="10" fill="#EEBF12" fill-rule="evenodd"/><path d="M1608.08 1507.69C1627.76 1516.81 1639.42 1537.24 1637.38 1558.99 1629.15 1543.84 1617.13 1531.13 1602.44 1522.06 1593.26 1516.06 1585.4 1508.28 1579.33 1499.18" stroke="#054053" stroke-width="5.3856" stroke-linecap="round" stroke-linejoin="round" stroke-miterlimit="10" fill="#EEBF12" fill-rule="evenodd"/><path d="M929.383 1090.67 935.552 1132.87C927.692 1140.74 928.1 1151.92 936.463 1157.83 941.893 1161.68 949.64 1162.49 956.767 1159.96 967.662 1156.09 973.779 1145.67 970.429 1136.69 969.432 1134.02 967.651 1131.67 965.242 1129.86L961.729 1105.99C1007.64 1086.81 1051.02 1057.43 1089.77 1019.3 1096.95 1012.24 1098.67 999.553 1093.61 990.972 1089.53 984.046 1082.11 981.732 1075.42 985.297 1038.06 1018.21 998.988 1047.66 958.537 1073.38L962.56 1002.85C969.235 994.346 967.156 983.542 957.916 978.718 952.678 975.983 945.969 975.664 939.79 977.856 928.896 981.737 922.783 992.158 926.136 1001.13 927.337 1004.35 929.672 1007.08 932.843 1008.98L931.529 1031.12 913.318 1003.69C916.651 994.082 910.517 984.82 899.617 983.001 895.674 982.343 891.459 982.741 887.517 984.144 876.619 988.014 870.492 998.429 873.832 1007.41 875.801 1012.7 880.777 1016.55 887.168 1017.73L913.291 1057.03 877.942 1045.03C874.711 1036.01 863.23 1031.77 852.3 1035.55 852.229 1035.57 852.158 1035.6 852.087 1035.62 841.193 1039.5 835.078 1049.92 838.429 1058.9 841.702 1067.66 852.824 1071.84 863.566 1068.35L929.383 1090.67Z" stroke="#054053" stroke-width="5.3856" stroke-linecap="round" stroke-linejoin="round" stroke-miterlimit="10" fill="#EEBF12" fill-rule="evenodd"/><path d="M957.079 985.818C963.861 960.449 943.213 940.778 909.779 940.759 928.66 949.955 938.943 965.882 938.071 984.58 938.059 988.789 942.871 991.275 948.818 990.131 952.003 989.518 955.027 987.939 957.079 985.818Z" stroke="#054053" stroke-width="5.3856" stroke-linecap="round" stroke-linejoin="round" stroke-miterlimit="10" fill="#EEBF12" fill-rule="evenodd"/><path d="M896.769 993.557C896.478 967.166 871.373 953.167 839.262 961.491 859.863 965.725 874.017 978.657 878.204 997.072 879.328 1001.17 884.62 1002.38 890.023 999.78 892.9 998.394 895.367 996.118 896.769 993.557Z" stroke="#054053" stroke-width="5.3856" stroke-linecap="round" stroke-linejoin="round" stroke-miterlimit="10" fill="#EEBF12" fill-rule="evenodd"/><path d="M857.31 1042.43C841.195 1019.97 810.447 1018.21 786.881 1038.41 807.748 1033.65 828.102 1038.96 842.883 1053.01 846.332 1056.08 851.768 1054.99 855.026 1050.57 856.779 1048.2 857.616 1045.22 857.31 1042.43Z" stroke="#054053" stroke-width="5.3856" stroke-linecap="round" stroke-linejoin="round" stroke-miterlimit="10" fill="#EEBF12" fill-rule="evenodd"/><path d="M63.9816 5.74354C40.4625-8.13403 12.5388 3.54816 0.0208954 32.503 16.5192 19.0544 36.7132 15.1702 55.5844 21.8153 59.8999 23.1705 64.2592 19.8041 65.3213 14.2965 65.8926 11.3332 65.4017 8.19906 63.9816 5.74354Z" stroke="#054053" stroke-width="5.3856" stroke-linecap="round" stroke-linejoin="round" stroke-miterlimit="10" fill="#EEBF12" fill-rule="evenodd" transform="matrix(0.422618 -0.906308 -0.906308 -0.422618 936.88 1206.92)"/><path d="M1149.69 930.002C1166.15 917.356 1174.58 896.68 1171.64 876.216 1123.57 896.331 1100.78 951.977 1120.75 1000.51 1124.62 1009.92 1129.97 1018.64 1136.58 1026.35 1156.2 1043.38 1177.72 1058.04 1200.71 1070.03 1207.94 1054.62 1202.38 1036.18 1187.87 1027.42 1204.9 1038.6 1224.31 1045.71 1244.69 1048.23 1234.67 1029.81 1218.88 1015.25 1199.54 1006.6 1223.07 1017.23 1249.71 1019.09 1274.87 1011.87 1254.71 994.217 1227.49 986.684 1200.43 991.273 1224.86 990.978 1248.36 981.067 1265.98 963.633 1240.04 958.922 1213.36 962.445 1189.78 973.698 1212.39 962.357 1231.99 945.75 1246.95 925.249 1221.32 927.034 1196.53 934.685 1174.52 947.603 1192.72 933.489 1206.74 914.697 1215.1 893.2 1190.81 900.775 1168.51 913.318 1149.69 930.002Z" stroke="#054053" stroke-width="5.3856" stroke-linecap="round" stroke-linejoin="round" stroke-miterlimit="10" fill="#EEBF12" fill-rule="evenodd"/><path d="M1125.61 949.578C1126.37 941.612 1126.07 933.601 1124.71 925.748 1086.91 945.482 1072.02 991.311 1091.46 1028.11 1095.24 1035.26 1100.17 1041.74 1106.07 1047.31 1123.26 1061.83 1142.15 1074.29 1162.37 1084.43 1170.94 1070.68 1166.66 1052.9 1152.8 1044.72 1150.56 1043.4 1148.13 1042.38 1145.6 1041.69 1163.74 1037.82 1179.77 1027.22 1190.31 1012.12 1176.09 1005.89 1160.14 1004.27 1144.76 1007.49 1158.92 1002.42 1170.46 991.933 1176.71 978.45 1162.58 976.33 1148.08 977.458 1134.36 981.743 1149.64 975.652 1161.5 963.27 1166.75 947.932 1153.32 943.893 1138.82 944.474 1125.61 949.578Z" stroke="#054053" stroke-width="5.3856" stroke-linecap="round" stroke-linejoin="round" stroke-miterlimit="10" fill="#EEBF12" fill-rule="evenodd"/><path d="M1061.9 998.329C1046.39 991.132 1028.19 991.651 1012.86 999.73 1000.7 1005.02 986.704 1003.68 976.027 996.2 986.605 1019.79 1014.8 1030.17 1039.01 1019.37 1048.77 1015.01 1056.83 1007.61 1061.9 998.329Z" stroke="#054053" stroke-width="5.3856" stroke-linecap="round" stroke-linejoin="round" stroke-miterlimit="10" fill="#EEBF12" fill-rule="evenodd"/><path d="M1066.46 1015.25C1049.93 1010.86 1032.1 1014.53 1018.41 1025.14 1007.34 1032.47 993.329 1033.58 981.516 1028.07 996.03 1049.46 1025.6 1054.78 1047.57 1039.94 1056.42 1033.96 1063.07 1025.27 1066.46 1015.25Z" stroke="#054053" stroke-width="5.3856" stroke-linecap="round" stroke-linejoin="round" stroke-miterlimit="10" fill="#EEBF12" fill-rule="evenodd"/><path d="M1066.36 1026.71C1050.03 1031.93 1037.33 1044.51 1032.12 1060.61 1027.18 1072.58 1016.16 1081 1003.11 1082.77 1027.68 1092.67 1055.4 1081.23 1065.03 1057.22 1068.92 1047.54 1069.38 1036.8 1066.36 1026.71Z" stroke="#054053" stroke-width="5.3856" stroke-linecap="round" stroke-linejoin="round" stroke-miterlimit="10" fill="#EEBF12" fill-rule="evenodd"/><path d="M1078.81 1039.79C1064.56 1049.31 1055.81 1064.9 1055.24 1081.81 1053.79 1094.68 1045.52 1105.81 1033.46 1111.11 1059.81 1113.86 1083.31 1095.22 1085.95 1069.49 1087.01 1059.11 1084.5 1048.66 1078.81 1039.79Z" stroke="#054053" stroke-width="5.3856" stroke-linecap="round" stroke-linejoin="round" stroke-miterlimit="10" fill="#EEBF12" fill-rule="evenodd"/><path d="M1087.35 1053.37C1080.41 1065.25 1079.58 1079.59 1085.12 1092 1088.6 1101.8 1086.54 1112.75 1079.7 1120.82 1099.69 1113.53 1110.1 1091.8 1102.94 1072.28 1100.06 1064.42 1094.57 1057.77 1087.35 1053.37Z" stroke="#054053" stroke-width="5.3856" stroke-linecap="round" stroke-linejoin="round" stroke-miterlimit="10" fill="#EEBF12" fill-rule="evenodd"/><path d="M1093.94 962.596C1063.64 972.319 1046.68 1004.19 1056.06 1033.79 1059.37 1044.25 1065.75 1053.47 1074.4 1060.33 1091.59 1074.85 1110.5 1087.3 1130.73 1097.43 1139.24 1079.09 1131.12 1057.7 1112.6 1049.65 1109.59 1048.34 1106.41 1047.44 1103.14 1046.97 1116.4 1043.7 1127.95 1035.53 1135.35 1024.17 1123.92 1020.66 1111.58 1020.81 1100.11 1024.59 1112.4 1018.77 1121.82 1008.31 1126.19 995.639 1112.87 993.935 1099.27 995.29 1086.46 999.597 1101.25 995.168 1113.39 984.562 1119.62 970.634 1113.17 963.685 1103.42 960.634 1093.94 962.596Z" stroke="#054053" stroke-width="5.3856" stroke-linecap="round" stroke-linejoin="round" stroke-miterlimit="10" fill="#EEBF12" fill-rule="evenodd"/><path d="M1331.42 910.31C1359.37 939.583 1397.79 946.257 1432.99 927.953 1417.63 926.516 1402.69 921.708 1389.27 913.877 1403.51 924.114 1421.64 927.087 1438.08 921.881 1438.81 914.722 1433.55 908.199 1426.35 907.31 1423.72 906.986 1421.07 907.458 1418.75 908.665 1413.39 911.127 1406.93 908.744 1404.33 903.341 1403.98 902.62 1403.72 901.864 1403.54 901.087 1405.44 907.265 1411.98 910.85 1418.14 909.096 1418.47 909.001 1418.8 908.892 1419.12 908.768 1427.05 904.828 1436.6 905.513 1444.09 910.56 1435.37 897.473 1421.61 888.509 1406.18 885.854 1386.78 884.169 1368.12 877.091 1352.33 865.43 1368.24 877.458 1387.27 884.585 1407.01 885.904 1420.01 888.016 1433.26 886.853 1445.55 882.522 1422.62 878.332 1401.17 867.86 1383.64 852.291 1395.69 863.935 1410.49 872.352 1426.6 876.728 1442.31 878.85 1456.48 867.923 1458.24 852.322 1458.68 848.474 1458.32 844.561 1457.18 840.82 1437.17 855.852 1408.32 851.589 1392.76 831.299 1392.64 831.139 1392.51 830.977 1392.39 830.815 1381.36 822.75 1367.27 820.26 1354.39 824.096 1367.37 820.028 1381.68 822.623 1392.66 831.039 1397.52 837.262 1403.89 842.16 1411.15 845.257 1424.51 846.513 1436.1 836.771 1437.05 823.495 1437.39 818.849 1436.36 814.176 1434.09 810.04 1425.46 820.998 1409.38 822.706 1398.17 813.855 1395.94 812.094 1394.01 809.984 1392.46 807.612 1378.48 780.529 1350.6 763.204 1320.31 762.783 1296.07 809.518 1300.35 866.43 1331.42 910.31Z" stroke="#054053" stroke-width="5.3856" stroke-linecap="round" stroke-linejoin="round" stroke-miterlimit="10" fill="#EEBF12" fill-rule="evenodd"/><path d="M1198.01 788.36C1174.81 857.316 1129.16 917.167 1068.12 958.687 1089.72 970.78 1117.46 963.323 1130.09 942.031 1132.3 938.301 1133.95 934.284 1134.99 930.104 1128.67 952.907 1106.07 967.764 1082.24 964.783 1097.93 979.436 1122.95 978.716 1138.12 963.174 1141.65 959.551 1144.45 955.302 1146.35 950.661L1163.85 915.523 1143.31 956.809C1151.07 962.027 1161.77 960.045 1167.2 952.382 1167.91 951.377 1168.51 950.3 1168.98 949.172L1182.02 923.591C1177.08 932.038 1172.79 940.825 1169.17 949.879 1185.84 951.405 1200.87 939.6 1203.01 923.301L1218.94 861.921 1203.37 923.204C1205.53 947.612 1197.95 972.012 1182.21 991.289 1193.87 994.14 1205.98 987.952 1210.35 976.901 1214.07 969.502 1217.53 961.977 1220.7 954.341 1215.75 967.598 1209.65 980.431 1202.48 992.704 1213.27 993.711 1223.4 987.195 1226.79 977.069L1234.58 955.171C1231.02 967.055 1226.78 978.743 1221.9 990.182 1232.33 991.044 1241.92 984.252 1244.38 974.251 1253.33 956.527 1253.14 935.784 1243.85 918.446 1240.19 907.709 1239.94 896.102 1243.11 885.136 1239.83 896.081 1240.22 907.724 1244.22 918.349 1251.16 931.789 1252.83 947.311 1248.89 961.999 1246.92 970.312 1245.12 978.662 1243.51 987.044 1257.63 985.423 1269.3 975.284 1272.63 961.729L1271.36 929.346 1273.87 976.633C1285.42 970.462 1292.12 958.15 1290.87 945.419L1287.92 924.15 1293.38 957.684C1306.94 923.166 1300.3 884.39 1276.04 856.527 1288.16 870.024 1296.22 886.555 1299.37 904.329 1302.86 920.282 1318.94 930.282 1335.29 926.665 1335.33 926.656 1335.36 926.648 1335.4 926.64 1323.12 915.351 1316.55 899.324 1317.39 882.745 1316.58 896.54 1321.32 910.031 1330.6 920.321 1335.16 925.836 1343.04 927.501 1349.63 924.343 1340.26 916.68 1336.46 904.267 1339.95 892.696 1345.57 855.899 1321.58 821.351 1284.69 813.096 1305.98 818.089 1324.17 831.353 1335.1 849.85 1340.86 840.962 1343.03 830.328 1341.19 820.044 1343.26 830.171 1341.36 840.738 1335.86 849.649 1338.28 866.119 1353.09 877.953 1370.1 877.012 1366.14 866.76 1364.52 855.761 1365.35 844.777 1369.13 819.609 1359.89 794.404 1340.7 777.544 1349.31 788.29 1358.58 798.516 1368.44 808.167 1384.81 817.189 1404.88 817.282 1421.56 808.414 1390.56 802.649 1365.42 780.797 1355.95 751.374 1366.78 763.848 1383.42 770.003 1400.11 767.715 1386.23 753.589 1375.7 736.62 1369.28 717.999 1352.25 689.533 1328.29 665.676 1299.5 648.516 1273.22 699.909 1238.98 747.088 1198.01 788.36Z" stroke="#054053" stroke-width="5.3856" stroke-linecap="round" stroke-linejoin="round" stroke-miterlimit="10" fill="#EEBF12" fill-rule="evenodd"/><path d="M1231.03 658.43C1223.54 643.041 1225.59 624.878 1236.34 611.425 1252.02 600.809 1256.35 580.123 1246.17 564.421 1234.17 559.26 1228.76 545.645 1234.08 534.01 1237.7 526.091 1245.6 520.81 1254.52 520.341 1252 540.13 1261.43 559.561 1278.76 570.297 1294.22 580.505 1298.22 600.937 1287.69 615.934 1286.21 618.049 1284.47 619.989 1282.53 621.714 1268.72 634.414 1268.15 655.56 1281.25 668.944 1281.66 669.367 1282.09 669.779 1282.53 670.181 1274.7 682.948 1257.69 687.15 1244.53 679.566 1236.74 675.081 1231.7 667.189 1231.03 658.43Z" stroke="#054053" stroke-width="5.3856" stroke-linecap="round" stroke-linejoin="round" stroke-miterlimit="10" fill="#EEBF12" fill-rule="evenodd"/><path d="M1175.41 743.074C1150.96 733.844 1123.59 733.354 1099.2 741.708 1087.52 748.794 1073.17 751.765 1058.92 750.047 1050.17 746.923 1045.3 738.602 1047.56 730.656 1048.19 719.283 1038.2 709.407 1025.24 708.597 1019.38 708.231 1013.62 709.807 1009.1 713.014 1019.01 715.725 1025.88 723.793 1025.98 732.862 1025 744.552 1032.96 755.578 1045.49 759.894 1064.42 763.92 1084.23 760.59 1099.8 750.763 1121.8 747.181 1144.67 749.751 1165.24 758.115 1168.92 762.316 1175.71 763.174 1180.41 760.031 1185.1 756.888 1185.93 750.935 1182.24 746.734 1180.55 744.807 1178.11 743.499 1175.41 743.074Z" stroke="#054053" stroke-width="5.17014" stroke-linecap="round" stroke-linejoin="round" stroke-miterlimit="10" fill="#EEBF12" fill-rule="evenodd"/><path d="M1069.58 702.687C1060.02 713.135 1062.09 728.611 1074.19 737.252 1075.25 738.007 1076.37 738.695 1077.54 739.311 1075.04 727.787 1078.83 716.025 1087.77 707.559 1084 702.007 1076.04 699.877 1069.58 702.687Z" stroke="#054053" stroke-width="5.17014" stroke-linecap="round" stroke-linejoin="round" stroke-miterlimit="10" fill="#EEBF12" fill-rule="evenodd"/><path d="M4.80604 1.66888C-3.80307 12.9106-0.39505 28.147 12.4182 35.7005 13.5388 36.3605 14.7118 36.9491 15.9288 37.4604 12.4344 26.1982 15.1848 14.1498 23.3532 4.93724 19.1143-0.264544 11.0053-1.69332 4.80604 1.66888Z" stroke="#054053" stroke-width="5.17014" stroke-linecap="round" stroke-linejoin="round" stroke-miterlimit="10" fill="#EEBF12" fill-rule="evenodd" transform="matrix(0.996195 0.0871557 0.0871557 -0.996195 1106.79 760.723)"/><path d="M1294.89 639.83C1256.16 613.333 1202.64 611.843 1162.9 636.155L1107.61 647.484C1093.79 644.269 1079.25 645.304 1066.41 650.414 1071.58 659.215 1070.62 670.201 1064 677.969 1059.56 691.659 1068.67 706.175 1084.35 710.39 1085.27 710.638 1086.21 710.847 1087.15 711.015 1102.7 714.226 1118.89 710.794 1130.79 701.764 1135.94 697.645 1139.63 692.312 1141.45 686.372 1163.78 696.689 1172.79 720.784 1161.56 740.19 1153.69 753.786 1137.5 761.992 1119.99 761.259 1107.92 752.28 1090.08 753.439 1080.13 763.848 1075.83 768.357 1073.54 774.111 1073.68 780.066 1073.41 784.58 1077.36 788.518 1082.5 788.86 1085.28 789.045 1087.98 788.129 1089.87 786.363 1092.65 793.284 1092.66 800.782 1089.89 807.597 1101.86 808.379 1112.07 800.494 1112.68 789.985 1112.97 785.107 1111.11 780.276 1107.49 776.489L1196.02 785.862C1210.69 803.085 1237.19 807.138 1255.2 794.915 1267.46 786.599 1273.08 772.415 1269.77 758.197 1288.99 751.34 1298.7 732.051 1291.46 715.115 1288.55 708.323 1283.17 702.635 1276.16 698.946 1255.48 712.863 1230.96 721.71 1205.1 724.589 1245.58 722.023 1281.51 701.92 1301 670.938 1299.77 688.501 1314.99 703.939 1335 705.421 1336.94 705.564 1338.88 705.571 1340.81 705.441 1361.53 696.584 1372.63 676.501 1368.04 656.176 1362.69 643.116 1356.63 630.333 1349.87 617.897 1342.55 606.148 1343.77 590.328 1352.81 579.654 1372.57 569.222 1385.09 548.231 1384.34 526.775 1379.71 544.715 1360.38 557.05 1340.69 554.632 1320.24 559.874 1306.49 579.63 1309.98 598.758 1310.15 599.728 1310.37 600.687 1310.64 601.631 1317.34 614.383 1311.36 630.955 1297.29 638.646 1296.51 639.074 1295.71 639.469 1294.89 639.83Z" stroke="#054053" stroke-width="5.17014" stroke-linecap="round" stroke-linejoin="round" stroke-miterlimit="10" fill="#EEBF12" fill-rule="evenodd"/><path d="M1205.78 665.399 1192.03 668.38" stroke="#054053" stroke-width="2.87234" stroke-linecap="round" stroke-linejoin="round" stroke-miterlimit="10" fill="none" fill-rule="evenodd"/><path d="M1214.61 660.414C1223.47 663.237 1230.89 669.067 1235.08 676.508 1239.54 676.222 1242.8 672.806 1242.38 668.878 1242.23 667.536 1241.66 666.249 1240.72 665.166L1233.93 657.617C1241.21 657.301 1247.68 661.951 1248.81 668.314 1249.72 674.515 1245.77 680.377 1239.2 682.59 1238.07 688.573 1232.18 692.876 1225.26 692.786 1211.33 694.336 1197.16 690.731 1186.12 682.827 1194.24 689.184 1206.53 688.67 1213.57 681.68 1219.52 675.782 1219.95 666.962 1214.61 660.414Z" stroke="#054053" stroke-width="2.87234" stroke-linecap="round" stroke-linejoin="round" stroke-miterlimit="10" fill="#EEBF12" fill-rule="evenodd"/><path d="M1199.84 638.956C1188.66 637.315 1178.55 643.823 1177.26 653.492 1176.81 656.795 1177.46 660.189 1179.12 663.282 1175.91 673.178 1182.5 683.669 1193.84 686.713 1194.58 686.914 1195.34 687.078 1196.1 687.206 1206.58 690.004 1217.46 684.855 1220.4 675.708 1222.01 670.694 1220.94 665.255 1217.48 660.917 1210.61 657.662 1202.44 657.556 1195.63 660.633 1191.32 661.174 1186.91 660.931 1182.67 659.919 1179.54 653.612 1182.76 646.385 1189.87 643.777 1192.89 642.668 1196.28 642.538 1199.45 643.41 1200.89 643.056 1201.71 641.733 1201.28 640.454 1201.06 639.803 1200.53 639.258 1199.84 638.953Z" stroke="#054053" stroke-width="2.87234" stroke-linecap="round" stroke-linejoin="round" stroke-miterlimit="10" fill="#EEBF12" fill-rule="evenodd"/><path d="M884.649 876.525 884.649 878.526" stroke="#054053" stroke-width="0.574541" stroke-linecap="round" stroke-linejoin="round" stroke-miterlimit="10" fill="none" fill-rule="evenodd"/><path d="M1081.45 649.076C1074.45 641.165 1062.14 640.452 1053.97 647.484 1052.07 649.115 1050.5 651.085 1049.35 653.285 1043.58 663.692 1047.39 676.579 1057.87 682.07 1062.39 684.438 1067.65 685.126 1072.71 684.011 1066.92 678.944 1064.31 671.216 1065.84 663.648 1069.97 667.707 1076.73 667.644 1080.93 663.509 1084.98 659.529 1085.21 653.19 1081.45 649.076Z" stroke="#054053" stroke-width="3.59052" stroke-linecap="round" stroke-linejoin="round" stroke-miterlimit="10" fill="#EEBF12" fill-rule="evenodd"/><rect x="760" y="265" width="1211" height="218" fill="#EEBF12"/><path d="M1123.39 1713.49C1246.96 1713.8 1349.01 1761.44 1364.26 1823.45 1379.5 1761.44 1481.55 1713.49 1605.11 1713.49L1886.52 1712.8C1932.75 1712.8 1970.25 1673.49 1970.25 1625.01L1970.25 265.447 758.252 265.447 758.246 1625.01C758.246 1673.49 795.733 1712.8 841.965 1712.8L1123.37 1713.49Z" stroke="#FFFFFF" stroke-width="20.625" stroke-miterlimit="8" fill="none" fill-rule="evenodd"/></g></svg>