<svg width="1242" height="1559" xmlns="http://www.w3.org/2000/svg" xmlns:xlink="http://www.w3.org/1999/xlink" overflow="hidden"><defs><clipPath id="clip0"><rect x="743" y="303" width="1242" height="1559"/></clipPath></defs><g clip-path="url(#clip0)" transform="translate(-743 -303)"><path d="M746.838 317.813 1978.84 317.813 1978.84 1034.56C1970.52 1138.32 1977.82 1336.51 1881.17 1474.23 1780.29 1627.33 1508.73 1787.72 1362.87 1853.81 984.045 1688.86 843.137 1482.81 823.31 1442.67 799.945 1398.92 751.088 1286.79 746.838 1034.56L746.838 317.813Z" fill="#FFFFFF" fill-rule="evenodd"/><path d="M1009.83 1310.05 1017.99 1310.7 1026.09 1312.5 1033.94 1315.35 1041.76 1318.93 1049.38 1323.11 1056.96 1327.75 1071.89 1337.79 1086.64 1347.74 1093.87 1352.21 1101.12 1356.19 1108.31 1359.54 1115.47 1362.13 1122.44 1363.73 1129.48 1364.29 1136.52 1363.73 1143.55 1362.13 1150.64 1359.54 1157.83 1356.19 1165.09 1352.21 1172.39 1347.74 1187.13 1337.79 1202 1327.75 1209.58 1323.1 1217.26 1318.93 1225.01 1315.35 1232.93 1312.5 1240.96 1310.7 1249.12 1310.05 1257.28 1310.7 1265.38 1312.5 1273.23 1315.35 1281.05 1318.93 1288.67 1323.11 1296.24 1327.75 1311.18 1337.79 1325.93 1347.74 1333.16 1352.21 1340.41 1356.19 1347.6 1359.54 1354.76 1362.13 1361.73 1363.73 1368.77 1364.29 1375.8 1363.73 1382.84 1362.13 1389.93 1359.54 1397.12 1356.19 1404.38 1352.21 1411.68 1347.74 1426.41 1337.79 1441.28 1327.75 1448.87 1323.1 1456.55 1318.93 1464.3 1315.35 1472.22 1312.5 1480.25 1310.7 1488.41 1310.05 1496.58 1310.7 1504.67 1312.5 1512.52 1315.35 1520.34 1318.93 1527.96 1323.11 1535.54 1327.75 1550.47 1337.79 1565.22 1347.74 1572.45 1352.21 1579.71 1356.19 1586.89 1359.54 1594.04 1362.13 1601.02 1363.73 1608.06 1364.29 1615.09 1363.73 1622.13 1362.13 1629.22 1359.54 1636.41 1356.19 1643.66 1352.21 1650.96 1347.74 1665.7 1337.79 1680.58 1327.75 1688.16 1323.1 1695.84 1318.93 1703.59 1315.35 1711.51 1312.5 1719.54 1310.7 1727.7 1310.05 1735.86 1310.7 1743.96 1312.5 1751.81 1315.35 1759.63 1318.93 1767.25 1323.11 1774.83 1327.75 1789.76 1337.79 1804.5 1347.74 1811.74 1352.21 1819 1356.19 1826.18 1359.54 1833.33 1362.13 1840.3 1363.73 1847.35 1364.29 1854.38 1363.73 1861.42 1362.13 1868.51 1359.54 1875.7 1356.26 1882.94 1352.21 1890.25 1347.74 1905.04 1337.75 1935.97 1318.4 1927.05 1352.19 1922.04 1366.97 1916.64 1381.62 1910.7 1396.01 1904.36 1410.26 1897.46 1424.26 1890.03 1437.98 1882.04 1451.43 1873.48 1464.51 1863.78 1478.87 1853.17 1493.33 1841.63 1507.71 1829.36 1522.07 1825.91 1525.86 1815.86 1521.7 1804.45 1515.22 1793.21 1507.93 1782.06 1500.31 1771.04 1492.95 1760.01 1486.39 1754.64 1483.56 1749.14 1481.14 1743.76 1479.13 1738.38 1477.65 1733.05 1476.69 1727.74 1476.38 1720.59 1476.95 1713.46 1478.55 1706.25 1481.07 1699.01 1484.42 1691.69 1488.47 1684.38 1492.94 1669.64 1502.83 1654.78 1512.79 1647.21 1517.43 1639.6 1521.67 1631.9 1525.26 1624.11 1528.04 1616.16 1529.84 1608.06 1530.49 1599.95 1529.84 1592.07 1528.04 1584.21 1525.26 1576.5 1521.67 1568.89 1517.42 1561.4 1512.79 1546.53 1502.83 1531.73 1492.94 1524.41 1488.46 1517.17 1484.42 1509.87 1481.07 1502.72 1478.55 1495.53 1476.95 1488.41 1476.38 1481.3 1476.95 1474.17 1478.55 1466.96 1481.07 1459.72 1484.42 1452.4 1488.47 1445.09 1492.94 1430.35 1502.83 1415.49 1512.79 1407.93 1517.43 1400.31 1521.67 1392.61 1525.26 1384.82 1528.04 1376.87 1529.84 1368.77 1530.49 1360.66 1529.84 1352.78 1528.04 1344.93 1525.26 1337.22 1521.67 1329.6 1517.42 1322.11 1512.79 1307.25 1502.83 1292.44 1492.94 1285.13 1488.46 1277.88 1484.42 1270.58 1481.07 1263.43 1478.55 1256.24 1476.95 1249.12 1476.38 1242.01 1476.95 1234.88 1478.55 1227.67 1481.07 1220.43 1484.42 1213.11 1488.47 1205.81 1492.94 1191.06 1502.83 1176.2 1512.79 1168.64 1517.43 1161.03 1521.67 1153.32 1525.26 1145.53 1528.04 1137.58 1529.84 1129.48 1530.49 1121.37 1529.84 1113.49 1528.04 1105.64 1525.26 1097.93 1521.67 1090.31 1517.42 1082.82 1512.79 1067.96 1502.83 1053.15 1492.94 1045.84 1488.46 1038.59 1484.42 1031.29 1481.07 1024.14 1478.55 1016.95 1476.95 1009.8 1476.38 1004.49 1476.69 999.154 1477.65 993.768 1479.13 988.393 1481.14 982.961 1483.56 977.517 1486.39 966.495 1492.95 955.472 1500.31 944.4 1507.93 933.151 1515.22 921.739 1521.71 911.165 1526 899.616 1512.85 888.096 1498.83 877.99 1485.9 869.159 1473.94 861.598 1463.18 855.314 1453.58 850.161 1445.32 846.203 1438.33 843.355 1432.82 839.98 1426.24 836.33 1418.63 832.409 1410.12 828.352 1400.52 824.102 1389.83 819.717 1378.07 815.265 1365.12 810.806 1350.93 802.193 1318.79 832.556 1337.75 847.347 1347.74 854.66 1352.22 861.843 1356.26 869.013 1359.54 876.177 1362.13 883.155 1363.73 890.189 1364.29 897.227 1363.73 904.266 1362.13 911.348 1359.54 918.542 1356.19 925.802 1352.21 933.098 1347.74 947.838 1337.79 962.707 1327.75 970.288 1323.1 977.974 1318.93 985.722 1315.35 993.644 1312.5 1001.67 1310.7ZM1947.49 1302.7 1901.2 1331.66 1886.44 1341.63 1879.38 1345.94 1872.51 1349.78 1865.85 1352.83 1859.43 1355.18 1853.32 1356.56 1847.35 1357.05 1841.38 1356.56 1835.32 1355.18 1828.87 1352.84 1822.18 1349.72 1815.29 1345.94 1808.33 1341.64 1793.69 1331.76 1778.63 1321.63 1770.78 1316.84 1762.79 1312.44 1754.48 1308.64 1745.93 1305.54 1736.9 1303.53 1727.7 1302.79 1718.48 1303.53 1709.54 1305.54 1700.92 1308.64 1692.68 1312.44 1684.63 1316.83 1676.76 1321.64 1661.76 1331.77 1647.15 1341.63 1640.13 1345.93 1633.22 1349.72 1626.52 1352.85 1620.14 1355.18 1614.03 1356.56 1608.06 1357.05 1602.09 1356.56 1596.03 1355.18 1589.58 1352.84 1582.89 1349.72 1576 1345.94 1569.04 1341.64 1554.4 1331.76 1539.34 1321.63 1531.5 1316.84 1523.5 1312.44 1515.19 1308.64 1506.64 1305.54 1497.62 1303.53 1488.41 1302.79 1479.19 1303.53 1470.26 1305.54 1461.63 1308.64 1453.39 1312.44 1445.34 1316.83 1437.47 1321.64 1422.47 1331.77 1407.86 1341.63 1400.84 1345.93 1393.93 1349.72 1387.23 1352.85 1380.85 1355.18 1374.74 1356.56 1368.77 1357.05 1362.8 1356.56 1356.74 1355.18 1350.29 1352.84 1343.6 1349.72 1336.71 1345.94 1329.76 1341.64 1315.11 1331.76 1300.05 1321.63 1292.21 1316.84 1284.21 1312.44 1275.9 1308.64 1267.35 1305.54 1258.33 1303.53 1249.12 1302.79 1239.9 1303.53 1230.97 1305.54 1222.34 1308.64 1214.1 1312.44 1206.05 1316.83 1198.18 1321.64 1183.18 1331.77 1168.57 1341.63 1161.55 1345.93 1154.65 1349.72 1147.94 1352.85 1141.56 1355.18 1135.45 1356.56 1129.48 1357.05 1123.51 1356.56 1117.45 1355.18 1111 1352.84 1104.31 1349.72 1097.42 1345.94 1090.47 1341.64 1075.82 1331.76 1060.76 1321.63 1052.92 1316.84 1044.92 1312.44 1036.61 1308.64 1028.06 1305.54 1019.04 1303.53 1009.83 1302.79 1000.61 1303.53 991.679 1305.54 983.053 1308.64 974.813 1312.44 966.764 1316.83 958.893 1321.64 943.893 1331.77 929.283 1341.63 922.266 1345.93 915.357 1349.72 908.649 1352.85 902.275 1355.18 896.163 1356.56 890.189 1357.05 884.226 1356.56 878.165 1355.18 871.678 1352.83 865.038 1349.8 858.229 1345.96 851.162 1341.63 836.396 1331.66 790.596 1303.07 803.973 1352.98 808.508 1367.42 813.023 1380.53 817.468 1392.47 821.774 1403.29 825.907 1413.08 829.901 1421.75 833.618 1429.49 837.044 1436.17 839.959 1441.81 844.06 1449.05 849.337 1457.51 855.73 1467.28 863.408 1478.2 872.348 1490.32 882.571 1503.39 894.221 1517.57 909.17 1534.59 924.815 1528.24 936.813 1521.42 948.319 1513.97 959.428 1506.31 970.255 1499.1 980.944 1492.73 986.022 1490.09 991.064 1487.84 995.935 1486.01 1000.71 1484.71 1005.31 1483.88 1009.72 1483.62 1015.9 1484.12 1022.2 1485.52 1028.65 1487.8 1035.4 1490.9 1042.28 1494.72 1049.35 1499.06 1064.03 1508.85 1079 1518.89 1086.74 1523.68 1094.72 1528.13 1102.97 1531.98 1111.53 1535 1120.3 1537.01 1129.48 1537.74 1138.64 1537.01 1147.5 1535 1156 1531.97 1164.23 1528.13 1172.19 1523.69 1180 1518.91 1194.99 1508.85 1209.61 1499.05 1216.66 1494.74 1223.62 1490.9 1230.31 1487.8 1236.82 1485.52 1243.07 1484.12 1249.12 1483.63 1255.19 1484.12 1261.48 1485.52 1267.94 1487.8 1274.69 1490.9 1281.57 1494.72 1288.64 1499.06 1303.32 1508.85 1318.29 1518.89 1326.03 1523.68 1334.01 1528.13 1342.26 1531.98 1350.82 1535 1359.59 1537.01 1368.77 1537.74 1377.93 1537.01 1386.78 1535 1395.29 1531.97 1403.52 1528.13 1411.48 1523.69 1419.29 1518.91 1434.28 1508.85 1448.9 1499.05 1455.95 1494.74 1462.91 1490.9 1469.6 1487.8 1476.11 1485.52 1482.36 1484.12 1488.41 1483.63 1494.47 1484.12 1500.78 1485.52 1507.23 1487.8 1513.98 1490.9 1520.85 1494.72 1527.93 1499.06 1542.61 1508.85 1557.58 1518.89 1565.32 1523.68 1573.3 1528.13 1581.55 1531.98 1590.1 1535 1598.88 1537.01 1608.06 1537.74 1617.22 1537.01 1626.08 1535 1634.58 1531.97 1642.81 1528.13 1650.77 1523.69 1658.58 1518.91 1673.57 1508.85 1688.19 1499.05 1695.23 1494.74 1702.2 1490.9 1708.89 1487.8 1715.4 1485.52 1721.64 1484.12 1727.81 1483.62 1732.22 1483.88 1736.83 1484.71 1741.6 1486.01 1746.49 1487.85 1751.58 1490.09 1756.56 1492.72 1767.28 1499.1 1778.12 1506.32 1789.3 1513.98 1800.79 1521.42 1812.76 1528.23 1827.77 1534.43 1834.67 1526.9 1847.09 1512.36 1858.79 1497.77 1869.58 1483.06 1879.37 1468.55 1888.07 1455.31 1896.2 1441.59 1903.77 1427.62 1910.79 1413.37 1917.23 1398.9 1923.27 1384.29 1928.74 1369.41 1933.87 1354.3ZM1959 1287 1940.68 1356.42 1935.45 1371.85 1929.89 1386.95 1923.76 1401.79 1917.22 1416.47 1910.07 1430.98 1902.37 1445.2 1894.08 1459.17 1885.28 1472.6 1875.36 1487.27 1864.41 1502.21 1852.54 1517.01 1839.97 1531.73 1829.65 1543.01 1809.66 1534.75 1797.13 1527.63 1785.38 1520.02 1774.17 1512.34 1763.52 1505.24 1753.12 1499.05 1748.51 1496.63 1743.84 1494.56 1739.43 1492.91 1735.27 1491.77 1731.39 1491.07 1727.88 1490.86 1722.7 1491.28 1717.33 1492.48 1711.53 1494.52 1705.38 1497.37 1698.78 1501.01 1691.99 1505.17 1677.49 1514.89 1662.39 1525.02 1654.33 1529.96 1646.01 1534.59 1637.24 1538.68 1628.04 1541.96 1618.28 1544.17 1608.06 1545 1597.81 1544.17 1588.15 1541.96 1578.88 1538.69 1570.09 1534.59 1561.75 1529.93 1553.76 1525 1538.69 1514.89 1524.13 1505.18 1517.31 1500.99 1510.8 1497.37 1504.58 1494.52 1498.84 1492.48 1493.42 1491.29 1488.41 1490.89 1483.41 1491.28 1478.05 1492.48 1472.24 1494.52 1466.09 1497.37 1459.49 1501.01 1452.71 1505.17 1438.2 1514.89 1423.1 1525.02 1415.04 1529.96 1406.73 1534.59 1397.96 1538.68 1388.75 1541.96 1379 1544.17 1368.77 1545 1358.52 1544.17 1348.86 1541.96 1339.6 1538.69 1330.81 1534.59 1322.46 1529.93 1314.47 1525 1299.4 1514.89 1284.84 1505.18 1278.01 1500.99 1271.5 1497.37 1265.29 1494.52 1259.54 1492.48 1254.14 1491.29 1249.12 1490.89 1244.12 1491.28 1238.76 1492.48 1232.96 1494.52 1226.8 1497.37 1220.2 1501.01 1213.42 1505.17 1198.92 1514.89 1183.81 1525.02 1175.75 1529.96 1167.44 1534.59 1158.67 1538.68 1149.46 1541.96 1139.71 1544.17 1129.48 1545 1119.23 1544.17 1109.57 1541.96 1100.31 1538.69 1091.52 1534.59 1083.17 1529.93 1075.19 1525 1060.11 1514.89 1045.55 1505.18 1038.72 1500.99 1032.22 1497.37 1026.01 1494.52 1020.25 1492.48 1014.85 1491.29 1009.65 1490.86 1006.14 1491.07 1002.26 1491.77 998.104 1492.91 993.735 1494.55 989.083 1496.63 984.374 1499.08 974.015 1505.24 963.383 1512.32 952.237 1520 940.473 1527.63 927.892 1534.78 907.176 1543.19 888.825 1522.29 877.044 1507.95 866.705 1494.74 857.656 1482.47 849.862 1471.38 843.361 1461.45 837.96 1452.79 833.714 1445.29 830.731 1439.52 827.255 1432.75 823.472 1424.86 819.405 1416.04 815.197 1406.07 810.832 1395.1 806.327 1383 801.751 1369.7 797.138 1355.03 779 1287.33 840.236 1325.57 854.977 1335.52 861.799 1339.7 868.234 1343.32 874.342 1346.12 880.153 1348.22 885.296 1349.39 890.189 1349.8 895.1 1349.39 900.284 1348.22 905.95 1346.15 912.174 1343.25 918.729 1339.65 925.468 1335.52 939.947 1325.75 955.078 1315.53 963.239 1310.54 971.65 1305.96 980.383 1301.92 989.714 1298.57 999.559 1296.37 1009.83 1295.54 1020.09 1296.37 1030.03 1298.57 1039.28 1301.92 1048.09 1305.96 1056.46 1310.55 1064.57 1315.53 1079.76 1325.72 1094.3 1335.55 1100.97 1339.67 1107.49 1343.25 1113.69 1346.14 1119.44 1348.22 1124.58 1349.39 1129.48 1349.8 1134.39 1349.39 1139.57 1348.22 1145.24 1346.15 1151.46 1343.25 1158.02 1339.65 1164.76 1335.52 1179.24 1325.75 1194.37 1315.53 1202.53 1310.54 1210.94 1305.96 1219.67 1301.92 1229 1298.57 1238.85 1296.37 1249.12 1295.54 1259.38 1296.37 1269.32 1298.57 1278.57 1301.92 1287.38 1305.96 1295.74 1310.55 1303.86 1315.53 1319.04 1325.72 1333.58 1335.55 1340.26 1339.67 1346.78 1343.25 1352.98 1346.14 1358.73 1348.22 1363.87 1349.39 1368.77 1349.8 1373.68 1349.39 1378.86 1348.22 1384.53 1346.15 1390.75 1343.25 1397.31 1339.65 1404.05 1335.52 1418.53 1325.75 1433.66 1315.53 1441.82 1310.54 1450.23 1305.96 1458.96 1301.92 1468.29 1298.57 1478.14 1296.37 1488.41 1295.54 1498.67 1296.37 1508.6 1298.57 1517.85 1301.92 1526.66 1305.96 1535.03 1310.55 1543.15 1315.53 1558.34 1325.72 1572.87 1335.55 1579.55 1339.67 1586.07 1343.25 1592.27 1346.14 1598.01 1348.22 1603.16 1349.39 1608.06 1349.8 1612.97 1349.39 1618.15 1348.22 1623.81 1346.15 1630.04 1343.25 1636.59 1339.65 1643.33 1335.52 1657.81 1325.75 1672.95 1315.53 1681.1 1310.54 1689.52 1305.96 1698.25 1301.92 1707.58 1298.57 1717.43 1296.37 1727.7 1295.54 1737.95 1296.37 1747.89 1298.57 1757.14 1301.92 1765.95 1305.96 1774.32 1310.55 1782.44 1315.53 1797.62 1325.72 1812.16 1335.55 1818.84 1339.67 1825.36 1343.25 1831.56 1346.14 1837.3 1348.22 1842.45 1349.39 1847.35 1349.8 1852.26 1349.39 1857.44 1348.22 1863.17 1346.13 1869.33 1343.31 1875.84 1339.68 1882.62 1335.52 1897.36 1325.58Z" fill="#052A67" fill-rule="evenodd"/><path d="M1009.04 1538.54 1017.2 1539.2 1025.23 1540.99 1033.15 1543.85 1040.89 1547.44 1048.58 1551.62 1056.15 1556.28 1071.02 1566.34 1085.76 1576.31 1093.06 1580.79 1100.25 1584.78 1107.43 1588.14 1114.58 1590.74 1121.62 1592.34 1128.59 1592.9 1135.63 1592.34 1142.6 1590.74 1149.75 1588.14 1156.94 1584.78 1164.19 1580.79 1171.42 1576.31 1186.16 1566.34 1201.1 1556.28 1208.67 1551.63 1216.29 1547.44 1224.11 1543.85 1231.96 1540.99 1240.05 1539.2 1248.21 1538.54 1256.38 1539.2 1264.4 1540.99 1272.32 1543.85 1280.07 1547.45 1287.68 1551.62 1295.33 1556.28 1310.2 1566.34 1324.94 1576.31 1332.17 1580.79 1339.42 1584.78 1346.61 1588.14 1353.76 1590.74 1360.74 1592.34 1367.77 1592.9 1374.8 1592.34 1381.78 1590.74 1388.93 1588.14 1396.12 1584.78 1403.37 1580.79 1410.6 1576.31 1425.34 1566.34 1440.21 1556.28 1447.85 1551.62 1455.46 1547.45 1463.22 1543.85 1471.14 1540.99 1479.16 1539.2 1487.32 1538.54 1495.49 1539.2 1503.51 1540.99 1511.44 1543.85 1519.17 1547.44 1526.86 1551.62 1534.44 1556.28 1549.31 1566.34 1564.04 1576.31 1571.34 1580.79 1578.54 1584.78 1585.72 1588.14 1592.87 1590.74 1599.91 1592.34 1606.88 1592.9 1613.92 1592.34 1620.89 1590.74 1628.04 1588.14 1635.22 1584.78 1642.48 1580.79 1649.71 1576.31 1664.44 1566.34 1679.38 1556.28 1686.96 1551.63 1694.58 1547.44 1702.39 1543.85 1710.25 1540.99 1718.34 1539.2 1726.5 1538.54 1734.66 1539.2 1742.68 1540.99 1750.6 1543.85 1758.46 1547.49 1784.86 1564.1 1771.97 1576.66 1748.44 1597.66 1723.91 1618.3 1698.53 1638.59 1672.41 1658.53 1645.83 1677.85 1618.85 1696.7 1591.73 1714.93 1564.61 1732.48 1555.4 1738.06 1545.42 1731.76 1530.63 1721.83 1523.32 1717.34 1516.08 1713.28 1508.78 1709.94 1501.62 1707.41 1494.44 1705.81 1487.32 1705.23 1480.22 1705.81 1473.09 1707.41 1465.87 1709.94 1458.65 1713.28 1451.39 1717.35 1444.01 1721.83 1429.27 1731.74 1414.42 1741.72 1406.93 1746.36 1399.31 1750.62 1391.61 1754.22 1383.75 1756.99 1375.87 1758.8 1367.77 1759.46 1359.66 1758.8 1351.79 1756.99 1343.93 1754.22 1336.23 1750.62 1328.61 1746.36 1321.12 1741.72 1306.26 1731.74 1291.53 1721.83 1284.15 1717.35 1276.89 1713.28 1269.66 1709.94 1262.45 1707.41 1255.32 1705.81 1248.21 1705.23 1241.1 1705.81 1233.91 1707.41 1226.7 1709.94 1219.47 1713.28 1212.22 1717.34 1204.9 1721.83 1190.06 1731.76 1175.88 1740.75 1132.35 1713.09 1108.63 1696.95 1086.14 1680.97 1064.71 1665.12 1044.43 1649.4 1025.28 1633.97 1007.14 1618.73 990.142 1603.83 974.135 1589.19 949.19 1564.99 977.085 1547.48 984.932 1543.85 992.852 1540.99 1000.88 1539.2ZM1009.04 1531.27 999.821 1532.01 990.887 1534.02 982.262 1537.12 973.726 1541.08 937.595 1563.76 969.295 1594.5 985.436 1609.27 1002.55 1624.27 1020.8 1639.59 1040.06 1655.13 1060.46 1670.93 1082 1686.87 1104.61 1702.94 1128.49 1719.17 1175.87 1749.29 1193.9 1737.86 1208.7 1727.95 1215.77 1723.62 1222.67 1719.77 1229.34 1716.67 1235.84 1714.39 1242.15 1712.99 1248.21 1712.5 1254.27 1712.99 1260.51 1714.38 1267.02 1716.67 1273.69 1719.77 1280.61 1723.63 1287.73 1727.97 1302.34 1737.78 1317.3 1747.84 1325.04 1752.63 1333.02 1757.09 1341.27 1760.94 1349.83 1763.98 1358.59 1765.99 1367.77 1766.73 1376.94 1765.99 1385.71 1763.98 1394.27 1760.94 1402.52 1757.09 1410.5 1752.63 1418.23 1747.84 1433.2 1737.78 1447.8 1727.97 1454.93 1723.63 1461.84 1719.77 1468.52 1716.67 1475.03 1714.38 1481.27 1712.99 1487.32 1712.5 1493.39 1712.99 1499.68 1714.38 1506.13 1716.67 1512.88 1719.77 1519.76 1723.62 1526.82 1727.95 1541.58 1737.86 1555.33 1746.54 1568.34 1738.65 1595.61 1721 1622.82 1702.71 1649.91 1683.78 1676.62 1664.37 1702.86 1644.33 1728.39 1623.94 1753.06 1603.17 1776.78 1582 1796.43 1562.86 1761.81 1541.08 1753.27 1537.12 1744.66 1534.02 1735.72 1532.01 1726.5 1531.27 1717.3 1532.01 1708.27 1534.02 1699.72 1537.12 1691.42 1540.94 1683.42 1545.34 1675.58 1550.15 1660.5 1560.31 1645.88 1570.2 1638.93 1574.5 1632.04 1578.3 1625.35 1581.43 1618.9 1583.77 1612.84 1585.15 1606.89 1585.63 1600.97 1585.15 1594.85 1583.76 1588.41 1581.43 1581.73 1578.31 1574.89 1574.51 1567.86 1570.19 1553.25 1560.31 1538.26 1550.16 1530.38 1545.33 1522.33 1540.94 1514.1 1537.12 1505.48 1534.02 1496.54 1532.01 1487.32 1531.27 1478.11 1532.01 1469.17 1534.02 1460.55 1537.12 1452.29 1540.95 1444.33 1545.33 1436.41 1550.15 1421.4 1560.31 1406.77 1570.2 1399.82 1574.5 1392.93 1578.3 1386.24 1581.43 1379.79 1583.77 1373.73 1585.15 1367.77 1585.63 1361.81 1585.15 1355.75 1583.77 1349.3 1581.43 1342.61 1578.3 1335.72 1574.5 1328.77 1570.2 1314.14 1560.31 1299.13 1550.15 1291.21 1545.33 1283.25 1540.95 1274.99 1537.12 1266.37 1534.02 1257.43 1532.01 1248.21 1531.27 1239.01 1532.01 1229.99 1534.02 1221.44 1537.12 1213.13 1540.94 1205.14 1545.34 1197.29 1550.15 1182.22 1560.31 1167.59 1570.2 1160.64 1574.5 1153.76 1578.3 1147.06 1581.43 1140.61 1583.77 1134.56 1585.15 1128.6 1585.63 1122.69 1585.15 1116.56 1583.76 1110.12 1581.43 1103.45 1578.31 1096.61 1574.51 1089.57 1570.19 1074.97 1560.31 1059.97 1550.16 1052.1 1545.33 1044.05 1540.94 1035.81 1537.12 1027.19 1534.02 1018.26 1532.01ZM1009.04 1524 1019.31 1524.83 1029.15 1527.04 1038.48 1530.4 1047.21 1534.44 1055.62 1539.03 1063.78 1544.04 1078.91 1554.27 1093.39 1564.07 1100.15 1568.22 1106.64 1571.82 1112.81 1574.71 1118.54 1576.79 1123.76 1577.97 1128.6 1578.37 1133.49 1577.97 1138.63 1576.79 1144.37 1574.71 1150.57 1571.81 1157.1 1568.22 1163.77 1564.09 1178.28 1554.27 1193.49 1544.04 1201.6 1539.04 1209.97 1534.44 1218.77 1530.4 1228.02 1527.04 1237.96 1524.83 1248.21 1524 1258.49 1524.83 1268.33 1527.04 1277.66 1530.4 1286.42 1534.46 1294.73 1539.03 1302.93 1544.02 1318.09 1554.27 1332.59 1564.09 1339.27 1568.22 1345.79 1571.81 1351.99 1574.71 1357.73 1576.79 1362.88 1577.97 1367.77 1578.37 1372.66 1577.97 1377.8 1576.79 1383.55 1574.71 1389.75 1571.81 1396.27 1568.22 1402.94 1564.09 1417.45 1554.27 1432.61 1544.02 1440.81 1539.03 1449.12 1534.46 1457.88 1530.4 1467.21 1527.04 1477.05 1524.83 1487.32 1524 1497.6 1524.83 1507.44 1527.04 1516.77 1530.4 1525.5 1534.44 1533.91 1539.03 1542.07 1544.04 1557.19 1554.27 1571.67 1564.07 1578.43 1568.22 1584.93 1571.82 1591.1 1574.71 1596.82 1576.79 1602.04 1577.97 1606.89 1578.37 1611.77 1577.97 1616.92 1576.79 1622.66 1574.71 1628.85 1571.81 1635.38 1568.22 1642.06 1564.09 1656.56 1554.27 1671.77 1544.04 1679.89 1539.04 1688.26 1534.44 1697.06 1530.4 1706.31 1527.04 1716.25 1524.83 1726.5 1524 1736.77 1524.83 1746.62 1527.04 1755.94 1530.4 1765.18 1534.68 1808 1561.63 1781.59 1587.34 1757.68 1608.69 1732.86 1629.57 1707.2 1650.08 1680.83 1670.22 1654 1689.73 1626.81 1708.72 1599.48 1727.08 1572.08 1744.82 1555.27 1755.02 1537.73 1743.97 1523.02 1734.08 1516.2 1729.9 1509.7 1726.27 1503.49 1723.41 1497.74 1721.37 1492.34 1720.17 1487.32 1719.77 1482.32 1720.16 1476.96 1721.37 1471.16 1723.41 1465.04 1726.24 1458.48 1729.92 1451.6 1734.1 1437.13 1743.83 1422.05 1753.95 1414.07 1758.9 1405.72 1763.57 1396.93 1767.68 1387.67 1770.96 1378.01 1773.17 1367.77 1774 1357.52 1773.17 1347.87 1770.96 1338.61 1767.68 1329.82 1763.57 1321.47 1758.9 1313.49 1753.95 1298.41 1743.83 1283.94 1734.1 1277.06 1729.92 1270.5 1726.24 1264.38 1723.41 1258.58 1721.37 1253.21 1720.16 1248.21 1719.77 1243.2 1720.17 1237.77 1721.38 1231.98 1723.41 1225.86 1726.24 1219.33 1729.9 1212.5 1734.09 1197.74 1743.97 1175.87 1757.82 1124.62 1725.25 1100.6 1708.92 1077.87 1692.77 1056.21 1676.74 1035.69 1660.85 1016.32 1645.23 997.958 1629.8 980.731 1614.69 964.457 1599.82 926 1562.52 970.368 1534.67 979.594 1530.4 988.922 1527.04 998.766 1524.83Z" fill="#052A67" fill-rule="evenodd"/><path d="M769.953 1085.97 785.867 1088.46 792.923 1090.92 799.718 1093.88 806.483 1097.39 813.129 1101.35 826.207 1109.84 839.199 1118.61 852.02 1126.92 858.349 1130.56 864.641 1133.72 870.957 1136.34 877.121 1138.35 883.269 1139.55 889.417 1139.99 896.467 1139.42 903.457 1137.82 910.606 1135.3 917.781 1131.95 925.034 1127.96 932.267 1123.49 947.016 1113.59 961.949 1103.62 969.515 1098.98 977.136 1094.8 984.966 1091.2 992.818 1088.43 1000.9 1086.63 1009.06 1085.98 1017.22 1086.63 1025.23 1088.43 1033.15 1091.2 1040.92 1094.8 1048.6 1098.98 1056.17 1103.62 1071.04 1113.59 1085.78 1123.49 1093.08 1127.96 1100.34 1131.95 1107.52 1135.3 1114.6 1137.82 1121.65 1139.42 1128.69 1139.99 1135.72 1139.42 1142.71 1137.82 1149.86 1135.3 1157.03 1131.95 1164.29 1127.96 1171.52 1123.49 1186.27 1113.59 1201.2 1103.62 1208.77 1098.98 1216.39 1094.8 1224.22 1091.2 1232.07 1088.43 1240.15 1086.63 1248.31 1085.98 1256.48 1086.63 1264.49 1088.43 1272.41 1091.2 1280.17 1094.8 1287.85 1098.98 1295.43 1103.62 1310.29 1113.59 1325.03 1123.49 1332.33 1127.96 1339.59 1131.95 1346.77 1135.3 1353.85 1137.82 1360.9 1139.42 1367.94 1139.99 1374.97 1139.42 1381.96 1137.82 1389.11 1135.3 1396.29 1131.95 1403.54 1127.96 1410.77 1123.49 1425.52 1113.59 1440.46 1103.62 1448.02 1098.98 1455.64 1094.8 1463.47 1091.2 1471.33 1088.43 1479.41 1086.63 1487.57 1085.98 1495.73 1086.63 1503.74 1088.43 1511.66 1091.2 1519.42 1094.8 1527.11 1098.98 1534.68 1103.62 1549.55 1113.59 1564.28 1123.49 1571.58 1127.96 1578.85 1131.95 1586.03 1135.3 1593.1 1137.82 1600.15 1139.42 1607.19 1139.99 1614.22 1139.42 1621.22 1137.82 1628.37 1135.3 1635.54 1131.95 1642.79 1127.96 1650.03 1123.49 1664.77 1113.59 1679.71 1103.62 1687.28 1098.98 1694.9 1094.8 1702.72 1091.2 1710.58 1088.43 1718.66 1086.63 1726.83 1085.98 1734.98 1086.63 1743 1088.43 1750.92 1091.2 1758.68 1094.8 1766.36 1098.98 1773.94 1103.62 1788.8 1113.59 1803.54 1123.49 1810.85 1127.96 1818.04 1131.95 1825.21 1135.3 1832.35 1137.82 1839.42 1139.42 1846.39 1139.99 1852.54 1139.55 1858.7 1138.35 1864.86 1136.34 1871.17 1133.72 1877.46 1130.56 1883.79 1126.92 1896.61 1118.61 1909.61 1109.84 1922.69 1101.35 1929.33 1097.39 1936.09 1093.88 1942.89 1090.92 1949.94 1088.46 1964.89 1086.1 1962.66 1131.16 1961.05 1158.03 1958.91 1185.98 1956.08 1214.78 1952.45 1244.24 1950.68 1254.19 1937.27 1259.68 1926.36 1265.85 1915.37 1272.91 1904.27 1280.45 1893.06 1287.92 1881.79 1294.62 1876.05 1297.63 1870.21 1300.24 1864.41 1302.38 1858.48 1304.02 1852.49 1305.11 1846.34 1305.48 1838.28 1304.83 1830.39 1303.03 1822.54 1300.24 1814.84 1296.65 1807.23 1292.47 1799.73 1287.84 1784.88 1277.94 1770.14 1268.11 1762.77 1263.64 1755.5 1259.66 1748.27 1256.3 1741.06 1253.78 1733.93 1252.18 1726.83 1251.6 1719.71 1252.18 1712.52 1253.78 1705.37 1256.3 1698.06 1259.66 1690.81 1263.64 1683.51 1268.11 1668.69 1277.94 1653.84 1287.84 1646.34 1292.47 1638.72 1296.65 1631.03 1300.24 1623.17 1303.03 1615.29 1304.83 1607.19 1305.48 1599.09 1304.83 1591.14 1303.03 1583.35 1300.24 1575.66 1296.65 1568.06 1292.48 1560.49 1287.84 1545.62 1277.94 1530.88 1268.11 1523.58 1263.64 1516.26 1259.66 1509.02 1256.3 1501.8 1253.78 1494.68 1252.18 1487.57 1251.6 1480.45 1252.18 1473.27 1253.78 1466.11 1256.3 1458.81 1259.66 1451.56 1263.64 1444.25 1268.11 1429.43 1277.94 1414.59 1287.84 1407.09 1292.47 1399.47 1296.65 1391.78 1300.24 1383.92 1303.03 1376.04 1304.83 1367.94 1305.48 1359.84 1304.83 1351.89 1303.03 1344.1 1300.24 1336.41 1296.65 1328.8 1292.48 1321.23 1287.84 1306.37 1277.94 1291.63 1268.11 1284.33 1263.64 1277.01 1259.66 1269.77 1256.3 1262.55 1253.78 1255.42 1252.18 1248.31 1251.6 1241.2 1252.18 1234.01 1253.78 1226.86 1256.3 1219.55 1259.66 1212.3 1263.64 1205 1268.11 1190.18 1277.94 1175.33 1287.84 1167.84 1292.47 1160.22 1296.65 1152.52 1300.24 1144.67 1303.03 1136.79 1304.83 1128.69 1305.48 1120.59 1304.83 1112.63 1303.03 1104.84 1300.24 1097.15 1296.65 1089.54 1292.48 1081.98 1287.84 1067.12 1277.94 1052.37 1268.11 1045.07 1263.64 1037.75 1259.66 1030.51 1256.3 1023.3 1253.78 1016.17 1252.18 1009.06 1251.6 1001.95 1252.18 994.759 1253.78 987.607 1256.3 980.299 1259.66 973.051 1263.64 965.742 1268.11 950.926 1277.94 936.079 1287.84 928.582 1292.47 920.965 1296.65 913.27 1300.24 905.416 1303.03 897.537 1304.83 889.471 1305.48 883.321 1305.11 877.328 1304.02 871.409 1302.38 865.603 1300.24 859.763 1297.63 854.024 1294.62 842.746 1287.92 831.538 1280.45 820.445 1272.91 809.448 1265.85 798.545 1259.68 785.869 1254.5 778.263 1201.56 776.312 1183.79 774.565 1165.37 772.954 1146.28 771.609 1126.34ZM762.476 1077.49 764.497 1126.73 765.852 1146.84 767.472 1166.04 769.227 1184.54 771.198 1202.49 779.412 1259.66 795.47 1266.22 805.809 1272.07 816.561 1278.98 827.603 1286.48 838.993 1294.07 850.587 1300.95 856.686 1304.16 862.954 1306.97 869.255 1309.28 875.759 1311.09 882.483 1312.3 889.544 1312.73 898.608 1312 907.376 1310 915.934 1306.97 924.148 1303.13 932.13 1298.75 939.887 1293.95 954.821 1284 969.531 1274.24 976.587 1269.92 983.461 1266.14 990.248 1263.03 996.7 1260.74 1003 1259.35 1009.06 1258.86 1015.11 1259.35 1021.36 1260.74 1027.87 1263.03 1034.59 1266.14 1041.55 1269.93 1048.58 1274.24 1063.21 1283.98 1078.18 1293.96 1086.01 1298.76 1093.97 1303.13 1102.17 1306.96 1110.67 1310 1119.52 1312 1128.69 1312.74 1137.86 1312 1146.63 1310 1155.19 1306.97 1163.4 1303.13 1171.38 1298.75 1179.14 1293.95 1194.07 1284 1208.79 1274.24 1215.84 1269.92 1222.72 1266.14 1229.5 1263.03 1235.95 1260.74 1242.25 1259.35 1248.31 1258.86 1254.37 1259.35 1260.61 1260.74 1267.12 1263.03 1273.85 1266.14 1280.8 1269.93 1287.83 1274.24 1302.47 1283.98 1317.44 1293.96 1325.26 1298.76 1333.22 1303.13 1341.43 1306.96 1349.92 1310 1358.78 1312 1367.94 1312.74 1377.11 1312 1385.88 1310 1394.44 1306.97 1402.65 1303.13 1410.64 1298.75 1418.39 1293.95 1433.33 1284 1448.04 1274.24 1455.09 1269.92 1461.97 1266.14 1468.76 1263.03 1475.21 1260.74 1481.5 1259.35 1487.57 1258.86 1493.62 1259.35 1499.86 1260.74 1506.38 1263.03 1513.1 1266.14 1520.05 1269.93 1527.08 1274.24 1541.72 1283.98 1556.7 1293.96 1564.52 1298.76 1572.48 1303.13 1580.68 1306.96 1589.18 1310 1598.03 1312 1607.19 1312.74 1616.37 1312 1625.13 1310 1633.7 1306.97 1641.91 1303.13 1649.89 1298.75 1657.65 1293.95 1672.58 1284 1687.29 1274.24 1694.34 1269.92 1701.22 1266.14 1708.01 1263.03 1714.46 1260.74 1720.76 1259.35 1726.83 1258.86 1732.87 1259.35 1739.12 1260.74 1745.63 1263.03 1752.33 1266.13 1759.24 1269.93 1766.36 1274.25 1780.98 1283.98 1795.93 1293.95 1803.69 1298.75 1811.66 1303.13 1819.88 1306.97 1828.43 1310 1837.21 1312 1846.26 1312.73 1853.33 1312.3 1860.06 1311.09 1866.56 1309.28 1872.86 1306.97 1879.12 1304.16 1885.23 1300.95 1896.82 1294.07 1908.21 1286.48 1919.26 1278.98 1930.01 1272.07 1940.35 1266.22 1956.98 1259.41 1959.49 1245.33 1963.16 1215.58 1966 1186.62 1968.16 1158.53 1969.78 1131.56 1972.44 1077.58 1948.22 1081.41 1940.33 1084.16 1933.07 1087.33 1925.9 1091.04 1918.96 1095.18 1905.72 1103.78 1892.73 1112.55 1880.12 1120.71 1874.13 1124.16 1868.24 1127.12 1862.43 1129.54 1856.93 1131.33 1851.61 1132.37 1846.44 1132.74 1840.48 1132.25 1834.3 1130.86 1827.87 1128.57 1821.23 1125.48 1814.39 1121.69 1807.34 1117.37 1792.72 1107.55 1777.74 1097.51 1769.89 1092.69 1761.84 1088.31 1753.56 1084.48 1744.93 1081.46 1736.04 1079.46 1726.83 1078.72 1717.61 1079.46 1708.64 1081.46 1700.09 1084.48 1691.74 1088.31 1683.74 1092.7 1675.91 1097.5 1660.85 1107.55 1646.21 1117.38 1639.25 1121.69 1632.36 1125.47 1625.7 1128.57 1619.26 1130.86 1613.15 1132.25 1607.19 1132.73 1601.22 1132.25 1595.07 1130.86 1588.7 1128.58 1582.03 1125.47 1575.12 1121.68 1568.09 1117.37 1553.47 1107.55 1538.49 1097.51 1530.63 1092.69 1522.58 1088.31 1514.31 1084.48 1505.67 1081.46 1496.79 1079.46 1487.57 1078.72 1478.36 1079.46 1469.38 1081.46 1460.83 1084.48 1452.48 1088.31 1444.49 1092.7 1436.66 1097.5 1421.6 1107.55 1406.96 1117.38 1399.99 1121.69 1393.1 1125.47 1386.45 1128.57 1380 1130.86 1373.9 1132.25 1367.94 1132.73 1361.97 1132.25 1355.81 1130.86 1349.44 1128.58 1342.77 1125.47 1335.87 1121.68 1328.84 1117.37 1314.22 1107.55 1299.23 1097.51 1291.38 1092.69 1283.33 1088.31 1275.05 1084.48 1266.42 1081.46 1257.53 1079.46 1248.31 1078.72 1239.1 1079.46 1230.13 1081.46 1221.58 1084.48 1213.23 1088.31 1205.23 1092.7 1197.4 1097.5 1182.34 1107.55 1167.7 1117.38 1160.74 1121.69 1153.85 1125.47 1147.2 1128.57 1140.75 1130.86 1134.65 1132.25 1128.69 1132.73 1122.71 1132.25 1116.56 1130.86 1110.19 1128.58 1103.52 1125.47 1096.62 1121.68 1089.58 1117.37 1074.96 1107.55 1059.98 1097.51 1052.12 1092.69 1044.08 1088.31 1035.8 1084.48 1027.17 1081.46 1018.28 1079.46 1009.06 1078.72 999.852 1079.46 990.878 1081.46 982.325 1084.48 973.974 1088.31 965.979 1092.7 958.151 1097.5 943.09 1107.55 928.451 1117.38 921.486 1121.69 914.598 1125.47 907.942 1128.57 901.497 1130.86 895.395 1132.25 889.386 1132.74 884.201 1132.37 878.89 1131.33 873.391 1129.54 867.57 1127.12 861.687 1124.16 855.692 1120.71 843.085 1112.55 830.096 1103.78 816.852 1095.18 809.909 1091.04 802.743 1087.33 795.486 1084.16 787.578 1081.41ZM755 1069 789.29 1074.36 798.049 1077.41 805.768 1080.78 813.334 1084.7 820.575 1089.02 833.986 1097.72 846.971 1106.49 859.365 1114.51 865.027 1117.77 870.499 1120.53 875.825 1122.73 880.658 1124.3 885.133 1125.19 889.354 1125.48 894.325 1125.08 899.537 1123.89 905.279 1121.86 911.415 1118.99 917.938 1115.41 924.635 1111.28 939.164 1101.52 954.352 1091.38 962.444 1086.42 970.812 1081.82 979.684 1077.75 988.937 1074.49 998.804 1072.29 1009.06 1071.46 1019.33 1072.29 1029.11 1074.49 1038.44 1077.75 1047.24 1081.82 1055.65 1086.4 1063.78 1091.39 1078.89 1101.52 1093.39 1111.25 1100.15 1115.4 1106.71 1118.99 1112.86 1121.87 1118.52 1123.89 1123.78 1125.08 1128.69 1125.48 1133.58 1125.08 1138.79 1123.89 1144.53 1121.86 1150.67 1118.99 1157.19 1115.41 1163.89 1111.28 1178.42 1101.52 1193.61 1091.38 1201.7 1086.42 1210.06 1081.82 1218.94 1077.75 1228.19 1074.49 1238.06 1072.29 1248.31 1071.46 1258.59 1072.29 1268.36 1074.49 1277.7 1077.75 1286.49 1081.82 1294.9 1086.4 1303.04 1091.39 1318.14 1101.52 1332.64 1111.25 1339.4 1115.4 1345.96 1118.99 1352.12 1121.87 1357.78 1123.89 1363.03 1125.08 1367.94 1125.48 1372.83 1125.08 1378.04 1123.89 1383.79 1121.86 1389.92 1118.99 1396.44 1115.41 1403.14 1111.28 1417.67 1101.52 1432.86 1091.38 1440.95 1086.42 1449.32 1081.82 1458.19 1077.75 1467.44 1074.49 1477.31 1072.29 1487.57 1071.46 1497.84 1072.29 1507.61 1074.49 1516.95 1077.75 1525.74 1081.82 1534.16 1086.4 1542.29 1091.39 1557.39 1101.52 1571.89 1111.25 1578.65 1115.4 1585.21 1118.99 1591.38 1121.87 1597.03 1123.89 1602.28 1125.08 1607.19 1125.48 1612.09 1125.08 1617.3 1123.89 1623.04 1121.86 1629.17 1118.99 1635.7 1115.41 1642.4 1111.28 1656.92 1101.52 1672.12 1091.38 1680.21 1086.42 1688.58 1081.82 1697.44 1077.75 1706.7 1074.49 1716.57 1072.29 1726.83 1071.46 1737.09 1072.29 1746.87 1074.49 1756.2 1077.75 1765 1081.82 1773.41 1086.4 1781.55 1091.39 1796.65 1101.52 1811.15 1111.25 1817.94 1115.41 1824.43 1119.01 1830.53 1121.86 1836.26 1123.88 1841.54 1125.08 1846.47 1125.48 1850.68 1125.19 1855.16 1124.3 1859.99 1122.73 1865.31 1120.53 1870.78 1117.77 1876.44 1114.51 1888.84 1106.49 1901.83 1097.72 1915.24 1089.02 1922.48 1084.7 1930.05 1080.78 1937.76 1077.41 1946.51 1074.37 1980 1069.07 1976.88 1131.97 1975.26 1159.03 1973.1 1187.26 1970.24 1216.39 1966.53 1246.43 1963.29 1264.62 1943.42 1272.76 1933.64 1278.29 1923.14 1285.04 1912.14 1292.51 1900.58 1300.22 1888.66 1307.3 1882.2 1310.69 1875.51 1313.69 1868.72 1316.18 1861.62 1318.15 1854.17 1319.51 1846.2 1319.98 1836.14 1319.17 1826.48 1316.96 1817.21 1313.69 1808.48 1309.6 1800.14 1305.02 1792.12 1300.07 1777.07 1290.03 1762.58 1280.38 1755.72 1276.21 1749.16 1272.62 1742.99 1269.76 1737.18 1267.72 1731.82 1266.51 1726.83 1266.12 1721.8 1266.52 1716.4 1267.72 1710.65 1269.76 1704.38 1272.63 1697.88 1276.2 1691.08 1280.37 1676.48 1290.06 1661.45 1300.07 1653.44 1305.02 1645.09 1309.6 1636.35 1313.69 1627.09 1316.96 1617.44 1319.17 1607.19 1320 1596.97 1319.17 1587.22 1316.96 1578 1313.68 1569.3 1309.6 1560.98 1305.04 1552.89 1300.09 1537.81 1290.03 1523.29 1280.36 1516.53 1276.21 1509.94 1272.63 1503.73 1269.76 1497.92 1267.72 1492.57 1266.51 1487.57 1266.12 1482.55 1266.52 1477.15 1267.72 1471.4 1269.76 1465.13 1272.63 1458.63 1276.2 1451.83 1280.37 1437.22 1290.06 1422.2 1300.07 1414.19 1305.02 1405.84 1309.6 1397.1 1313.69 1387.84 1316.96 1378.19 1319.17 1367.94 1320 1357.71 1319.17 1347.96 1316.96 1338.75 1313.68 1330.04 1309.6 1321.73 1305.04 1313.64 1300.09 1298.56 1290.03 1284.04 1280.36 1277.28 1276.21 1270.69 1272.63 1264.48 1269.76 1258.67 1267.72 1253.31 1266.51 1248.31 1266.12 1243.3 1266.52 1237.89 1267.72 1232.14 1269.76 1225.88 1272.63 1219.38 1276.2 1212.57 1280.37 1197.97 1290.06 1182.95 1300.07 1174.93 1305.02 1166.59 1309.6 1157.85 1313.69 1148.59 1316.96 1138.93 1319.17 1128.69 1320 1118.46 1319.17 1108.71 1316.96 1099.5 1313.68 1090.79 1309.6 1082.47 1305.04 1074.39 1300.09 1059.31 1290.03 1044.78 1280.36 1038.03 1276.21 1031.43 1272.63 1025.22 1269.76 1019.42 1267.72 1014.06 1266.51 1009.06 1266.12 1004.04 1266.52 998.64 1267.72 992.889 1269.76 986.624 1272.63 980.122 1276.2 973.32 1280.37 958.715 1290.06 943.694 1300.07 935.679 1305.02 927.332 1309.6 918.598 1313.69 909.336 1316.96 899.678 1319.17 889.618 1319.98 881.645 1319.51 874.189 1318.15 867.101 1316.18 860.304 1313.69 853.61 1310.69 847.15 1307.3 835.239 1300.22 823.669 1292.51 812.677 1285.04 802.169 1278.29 792.396 1272.76 772.955 1264.81 764.134 1203.41 762.143 1185.28 760.38 1166.69 758.751 1147.39 757.384 1127.14Z" fill="#052A67" fill-rule="evenodd"/><path d="M778.271 337.514 778.271 1030.66C782.312 1274.59 828.768 1383.03 850.986 1425.33 869.838 1464.15 1003.82 1663.42 1364.04 1822.94 1502.73 1759.03 1760.95 1603.91 1856.88 1455.86 1948.78 1322.67 1941.84 1131 1949.75 1030.66L1949.75 337.514ZM743 303 1985 303 1985 1030.48C1976.62 1135.79 1983.97 1336.95 1886.54 1476.73 1784.84 1632.12 1511.07 1794.92 1364.03 1862 982.132 1694.57 840.08 1485.44 820.093 1444.7 796.537 1400.3 747.284 1286.48 743 1030.48Z" fill="#052A67" fill-rule="evenodd"/><path d="M779.847 339.856 1946.85 339.856 1946.85 1030.94C1938.97 1130.98 1945.88 1322.07 1854.33 1454.87 1758.77 1602.48 1501.54 1757.13 1363.37 1820.86 1004.54 1661.8 871.064 1463.13 852.284 1424.43 830.151 1382.25 783.872 1274.13 779.847 1030.94L779.847 339.856Z" stroke="#FFFFFF" stroke-width="13.75" stroke-miterlimit="8" fill="none" fill-rule="evenodd"/><path d="M1358.87 875.603C1484.98 875.603 1604.56 898.181 1711.76 938.605L1752.74 955.307 1749.68 965.545 1726.17 954.95C1616.9 910.911 1491.67 885.895 1358.58 885.895 1225.48 885.895 1100.25 910.911 990.983 954.95L966.468 966 963.739 955.817 1005.98 938.605C1113.17 898.181 1232.76 875.603 1358.87 875.603ZM1360.17 839.541C1486.28 839.541 1605.86 860.066 1713.06 896.816L1748.88 910.083 1738.65 942.701 1711.76 931.742C1604.56 891.318 1484.98 868.74 1358.87 868.74 1232.76 868.74 1113.17 891.318 1005.98 931.742L977.585 943.312 968.564 911.158 1007.28 896.816C1114.48 860.066 1234.06 839.541 1360.17 839.541ZM1717.5 827.286 1769.42 844.867 1765.25 858.217 1765.15 858.184 1755.06 890.343 1713.06 874.783 1703.66 872.003 1717.5 827.286ZM1360.17 823.746C1504.3 823.746 1639.9 850.555 1758.22 897.752L1769.72 902.881 1767.06 911.248 1758.22 907.307C1639.9 860.11 1504.3 833.302 1360.17 833.302 1216.04 833.302 1080.44 860.11 962.116 907.307L950.717 912.392 948.303 903.914 962.116 897.752C1080.44 850.555 1216.04 823.746 1360.17 823.746ZM1061.67 810.219 1074.24 854.967 1007.28 874.783 962.964 891.199 949.891 844.605 963.062 839.435 1001.36 827.423 1014.05 872.586 1016.66 871.84 1003.95 826.611 1037.38 816.127 1061.67 810.219ZM1656.34 809.964 1703.85 822.665 1714.93 826.415 1701.06 871.233 1642.73 853.969 1656.34 809.964ZM1600.54 797.122 1628.62 802.554 1653.72 809.263 1640.13 853.199 1630.43 850.33 1586.88 841.309 1598.19 805.121 1598.06 805.08 1600.54 797.122ZM1116.85 796.884 1129.55 842.116 1089.91 850.33 1076.84 854.197 1064.3 809.578 1115.29 797.177 1116.85 796.884ZM1762.69 791.088 1783.95 798.285 1770.29 842.071 1749.14 834.908 1762.69 791.088ZM958.463 789.088 971.043 833.864 962.289 836.609 949.099 841.786 936.539 797.021 949.941 791.761 958.463 789.088ZM1700.11 771.145 1717.65 775.834 1760.12 790.217 1746.57 834.038 1704.69 819.856 1686.54 815.004 1700.11 771.145ZM1017.06 770.71 1029.64 815.486 973.632 833.052 961.052 788.276 1017.06 770.71ZM1640.72 755.394 1642.42 755.723 1697.48 770.444 1683.91 814.303 1629.46 799.745 1627.14 799.296 1640.72 755.394ZM1077.97 755.388 1090.55 800.179 1036.61 813.3 1032.23 814.674 1019.65 769.898 1024.26 768.452 1077.97 755.388ZM1615.1 750.44 1638.04 754.876 1624.46 798.778 1601.42 794.321 1615.1 750.44ZM1103.47 749.258 1116.05 794.062 1114.52 794.351 1093.19 799.538 1080.61 754.746 1102.17 749.502 1103.47 749.258ZM974.385 732.923 986.805 777.131 949.168 788.935 935.748 794.202 923.334 749.957 936.304 744.866 974.385 732.923ZM1747.17 732.463 1799.06 750.035 1787.71 786.224 1784.82 795.489 1733.09 777.971 1747.17 732.463ZM1034.8 715.677 1047.21 759.855 1023.49 765.626 989.394 776.319 976.974 732.111 1010.62 721.558 1034.8 715.677ZM1685.84 714.962 1731.64 727.207 1744.6 731.593 1730.52 777.1 1718.48 773.026 1671.74 760.53 1685.84 714.962ZM1090.27 702.281 1102.67 746.436 1101.39 746.676 1049.85 759.214 1037.44 715.035 1088.53 702.608 1090.27 702.281ZM1630.2 702.026 1656.41 707.096 1683.21 714.261 1669.12 759.829 1643.25 752.915 1615.98 747.639 1630.2 702.026ZM1792.27 695.057 1813.91 702.652 1801.7 741.593 1801.64 741.572 1800.56 745.011 1800.63 745.03 1799.93 747.241 1778.38 739.944 1792.27 695.057ZM931.883 692.576 944.95 739.087 935.532 742.04 922.543 747.138 909.444 700.451 931.883 692.576ZM1358.31 681.784C1363.55 681.784 1367.8 686.072 1367.8 691.361 1368 732.551 1367.6 776.154 1367.8 817.344L1349.43 817.343C1349.23 774.746 1349.03 733.958 1348.83 691.361 1348.83 686.072 1353.08 681.784 1358.31 681.784ZM1729.54 676.038 1772.01 687.946 1789.71 694.158 1775.81 739.074 1732.48 724.398 1715.95 719.98 1729.54 676.038ZM990.238 675.282 1003.04 720.866 947.539 738.275 934.447 691.676 945.072 687.946 990.238 675.282ZM1670.37 659.752 1675.2 660.8 1726.93 675.305 1713.32 719.279 1657.25 704.287 1656.63 704.168 1670.37 659.752ZM1050.87 658.852 1063.99 705.563 1009.85 718.732 1005.63 720.054 992.85 674.549 1041.88 660.8 1050.87 658.852ZM1645.3 654.314 1667.71 659.175 1653.95 703.65 1631.08 699.226 1642.67 662.058 1642.86 662.12 1645.3 654.314ZM1076.5 653.29 1089.48 699.459 1087.76 699.782 1066.63 704.922 1053.52 658.275 1076.5 653.29ZM1446.75 627.427 1494.62 630.893C1539.09 635.198 1582.6 641.582 1624.95 649.9L1639.09 652.967 1580.66 840.018 1543.71 832.364C1514.18 827.502 1484.06 823.787 1453.44 821.289L1446.75 820.88 1446.75 627.427ZM1271.6 627.336 1271.6 821.002 1266.9 821.289C1236.28 823.787 1206.16 827.502 1176.63 832.364L1135.77 840.829 1082.7 651.945 1092.13 649.9C1134.48 641.582 1177.99 635.198 1222.47 630.893L1271.6 627.336ZM1358.54 624.363C1381.63 624.363 1404.53 624.919 1427.22 626.014L1440.42 626.969 1440.42 820.494 1407.14 818.461 1372.98 817.768 1372.98 798.123 1372.98 796.141 1372.98 691.067C1372.98 682.851 1366.38 676.191 1358.24 676.191 1350.1 676.191 1343.5 682.851 1343.5 691.067L1343.5 798.123 1343.57 798.294 1343.57 817.844 1313.19 818.461 1277.93 820.615 1277.93 626.878 1289.87 626.014C1312.55 624.919 1335.45 624.363 1358.54 624.363ZM1662.4 556.271 1705.41 568.865 1692.92 612.32 1721.76 620.765 1734.25 577.31 1777.26 589.903 1764.77 633.358 1795.46 642.344 1807.99 598.73 1851 611.323 1838.47 654.937 1830.1 684.057 1827.85 691.869 1817.91 688.957 1809.68 694.24 1772.01 681.02C1736.13 669.364 1699.06 659.178 1660.96 650.573L1653.83 649.131 1649.39 639.614 1639.43 636.695 1641.62 629.041 1641.5 629.005 1662.4 556.271ZM1060.85 555.228 1073.11 598.921 1081.29 628.094 1083.49 635.92 1073.53 638.769 1069.19 647.932 1056.12 650.573C1018.03 659.178 980.957 669.364 945.072 681.02L912.844 692.332 904.707 687.036 894.721 689.892 892.57 682.224 892.446 682.26 872 609.394 915.085 597.075 927.301 640.609 956.195 632.348 943.98 588.814 987.065 576.495 999.281 620.03 1030.02 611.24 1017.76 567.547 1060.85 555.228ZM1413.13 528 1457.91 528 1457.91 573.412 1457.91 603.732 1457.91 611.867 1447.55 611.867 1440.39 620.076 1421.38 618.818C1400.6 617.902 1379.65 617.437 1358.54 617.437 1337.43 617.437 1316.48 617.902 1295.7 618.818L1279.11 619.916 1272.09 611.867 1261.71 611.867 1261.71 603.898 1261.58 603.898 1261.58 528.165 1306.36 528.165 1306.36 573.412 1336.39 573.412 1336.39 528.165 1381.18 528.165 1381.18 573.412 1413.13 573.412 1413.13 528Z" fill="#052A67" fill-rule="evenodd"/></g></svg>