<svg width="1183" height="1574" xmlns="http://www.w3.org/2000/svg" xmlns:xlink="http://www.w3.org/1999/xlink" overflow="hidden"><defs><clipPath id="clip0"><rect x="771" y="286" width="1183" height="1574"/></clipPath></defs><g clip-path="url(#clip0)" transform="translate(-771 -286)"><path d="M777 292 1946 292 1946 563.272 1946 625.721 1946 926.073 1945.57 926.073 1945.57 1007.98 1946 1007.98 1946 1374.7C1946 1649.22 1399.02 1839.42 1361.5 1851L1361.48 1850.99 1361.48 1849.67 1356.52 1848.07C1290.33 1826.13 777 1639.32 777 1373.38L777 1006.66 777.258 1006.66 777.258 924.752 777 924.752 777 672.486 777 625.721 777 563.272Z" fill="#FFFFFF" fill-rule="evenodd"/><rect x="780.5" y="292.5" width="585" height="780" stroke="#262626" stroke-width="4.58333" stroke-miterlimit="8" fill="#D2A000"/><rect x="1362.5" y="292.5" width="585" height="780" stroke="#262626" stroke-width="4.58333" stroke-miterlimit="8" fill="#083E34"/><path d="M1448.39 1257.05C1462.06 1256.69 1465.56 1258.27 1477.33 1259.06 1510.05 1266.54 1541.51 1310.36 1555.88 1308.47 1565.76 1307.26 1566 1300.55 1575.87 1299.33 1584.9 1298.87 1595.88 1305.87 1610.71 1302.05 1627.01 1300.07 1637.35 1321.18 1651.46 1314.88 1665.3 1318.53 1678.51 1312.7 1691.48 1314.83 1704.45 1316.96 1718.03 1326.01 1729.27 1327.67 1740.51 1329.33 1740.51 1320.08 1758.91 1330.28 1768.42 1330.4 1765.45 1323.09 1786.32 1328.44 1807.2 1338.37 1839.64 1361.04 1884.13 1384.36 1901.64 1397.96 1915.93 1408.27 1927.79 1416.13L1940 1423.79 1939.72 1426.05C1879.5 1673.25 1396.61 1841.14 1361.44 1852L1361.42 1851.99 1361.42 1850.67 1356.46 1849.07C1290.27 1827.12 777 1640.27 777 1374.26L777 1367.15 812.038 1352.47C822.963 1348.41 832.717 1345.41 840.059 1344.16 869.416 1331.82 848.353 1334.31 891.732 1311.54 905.134 1310.21 918.535 1318.04 931.937 1316.71 946.541 1315.13 966.029 1314.27 979.369 1311.22 992.697 1308.17 1002.22 1299.93 1011.96 1298.42 1030.74 1300.86 1013.95 1313.36 1064.58 1298.42 1075.57 1294.44 1166.97 1309.08 1212.04 1345.08 1223.03 1354.53 1246.34 1357.18 1281.69 1360.63 1341.97 1331.35 1423.72 1254.5 1430.64 1258.15 1438.14 1257.51 1443.83 1257.17 1448.39 1257.05Z" fill-rule="evenodd"/><path d="M1057.76 560.5 1079.35 560.5 1079.35 692.743 1090.22 698.324C1124.53 712.82 1164.47 708.819 1195.37 686.832 1195.48 696.576 1191.52 705.93 1184.41 712.668 1189.74 711.125 1195 709.349 1200.17 707.345 1219.75 699.753 1235.69 685.094 1244.78 666.323 1242.48 680.202 1236.11 693.102 1226.45 703.411 1242.96 698.522 1257.12 687.867 1266.29 673.422L1256.34 695.917C1279.9 690.315 1303.7 685.714 1327.67 682.128L1256.74 709.725 1264.72 728.673C1254.66 717.901 1238.36 715.59 1225.66 723.135 1234.22 731.206 1241.48 740.52 1247.19 750.757 1235.64 740.478 1220.85 734.477 1205.34 733.776L1183.43 736.533C1193.94 742.269 1200.61 753.076 1200.97 764.951 1176.59 740.108 1144.47 724.805 1110.41 721.073L1079.35 721.252 1079.35 721.564 1096.52 742.277C1123.21 766.151 1159.71 777.678 1196.5 772.38 1186.92 782.096 1173.71 787.447 1160 787.157 1166.78 790.831 1173.72 794.207 1180.8 797.272 1207.65 808.893 1237.94 810.001 1265.57 800.375 1249.51 811.806 1230.4 818.297 1210.63 819.035 1231.76 830.327 1256.3 833.644 1279.7 828.371L1247.53 840.811C1276.31 858.279 1304.33 876.959 1331.5 896.802L1234.18 854.809 1223.19 881.246C1223.99 860.831 1210.23 842.657 1190.22 837.708 1190.62 853.997 1188.5 870.251 1183.95 885.908 1182.79 864.52 1174.2 844.189 1159.62 828.371L1135.28 809.712C1139.93 825.61 1135.75 842.759 1124.3 854.809 1123.38 825.388 1112.07 797.559 1092.85 775.892L1084.58 768.501 1091.6 794.724C1096.31 807.018 1102.29 818.854 1109.51 830.029L1086.74 815.373C1093.85 838.781 1105.02 860.116 1119.5 877.974L1090.63 857.998C1089.06 879.927 1092.31 901.969 1100.07 921.915L1080.64 896.606 1079.35 902.099 1079.35 992.5 1057.76 992.5 1057.76 902.82 1056.45 896.606 1037.02 921.915C1044.78 901.969 1048.03 879.927 1046.46 857.998L1017.59 877.974C1032.07 860.116 1043.24 838.781 1050.35 815.373L1027.58 830.029C1034.23 819.391 1039.86 807.944 1044.41 795.873L1051.72 769.12 1044.15 775.892C1024.93 797.559 1013.62 825.388 1012.7 854.809 1001.25 842.759 997.071 825.61 1001.72 809.711L977.379 828.371C962.803 844.189 954.208 864.52 953.053 885.908 948.498 870.251 946.381 853.997 946.775 837.707 926.768 842.656 913.008 860.831 913.813 881.246L902.816 854.809 805.5 896.802C832.672 876.959 860.688 858.279 889.474 840.811L857.297 828.371C880.703 833.644 905.245 830.327 926.369 819.034 906.602 818.297 887.493 811.806 871.426 800.375 899.062 810.001 929.354 808.892 956.199 797.272 963.28 794.207 970.22 790.831 977 787.157 963.292 787.447 950.077 782.096 940.497 772.379 977.291 777.678 1013.79 766.151 1040.48 742.277L1057.76 721.436 1057.76 721.29 1026.57 721.11C992.51 724.842 960.387 740.145 936.012 764.989 936.371 753.113 943.041 742.305 953.551 736.57L931.638 733.812C916.128 734.515 901.34 740.515 889.789 750.794 895.505 740.556 902.765 731.243 911.318 723.172 898.623 715.627 882.32 717.938 872.264 728.71L880.239 709.762 809.315 682.165C833.28 685.751 857.079 690.352 880.646 695.954L870.687 673.459C879.86 687.904 894.017 698.559 910.527 703.449 900.87 693.139 894.497 680.239 892.201 666.36 901.294 685.131 917.235 699.79 936.814 707.382 941.984 709.386 947.241 711.162 952.57 712.706 945.465 705.967 941.499 696.613 941.615 686.868 972.513 708.856 1012.45 712.857 1046.76 698.361L1057.76 692.716Z" stroke="#D2A000" stroke-width="3.4375" stroke-linecap="round" stroke-linejoin="round" stroke-miterlimit="10" fill-rule="evenodd"/><path d="M1068.65 565.681 1099.2 611.024 1082.18 601.95C1087.49 616.437 1095.84 629.643 1106.67 640.696L1085.08 628.337C1083.9 641.913 1086.34 655.558 1092.15 667.904L1077.6 652.234 1068.37 703.5 1059.51 652.234 1044.98 667.904C1050.79 655.556 1053.22 641.912 1052.04 628.337L1030.44 640.696C1041.27 629.643 1049.62 616.437 1054.94 601.95L1037.92 611.024C1050.03 597.247 1060.36 582.014 1068.65 565.681ZM1091.11 561.075C1103.16 578.419 1124.53 586.873 1145.3 582.508 1140.23 587.656 1133.25 590.493 1126 590.343 1129.58 592.29 1133.25 594.078 1137 595.702 1151.2 601.861 1167.23 602.448 1181.85 597.344 1173.35 603.405 1163.25 606.846 1152.79 607.239 1163.96 613.226 1176.95 614.986 1189.33 612.194L1172.31 618.777C1187.53 628.038 1202.35 637.942 1216.73 648.463L1165.24 626.195 1159.42 640.21C1159.85 629.392 1152.57 619.763 1141.99 617.134 1142.2 625.771 1141.08 634.387 1138.67 642.687 1138.06 631.351 1133.51 620.577 1125.8 612.194L1112.91 602.298C1115.37 610.722 1113.16 619.808 1107.1 626.195 1107.69 604.479 1098.01 583.741 1080.94 570.149ZM1045.89 561.075 1056.06 570.149C1038.99 583.741 1029.31 604.479 1029.9 626.195 1023.84 619.808 1021.64 610.722 1024.09 602.298L1011.21 612.194C1003.5 620.577 998.948 631.351 998.335 642.687 995.924 634.387 994.804 625.771 995.012 617.134 984.432 619.763 977.157 629.392 977.583 640.21L971.764 626.195 920.275 648.463C934.649 637.942 949.47 628.038 964.697 618.777L947.674 612.194C960.057 614.986 973.04 613.226 984.215 607.239 973.757 606.846 963.648 603.405 955.148 597.344 969.771 602.448 985.799 601.861 1000 595.702 1003.75 594.078 1007.42 592.29 1011 590.343 1003.76 590.493 996.768 587.656 991.702 582.508 1012.47 586.873 1033.84 578.419 1045.89 561.075ZM948.525 517.53C954.45 529.785 964.838 539.355 977.596 544.313 980.964 545.623 984.388 546.785 987.86 547.794 983.229 543.39 980.647 537.278 980.727 530.913 990.955 546.526 1009.65 554.501 1028.11 551.133L1028.76 563.106C1009.52 561.016 990.392 567.984 977.077 581.935 977.312 574.183 981.659 567.127 988.508 563.383L974.214 561.578C964.108 562.038 954.473 565.954 946.946 572.664 950.674 565.978 955.408 559.894 960.986 554.625 952.713 549.698 942.087 551.207 935.533 558.239L940.727 545.875 894.5 527.852C910.115 530.193 925.623 533.195 940.979 536.852L934.497 522.179C940.478 531.605 949.703 538.558 960.462 541.748 954.17 535.016 950.019 526.592 948.525 517.53ZM1188.48 517.5C1186.98 526.561 1182.83 534.985 1176.54 541.718 1187.3 538.527 1196.52 531.575 1202.5 522.148L1196.02 536.822C1211.38 533.164 1226.88 530.162 1242.5 527.821L1196.27 545.844 1201.47 558.208C1194.91 551.176 1184.29 549.667 1176.01 554.594 1181.59 559.864 1186.33 565.947 1190.05 572.633 1182.53 565.923 1172.89 562.007 1162.79 561.548L1148.49 563.352C1155.34 567.097 1159.69 574.152 1159.92 581.904 1146.61 567.953 1127.48 560.986 1108.24 563.075L1108.89 551.103C1127.35 554.47 1146.04 546.495 1156.27 530.882 1156.35 537.247 1153.77 543.36 1149.14 547.763 1152.61 546.754 1156.04 545.592 1159.4 544.283 1172.16 539.325 1182.55 529.755 1188.48 517.5Z" stroke="#D2A000" stroke-width="3.4375" stroke-linecap="round" stroke-linejoin="round" stroke-miterlimit="10" fill-rule="evenodd"/><path d="M14.4922-0.14303C11.4058 6.32754 6.46707 12.1237 0.08026 16.7727 2.23786 24.4794 7.44333 30.9997 14.5194 34.8573 21.9564 30.6074 27.151 24.2657 29.0804 17.0817 22.1835 12.6517 17.1002 6.65007 14.4922-0.14303Z" stroke="#D2A000" stroke-width="3.4375" stroke-linecap="round" stroke-linejoin="round" stroke-miterlimit="10" fill-rule="evenodd" transform="matrix(1 0 0 -1 1054.5 405.5)"/><path d="M14.4681-0.138653C12.1674 6.93295 7.13095 13.2376 0.0834029 17.8683 3.07248 25.0895 8.07923 31.3298 14.5224 35.8617 21.9598 31.6332 27.1545 25.3235 29.0836 18.1757 21.7333 13.5998 16.572 7.13235 14.4681-0.138653Z" stroke="#D2A000" stroke-width="3.4375" stroke-linecap="round" stroke-linejoin="round" stroke-miterlimit="10" fill-rule="evenodd" transform="matrix(1 0 0 -1 1069.5 423.5)"/><path d="M14.5162-0.13943C12.081 6.87902 7.04232 13.1274 0.0774038 17.7664 3.00275 25.066 8.02229 31.3562 14.5162 35.8607 21.9533 31.6088 27.1479 25.2637 29.0773 18.0758 21.6219 13.6517 16.4419 7.17089 14.5162-0.13943Z" stroke="#D2A000" stroke-width="3.4375" stroke-linecap="round" stroke-linejoin="round" stroke-miterlimit="10" fill-rule="evenodd" transform="matrix(1 0 0 -1 1039.5 423.5)"/><path d="M13.494-0.137994C11.7505 6.86843 6.99291 13.1289 0.0865438 17.5075 1.9311 24.8536 7.08573 31.3622 14.5254 35.7396L14.5254 35.8621 14.6339 35.8076 14.729 35.8621 14.729 35.7396C22.0587 31.4262 27.1745 25.0429 29.0864 17.821L13.494-0.137994Z" stroke="#D2A000" stroke-width="3.4375" stroke-linecap="square" stroke-miterlimit="8" fill-rule="evenodd" transform="matrix(1 0 0 -1 1083.5 439.5)"/><path d="M13.494-0.137994C11.7505 6.86843 6.99291 13.1289 0.0865438 17.5075 1.9311 24.8536 7.08573 31.3622 14.5254 35.7396L14.5254 35.8621 14.6339 35.8076 14.729 35.8621 14.729 35.7396C22.0587 31.4262 27.1745 25.0429 29.0864 17.821" stroke="#D2A000" stroke-width="3.4375" stroke-linecap="round" stroke-linejoin="round" stroke-miterlimit="10" fill-rule="evenodd" transform="matrix(1 0 0 -1 1083.5 439.5)"/><path d="M14.4922-0.136246C11.4058 6.33461 6.46707 12.1307 0.0805457 16.7795 2.23786 24.4865 7.44362 31.0068 14.5194 34.8641 21.9564 30.6145 27.151 24.2728 29.0804 17.0887 22.1835 12.6588 17.1002 6.65714 14.4922-0.136246Z" stroke="#D2A000" stroke-width="3.4375" stroke-linecap="round" stroke-linejoin="round" stroke-miterlimit="10" fill-rule="evenodd" transform="matrix(1 0 0 -1 1054.5 438.5)"/><path d="M15.1919-0.0562304C15.0011-0.0275414 14.8109 0.00372957 14.6221 0.0393039 14.2456-0.0344268 13.8652-0.0929523 13.4821-0.137994 11.7384 6.86843 6.98071 13.1289 0.0742629 17.5075 2.06137 25.4153 7.31518 32.0944 14.5135 35.8621 21.9507 31.549 27.1454 25.1126 29.0745 17.821 21.933 13.4505 16.9945 7.09192 15.1919-0.0562304Z" stroke="#D2A000" stroke-width="3.4375" stroke-linecap="round" stroke-linejoin="round" stroke-miterlimit="10" fill-rule="evenodd" transform="matrix(1 0 0 -1 1025.5 439.5)"/><path d="M14.4684-0.131622C12.1674 6.93998 7.13124 13.2444 0.0834029 17.8753 3.07248 25.0965 8.07923 31.3368 14.5227 35.8685 21.9598 31.6403 27.1545 25.3305 29.0839 18.1827 21.7333 13.6069 16.572 7.1391 14.4684-0.131622Z" stroke="#D2A000" stroke-width="3.4375" stroke-linecap="round" stroke-linejoin="round" stroke-miterlimit="10" fill-rule="evenodd" transform="matrix(1 0 0 -1 1069.5 456.5)"/><path d="M14.5162-0.13236C12.081 6.88609 7.04232 13.1344 0.0774038 17.7735 3.00275 25.0731 8.02229 31.363 14.5162 35.8677 21.9533 31.6158 27.1479 25.2708 29.0773 18.0826 21.6222 13.6588 16.4422 7.17768 14.5162-0.13236Z" stroke="#D2A000" stroke-width="3.4375" stroke-linecap="round" stroke-linejoin="round" stroke-miterlimit="10" fill-rule="evenodd" transform="matrix(1 0 0 -1 1040.5 456.5)"/><path d="M14.0948-0.131157C-0.282125 8.5873-4.10518 24.916 4.96276 38.869 16.6638 35.123 25.301 27.0601 28.072 17.2954 20.8836 13.0377 15.9111 6.83807 14.0948-0.131157Z" stroke="#D2A000" stroke-width="3.4375" stroke-linecap="round" stroke-linejoin="round" stroke-miterlimit="10" fill-rule="evenodd" transform="matrix(1 0 0 -1 1012.5 455.5)"/><path d="M1112.39 455.631C1126.76 446.913 1130.59 430.584 1121.52 416.631 1109.82 420.377 1101.18 428.44 1098.41 438.205 1105.6 442.462 1110.57 448.662 1112.39 455.631Z" stroke="#D2A000" stroke-width="3.4375" stroke-linecap="round" stroke-linejoin="round" stroke-miterlimit="10" fill-rule="evenodd"/><path d="M14.8104-0.129796C11.993 6.77308 6.89979 12.9129 0.0865438 17.6192 2.6026 25.2098 7.71496 31.6722 14.5254 35.8699 21.9624 31.5812 27.157 25.1813 29.0864 17.931 21.8896 13.4472 16.8406 7.0592 14.8104-0.129796Z" stroke="#D2A000" stroke-width="3.4375" stroke-linecap="round" stroke-linejoin="round" stroke-miterlimit="10" fill-rule="evenodd" transform="matrix(1 0 0 -1 1083.5 474.5)"/><path d="M14.777-0.128874C12.095 6.84363 6.99433 13.0486 0.08026 17.7501 2.41094 25.3834 7.57015 31.8591 14.5194 35.8711 21.9564 31.6126 27.151 25.2582 29.0804 18.0596 21.7219 13.6128 16.6338 7.14245 14.777-0.128874Z" stroke="#D2A000" stroke-width="3.4375" stroke-linecap="round" stroke-linejoin="round" stroke-miterlimit="10" fill-rule="evenodd" transform="matrix(1 0 0 -1 1054.5 474.5)"/><path d="M14.6355-0.128298C12.1357 6.90015 7.06126 13.158 0.0742629 17.8314 2.26759 25.5019 7.46342 31.9926 14.5133 35.8714 21.9507 31.6323 27.1454 25.3062 29.0745 18.1396 21.7365 13.6094 16.6229 7.14011 14.6355-0.128298Z" stroke="#D2A000" stroke-width="3.4375" stroke-linecap="round" stroke-linejoin="round" stroke-miterlimit="10" fill-rule="evenodd" transform="matrix(1 0 0 -1 1025.5 474.5)"/><path d="M14.0914-0.130505C-0.284994 8.81151-4.108 25.5586 4.95982 39.8694 16.6604 36.0276 25.2976 27.7577 28.0688 17.7426 20.8804 13.3757 15.908 7.01743 14.0914-0.130505Z" stroke="#D2A000" stroke-width="3.4375" stroke-linecap="round" stroke-linejoin="round" stroke-miterlimit="10" fill-rule="evenodd" transform="matrix(1 0 0 -1 998.5 474.5)"/><path d="M1112.41 456.752C1114.12 465.361 1119.7 472.671 1126.81 475.63 1140.98 466.17 1144.52 449.143 1135.33 434.63 1123.72 438.471 1115.16 446.74 1112.41 456.752Z" stroke="#D2A000" stroke-width="3.4375" stroke-linecap="round" stroke-linejoin="round" stroke-miterlimit="10" fill-rule="evenodd"/><path d="M14.3327-0.126805C11.8329 6.78409 6.87189 12.9275 0.0834029 17.5189 1.87714 25.5206 7.18836 32.272 14.5227 35.8736 21.9598 31.5602 27.1545 25.1238 29.0839 17.8325 21.6294 13.5492 16.3815 7.16049 14.3327-0.126805Z" stroke="#D2A000" stroke-width="3.4375" stroke-linecap="round" stroke-linejoin="round" stroke-miterlimit="10" fill-rule="evenodd" transform="matrix(1 0 0 -1 1069.5 492.5)"/><path d="M14.4077-0.126805C11.7397 6.73359 6.77469 12.8469 0.0774038 17.5189 2.1576 25.3803 7.38478 32.0252 14.5162 35.8736 21.9533 31.5602 27.1479 25.1238 29.0773 17.8325 21.8956 13.3421 16.7381 7.0268 14.4077-0.126805Z" stroke="#D2A000" stroke-width="3.4375" stroke-linecap="round" stroke-linejoin="round" stroke-miterlimit="10" fill-rule="evenodd" transform="matrix(1 0 0 -1 1040.5 492.5)"/><path d="M27.7587 17.7844C29.6236 9.47148 22.9504 1.48752 12.8533-0.0475321 12.6651-0.0761658 12.4763-0.101936 12.287-0.126561-0.674236 9.52703-3.66196 25.8417 4.96197 39.874 16.5045 36.0385 25.0249 27.7825 27.7587 17.7844Z" stroke="#D2A000" stroke-width="3.4375" stroke-linecap="round" stroke-linejoin="round" stroke-miterlimit="10" fill-rule="evenodd" transform="matrix(1 0 0 -1 1012.5 492.5)"/><path d="M1112.05 492.627C1125.64 483.544 1129.32 467.065 1120.98 452.626 1109.56 456.466 1101.12 464.736 1098.41 474.754 1105.43 479.12 1110.28 485.479 1112.05 492.627Z" stroke="#D2A000" stroke-width="3.4375" stroke-linecap="round" stroke-linejoin="round" stroke-miterlimit="10" fill-rule="evenodd"/><path d="M14.6747-0.122975C11.5683 6.60158 6.56933 12.638 0.0865438 17.4946 2.8251 25.0171 7.88519 31.4589 14.5254 35.8771L14.729 35.8771C22.0307 31.4822 27.1336 25.0608 29.0864 17.8087 21.7573 13.4931 16.6304 7.11388 14.6747-0.122975Z" stroke="#D2A000" stroke-width="3.4375" stroke-linecap="round" stroke-linejoin="round" stroke-miterlimit="10" fill-rule="evenodd" transform="matrix(1 0 0 -1 1083.5 510.5)"/><path d="M14.3294-0.122789C11.3338 6.58068 6.45079 12.6272 0.08026 17.5227 2.5866 25.1617 7.70125 31.6638 14.5194 35.8773 21.9564 31.5642 27.151 25.1278 29.0804 17.8362 22.019 13.238 16.8666 6.9654 14.3294-0.122789Z" stroke="#D2A000" stroke-width="3.4375" stroke-linecap="round" stroke-linejoin="round" stroke-miterlimit="10" fill-rule="evenodd" transform="matrix(1 0 0 -1 1054.5 510.5)"/><path d="M14.3233-0.122789C11.3279 6.58068 6.44488 12.6272 0.0742629 17.5227 2.26502 25.3281 7.46142 31.9337 14.5133 35.8773 21.9507 31.5642 27.1454 25.1278 29.0745 17.8362 21.6202 13.553 16.3724 7.1645 14.3233-0.122789Z" stroke="#D2A000" stroke-width="3.4375" stroke-linecap="round" stroke-linejoin="round" stroke-miterlimit="10" fill-rule="evenodd" transform="matrix(1 0 0 -1 1025.5 510.5)"/><path d="M27.7555 17.7883C29.6204 9.47511 22.9472 1.49152 12.8503-0.0438093 12.6621-0.0724428 12.4733-0.0982129 12.284-0.122551-0.677061 9.53095-3.66475 25.8455 4.95907 39.8773 16.5014 36.0421 25.0218 27.7862 27.7555 17.7883Z" stroke="#D2A000" stroke-width="3.4375" stroke-linecap="round" stroke-linejoin="round" stroke-miterlimit="10" fill-rule="evenodd" transform="matrix(1 0 0 -1 998.5 510.5)"/><path d="M1125.74 510.621C1126.48 510.36 1127.27 510.2 1128.05 510.15 1141.16 500.61 1144.18 484.488 1135.46 470.621 1123.79 474.411 1115.17 482.57 1112.41 492.45 1119.44 497.025 1124.18 503.489 1125.74 510.621Z" stroke="#D2A000" stroke-width="3.4375" stroke-linecap="round" stroke-linejoin="round" stroke-miterlimit="10" fill-rule="evenodd"/><path d="M14.5495-0.116031C11.4865 6.4188 6.52885 12.2973 0.0834029 17.0395 2.60748 24.4571 7.71791 30.773 14.5224 34.8843 21.9598 30.691 27.1545 24.4332 29.0836 17.3444 21.705 13.1522 16.5343 6.94122 14.5495-0.116031Z" stroke="#D2A000" stroke-width="3.4375" stroke-linecap="round" stroke-linejoin="round" stroke-miterlimit="10" fill-rule="evenodd" transform="matrix(1 0 0 -1 1068.5 527.5)"/><path d="M14.2583-0.116031C11.2841 6.39481 6.42452 12.2747 0.0774038 17.0395 2.65487 24.4281 7.75238 30.7281 14.5162 34.8843 21.9533 30.691 27.1479 24.4332 29.0773 17.3444 22.1321 12.7877 16.9909 6.72896 14.2583-0.116031Z" stroke="#D2A000" stroke-width="3.4375" stroke-linecap="round" stroke-linejoin="round" stroke-miterlimit="10" fill-rule="evenodd" transform="matrix(1 0 0 -1 1039.5 527.5)"/><path d="M28.359 17.4204C32.9544 12.4982 31.5738 5.5961 25.2754 2.00411 21.933 0.0984945 17.6892-0.565369 13.6653 0.188364-0.420957 9.05982-4.01026 25.1308 5.02305 38.8847 16.8386 35.1578 25.5606 27.1355 28.359 17.4204Z" stroke="#D2A000" stroke-width="3.4375" stroke-linecap="round" stroke-linejoin="round" stroke-miterlimit="10" fill-rule="evenodd" transform="matrix(1 0 0 -1 1011.5 527.5)"/><path d="M1111.81 527.616C1125.94 518.748 1129.53 502.42 1120.36 488.616 1108.74 492.359 1100.16 500.417 1097.41 510.175 1104.73 514.373 1109.85 520.577 1111.81 527.616Z" stroke="#D2A000" stroke-width="3.4375" stroke-linecap="round" stroke-linejoin="round" stroke-miterlimit="10" fill-rule="evenodd"/><path d="M14.6473-0.114808C11.5494 6.56663 6.55962 12.5681 0.0862581 17.3966 2.85737 25.0625 8.12455 31.5743 15.0409 35.8856 22.3274 31.448 27.3378 24.9634 29.0864 17.7087 21.7479 13.422 16.611 7.08099 14.6473-0.114808Z" stroke="#D2A000" stroke-width="3.4375" stroke-linecap="round" stroke-linejoin="round" stroke-miterlimit="10" fill-rule="evenodd" transform="matrix(1 0 0 -1 1083.5 545.5)"/><path d="M14.5733-0.112467C11.4923 6.41004 6.52563 12.2703 0.08026 16.9886 2.54347 24.4607 7.66898 30.8145 14.5191 34.8876 22.0804 30.7865 27.3061 24.4727 29.0801 17.2944 22.0332 12.8822 16.9477 6.78101 14.5733-0.112467Z" stroke="#D2A000" stroke-width="3.4375" stroke-linecap="round" stroke-linejoin="round" stroke-miterlimit="10" fill-rule="evenodd" transform="matrix(1 0 0 -1 1054.5 545.5)"/><path d="M14.2825-0.112126C11.3 6.40123 6.43088 12.2798 0.0742629 17.0432 2.36841 24.6387 7.62766 31.0472 14.7169 34.8879 21.7759 30.4456 26.8158 24.2884 29.0745 17.3483 21.921 12.948 16.7403 6.83355 14.2825-0.112126Z" stroke="#D2A000" stroke-width="3.4375" stroke-linecap="round" stroke-linejoin="round" stroke-miterlimit="10" fill-rule="evenodd" transform="matrix(1 0 0 -1 1025.5 545.5)"/><path d="M27.1791 20.0033C31.483 13.1715 28.1834 4.78489 19.8098 1.27253 18.1572 0.579532 16.3773 0.111481 14.54-0.113467 0.110772 9.36782-4.02859 26.4985 4.39093 41.8868 15.9291 38.0871 24.4463 29.9081 27.1791 20.0033Z" stroke="#D2A000" stroke-width="3.4375" stroke-linecap="round" stroke-linejoin="round" stroke-miterlimit="10" fill-rule="evenodd" transform="matrix(1 0 0 -1 998.5 548.5)"/><path d="M1111.4 528.345C1116.3 534.375 1120.76 540.811 1124.76 547.613 1139.4 538.332 1143.57 521.608 1134.97 506.613 1123.04 510.386 1114.23 518.508 1111.4 528.345Z" stroke="#D2A000" stroke-width="3.4375" stroke-linecap="round" stroke-linejoin="round" stroke-miterlimit="10" fill-rule="evenodd"/><path d="M14.4139-0.111599C11.3928 6.59754 6.48201 12.6451 0.0834029 17.534 2.59177 25.1715 7.70592 31.672 14.5224 35.8884 21.9595 31.5751 27.1542 25.1388 29.0836 17.8475 21.9141 13.3463 16.7594 7.03504 14.4139-0.111599Z" stroke="#D2A000" stroke-width="3.4375" stroke-linecap="round" stroke-linejoin="round" stroke-miterlimit="10" fill-rule="evenodd" transform="matrix(1 0 0 -1 1068.5 563.5)"/><path d="M14.5162-0.111599C11.4612 6.60701 6.51335 12.6549 0.0771182 17.534 2.75883 25.0762 7.83178 31.5246 14.5162 35.8884 21.9533 31.5751 27.1479 25.1388 29.0773 17.8475 21.9947 13.2955 16.8895 6.99832 14.5162-0.111599Z" stroke="#D2A000" stroke-width="3.4375" stroke-linecap="round" stroke-linejoin="round" stroke-miterlimit="10" fill-rule="evenodd" transform="matrix(1 0 0 -1 1039.5 563.5)"/><path d="M27.7581 17.7994C29.6232 9.48657 22.9498 1.50269 12.8531-0.0323559 12.6649-0.0609894 12.4759-0.0867595 12.2869-0.111384-0.674227 9.54212-3.66191 25.8566 4.96162 39.8888 16.5042 36.0533 25.0246 27.7974 27.7581 17.7994Z" stroke="#D2A000" stroke-width="3.4375" stroke-linecap="round" stroke-linejoin="round" stroke-miterlimit="10" fill-rule="evenodd" transform="matrix(1 0 0 -1 1011.5 563.5)"/><path d="M1097.72 545.7C1095.86 554.013 1102.53 561.997 1112.63 563.532 1112.82 563.561 1113.01 563.587 1113.2 563.611 1126.16 553.958 1129.14 537.643 1120.52 523.611 1108.98 527.447 1100.46 535.702 1097.72 545.7Z" stroke="#D2A000" stroke-width="3.4375" stroke-linecap="round" stroke-linejoin="round" stroke-miterlimit="10" fill-rule="evenodd"/><path d="M41.0746-0.108025C25.8176 2.93994 11.8868 8.76266 0.0740087 17.03 2.88177 24.6788 8.37156 31.0302 15.5101 34.892L15.6053 34.8375C22.9961 30.5182 28.1562 24.0959 30.0775 16.8252 31.6712 9.49872 35.5865 3.46973 41.0746-0.108025Z" stroke="#D2A000" stroke-width="3.4375" stroke-linecap="round" stroke-linejoin="round" stroke-miterlimit="10" fill-rule="evenodd" transform="matrix(1 0 0 -1 1023.5 580.5)"/><path d="M1071.42 580.608C1086.67 577.56 1100.6 571.737 1112.42 563.47 1109.61 555.821 1104.12 549.47 1096.98 545.608L1096.88 545.663C1089.49 549.982 1084.33 556.405 1082.41 563.675 1080.82 571.001 1076.9 577.03 1071.42 580.608Z" stroke="#D2A000" stroke-width="3.4375" stroke-linecap="round" stroke-linejoin="round" stroke-miterlimit="10" fill-rule="evenodd"/><path d="M15.5231-0.108116C5.54191 1.1864-1.27033 8.87013 0.307154 17.0556 0.33544 17.2034 0.366584 17.3495 0.4003 17.4958 2.24894 24.8598 7.41026 31.3847 14.8579 35.7692L14.8579 35.8923 14.9528 35.8376 15.048 35.8923 15.048 35.7692C22.3854 31.4489 27.5078 25.0499 29.4239 17.8101 32.0268 10.2397 26.6541 2.37281 17.4235 0.237798 16.7983 0.0943141 16.164-0.0218533 15.5231-0.108116Z" stroke="#D2A000" stroke-width="3.4375" stroke-linecap="round" stroke-linejoin="round" stroke-miterlimit="10" fill-rule="evenodd" transform="matrix(1 0 0 -1 1053.5 581.5)"/><rect x="1365" y="554" width="585" height="260"/><path d="M1585.98 651.443 1584.89 661.653C1584.59 667.176 1584.56 672.71 1584.81 678.239 1584.78 683.079 1585.12 687.909 1585.82 692.694L1587.92 702 1576.1 702 1578.2 692.694C1578.9 687.908 1579.24 683.078 1579.2 678.239 1579.43 672.708 1579.39 667.173 1579.06 661.651L1577.96 651.508 1580.36 652.405 1583.4 652.405ZM1580.6 631.58 1583.35 631.58C1585.47 631.58 1587.18 633.221 1587.18 635.245L1587.18 647.959C1587.18 649.984 1585.47 651.624 1583.35 651.624L1580.6 651.624C1578.49 651.624 1576.78 649.984 1576.78 647.959L1576.78 635.245C1576.78 633.221 1578.49 631.58 1580.6 631.58ZM1597.7 614.388C1608.22 618.861 1615 628.82 1615 639.808 1615 650.796 1608.22 660.756 1597.7 665.228 1598.91 663.157 1599.54 660.828 1599.53 658.461 1599.53 652.935 1596.16 648.121 1591.22 645.859L1587.63 644.964 1587.63 635.387 1587.47 634.692 1591.22 633.757C1596.16 631.495 1599.53 626.682 1599.53 621.156 1599.54 618.789 1598.91 616.46 1597.7 614.388ZM1566.3 614.388C1565.09 616.46 1564.46 618.789 1564.47 621.156 1564.47 626.682 1567.84 631.495 1572.78 633.757L1576.3 634.635 1576.13 635.387 1576.13 645.024 1572.78 645.859C1567.84 648.121 1564.47 652.935 1564.47 658.461 1564.46 660.828 1565.09 663.157 1566.3 665.228 1555.78 660.756 1549 650.796 1549 639.808 1549 628.82 1555.78 618.861 1566.3 614.388ZM1582.15 608 1586.67 619.714 1582.15 631.429 1577.62 619.714Z" fill="#D2A000" fill-rule="evenodd"/><path d="M1740.54 655.443 1739.44 665.653C1739.13 671.176 1739.1 676.71 1739.36 682.239 1739.32 687.079 1739.66 691.909 1740.38 696.694L1742.51 706 1730.51 706 1732.64 696.694C1733.35 691.909 1733.69 687.079 1733.66 682.239 1733.9 676.708 1733.85 671.173 1733.52 665.65L1732.39 655.508 1734.83 656.405 1737.92 656.405ZM1735.08 635.58 1737.88 635.58C1740.02 635.58 1741.76 637.22 1741.76 639.245L1741.76 651.959C1741.76 653.983 1740.02 655.624 1737.88 655.624L1735.08 655.624C1732.94 655.624 1731.2 653.983 1731.2 651.959L1731.2 639.245C1731.2 637.22 1732.94 635.58 1735.08 635.58ZM1752.44 618.388C1763.12 622.861 1770 632.82 1770 643.808 1770 654.796 1763.12 664.756 1752.44 669.228 1753.66 667.157 1754.3 664.828 1754.3 662.461 1754.3 656.935 1750.88 652.121 1745.86 649.859L1742.21 648.963 1742.21 639.387 1742.05 638.692 1745.86 637.757C1750.88 635.495 1754.3 630.682 1754.3 625.156 1754.3 622.789 1753.66 620.46 1752.44 618.388ZM1720.56 618.388C1719.34 620.46 1718.7 622.789 1718.7 625.156 1718.7 630.682 1722.12 635.495 1727.14 637.757L1730.71 638.634 1730.54 639.387 1730.54 649.024 1727.14 649.859C1722.12 652.121 1718.7 656.935 1718.7 662.461 1718.7 664.828 1719.34 667.157 1720.56 669.228 1709.88 664.756 1703 654.796 1703 643.808 1703 632.82 1709.88 622.861 1720.56 618.388ZM1736.65 612 1741.25 623.714 1736.65 635.429 1732.05 623.714Z" fill="#D2A000" fill-rule="evenodd"/><path d="M1665.54 615.443 1664.44 625.653C1664.13 631.176 1664.1 636.71 1664.36 642.239 1664.32 647.079 1664.66 651.909 1665.38 656.694L1667.51 666 1655.51 666 1657.64 656.694C1658.35 651.908 1658.69 647.078 1658.66 642.239 1658.9 636.708 1658.85 631.173 1658.52 625.65L1657.39 615.508 1659.83 616.405 1662.92 616.405ZM1660.08 595.58 1662.88 595.58C1665.02 595.58 1666.76 597.22 1666.76 599.245L1666.76 611.959C1666.76 613.983 1665.02 615.624 1662.88 615.624L1660.08 615.624C1657.94 615.624 1656.2 613.983 1656.2 611.959L1656.2 599.245C1656.2 597.22 1657.94 595.58 1660.08 595.58ZM1677.44 578.388C1688.12 582.861 1695 592.82 1695 603.808 1695 614.796 1688.12 624.756 1677.44 629.228 1678.66 627.157 1679.3 624.828 1679.3 622.461 1679.3 616.935 1675.88 612.121 1670.86 609.859L1667.21 608.963 1667.21 599.387 1667.05 598.692 1670.86 597.757C1675.88 595.495 1679.3 590.682 1679.3 585.156 1679.3 582.789 1678.66 580.46 1677.44 578.388ZM1645.56 578.388C1644.34 580.46 1643.7 582.789 1643.7 585.156 1643.7 590.682 1647.12 595.495 1652.14 597.757L1655.71 598.634 1655.54 599.387 1655.54 609.024 1652.14 609.859C1647.12 612.121 1643.7 616.935 1643.7 622.461 1643.7 624.828 1644.34 627.157 1645.56 629.228 1634.88 624.756 1628 614.796 1628 603.808 1628 592.82 1634.88 582.861 1645.56 578.388ZM1661.65 572 1666.25 583.714 1661.65 595.429 1657.05 583.714Z" fill="#D2A000" fill-rule="evenodd"/><path d="M1668.7 710 1677.12 710 1677.12 718.502 1677.12 724.178 1677.12 725.701 1675.17 725.701 1673.69 727.395 1679.16 727.708C1689.35 728.49 1699.25 729.839 1708.77 731.702L1714.05 732.901 1713.11 730.896 1711.24 730.349 1711.65 728.916 1711.63 728.909 1715.55 715.293 1723.64 717.65 1721.29 725.786 1726.71 727.367 1729.06 719.231 1737.14 721.589 1734.79 729.724 1740.56 731.407 1742.92 723.241 1751 725.599 1748.64 733.764 1747.07 739.216 1746.65 740.679 1744.78 740.133 1742.96 741.299 1744.31 741.796 1732.7 778.676 1735.79 779.968 1735.12 782.082 1732.04 780.783 1729.63 788.436 1732.61 789.757 1731.96 791.915 1727.54 789.931C1707 781.686 1683.47 777.003 1658.45 777.003 1633.44 777.003 1609.9 781.686 1589.36 789.931L1584.76 792 1584.19 789.884 1587.08 788.597 1584.91 780.875 1581.85 782.166 1581.26 780.092 1584.33 778.81 1573.77 741.329 1574.9 740.913 1573.15 739.774 1571.27 740.308 1570.87 738.873 1570.84 738.88 1567 725.238 1575.1 722.932 1577.39 731.082 1582.82 729.535 1580.53 721.385 1588.63 719.079 1590.92 727.229 1596.7 725.584 1594.4 717.404 1602.49 715.097 1604.8 723.277 1606.34 728.739 1606.75 730.204 1604.88 730.737 1603.98 732.624 1608.04 731.702C1617.56 729.839 1627.46 728.49 1637.65 727.708L1643.65 727.364 1642.2 725.701 1640.25 725.701 1640.25 724.209 1640.22 724.209 1640.22 710.031 1648.64 710.031 1648.64 718.502 1654.28 718.502 1654.28 710.031 1662.7 710.031 1662.7 718.502 1668.7 718.502Z" fill="#D2A000" fill-rule="evenodd"/><path d="M778 293 1947 293 1947 564.272 1947 626.721 1947 927.073 1946.57 927.073 1946.57 1008.98 1947 1008.98 1947 1375.7C1947 1650.22 1400.02 1840.42 1362.5 1852L1362.48 1851.99 1362.48 1850.67 1357.52 1849.07C1291.33 1827.13 778 1640.32 778 1374.38L778 1007.66 778.258 1007.66 778.258 925.752 778 925.752 778 673.486 778 626.721 778 564.272Z" stroke="#262626" stroke-width="13.75" stroke-miterlimit="8" fill="none" fill-rule="evenodd"/></g></svg>