<svg width="1349" height="1572" xmlns="http://www.w3.org/2000/svg" xmlns:xlink="http://www.w3.org/1999/xlink" overflow="hidden"><defs><clipPath id="clip0"><rect x="691" y="272" width="1349" height="1572"/></clipPath><clipPath id="clip1"><rect x="777" y="368" width="268" height="442"/></clipPath><clipPath id="clip2"><rect x="777" y="368" width="268" height="442"/></clipPath></defs><g clip-path="url(#clip0)" transform="translate(-691 -272)"><path d="M1370.29 1834.99C1759.26 1616.04 2009.79 1217.26 2036 775.322L2036 278.424 1370.29 278.424 1370.29 277.999 701.001 277.999 701.001 774.897C727.223 1216.82 977.751 1615.6 1366.71 1834.54L1366.71 1837C1367.43 1836.59 1368.16 1836.18 1368.88 1835.77L1370.29 1836.55 1370.29 1834.99Z" fill="#001348" fill-rule="evenodd"/><path d="M1586.1 973.864 1586.1 278.424 1366.39 278.424 1366.39 277.999 1142.1 277.999 1142.1 973.864 1142.1 1678.56C1210.07 1737.91 1284.04 1790.18 1362.83 1834.54L1362.83 1837C1363.56 1836.59 1364.28 1836.18 1365.01 1835.77L1366.39 1836.55 1366.39 1834.99C1444.78 1790.84 1518.41 1738.87 1586.1 1679.88L1586.1 973.864Z" fill="#BF9000" fill-rule="evenodd"/><path d="M1366.79 1834.99C1755.47 1616.19 2005.81 1217.65 2032 776.003L2032 279.423 1366.79 279.423 1366.79 278.999 698.001 278.999 698.001 775.579C724.203 1217.22 974.544 1615.74 1363.21 1834.55L1363.21 1837C1363.94 1836.59 1364.66 1836.18 1365.38 1835.77L1366.79 1836.55 1366.79 1834.99Z" stroke="#FFFFFF" stroke-width="13.75" stroke-linecap="round" stroke-linejoin="round" stroke-miterlimit="10" fill="none" fill-rule="evenodd"/><g clip-path="url(#clip1)"><g clip-path="url(#clip2)"><path d="M20.8949 443.099C23.3642 443.096 25.3655 441.096 25.3681 438.626 25.3655 436.156 23.3642 434.156 20.8949 434.153L4.47315 434.153C2.00379 434.156 0.00263264 436.156 7.23038e-08 438.626 0.00263264 441.096 2.00379 443.096 4.47315 443.099L20.8949 443.099Z" stroke="#0A2E4E" stroke-width="6.18659" stroke-linecap="round" stroke-linejoin="round" stroke-miterlimit="3" fill="#FFFFFF" fill-rule="evenodd" transform="matrix(0.77105 -0.639879 0.646988 0.762578 583.805 63.1552)"/><path d="M0 442.174C13.1031 438.729 26.8744 438.729 39.9776 442.174" stroke="#0A2E4E" stroke-width="6.17367" stroke-linecap="round" stroke-linejoin="round" stroke-miterlimit="3" fill="#FFFFFF" fill-rule="evenodd" transform="matrix(0.472424 0.881371 -0.891163 0.467233 1274.11 186.054)"/><path d="M20.8949 443.099C23.3642 443.096 25.3655 441.096 25.3681 438.626 25.3655 436.156 23.3642 434.156 20.8949 434.153L4.47315 434.153C2.00379 434.156 0.00263264 436.156 7.23038e-08 438.626 0.00263264 441.096 2.00379 443.096 4.47315 443.099L20.8949 443.099Z" stroke="#0A2E4E" stroke-width="6.18659" stroke-linecap="round" stroke-linejoin="round" stroke-miterlimit="3" fill="#FFFFFF" fill-rule="evenodd" transform="matrix(0.77105 -0.639879 0.646988 0.762578 565.562 94.5709)"/><path d="M0 442.174C13.1031 438.729 26.8744 438.729 39.9776 442.174" stroke="#0A2E4E" stroke-width="6.17367" stroke-linecap="round" stroke-linejoin="round" stroke-miterlimit="3" fill="#FFFFFF" fill-rule="evenodd" transform="matrix(0.472424 0.881371 -0.891163 0.467233 1255.87 217.47)"/><path d="M20.8949 443.099C23.3642 443.096 25.3655 441.096 25.3681 438.626 25.3655 436.156 23.3642 434.156 20.8949 434.153L4.47315 434.153C2.00379 434.156 0.00263264 436.156 7.23038e-08 438.626 0.00263264 441.096 2.00379 443.096 4.47315 443.099L20.8949 443.099Z" stroke="#0A2E4E" stroke-width="6.18659" stroke-linecap="round" stroke-linejoin="round" stroke-miterlimit="3" fill="#FFFFFF" fill-rule="evenodd" transform="matrix(-0.77105 -0.639879 -0.646988 0.762578 1239.2 63.1552)"/><path d="M0 442.174C13.1031 438.729 26.8744 438.729 39.9776 442.174" stroke="#0A2E4E" stroke-width="6.17367" stroke-linecap="round" stroke-linejoin="round" stroke-miterlimit="3" fill="#FFFFFF" fill-rule="evenodd" transform="matrix(-0.472424 0.881371 0.891163 0.467233 548.891 186.054)"/><path d="M20.8949 443.099C23.3642 443.096 25.3655 441.096 25.3681 438.626 25.3655 436.156 23.3642 434.156 20.8949 434.153L4.47315 434.153C2.00379 434.156 0.00263264 436.156 7.23038e-08 438.626 0.00263264 441.096 2.00379 443.096 4.47315 443.099L20.8949 443.099Z" stroke="#0A2E4E" stroke-width="6.18659" stroke-linecap="round" stroke-linejoin="round" stroke-miterlimit="3" fill="#FFFFFF" fill-rule="evenodd" transform="matrix(-0.77105 -0.639879 -0.646988 0.762578 1257.44 94.5709)"/><path d="M0 442.174C13.1031 438.729 26.8744 438.729 39.9776 442.174" stroke="#0A2E4E" stroke-width="6.17367" stroke-linecap="round" stroke-linejoin="round" stroke-miterlimit="3" fill="#FFFFFF" fill-rule="evenodd" transform="matrix(-0.472424 0.881371 0.891163 0.467233 567.134 217.47)"/><path d="M75.9258 352.157C31.1578 355.088-2.75772 393.756 0.173229 438.524 0.224778 439.31 0.2878 440.098 0.362269 440.883 40.0081 443.967 74.647 414.327 77.7304 374.681 78.318 367.125 77.709 359.523 75.9258 352.157Z" stroke="#0A2E4E" stroke-width="6.1586" stroke-linecap="round" stroke-linejoin="round" stroke-miterlimit="3" fill="#FFFFFF" fill-rule="evenodd" transform="matrix(1.01111 0 0 1 925.886 85.0717)"/><path d="M75.9258 352.157C31.1578 355.088-2.75772 393.756 0.173229 438.524 0.224778 439.31 0.2878 440.098 0.362269 440.883 40.0081 443.967 74.647 414.327 77.7304 374.681 78.318 367.125 77.709 359.523 75.9258 352.157Z" stroke="#0A2E4E" stroke-width="6.1586" stroke-linecap="round" stroke-linejoin="round" stroke-miterlimit="3" fill="#FFFFFF" fill-rule="evenodd" transform="matrix(-1.01111 0 0 1 897.114 85.0717)"/><path d="M41.6007 260.669C41.307 267.342 38.5916 273.68 33.9629 278.495 21.9936 289.247 12.4443 302.419 5.94727 317.138-1.97516 334.975-1.97516 355.331 5.94727 373.169L41.6007 441.095 77.2693 373.169C85.1917 355.331 85.1917 334.975 77.2693 317.138 70.7723 302.419 61.223 289.247 49.2537 278.495 44.6193 273.682 41.8985 267.344 41.6007 260.669Z" stroke="#0A2E4E" stroke-width="6.1586" stroke-linecap="round" stroke-linejoin="round" stroke-miterlimit="3" fill="#FFFFFF" fill-rule="evenodd" transform="matrix(1.01111 0 0 1 869.433 113.94)"/><path d="M2.55099 321.379C2.09398 329.865 5.16395 338.163 11.0342 344.308 26.2631 367.016 26.9286 396.499 12.7398 419.871 6.46386 425.511 2.02562 432.904-6.33395e-07 441.095" stroke="#0A2E4E" stroke-width="3.26043" stroke-linecap="round" stroke-linejoin="round" stroke-miterlimit="3" fill="#FFFFFF" fill-rule="evenodd" transform="matrix(1.01111 0 0 1 912.445 83.3735)"/><path d="M0 356.61C8.45408 332.142 24.1468 310.821 44.997 295.477 64.0378 285.551 87.52 292.939 97.4461 311.981 97.8171 312.692 98.1659 313.415 98.4923 314.149 110.057 333.885 111.014 358.091 101.043 378.678 92.7894 391.993 96.8927 409.479 110.208 417.733 114.844 420.607 120.209 422.083 125.663 421.985 108.982 443.516 78.0048 447.448 56.4733 430.768 39.8985 417.927 33.2548 396.01 39.9101 376.127 48.4408 363.845 53.4328 349.454 54.3406 334.527 54.9374 329.325 51.2051 324.626 46.0043 324.028 42.6699 323.646 39.3817 325.056 37.3591 327.734 22.3154 343.869 12.0288 363.852 7.63787 385.471 4.3597 376.059 1.8063 366.411-8.63721e-08 356.61Z" stroke="#0A2E4E" stroke-width="6.1586" stroke-linecap="round" stroke-linejoin="round" stroke-miterlimit="3" fill="#FFFFFF" fill-rule="evenodd" transform="matrix(1.01111 0 0 1 911.715 195.026)"/><path d="M0 441.741C9.19946 432.986 23.6492 432.986 32.8487 441.741" stroke="#0A2E4E" stroke-width="6.16763" stroke-linecap="round" stroke-linejoin="round" stroke-miterlimit="3" fill="#FFFFFF" fill-rule="evenodd" transform="matrix(0.365936 0.93064 -0.940979 0.361915 1369.88 346.342)"/><path d="M0 356.61C8.45408 332.142 24.1468 310.821 44.997 295.477 64.0378 285.551 87.52 292.939 97.4461 311.981 97.8171 312.692 98.1659 313.415 98.4923 314.149 110.057 333.885 111.014 358.091 101.043 378.678 92.7894 391.993 96.8927 409.479 110.208 417.733 114.844 420.607 120.209 422.083 125.663 421.985 108.982 443.516 78.0048 447.448 56.4733 430.768 39.8985 417.927 33.2548 396.01 39.9101 376.127 48.4408 363.845 53.4328 349.454 54.3406 334.527 54.9374 329.325 51.2051 324.626 46.0043 324.028 42.6699 323.646 39.3817 325.056 37.3591 327.734 22.3154 343.869 12.0288 363.852 7.63787 385.471 4.3597 376.059 1.8063 366.411-8.63721e-08 356.61Z" stroke="#0A2E4E" stroke-width="6.1586" stroke-linecap="round" stroke-linejoin="round" stroke-miterlimit="3" fill="#FFFFFF" fill-rule="evenodd" transform="matrix(-1.01111 0 0 1 911.286 195.026)"/><path d="M0 441.741C9.19946 432.986 23.6492 432.986 32.8487 441.741" stroke="#0A2E4E" stroke-width="6.16763" stroke-linecap="round" stroke-linejoin="round" stroke-miterlimit="3" fill="#FFFFFF" fill-rule="evenodd" transform="matrix(-0.365936 0.93064 0.940979 0.361915 453.118 346.342)"/><path d="M0 412.083C3.08502 403.959 10.8426 398.562 19.5324 398.498 30.8449 396.199 38.1515 385.163 35.8519 373.851 35.7962 373.576 35.7351 373.305 35.6685 373.033 26.4939 356.9 32.1351 336.383 48.2683 327.209 50.9702 325.672 53.8723 324.519 56.8916 323.779 49.3984 334.626 48.7367 348.794 55.1859 360.293 69.4181 387.154 59.1805 420.466 32.3197 434.699 23.1818 439.54 12.8649 441.71 2.55099 440.959L0 412.083Z" stroke="#0A2E4E" stroke-width="6.1586" stroke-linecap="round" stroke-linejoin="round" stroke-miterlimit="3" fill="#FFFFFF" fill-rule="evenodd" transform="matrix(-1.01111 0 0 1 908.199 321.683)"/><path d="M0 412.083C3.08502 403.959 10.8426 398.562 19.5324 398.498 30.8449 396.199 38.1515 385.163 35.8519 373.851 35.7962 373.576 35.7351 373.305 35.6685 373.033 26.4939 356.9 32.1351 336.383 48.2683 327.209 50.9702 325.672 53.8723 324.519 56.8916 323.779 49.3984 334.626 48.7367 348.794 55.1859 360.293 69.4181 387.154 59.1805 420.466 32.3197 434.699 23.1818 439.54 12.8649 441.71 2.55099 440.959L0 412.083Z" stroke="#0A2E4E" stroke-width="6.1586" stroke-linecap="round" stroke-linejoin="round" stroke-miterlimit="3" fill="#FFFFFF" fill-rule="evenodd" transform="matrix(1.01111 0 0 1 913.943 321.683)"/><path d="M0 217.792 15.2833 217.792 15.2833 441.099 0 441.099Z" stroke="#0A2E4E" stroke-width="6.1586" stroke-linecap="round" stroke-linejoin="round" stroke-miterlimit="3" fill="#FFFFFF" fill-rule="evenodd" transform="matrix(1.01111 0 0 1 903.774 362.293)"/><path d="M26.325 441.095C40.9151 438.509 51.1844 425.306 50.099 410.528 49.4572 405.843 50.3523 401.076 52.65 396.943 44.6178 399.445 38.3906 405.832 36.0912 413.924 35.6639 404.606 32.2384 395.675 26.325 388.46 20.4115 395.675 16.9861 404.606 16.5588 413.924 14.2593 405.832 8.03209 399.445-2.476e-06 396.943 2.29773 401.076 3.19284 405.843 2.55099 410.528 1.46557 425.306 11.7349 438.509 26.325 441.095Z" stroke="#0A2E4E" stroke-width="6.1586" stroke-linecap="round" stroke-linejoin="round" stroke-miterlimit="3" fill="#FFFFFF" fill-rule="evenodd" transform="matrix(1.01111 0 0 1 884.887 166.793)"/></g></g></g></svg>